<?xml version="1.0" standalone="no"?>
<!DOCTYPE svg PUBLIC "-//W3C//DTD SVG 1.1//EN" "http://www.w3.org/Graphics/SVG/1.1/DTD/svg11.dtd" >
<svg xmlns="http://www.w3.org/2000/svg">
    <defs>
        <font id="Lato-HairlineItalic">
            <font-face font-family="Lato-HairlineItalic"
                       units-per-em="2000"
                       ascent="1974"
                       descent="-426"
                       bbox="-919 -518 2572 2069"
                    />
            <missing-glyph horiz-adv-x="0" />
            
            <glyph glyph-name="!" unicode="&#x21;" horiz-adv-x="333" d=" M333,1400 L263,828 Q257,784 252,745.5 Q247,707 241,667 Q235,627 228.5,581 Q222,535 213,476 L197,476 Q203,535 207.5,581 Q212,627 216.5,667 Q221,707 225.5,745.5 Q230,784 235,828 L305,1400 M101,48 Q101,75 119.5,94.5 Q138,114 165,114 Q192,114 211.5,94.5 Q231,75 231,48 Q231,21 211.5,2.5 Q192,-16 165,-16 Q138,-16 119.5,2.5 Q101,21 101,48"/> 
            <glyph glyph-name="&quot;" unicode="&#x22;" horiz-adv-x="518" d=" M212,946 M284,1400 L248,1106 L228,954 Q228,946 220,946 Q212,946 212,954 L228,1106 L266,1400 M518,1400 L482,1106 L462,954 Q462,946 454,946 Q446,946 446,954 L462,1106 L500,1400"/> 
            <glyph glyph-name="#" unicode="&#x23;" horiz-adv-x="1099" d=" M701,460 L543,0 L537,0 Q529,0 525.5,2.5 Q522,5 527,16 L679,460 L337,460 L185,16 Q180,0 167,0 L157,0 L315,460 L101,460 Q95,460 91,463 Q87,466 89,472 L89,478 L320,478 L473,922 L201,922 L201,928 Q201,934 206,937 Q211,940 217,940 L477,940 L631,1384 Q636,1400 651,1400 L659,1400 L499,940 L841,940 L1001,1400 L1011,1400 Q1017,1400 1019.5,1395.5 Q1022,1391 1017,1380 L863,940 L1099,940 L1097,934 Q1097,922 1083,922 L859,922 L706,478 L971,478 Q985,478 985,466 L983,460 M342,478 L684,478 L837,922 L495,922"/> 
            <glyph glyph-name="$" unicode="&#x24;" horiz-adv-x="1019" d=" M474,-16 Q404,-16 350,-3.5 Q296,9 252.5,32.5 Q209,56 174,89.5 Q139,123 109,166 L113,170 Q118,173 120,174.5 Q122,176 127,176 Q133,176 143,163.5 Q153,151 170,132 Q187,113 212.5,90.5 Q238,68 275,49 Q312,30 361.5,17 Q411,4 477,4 L592,732 Q533,752 478.5,775 Q424,798 381,832.5 Q338,867 312.5,916 Q287,965 287,1036 Q287,1110 315.5,1178 Q344,1246 397,1298 Q450,1350 526.5,1382 Q603,1414 699,1416 L729,1602 Q732,1618 743,1618 L753,1618 L721,1416 Q818,1414 889,1381 Q960,1348 1019,1278 L1015,1272 Q1012,1266 1005,1266 Q999,1266 990,1275.5 Q981,1285 967,1299 Q953,1313 932,1329.5 Q911,1346 881.5,1360.5 Q852,1375 811.5,1385 Q771,1395 718,1396 L615,748 Q678,726 740,702 Q802,678 851,643.5 Q900,609 930.5,558.5 Q961,508 961,432 Q961,343 928.5,263 Q896,183 835,122.5 Q774,62 688,25 Q602,-12 495,-15 L457,-258 Q457,-274 443,-274 L433,-274 M937,428 Q937,499 909,546.5 Q881,594 835,627 Q789,660 731,682 Q673,704 612,725 L498,4 Q599,7 680,43 Q761,79 818,136.5 Q875,194 906,269.5 Q937,345 937,428 M309,1040 Q309,975 332.5,930 Q356,885 396,853 Q436,821 487.5,798 Q539,775 595,755 L696,1395 Q605,1393 533,1363.5 Q461,1334 411.5,1285 Q362,1236 335.5,1172.5 Q309,1109 309,1040"/> 
            <glyph glyph-name="%" unicode="&#x25;" horiz-adv-x="1277" d=" M685,1130 Q685,1023 659.5,945 Q634,867 591.5,815.5 Q549,764 493.5,739 Q438,714 379,714 Q332,714 291.5,731.5 Q251,749 221.5,784.5 Q192,820 175.5,873.5 Q159,927 159,998 Q159,1104 184,1183 Q209,1262 251,1313.5 Q293,1365 348.5,1390.5 Q404,1416 465,1416 Q511,1416 551.5,1398.5 Q592,1381 621.5,1345 Q651,1309 668,1255.5 Q685,1202 685,1130 M663,1130 Q663,1198 647.5,1248.5 Q632,1299 605,1332 Q578,1365 541.5,1381.5 Q505,1398 463,1398 Q407,1398 356,1374.5 Q305,1351 265.5,1301.5 Q226,1252 202.5,1176.5 Q179,1101 179,998 Q179,930 194.5,880 Q210,830 237,797 Q264,764 301,748 Q338,732 381,732 Q436,732 487,755.5 Q538,779 577,827.5 Q616,876 639.5,951 Q663,1026 663,1130 M1237,1392 Q1245,1400 1255,1400 L1269,1400 L187,8 Q182,0 171,0 L157,0 M1277,400 Q1277,293 1251.5,215 Q1226,137 1183.5,85.5 Q1141,34 1085.5,9 Q1030,-16 971,-16 Q924,-16 883.5,1.5 Q843,19 813.5,54.5 Q784,90 767.5,143.5 Q751,197 751,268 Q751,374 776,453 Q801,532 843,583.5 Q885,635 940.5,660.5 Q996,686 1057,686 Q1103,686 1143.5,668.5 Q1184,651 1213.5,615 Q1243,579 1260,525.5 Q1277,472 1277,400 M1255,400 Q1255,468 1239.5,518.5 Q1224,569 1197,602 Q1170,635 1133.5,651.5 Q1097,668 1055,668 Q999,668 948,644.5 Q897,621 857.5,571.5 Q818,522 794.5,446.5 Q771,371 771,268 Q771,200 786.5,150 Q802,100 829,67 Q856,34 893,18 Q930,2 973,2 Q1028,2 1079,25.5 Q1130,49 1169,97.5 Q1208,146 1231.5,221 Q1255,296 1255,400"/> 
            <glyph glyph-name="&amp;" unicode="&#x26;" horiz-adv-x="1157" d=" M705,1416 Q758,1416 804.5,1398 Q851,1380 885.5,1345.5 Q920,1311 940,1262 Q960,1213 960,1152 L951,1152 Q946,1152 942.5,1155.5 Q939,1159 939,1168 Q939,1199 926.5,1238.5 Q914,1278 886.5,1313 Q859,1348 814,1372 Q769,1396 705,1396 Q634,1396 575.5,1372 Q517,1348 474.5,1305 Q432,1262 408.5,1203 Q385,1144 385,1074 Q385,994 422,913.5 Q459,833 527,752 L907,298 Q964,377 1001,459 Q1038,541 1052,610 Q1055,622 1067,622 L1077,622 Q1066,547 1026,458 Q986,369 921,282 L1157,0 L1141,0 Q1132,0 1126.5,1 Q1121,2 1113,10 L905,261 Q860,204 805,153.5 Q750,103 686,65.5 Q622,28 550.5,6 Q479,-16 401,-16 Q341,-16 284,5 Q227,26 183,66.5 Q139,107 112,165.5 Q85,224 85,300 Q85,384 116.5,459 Q148,534 201.5,595.5 Q255,657 326.5,703.5 Q398,750 478,777 Q420,852 390.5,920.5 Q361,989 361,1066 Q361,1143 387,1207.5 Q413,1272 459,1318.5 Q505,1365 568,1390.5 Q631,1416 705,1416 M405,4 Q480,4 549.5,25.5 Q619,47 680.5,84.5 Q742,122 795,171.5 Q848,221 891,277 L511,736 Q506,742 500.5,748.5 Q495,755 490,761 Q410,734 341,689 Q272,644 220,584 Q168,524 138.5,452.5 Q109,381 109,302 Q109,227 136.5,171 Q164,115 207,78 Q250,41 302.5,22.5 Q355,4 405,4"/> 
            <glyph glyph-name="'" unicode="&#x27;" horiz-adv-x="284" d=" M284,1400 L248,1106 L228,954 Q228,946 220,946 Q212,946 212,954 L228,1106 L266,1400"/> 
            <glyph glyph-name="(" unicode="&#x28;" horiz-adv-x="513" d=" M148,458 Q148,375 157.5,287.5 Q167,200 185.5,113 Q204,26 232,-58 Q260,-142 298,-218 Q303,-224 301,-228 Q299,-232 296,-234 L286,-240 Q199,-60 161.5,117 Q124,294 124,450 Q124,529 128,605.5 Q132,682 145,759.5 Q158,837 183,918.5 Q208,1000 249.5,1090.5 Q291,1181 352.5,1283 Q414,1385 500,1504 L510,1498 Q512,1496 512.5,1492 Q513,1488 508,1482 Q417,1358 349.5,1243.5 Q282,1129 237,1009 Q192,889 170,755 Q148,621 148,458"/> 
            <glyph glyph-name=")" unicode="&#x29;" horiz-adv-x="365" d=" M343,806 Q343,889 333.5,976.5 Q324,1064 304.5,1151 Q285,1238 256.5,1321.5 Q228,1405 191,1482 Q185,1494 193,1498 L205,1504 Q291,1323 328,1147 Q365,971 365,814 Q365,735 361,658.5 Q357,582 344.5,504.5 Q332,427 307,345.5 Q282,264 240.5,173.5 Q199,83 138,-19.5 Q77,-122 -9,-240 L-19,-234 Q-26,-230 -17,-218 Q74,-94 141.5,27 Q209,148 254,272.5 Q299,397 321,528.5 Q343,660 343,806"/> 
            <glyph glyph-name="*" unicode="&#x2A;" horiz-adv-x="709" d=" M417,926 L445,1154 Q447,1165 448.5,1172.5 Q450,1180 457,1196 Q443,1184 437,1180 Q431,1176 421,1170 L221,1052 L213,1070 L413,1188 Q423,1193 430.5,1195.5 Q438,1198 454,1203 Q446,1206 440.5,1208 Q435,1210 431.5,1211.5 Q428,1213 424.5,1215 Q421,1217 417,1220 L245,1338 L257,1356 L429,1238 Q438,1232 441.5,1226.5 Q445,1221 459,1208 Q457,1226 456,1234 Q455,1242 457,1254 L485,1482 L505,1482 L477,1254 Q475,1242 473,1234 Q471,1226 465,1208 Q479,1222 485.5,1227 Q492,1232 503,1238 L703,1356 L709,1338 L509,1220 Q499,1214 491.5,1210.5 Q484,1207 470,1203 Q484,1198 490,1195.5 Q496,1193 505,1188 L679,1070 L667,1052 L495,1170 Q484,1175 480,1178.5 Q476,1182 465,1195 Q465,1179 466,1172 Q467,1165 465,1154 L437,926"/> 
            <glyph glyph-name="+" unicode="&#x2B;" horiz-adv-x="1052" d=" M658,1150 L600,680 L1052,680 L1050,660 L598,660 L540,188 L520,188 L578,660 L128,660 L130,680 L580,680 L638,1150"/> 
            <glyph glyph-name="," unicode="&#x2C;" horiz-adv-x="194" d=" M72,52 Q72,76 88.5,95 Q105,114 132,114 Q159,114 176.5,94 Q194,74 194,36 Q194,-41 160.5,-112.5 Q127,-184 76,-238 L72,-234 Q70,-232 70,-230 Q70,-228 70,-226 Q70,-222 86,-202 Q102,-182 121,-150.5 Q140,-119 156.5,-78 Q173,-37 174,11 Q157,-8 128,-8 Q104,-8 88,8.5 Q72,25 72,52"/> 
            <glyph glyph-name="-" unicode="&#x2D;" horiz-adv-x="562" d=" M158,598 L562,598 L560,578 L154,578"/> 
            <glyph glyph-name="." unicode="&#x2E;" horiz-adv-x="227" d=" M97,48 Q97,75 115.5,94.5 Q134,114 161,114 Q188,114 207.5,94.5 Q227,75 227,48 Q227,21 207.5,2.5 Q188,-16 161,-16 Q134,-16 115.5,2.5 Q97,21 97,48"/> 
            <glyph glyph-name="/" unicode="&#x2F;" horiz-adv-x="805" d=" M31,-66 Q28,-74 21.5,-76 Q15,-78 9,-78 L1,-78 L775,1428 Q781,1440 795,1440 L805,1440"/> 
            <glyph glyph-name="0" unicode="&#x30;" horiz-adv-x="1061" d=" M1061,853 Q1061,632 1014.5,469 Q968,306 891,198.5 Q814,91 713.5,38.5 Q613,-14 505,-14 Q424,-14 354.5,21 Q285,56 233.5,126 Q182,196 153,301.5 Q124,407 124,548 Q124,768 170.5,931 Q217,1094 294,1202 Q371,1310 471.5,1363 Q572,1416 680,1416 Q761,1416 830.5,1381 Q900,1346 951.5,1275.5 Q1003,1205 1032,1099.5 Q1061,994 1061,853 M1035,854 Q1035,990 1008,1092 Q981,1194 933,1261.5 Q885,1329 819.5,1362.5 Q754,1396 678,1396 Q576,1396 480,1345 Q384,1294 310.5,1189 Q237,1084 192.5,924.5 Q148,765 148,548 Q148,411 175.5,309 Q203,207 251.5,139.5 Q300,72 365.5,39 Q431,6 507,6 Q610,6 705,57 Q800,108 873.5,212.5 Q947,317 991,476.5 Q1035,636 1035,854"/> 
            <glyph glyph-name="1" unicode="&#x31;" horiz-adv-x="884" d=" M243,20 L555,20 L714,1316 Q717,1342 725,1373 L353,1046 Q342,1036 334,1046 L329,1054 L735,1408 L750,1408 L579,20 L884,20 L881,0 L240,0"/> 
            <glyph glyph-name="2" unicode="&#x32;" horiz-adv-x="1006" d=" M692,1416 Q753,1416 809.5,1397.5 Q866,1379 909.5,1340.5 Q953,1302 979.5,1243 Q1006,1184 1006,1102 Q1006,1010 977,933.5 Q948,857 899.5,789 Q851,721 786.5,656 Q722,591 651,522 L134,18 Q154,20 180,21 Q206,22 238,22 L901,22 Q912,22 910,12 L908,0 L101,0 L103,10 Q103,15 106.5,18.5 Q110,22 112,24 L638,536 Q708,605 771,669.5 Q834,734 880.5,801 Q927,868 954.5,941 Q982,1014 982,1100 Q982,1176 957.5,1232 Q933,1288 892.5,1324.5 Q852,1361 799,1378.5 Q746,1396 689,1396 Q618,1396 555,1372 Q492,1348 441,1304.5 Q390,1261 352.5,1201 Q315,1141 295,1068 Q291,1052 278,1052 L267,1052 Q288,1136 328,1203.5 Q368,1271 423.5,1318 Q479,1365 547,1390.5 Q615,1416 692,1416"/> 
            <glyph glyph-name="3" unicode="&#x33;" horiz-adv-x="999" d=" M690,1416 Q751,1416 807,1398.5 Q863,1381 905.5,1344.5 Q948,1308 973.5,1251 Q999,1194 999,1116 Q999,1032 969.5,964 Q940,896 892,845.5 Q844,795 783,763.5 Q722,732 660,722 Q732,715 786,689.5 Q840,664 876.5,623.5 Q913,583 931.5,530 Q950,477 950,416 Q950,329 914.5,250.5 Q879,172 818,113 Q757,54 674.5,19 Q592,-16 498,-16 Q420,-16 364,1 Q308,18 268.5,45.5 Q229,73 204.5,109.5 Q180,146 165.5,185 Q151,224 144,263 Q137,302 134,336 L139,338 Q142,340 150,339.5 Q158,339 160,324 Q161,317 164,291 Q167,265 177,229.5 Q187,194 207.5,154.5 Q228,115 265.5,81.5 Q303,48 360,26 Q417,4 500,4 Q601,4 680.5,42 Q760,80 814.5,140 Q869,200 897.5,272.5 Q926,345 926,414 Q926,476 905,530 Q884,584 839.5,624.5 Q795,665 725,688 Q655,711 557,712 L559,728 Q652,731 728.5,760 Q805,789 859.5,839 Q914,889 944.5,959 Q975,1029 975,1114 Q975,1187 951.5,1240.5 Q928,1294 888.5,1328.5 Q849,1363 797,1379.5 Q745,1396 688,1396 Q616,1396 553,1372 Q490,1348 438.5,1304.5 Q387,1261 349.5,1201 Q312,1141 292,1068 Q287,1052 276,1052 L266,1052 Q287,1136 327,1203.5 Q367,1271 422,1318 Q477,1365 545,1390.5 Q613,1416 690,1416"/> 
            <glyph glyph-name="4" unicode="&#x34;" horiz-adv-x="1034" d=" M763,452 L1034,452 L1033,444 Q1031,432 1017,432 L760,432 L707,0 L686,0 L739,432 L99,432 Q89,432 86.5,434.5 Q84,437 83,442 L82,450 L865,1402 L880,1402 M848,1322 Q849,1338 854,1357 L110,452 L741,452"/> 
            <glyph glyph-name="5" unicode="&#x35;" horiz-adv-x="1012" d=" M1010,1390 Q1010,1385 1005.5,1381.5 Q1001,1378 995,1378 L477,1378 L315,823 Q387,843 450.5,852 Q514,861 569,861 Q659,861 726.5,835 Q794,809 839,762 Q884,715 906.5,650 Q929,585 929,507 Q929,382 887.5,285 Q846,188 777.5,121 Q709,54 620.5,19 Q532,-16 438,-16 Q388,-16 343,-7 Q298,2 260,16.5 Q222,31 190.5,49.5 Q159,68 137,88 L144,96 Q148,102 157,102 Q164,102 184,87.5 Q204,73 239,55 Q274,37 324,22.5 Q374,8 441,8 Q531,8 614.5,40.5 Q698,73 762,137 Q826,201 864.5,294 Q903,387 903,509 Q903,580 883,641 Q863,702 822,746.5 Q781,791 717.5,816 Q654,841 566,841 Q511,841 446,831.5 Q381,822 305,802 L289,810 L459,1400 L1012,1400"/> 
            <glyph glyph-name="6" unicode="&#x36;" horiz-adv-x="966" d=" M409,836 Q352,764 311,706 Q270,648 243,594 Q274,646 317,687.5 Q360,729 410.5,758 Q461,787 517,802.5 Q573,818 630,818 Q709,818 771.5,791 Q834,764 877.5,716.5 Q921,669 943.5,603.5 Q966,538 966,461 Q966,354 930,266.5 Q894,179 831,116 Q768,53 683,18.5 Q598,-16 500,-16 Q424,-16 362,9.5 Q300,35 256,83 Q212,131 188,200.5 Q164,270 164,359 Q164,414 176.5,469 Q189,524 216.5,582.5 Q244,641 287,706 Q330,771 390,846 L830,1394 Q833,1399 836.5,1399.5 Q840,1400 843,1400 L863,1400 M187,357 Q187,281 208.5,216.5 Q230,152 270.5,104.5 Q311,57 369.5,30.5 Q428,4 502,4 Q602,4 683.5,38.5 Q765,73 822.5,134 Q880,195 911.5,279 Q943,363 943,461 Q943,538 921,600 Q899,662 858,706 Q817,750 759,774 Q701,798 629,798 Q528,798 446.5,759 Q365,720 307.5,657 Q250,594 218.5,515 Q187,436 187,357"/> 
            <glyph glyph-name="7" unicode="&#x37;" horiz-adv-x="1107" d=" M1107,1400 L1106,1388 Q1105,1385 1103.5,1381 Q1102,1377 1100,1374 L294,12 Q286,0 271,0 L259,0 L1067,1364 L1077,1378 L275,1378 Q263,1378 265,1390 L266,1400"/> 
            <glyph glyph-name="8" unicode="&#x38;" horiz-adv-x="998" d=" M505,-16 Q423,-16 356,7 Q289,30 241.5,72.5 Q194,115 168,175.5 Q142,236 142,311 Q142,412 173,486 Q204,560 255,611 Q306,662 372.5,691 Q439,720 510,731 Q453,744 409.5,771.5 Q366,799 336.5,837.5 Q307,876 292,924 Q277,972 277,1026 Q277,1106 305.5,1177 Q334,1248 387,1301 Q440,1354 514,1385 Q588,1416 680,1416 Q757,1416 816.5,1392 Q876,1368 916.5,1326 Q957,1284 977.5,1228.5 Q998,1173 998,1110 Q998,1039 976,976 Q954,913 913,863.5 Q872,814 813.5,779.5 Q755,745 682,731 Q738,721 788.5,697.5 Q839,674 877,635 Q915,596 937.5,540 Q960,484 960,410 Q960,310 925,231 Q890,152 829,97 Q768,42 685,13 Q602,-16 505,-16 M507,4 Q597,4 675.5,32 Q754,60 812,112.5 Q870,165 903,240 Q936,315 936,409 Q936,471 920.5,518 Q905,565 878.5,599.5 Q852,634 817.5,657.5 Q783,681 745,694.5 Q707,708 668,714 Q629,720 595,720 Q555,720 507.5,712.5 Q460,705 412.5,687.5 Q365,670 320.5,640 Q276,610 241.5,565 Q207,520 186.5,458.5 Q166,397 166,315 Q166,244 190.5,187 Q215,130 260,89 Q305,48 367.5,26 Q430,4 507,4 M597,740 Q689,740 759.5,771 Q830,802 877.5,853.5 Q925,905 949.5,971.5 Q974,1038 974,1109 Q974,1170 954.5,1223 Q935,1276 897,1314 Q859,1352 804,1374 Q749,1396 678,1396 Q593,1396 523.5,1368 Q454,1340 404.5,1290.5 Q355,1241 328,1173.5 Q301,1106 301,1028 Q301,972 318.5,920 Q336,868 372.5,828 Q409,788 465,764 Q521,740 597,740"/> 
            <glyph glyph-name="9" unicode="&#x39;" horiz-adv-x="1006" d=" M771,596 Q825,668 866,725 Q907,782 936,839 Q906,787 864,745.5 Q822,704 772.5,674.5 Q723,645 668,629.5 Q613,614 558,614 Q481,614 421,640 Q361,666 319,712 Q277,758 255,821 Q233,884 233,958 Q233,1058 269,1142 Q305,1226 366.5,1287 Q428,1348 509.5,1382 Q591,1416 683,1416 Q755,1416 814.5,1389.5 Q874,1363 916.5,1314.5 Q959,1266 982.5,1198.5 Q1006,1131 1006,1049 Q1006,985 992,931.5 Q978,878 950.5,825.5 Q923,773 882.5,715.5 Q842,658 788,586 L359,6 Q355,1 352,0.5 Q349,0 346,0 L326,0 M983,1055 Q983,1128 961.5,1190.5 Q940,1253 900,1299 Q860,1345 804.5,1370.5 Q749,1396 681,1396 Q591,1396 513.5,1364 Q436,1332 379,1274.5 Q322,1217 289.5,1136 Q257,1055 257,957 Q257,883 278.5,823.5 Q300,764 339.5,722 Q379,680 435,657 Q491,634 560,634 Q656,634 734,671.5 Q812,709 867.5,769.5 Q923,830 953,905 Q983,980 983,1055"/> 
            <glyph glyph-name=":" unicode="&#x3A;" horiz-adv-x="322" d=" M98,0 M98,48 Q98,75 116.5,94.5 Q135,114 162,114 Q189,114 208.5,94.5 Q228,75 228,48 Q228,21 208.5,2.5 Q189,-16 162,-16 Q135,-16 116.5,2.5 Q98,21 98,48 M192,886 Q192,913 210.5,932.5 Q229,952 256,952 Q283,952 302.5,932.5 Q322,913 322,886 Q322,859 302.5,840.5 Q283,822 256,822 Q229,822 210.5,840.5 Q192,859 192,886"/> 
            <glyph glyph-name=";" unicode="&#x3B;" horiz-adv-x="331" d=" M109,0 M111,52 Q111,76 127.5,95 Q144,114 171,114 Q198,114 215.5,94 Q233,74 233,36 Q233,-41 199.5,-112.5 Q166,-184 115,-238 L111,-234 Q109,-232 109,-230 Q109,-228 109,-226 Q109,-222 125,-202 Q141,-182 160,-150.5 Q179,-119 195.5,-78 Q212,-37 213,11 Q196,-8 167,-8 Q143,-8 127,8.5 Q111,25 111,52 M201,886 Q201,913 219.5,932.5 Q238,952 265,952 Q292,952 311.5,932.5 Q331,913 331,886 Q331,859 311.5,840.5 Q292,822 265,822 Q238,822 219.5,840.5 Q201,859 201,886"/> 
            <glyph glyph-name="&lt;" unicode="&#x3C;" horiz-adv-x="970" d=" M193,666 L193,668 L194,674 L195,676 L970,1048 L969,1037 Q968,1026 947,1016 L264,690 Q252,684 240,678.5 Q228,673 215,670 Q237,663 259,650 L862,324 Q880,314 879,303 L877,292 L193,664"/> 
            <glyph glyph-name="=" unicode="&#x3D;" horiz-adv-x="1004" d=" M168,540 L968,540 L966,520 L166,520 M204,834 L1004,834 L1002,814 L202,814"/> 
            <glyph glyph-name="&gt;" unicode="&#x3E;" horiz-adv-x="982" d=" M204,292 L206,303 Q207,310 211.5,314.5 Q216,319 227,324 L910,650 Q923,655 935,660.5 Q947,666 959,670 Q937,676 915,690 L312,1016 Q302,1021 298.5,1025.5 Q295,1030 296,1037 L297,1048 L982,676 L980,666 L980,664"/> 
            <glyph glyph-name="?" unicode="&#x3F;" horiz-adv-x="736" d=" M176,1279 Q201,1304 232.5,1329 Q264,1354 301.5,1373 Q339,1392 382,1404 Q425,1416 474,1416 Q526,1416 573.5,1398.5 Q621,1381 657,1348.5 Q693,1316 714.5,1269 Q736,1222 736,1164 Q736,1081 710.5,1021.5 Q685,962 646,917.5 Q607,873 560.5,840 Q514,807 473,777 Q432,747 402,716.5 Q372,686 366,648 L338,476 L322,476 L344,650 Q349,691 378,723 Q407,755 448,785 Q489,815 535.5,847.5 Q582,880 621,923 Q660,966 686,1023.5 Q712,1081 712,1162 Q712,1217 692.5,1260.5 Q673,1304 640,1334 Q607,1364 563.5,1380 Q520,1396 472,1396 Q405,1396 355,1376 Q305,1356 270,1332.5 Q235,1309 215,1289 Q195,1269 188,1269 Q184,1269 181,1273 M242,48 Q242,75 260.5,94.5 Q279,114 306,114 Q333,114 352.5,94.5 Q372,75 372,48 Q372,21 352.5,2.5 Q333,-16 306,-16 Q279,-16 260.5,2.5 Q242,21 242,48"/> 
            <glyph glyph-name="@" unicode="&#x40;" horiz-adv-x="1426" d=" M1038,190 Q990,190 960.5,206.5 Q931,223 916.5,252.5 Q902,282 902,324 Q902,366 914,417 Q853,302 777,249 Q701,196 618,196 Q576,196 545.5,211 Q515,226 495,252.5 Q475,279 465.5,314 Q456,349 456,390 Q456,449 472.5,510 Q489,571 520,628 Q551,685 595,735.5 Q639,786 694,823.5 Q749,861 813.5,882.5 Q878,904 950,904 Q988,904 1026.5,896.5 Q1065,889 1092,874 L968,538 Q930,432 923.5,367.5 Q917,303 932,268 Q947,233 977,221.5 Q1007,210 1042,210 Q1108,210 1173,247.5 Q1238,285 1289,356 Q1340,427 1372,529 Q1404,631 1404,760 Q1404,893 1362.5,991.5 Q1321,1090 1250.5,1155.5 Q1180,1221 1086,1253.5 Q992,1286 886,1286 Q793,1286 701,1258 Q609,1230 525.5,1177 Q442,1124 370.5,1048.5 Q299,973 247,877 Q195,781 165.5,667 Q136,553 136,424 Q136,270 182,151 Q228,32 307.5,-49 Q387,-130 495,-172 Q603,-214 728,-214 Q862,-214 985.5,-177.5 Q1109,-141 1222,-66 Q1228,-61 1232,-63 Q1236,-65 1238,-70 L1240,-82 Q1125,-159 998,-197.5 Q871,-236 726,-236 Q595,-236 483,-192.5 Q371,-149 289,-65.5 Q207,18 160.5,140 Q114,262 114,420 Q114,550 143.5,666.5 Q173,783 226,881.5 Q279,980 351.5,1058.5 Q424,1137 510,1192 Q596,1247 692,1276.5 Q788,1306 888,1306 Q997,1306 1094.5,1272 Q1192,1238 1265.5,1169.5 Q1339,1101 1382.5,998.5 Q1426,896 1426,760 Q1426,630 1393,525 Q1360,420 1305.5,345.5 Q1251,271 1181,230.5 Q1111,190 1038,190 M626,216 Q663,216 705,230 Q747,244 789,280.5 Q831,317 872,380.5 Q913,444 948,542 L1065,866 Q1038,875 1012,879.5 Q986,884 948,884 Q879,884 818,863 Q757,842 705,806 Q653,770 611.5,721.5 Q570,673 540.5,618.5 Q511,564 495.5,506.5 Q480,449 480,394 Q480,357 488.5,324.5 Q497,292 515,268 Q533,244 560.5,230 Q588,216 626,216"/> 
            <glyph glyph-name="A" unicode="&#x41;" horiz-adv-x="1064" d=" M1064,0 L1046,0 Q1037,0 1034,10 L913,478 L236,478 L0,10 Q-7,0 -16,0 L-32,0 L678,1400 L698,1400 M246,498 L908,498 L694,1326 Q691,1337 688.5,1346.5 Q686,1356 684,1367 Q679,1356 674,1346.5 Q669,1337 664,1326"/> 
            <glyph glyph-name="B" unicode="&#x42;" horiz-adv-x="1022" d=" M146,0 L318,1400 L654,1400 Q840,1400 931,1322.5 Q1022,1245 1022,1104 Q1022,1029 995,961.5 Q968,894 921,841 Q874,788 811.5,754.5 Q749,721 678,714 Q753,708 812.5,684 Q872,660 913,621 Q954,582 976,529 Q998,476 998,410 Q998,312 966,236 Q934,160 874,107.5 Q814,55 727.5,27.5 Q641,0 532,0 M256,700 L172,20 L534,20 Q637,20 718.5,45 Q800,70 857,119.5 Q914,169 944,241 Q974,313 974,408 Q974,475 949.5,529 Q925,583 879.5,621 Q834,659 768,679.5 Q702,700 620,700 M258,720 L580,720 Q691,720 770.5,755 Q850,790 901,845.5 Q952,901 976,968 Q1000,1035 1000,1100 Q1000,1232 914.5,1306 Q829,1380 652,1380 L340,1380"/> 
            <glyph glyph-name="C" unicode="&#x43;" horiz-adv-x="1242" d=" M658,4 Q737,4 801,17.5 Q865,31 915,52 Q965,73 1002,96.5 Q1039,120 1064,141 Q1089,162 1103.5,175.5 Q1118,189 1123,189 Q1125,189 1127,187 L1136,178 Q1090,135 1039,99.5 Q988,64 929.5,38.5 Q871,13 803,-1.5 Q735,-16 656,-16 Q539,-16 443,26.5 Q347,69 279,148 Q211,227 173.5,339 Q136,451 136,590 Q136,774 190.5,926.5 Q245,1079 341,1187.5 Q437,1296 567.5,1356 Q698,1416 850,1416 Q920,1416 975,1406 Q1030,1396 1076,1375.5 Q1122,1355 1162,1324 Q1202,1293 1242,1252 L1238,1246 Q1234,1242 1226,1242 Q1218,1242 1197,1266 Q1176,1290 1133.5,1319 Q1091,1348 1022,1372 Q953,1396 848,1396 Q703,1396 577.5,1339.5 Q452,1283 359,1178 Q266,1073 213,924 Q160,775 160,590 Q160,455 196.5,346.5 Q233,238 299,162 Q365,86 456.5,45 Q548,4 658,4"/> 
            <glyph glyph-name="D" unicode="&#x44;" horiz-adv-x="1298" d=" M1298,812 Q1298,621 1245.5,470.5 Q1193,320 1100.5,215.5 Q1008,111 881,55.5 Q754,0 606,0 L146,0 L318,1400 L778,1400 Q897,1400 993.5,1359.5 Q1090,1319 1157.5,1243 Q1225,1167 1261.5,1058 Q1298,949 1298,812 M1272,812 Q1272,945 1237,1050.5 Q1202,1156 1137.5,1229.5 Q1073,1303 981,1341.5 Q889,1380 776,1380 L340,1380 L172,20 L608,20 Q750,20 872,73 Q994,126 1082.5,227.5 Q1171,329 1221.5,476.5 Q1272,624 1272,812"/> 
            <glyph glyph-name="E" unicode="&#x45;" horiz-adv-x="1072" d=" M1072,1400 L1068,1378 L339,1378 L258,722 L878,722 L874,700 L256,700 L172,22 L904,22 L900,0 L146,0 L318,1400"/> 
            <glyph glyph-name="F" unicode="&#x46;" horiz-adv-x="1072" d=" M1068,1378 L339,1378 L256,702 L894,702 L890,680 L253,680 L170,0 L146,0 L318,1400 L1072,1400"/> 
            <glyph glyph-name="G" unicode="&#x47;" horiz-adv-x="1279" d=" M675,4 Q754,4 819.5,13.5 Q885,23 942,41.5 Q999,60 1051,86.5 Q1103,113 1157,147 L1211,582 L923,582 Q918,582 914.5,585.5 Q911,589 913,592 L913,602 L1235,602 L1177,138 Q1125,103 1070.5,74.5 Q1016,46 955,26 Q894,6 824.5,-5 Q755,-16 673,-16 Q548,-16 449,26.5 Q350,69 280.5,148 Q211,227 174,338.5 Q137,450 137,588 Q137,777 190,930 Q243,1083 339.5,1191 Q436,1299 570.5,1357.5 Q705,1416 869,1416 Q941,1416 999.5,1406.5 Q1058,1397 1107.5,1377.5 Q1157,1358 1199,1327.5 Q1241,1297 1279,1256 L1273,1250 Q1270,1244 1263,1244 Q1258,1244 1247.5,1255.5 Q1237,1267 1218,1283.5 Q1199,1300 1169.5,1320 Q1140,1340 1097.5,1356.5 Q1055,1373 998,1384.5 Q941,1396 867,1396 Q710,1396 580,1340 Q450,1284 357,1179.5 Q264,1075 212.5,925 Q161,775 161,588 Q161,454 197,346 Q233,238 300,162 Q367,86 462,45 Q557,4 675,4"/> 
            <glyph glyph-name="H" unicode="&#x48;" horiz-adv-x="1268" d=" M1096,0 L1072,0 L1158,700 L256,700 L170,0 L146,0 L318,1400 L342,1400 L258,722 L1160,722 L1244,1400 L1268,1400"/> 
            <glyph glyph-name="I" unicode="&#x49;" horiz-adv-x="342" d=" M170,0 L146,0 L318,1400 L342,1400"/> 
            <glyph glyph-name="J" unicode="&#x4A;" horiz-adv-x="658" d=" M536,412 Q522,296 487,214.5 Q452,133 400.5,81.5 Q349,30 282.5,6.5 Q216,-17 140,-16 Q86,-16 43.5,-8.5 Q1,-1 -38,14 L-36,20 Q-34,23 -32,26.5 Q-30,30 -22,30 Q-13,30 -1.5,26 Q10,22 28.5,17 Q47,12 74,8 Q101,4 142,4 Q207,4 267.5,24 Q328,44 377.5,91 Q427,138 462.5,216.5 Q498,295 512,412 L634,1400 L658,1400"/> 
            <glyph glyph-name="K" unicode="&#x4B;" horiz-adv-x="1164" d=" M259,724 L346,724 Q363,724 375.5,725 Q388,726 398.5,729.5 Q409,733 418.5,740 Q428,747 440,758 L1114,1384 Q1125,1395 1133,1397.5 Q1141,1400 1150,1400 L1164,1400 L460,748 Q442,732 430.5,724.5 Q419,717 402,714 Q418,711 428.5,703.5 Q439,696 450,682 L1028,0 L1018,0 Q1003,0 997.5,3 Q992,6 986,14 L434,664 Q425,674 418,682 Q411,690 402,694.5 Q393,699 379.5,701.5 Q366,704 344,704 L256,704 L170,0 L146,0 L318,1402 L342,1402"/> 
            <glyph glyph-name="L" unicode="&#x4C;" horiz-adv-x="830" d=" M172,22 L830,22 L826,0 L146,0 L318,1400 L342,1400"/> 
            <glyph glyph-name="M" unicode="&#x4D;" horiz-adv-x="1532" d=" M794,314 Q798,307 799,300 L808,314 L1510,1392 Q1515,1400 1524,1400 L1532,1400 L1360,0 L1340,0 L1504,1338 Q1504,1342 1506,1352 L814,290 Q807,280 800,280 L794,280 Q785,280 782,290 L331,1357 Q331,1352 331,1347.5 Q331,1343 330,1338 L166,0 L146,0 L318,1400 L326,1400 Q335,1400 340,1392 L794,314"/> 
            <glyph glyph-name="N" unicode="&#x4E;" horiz-adv-x="1268" d=" M326,1400 Q333,1400 338,1392 L1083,43 Q1083,48 1083,53.5 Q1083,59 1084,64 L1248,1400 L1268,1400 L1096,0 L1092,0 Q1085,0 1078,10 L332,1362 L330,1338 L166,0 L146,0 L318,1400 L326,1400"/> 
            <glyph glyph-name="O" unicode="&#x4F;" horiz-adv-x="1347" d=" M1347,814 Q1347,623 1294,470 Q1241,317 1148,209.5 Q1055,102 928,44 Q801,-14 653,-14 Q535,-14 440,28.5 Q345,71 277.5,149 Q210,227 173.5,338 Q137,449 137,586 Q137,712 161,823 Q185,934 229.5,1026 Q274,1118 336.5,1190.5 Q399,1263 476,1313 Q553,1363 642,1389.5 Q731,1416 829,1416 Q947,1416 1043,1373.5 Q1139,1331 1206.5,1252.5 Q1274,1174 1310.5,1062.5 Q1347,951 1347,814 M1321,814 Q1321,948 1286,1056 Q1251,1164 1186.5,1239.5 Q1122,1315 1030.5,1355.5 Q939,1396 827,1396 Q734,1396 648.5,1371 Q563,1346 489,1298 Q415,1250 354.5,1179.5 Q294,1109 251,1019.5 Q208,930 184.5,821.5 Q161,713 161,588 Q161,454 196.5,346 Q232,238 297,162.5 Q362,87 453,46.5 Q544,6 655,6 Q797,6 919,61.5 Q1041,117 1130.5,221.5 Q1220,326 1270.5,476 Q1321,626 1321,814"/> 
            <glyph glyph-name="P" unicode="&#x50;" horiz-adv-x="1002" d=" M243,600 L170,0 L146,0 L318,1400 L610,1400 Q803,1400 902.5,1316 Q1002,1232 1002,1064 Q1002,960 965,875 Q928,790 862,728.5 Q796,667 706.5,633.5 Q617,600 512,600 M339,1380 L246,620 L514,620 Q616,620 701,653.5 Q786,687 847.5,745.5 Q909,804 943.5,884.5 Q978,965 978,1060 Q978,1215 886,1297.5 Q794,1380 608,1380"/> 
            <glyph glyph-name="Q" unicode="&#x51;" horiz-adv-x="1347" d=" M1347,814 Q1347,678 1319.5,560.5 Q1292,443 1242,348 Q1192,253 1121.5,180.5 Q1051,108 965,62 L1257,-326 L1243,-326 Q1235,-326 1230.5,-323.5 Q1226,-321 1223,-318 L946,52 Q880,20 806.5,3 Q733,-14 653,-14 Q535,-14 440,28.5 Q345,71 277.5,149 Q210,227 173.5,338 Q137,449 137,586 Q137,712 161,823 Q185,934 229.5,1026 Q274,1118 336.5,1190.5 Q399,1263 476,1313 Q553,1363 642,1389.5 Q731,1416 829,1416 Q947,1416 1043,1373.5 Q1139,1331 1206.5,1252.5 Q1274,1174 1310.5,1062.5 Q1347,951 1347,814 M1321,814 Q1321,948 1286,1056 Q1251,1164 1186.5,1239.5 Q1122,1315 1030.5,1355.5 Q939,1396 827,1396 Q734,1396 648.5,1371 Q563,1346 489,1298 Q415,1250 354.5,1179.5 Q294,1109 251,1019.5 Q208,930 184.5,821.5 Q161,713 161,588 Q161,454 196.5,346 Q232,238 297,162.5 Q362,87 453,46.5 Q544,6 655,6 Q797,6 919,61.5 Q1041,117 1130.5,221.5 Q1220,326 1270.5,476 Q1321,626 1321,814"/> 
            <glyph glyph-name="R" unicode="&#x52;" horiz-adv-x="996" d=" M253,676 L170,0 L146,0 L318,1400 L618,1400 Q802,1400 899,1327 Q996,1254 996,1102 Q996,1004 961.5,926.5 Q927,849 865,794 Q803,739 717.5,709 Q632,679 530,676 Q545,669 558,650 L980,0 L964,0 Q956,0 951,1.5 Q946,3 940,12 L538,640 Q531,650 524,657 Q517,664 508,668.5 Q499,673 486,674.5 Q473,676 454,676 M256,696 L514,696 Q617,696 701.5,723.5 Q786,751 846,803.5 Q906,856 939,930.5 Q972,1005 972,1100 Q972,1243 881,1311.5 Q790,1380 616,1380 L340,1380 L334,1328"/> 
            <glyph glyph-name="S" unicode="&#x53;" horiz-adv-x="900" d=" M896,1272 Q893,1266 886,1266 Q880,1266 871.5,1275.5 Q863,1285 850,1299.5 Q837,1314 817.5,1331 Q798,1348 769.5,1362.5 Q741,1377 702,1386.5 Q663,1396 612,1396 Q526,1396 458,1367 Q390,1338 342.5,1288.5 Q295,1239 269.5,1173 Q244,1107 244,1034 Q244,965 269.5,918.5 Q295,872 337,839.5 Q379,807 432,784 Q485,761 541,739.5 Q597,718 650,694.5 Q703,671 745,637.5 Q787,604 812.5,555.5 Q838,507 838,436 Q838,344 806.5,262 Q775,180 716.5,118.5 Q658,57 574.5,20.5 Q491,-16 388,-16 Q323,-16 273,-3.5 Q223,9 183,32.5 Q143,56 110.5,89.5 Q78,123 50,166 L56,170 Q59,173 61,174.5 Q63,176 68,176 Q74,176 83,163.5 Q92,151 107.5,131.5 Q123,112 146.5,90 Q170,68 204,48.5 Q238,29 283.5,16.5 Q329,4 390,4 Q487,4 566,38.5 Q645,73 700.5,131.5 Q756,190 786,268.5 Q816,347 816,436 Q816,504 790.5,550 Q765,596 723,628 Q681,660 628,682.5 Q575,705 519,725.5 Q463,746 410,769.5 Q357,793 315,827 Q273,861 247.5,910.5 Q222,960 222,1032 Q222,1108 248.5,1177.5 Q275,1247 325.5,1300 Q376,1353 449,1384.5 Q522,1416 616,1416 Q709,1416 777.5,1383 Q846,1350 900,1278"/> 
            <glyph glyph-name="T" unicode="&#x54;" horiz-adv-x="1114" d=" M1114,1400 L1112,1378 L629,1378 L460,0 L436,0 L605,1378 L118,1378 L120,1400"/> 
            <glyph glyph-name="U" unicode="&#x55;" horiz-adv-x="1236" d=" M598,4 Q701,4 788,44.5 Q875,85 941,155 Q1007,225 1048.5,319 Q1090,413 1104,520 L1212,1400 L1236,1400 L1128,520 Q1114,409 1069,311 Q1024,213 954.5,140 Q885,67 793.5,24.5 Q702,-18 594,-18 Q487,-18 406,24.5 Q325,67 273.5,140 Q222,213 201,311 Q180,409 194,520 L302,1400 L326,1400 L218,522 Q205,415 224,320.5 Q243,226 291,155.5 Q339,85 416.5,44.5 Q494,4 598,4"/> 
            <glyph glyph-name="V" unicode="&#x56;" horiz-adv-x="1231" d=" M137,1400 L155,1400 Q165,1400 165,1390 L507,74 Q509,63 512,53.5 Q515,44 517,33 Q522,44 527,53.5 Q532,63 537,74 L1201,1390 Q1204,1400 1215,1400 L1231,1400 L523,0 L503,0"/> 
            <glyph glyph-name="W" unicode="&#x57;" horiz-adv-x="1886" d=" M156,1400 L174,1400 Q184,1400 184,1390 L400,74 Q402,63 403.5,52.5 Q405,42 406,30 Q411,42 415,52 Q419,62 424,74 L1006,1390 Q1010,1400 1020,1400 L1024,1400 Q1033,1400 1034,1390 L1292,74 Q1294,63 1295.5,52.5 Q1297,42 1298,30 Q1303,42 1307,52 Q1311,62 1316,74 L1854,1390 Q1856,1395 1860.5,1397.5 Q1865,1400 1870,1400 L1886,1400 L1306,0 L1286,0 L1022,1344 Q1020,1352 1019,1360.5 Q1018,1369 1018,1377 Q1016,1369 1012.5,1360.5 Q1009,1352 1006,1344 L412,0 L392,0"/> 
            <glyph glyph-name="X" unicode="&#x58;" horiz-adv-x="1120" d=" M565,747 L202,1400 L222,1400 Q230,1400 233.5,1396 Q237,1392 242,1384 L583,761 Q585,766 592,774 L1082,1390 Q1087,1396 1091.5,1398 Q1096,1400 1102,1400 L1120,1400 L597,748 L1010,0 L988,0 Q980,0 977.5,5.5 Q975,11 972,14 L578,734 Q575,729 570,722 L10,14 Q5,8 0.5,4 Q-4,0 -10,0 L-32,0"/> 
            <glyph glyph-name="Y" unicode="&#x59;" horiz-adv-x="1116" d=" M538,595 L464,0 L440,0 L514,595 L132,1400 L152,1400 Q161,1400 164,1392 L516,642 Q519,636 522,629.5 Q525,623 528,615 Q533,623 537.5,629.5 Q542,636 546,642 L1082,1392 Q1087,1400 1096,1400 L1116,1400"/> 
            <glyph glyph-name="Z" unicode="&#x5A;" horiz-adv-x="1107" d=" M1107,1400 L1105,1390 Q1103,1385 1101.5,1382.5 Q1100,1380 1095,1374 L34,22 L935,22 L931,0 L-1,0 L1,10 Q3,15 4.5,17 Q6,19 9,24 L1071,1378 L183,1378 L187,1400"/> 
            <glyph glyph-name="[" unicode="&#x5B;" horiz-adv-x="576" d=" M110,-242 L324,1502 L576,1502 L576,1496 Q573,1484 562,1484 L344,1484 L132,-224 L352,-224 Q364,-224 364,-236 L362,-242"/> 
            <glyph glyph-name="\" unicode="&#x5C;" horiz-adv-x="615" d=" M183,1440 L193,1440 Q208,1440 211,1428 L615,-78 L607,-78 Q601,-78 595,-76 Q589,-74 587,-66"/> 
            <glyph glyph-name="]" unicode="&#x5D;" horiz-adv-x="444" d=" M190,1502 L444,1502 L230,-242 L-24,-242 L-24,-236 Q-21,-224 -8,-224 L210,-224 L420,1484 L202,1484 Q187,1484 190,1496"/> 
            <glyph glyph-name="^" unicode="&#x5E;" horiz-adv-x="968" d=" M630,1400 L642,1400 L968,812 L954,812 Q941,812 934,826 L654,1332 Q649,1342 644,1351.5 Q639,1361 636,1372 Q629,1352 618,1332 L338,826 Q335,821 330.5,816.5 Q326,812 318,812 L304,812"/> 
            <glyph glyph-name="_" unicode="&#x5F;" horiz-adv-x="703" d=" M703,-240 L699,-262 L-25,-262 L-23,-240"/> 
            <glyph glyph-name="`" unicode="&#x60;" horiz-adv-x="572" d=" M411,1416 Q426,1416 433.5,1412 Q441,1408 448,1394 L572,1158 L559,1158 Q549,1158 546,1166 L387,1416"/> 
            <glyph glyph-name="a" unicode="&#x61;" horiz-adv-x="849" d=" M735,0 L729,0 Q721,0 719,4.5 Q717,9 717,14 L765,430 Q727,333 678,251.5 Q629,170 572.5,111.5 Q516,53 453,20.5 Q390,-12 323,-12 Q258,-12 212.5,13 Q167,38 138.5,83 Q110,128 96.5,190 Q83,252 83,326 Q83,410 105,492 Q127,574 166,648 Q205,722 259,785 Q313,848 377.5,894 Q442,940 514.5,966 Q587,992 663,992 Q717,992 762,981.5 Q807,971 849,944 M323,8 Q387,8 449.5,41 Q512,74 569,136 Q626,198 677,285.5 Q728,373 770,483 L826,934 Q789,954 749,963 Q709,972 663,972 Q591,972 522,947 Q453,922 391,878 Q329,834 277,773 Q225,712 187,640 Q149,568 128,488 Q107,408 107,326 Q107,253 119.5,194.5 Q132,136 158,94.5 Q184,53 225,30.5 Q266,8 323,8"/> 
            <glyph glyph-name="b" unicode="&#x62;" horiz-adv-x="897" d=" M101,0 L275,1440 L297,1440 L188,553 Q227,650 278.5,731.5 Q330,813 388.5,871 Q447,929 512,961.5 Q577,994 643,994 Q708,994 756,968.5 Q804,943 835.5,898 Q867,853 882,791.5 Q897,730 897,658 Q897,587 882.5,509.5 Q868,432 839.5,357.5 Q811,283 769.5,216 Q728,149 675,98.5 Q622,48 557.5,18 Q493,-12 419,-12 Q332,-12 257,31 Q182,74 140,163 L117,14 Q115,8 115,4 Q115,0 107,0 M643,974 Q578,974 513.5,940.5 Q449,907 389,845 Q329,783 276,694 Q223,605 181,494 L145,193 Q169,142 199.5,106.5 Q230,71 265.5,49.5 Q301,28 340.5,18 Q380,8 421,8 Q493,8 554.5,37 Q616,66 666.5,115 Q717,164 756,229.5 Q795,295 821.5,367 Q848,439 861.5,514 Q875,589 875,658 Q875,731 860,789.5 Q845,848 816,889 Q787,930 743.5,952 Q700,974 643,974"/> 
            <glyph glyph-name="c" unicode="&#x63;" horiz-adv-x="823" d=" M787,182 Q732,121 684.5,83 Q637,45 592,24 Q547,3 503,-4.5 Q459,-12 411,-12 Q327,-12 266.5,17.5 Q206,47 167,98 Q128,149 109.5,219 Q91,289 91,370 Q91,447 107,524 Q123,601 152.5,670.5 Q182,740 224,799.5 Q266,859 318.5,902.5 Q371,946 433,971 Q495,996 565,996 Q613,996 651.5,986.5 Q690,977 721,959.5 Q752,942 777,918 Q802,894 823,866 L819,862 Q815,858 809,858 Q802,858 788,876.5 Q774,895 746,917 Q718,939 674,957.5 Q630,976 563,976 Q466,976 384,924 Q302,872 242,787 Q182,702 148.5,593 Q115,484 115,370 Q115,294 131.5,228 Q148,162 184,113 Q220,64 276,36 Q332,8 411,8 Q471,8 519.5,21.5 Q568,35 605.5,55 Q643,75 671,98 Q699,121 719.5,141 Q740,161 753,174.5 Q766,188 775,188 Q781,188 785,184 L787,182"/> 
            <glyph glyph-name="d" unicode="&#x64;" horiz-adv-x="941" d=" M759,0 Q751,0 749,4.5 Q747,9 747,14 L796,432 Q757,334 705.5,252.5 Q654,171 595.5,112 Q537,53 472,20.5 Q407,-12 341,-12 Q276,-12 228,14 Q180,40 148.5,85 Q117,130 102,192 Q87,254 87,326 Q87,397 101.5,474.5 Q116,552 144.5,626.5 Q173,701 214.5,767.5 Q256,834 309,884.5 Q362,935 426,964.5 Q490,994 565,994 Q651,994 725.5,952.5 Q800,911 842,823 L919,1440 L941,1440 L765,0 M341,8 Q405,8 469,41 Q533,74 592.5,136 Q652,198 705,286 Q758,374 800,484 L838,791 Q814,842 783.5,876.5 Q753,911 717.5,933 Q682,955 643,964.5 Q604,974 563,974 Q491,974 429.5,945 Q368,916 317.5,867 Q267,818 228,753.5 Q189,689 162.5,617 Q136,545 122.5,470 Q109,395 109,326 Q109,253 124,194.5 Q139,136 168,94.5 Q197,53 240.5,30.5 Q284,8 341,8"/> 
            <glyph glyph-name="e" unicode="&#x65;" horiz-adv-x="811" d=" M811,814 Q811,775 800.5,739.5 Q790,704 762.5,672 Q735,640 686,612 Q637,584 560.5,559.5 Q484,535 376,514.5 Q268,494 122,478 Q113,419 113,362 Q113,280 132,214.5 Q151,149 188.5,103 Q226,57 282.5,32.5 Q339,8 415,8 Q472,8 518.5,21.5 Q565,35 602,55 Q639,75 667.5,98 Q696,121 716.5,141 Q737,161 751,174.5 Q765,188 773,188 Q779,188 783,184 L785,182 Q738,131 693.5,94.5 Q649,58 604,34 Q559,10 512,-1 Q465,-12 413,-12 Q333,-12 272.5,14 Q212,40 171.5,88 Q131,136 111,205.5 Q91,275 91,362 Q91,434 105,509.5 Q119,585 147,655 Q175,725 216,787 Q257,849 310.5,895 Q364,941 429.5,967.5 Q495,994 573,994 Q643,994 689,975 Q735,956 762,928 Q789,900 800,869 Q811,838 811,814 M573,974 Q478,974 402.5,933 Q327,892 270.5,825 Q214,758 177.5,672.5 Q141,587 125,498 Q273,514 380,534.5 Q487,555 561,579 Q635,603 680.5,630.5 Q726,658 751,688 Q776,718 784.5,749.5 Q793,781 793,814 Q793,838 781.5,866 Q770,894 744.5,918 Q719,942 676.5,958 Q634,974 573,974"/> 
            <glyph glyph-name="f" unicode="&#x66;" horiz-adv-x="664" d=" M277,920 L166,10 L128,-240 Q126,-248 122.5,-250 Q119,-252 116,-252 L112,-252 L255,920 L108,924 Q98,924 98,932 L98,938 L257,938 L276,1088 Q286,1172 312.5,1233.5 Q339,1295 376.5,1335 Q414,1375 462,1394.5 Q510,1414 564,1414 Q590,1414 617,1408.5 Q644,1403 664,1392 L660,1384 Q658,1377 651.5,1378 Q645,1379 633,1382.5 Q621,1386 603.5,1390 Q586,1394 562,1394 Q514,1394 470.5,1377.5 Q427,1361 392.5,1324.5 Q358,1288 333,1229.5 Q308,1171 298,1088 L278,938 L584,938 L580,920"/> 
            <glyph glyph-name="g" unicode="&#x67;" horiz-adv-x="887" d=" M731,740 Q730,680 714.5,631 Q699,582 676.5,541 Q654,500 627.5,465.5 Q601,431 579,398.5 Q557,366 542,333.5 Q527,301 527,266 Q527,238 540.5,213.5 Q554,189 574.5,165.5 Q595,142 619,117.5 Q643,93 663.5,64.5 Q684,36 697.5,1.5 Q711,-33 711,-76 Q710,-133 679.5,-187 Q649,-241 593.5,-283 Q538,-325 461.5,-350.5 Q385,-376 293,-376 Q221,-376 160,-361.5 Q99,-347 55,-318.5 Q11,-290 -14,-248 Q-39,-206 -39,-150 Q-38,-76 6,-15 Q50,46 130,86 Q210,126 322,140.5 Q434,155 571,137 Q544,164 525,194 Q506,224 507,266 Q507,285 510.5,303.5 Q514,322 523,343 Q532,364 548,389 Q564,414 590,446 Q546,414 496.5,396 Q447,378 399,378 Q342,378 295,395.5 Q248,413 215,446.5 Q182,480 163.5,529 Q145,578 145,640 Q145,707 167.5,770.5 Q190,834 233,883.5 Q276,933 337.5,963.5 Q399,994 477,994 Q574,994 639,946 L887,946 L887,938 Q887,935 883.5,931.5 Q880,928 869,928 L663,926 Q695,894 713,847 Q731,800 731,740 M689,-76 Q689,-41 680.5,-13.5 Q672,14 658,37 Q644,60 626,79.5 Q608,99 590,117 Q440,136 326.5,121 Q213,106 137,67.5 Q61,29 22.5,-28.5 Q-16,-86 -17,-150 Q-17,-200 6,-238 Q29,-276 70.5,-302.5 Q112,-329 169.5,-342.5 Q227,-356 295,-356 Q384,-356 456.5,-331.5 Q529,-307 580.5,-267.5 Q632,-228 660,-178 Q688,-128 689,-76 M399,398 Q472,398 530,428 Q588,458 628.5,506 Q669,554 690,615.5 Q711,677 711,740 Q711,799 694,843 Q677,887 646.5,916 Q616,945 572.5,959.5 Q529,974 477,974 Q403,974 345.5,945.5 Q288,917 248.5,870.5 Q209,824 188,764 Q167,704 167,640 Q167,520 230.5,459 Q294,398 399,398"/> 
            <glyph glyph-name="h" unicode="&#x68;" horiz-adv-x="857" d=" M101,0 L275,1440 L297,1440 L195,599 Q235,689 286.5,762 Q338,835 396.5,886.5 Q455,938 518.5,966 Q582,994 645,994 Q709,994 753,969.5 Q797,945 821,898 Q845,851 851,783 Q857,715 847,628 L773,0 L751,0 L825,628 Q835,710 829.5,774 Q824,838 802,882.5 Q780,927 740.5,950.5 Q701,974 643,974 Q582,974 519.5,944.5 Q457,915 398,859.5 Q339,804 285.5,725 Q232,646 189,548 L123,0"/> 
            <glyph glyph-name="i" unicode="&#x69;" horiz-adv-x="332" d=" M254,980 L134,0 L112,0 L232,980 M332,1344 Q332,1323 316,1306.5 Q300,1290 280,1290 Q259,1290 243.5,1306.5 Q228,1323 228,1344 Q228,1367 243.5,1383.5 Q259,1400 280,1400 Q300,1400 316,1383.5 Q332,1367 332,1344"/> 
            <glyph glyph-name="j" unicode="&#x6A;" horiz-adv-x="338" d=" M254,980 L112,-172 Q107,-216 90,-253 Q73,-290 46,-317 Q19,-344 -16,-359 Q-51,-374 -92,-374 Q-116,-374 -133.5,-368.5 Q-151,-363 -166,-352 L-162,-344 Q-158,-336 -152.5,-336.5 Q-147,-337 -139.5,-341 Q-132,-345 -120,-349.5 Q-108,-354 -90,-354 Q-13,-354 33,-303.5 Q79,-253 90,-172 L232,980 M338,1344 Q338,1323 322,1306.5 Q306,1290 286,1290 Q265,1290 249.5,1306.5 Q234,1323 234,1344 Q234,1367 249.5,1383.5 Q265,1400 286,1400 Q306,1400 322,1383.5 Q338,1367 338,1344"/> 
            <glyph glyph-name="k" unicode="&#x6B;" horiz-adv-x="808" d=" M298,1440 L187,536 L230,536 Q245,536 254.5,539 Q264,542 278,554 L756,964 Q764,972 772,976 Q780,980 792,980 L808,980 L298,546 Q283,534 272,529 Q284,525 292.5,518.5 Q301,512 308,504 L724,0 L708,0 Q700,0 694,2 Q688,4 682,12 L290,490 Q276,507 262.5,512.5 Q249,518 222,518 L185,518 L122,0 L100,0 L276,1440"/> 
            <glyph glyph-name="l" unicode="&#x6C;" horiz-adv-x="309" d=" M113,0 L287,1440 L309,1440 L133,0"/> 
            <glyph glyph-name="m" unicode="&#x6D;" horiz-adv-x="1397" d=" M101,0 L219,984 L223,984 Q231,984 233,979.5 Q235,975 235,970 L192,588 Q231,681 280,756 Q329,831 385,884 Q441,937 502,965.5 Q563,994 627,994 Q691,994 728.5,969.5 Q766,945 783,898 Q800,851 799.5,783 Q799,715 789,628 Q827,720 877.5,789 Q928,858 984,903.5 Q1040,949 1099,971.5 Q1158,994 1213,994 Q1277,994 1316.5,969.5 Q1356,945 1375,898 Q1394,851 1395.5,783 Q1397,715 1387,628 L1313,0 L1291,0 L1365,628 Q1375,710 1374,774 Q1373,838 1356.5,882.5 Q1340,927 1304.5,950.5 Q1269,974 1211,974 Q1157,974 1099.5,951 Q1042,928 986.5,880.5 Q931,833 879.5,759 Q828,685 786,583 L717,0 L695,0 L769,628 Q779,710 780,774 Q781,838 766,882.5 Q751,927 717.5,950.5 Q684,974 625,974 Q495,974 385.5,862 Q276,750 187,539 L123,0"/> 
            <glyph glyph-name="n" unicode="&#x6E;" horiz-adv-x="870" d=" M101,0 L219,984 L223,984 Q231,984 233,979.5 Q235,975 235,970 L192,587 Q232,680 284,755 Q336,830 395.5,883.5 Q455,937 519,965.5 Q583,994 647,994 Q774,994 822,898 Q870,802 849,628 L775,0 L753,0 L827,628 Q837,710 831.5,774 Q826,838 804,882.5 Q782,927 742.5,950.5 Q703,974 645,974 Q583,974 519.5,943.5 Q456,913 396.5,856.5 Q337,800 283.5,719.5 Q230,639 187,539 L123,0"/> 
            <glyph glyph-name="o" unicode="&#x6F;" horiz-adv-x="898" d=" M432,8 Q531,8 612.5,58.5 Q694,109 752,192 Q810,275 842,381 Q874,487 874,598 Q874,686 852,755.5 Q830,825 789,873.5 Q748,922 690,948 Q632,974 560,974 Q494,974 435.5,951.5 Q377,929 328,888.5 Q279,848 240,792.5 Q201,737 174,671.5 Q147,606 132.5,533.5 Q118,461 118,386 Q118,298 140,228 Q162,158 202.5,109 Q243,60 301,34 Q359,8 432,8 M430,-12 Q352,-12 289.5,16 Q227,44 183.5,95.5 Q140,147 117,220.5 Q94,294 94,386 Q94,463 109,538 Q124,613 152.5,680.5 Q181,748 221.5,805.5 Q262,863 314,905 Q366,947 428.5,970.5 Q491,994 562,994 Q640,994 702,966 Q764,938 807.5,886.5 Q851,835 874.5,762 Q898,689 898,598 Q898,522 883,447 Q868,372 839.5,304 Q811,236 770.5,178 Q730,120 678,78 Q626,36 563.5,12 Q501,-12 430,-12"/> 
            <glyph glyph-name="p" unicode="&#x70;" horiz-adv-x="898" d=" M56,-360 L220,984 L224,984 Q232,984 234,979.5 Q236,975 236,970 L189,551 Q228,649 279,730.5 Q330,812 389,870.5 Q448,929 513,961.5 Q578,994 644,994 Q709,994 757,968.5 Q805,943 836.5,898 Q868,853 883,791.5 Q898,730 898,658 Q898,587 883.5,509.5 Q869,432 840.5,357.5 Q812,283 770.5,216 Q729,149 676,98.5 Q623,48 558.5,18 Q494,-12 420,-12 Q334,-12 259,30.5 Q184,73 142,162 L78,-360 M644,974 Q579,974 514.5,940.5 Q450,907 390,845 Q330,783 277,694 Q224,605 182,494 L146,193 Q170,142 200.5,106.5 Q231,71 266.5,49.5 Q302,28 341.5,18 Q381,8 422,8 Q494,8 555.5,37 Q617,66 667.5,115 Q718,164 757,229.5 Q796,295 822.5,367 Q849,439 862.5,514 Q876,589 876,658 Q876,731 861,789.5 Q846,848 817,889 Q788,930 744.5,952 Q701,974 644,974"/> 
            <glyph glyph-name="q" unicode="&#x71;" horiz-adv-x="849" d=" M691,-360 L687,-360 Q675,-360 670.5,-353.5 Q666,-347 669,-326 L762,421 Q723,325 674.5,245.5 Q626,166 570,109 Q514,52 451.5,20 Q389,-12 323,-12 Q258,-12 212.5,13 Q167,38 138.5,83 Q110,128 96.5,190 Q83,252 83,326 Q83,410 105,492 Q127,574 166,648 Q205,722 259,785 Q313,848 377.5,894 Q442,940 514.5,966 Q587,992 663,992 Q717,992 762,981.5 Q807,971 849,944 M323,8 Q387,8 449,41 Q511,74 568,135.5 Q625,197 676,284.5 Q727,372 769,481 L826,934 Q789,954 749,963 Q709,972 663,972 Q591,972 522,947 Q453,922 391,878 Q329,834 277,773 Q225,712 187,640 Q149,568 128,488 Q107,408 107,326 Q107,253 119.5,194.5 Q132,136 158,94.5 Q184,53 225,30.5 Q266,8 323,8"/> 
            <glyph glyph-name="r" unicode="&#x72;" horiz-adv-x="645" d=" M101,0 L219,984 L223,984 Q231,984 233,979.5 Q235,975 235,970 L194,608 Q236,719 286.5,799.5 Q337,880 394.5,927.5 Q452,975 515,988 Q578,1001 645,976 L641,958 Q571,984 506.5,967 Q442,950 385,895.5 Q328,841 278.5,753 Q229,665 188,548 L123,0"/> 
            <glyph glyph-name="s" unicode="&#x73;" horiz-adv-x="689" d=" M685,892 Q682,886 675,886 Q668,886 655,899.5 Q642,913 617,929.5 Q592,946 552,960 Q512,974 451,974 Q394,974 342,954 Q290,934 250,899.5 Q210,865 186.5,820 Q163,775 163,726 Q163,680 183,648.5 Q203,617 235.5,595 Q268,573 309.5,557 Q351,541 394.5,525.5 Q438,510 480,492.5 Q522,475 554.5,450 Q587,425 607,388.5 Q627,352 627,300 Q627,241 603,184 Q579,127 535.5,82.5 Q492,38 431,11 Q370,-16 295,-16 Q247,-16 209.5,-7.5 Q172,1 142,16 Q112,31 86.5,53 Q61,75 37,102 L43,108 Q49,114 53,114 Q58,114 72,96.5 Q86,79 114,58 Q142,37 186.5,19.5 Q231,2 299,2 Q367,2 424,26 Q481,50 521.5,90.5 Q562,131 584.5,185 Q607,239 607,300 Q607,349 587,383 Q567,417 534.5,440.5 Q502,464 460,480 Q418,496 374.5,511 Q331,526 289.5,543 Q248,560 215.5,583.5 Q183,607 163,641.5 Q143,676 143,726 Q143,779 167.5,827.5 Q192,876 234.5,913 Q277,950 333.5,972 Q390,994 455,994 Q532,994 587,971.5 Q642,949 689,898"/> 
            <glyph glyph-name="t" unicode="&#x74;" horiz-adv-x="587" d=" M165,146 Q165,151 165.5,160.5 Q166,170 167.5,187.5 Q169,205 172.5,232.5 Q176,260 181,302 L256,918 L107,918 Q95,918 95,928 L97,934 L258,938 L313,1332 Q314,1337 317,1341.5 Q320,1346 325,1346 L331,1346 L281,938 L587,938 L585,918 L278,918 L203,300 Q198,259 194.5,232 Q191,205 189.5,187 Q188,169 187.5,159.5 Q187,150 187,146 Q187,108 196.5,81 Q206,54 223,37 Q240,20 263,12 Q286,4 313,4 Q352,4 382.5,17 Q413,30 435.5,45 Q458,60 472,73 Q486,86 491,86 Q497,86 499,82 L501,78 Q468,37 416,10.5 Q364,-16 311,-16 Q242,-16 203.5,22 Q165,60 165,146"/> 
            <glyph glyph-name="u" unicode="&#x75;" horiz-adv-x="882" d=" M230,980 L156,356 Q146,274 151.5,209.5 Q157,145 179,100 Q201,55 240,31.5 Q279,8 338,8 Q400,8 463.5,38.5 Q527,69 586.5,126 Q646,183 699.5,263.5 Q753,344 796,444 L860,980 L882,980 L764,0 L758,0 Q750,0 748,4.5 Q746,9 746,14 L792,394 L792,399 Q752,306 700,230 Q648,154 588,100 Q528,46 464,17 Q400,-12 336,-12 Q272,-12 228.5,13 Q185,38 160.5,85 Q136,132 129.5,200.5 Q123,269 134,356 L208,980"/> 
            <glyph glyph-name="v" unicode="&#x76;" horiz-adv-x="898" d=" M386,0 L370,0 L98,980 L110,980 Q118,980 121,975.5 Q124,971 126,966 L374,68 Q376,58 378,48.5 Q380,39 381,29 Q384,38 388.5,47.5 Q393,57 398,68 L866,966 Q873,980 886,980 L898,980"/> 
            <glyph glyph-name="w" unicode="&#x77;" horiz-adv-x="1364" d=" M110,980 L120,980 Q133,980 136,966 L304,68 Q306,57 307,47.5 Q308,38 309,27 Q316,46 326,68 L724,976 Q727,986 736,986 L740,986 Q748,986 748,976 L924,68 Q926,57 927,48 Q928,39 929,29 Q934,38 938.5,47.5 Q943,57 948,68 L1334,966 Q1341,980 1352,980 L1364,980 L936,0 L926,0 Q916,0 916,10 L738,922 Q734,935 734,952 Q729,937 722,922 L318,10 Q315,0 308,0 L298,0"/> 
            <glyph glyph-name="x" unicode="&#x78;" horiz-adv-x="786" d=" M392,521 L134,980 L146,980 Q159,980 164,972 L408,535 Q410,538 412,540.5 Q414,543 416,546 L754,972 Q759,980 768,980 L786,980 L418,519 L706,0 L694,0 Q679,0 674,10 L400,506 Q397,501 392,494 L8,8 Q0,0 -10,0 L-26,0"/> 
            <glyph glyph-name="y" unicode="&#x79;" horiz-adv-x="903" d=" M205,-344 Q197,-360 183,-360 L171,-360 L372,17 L101,980 L113,980 Q126,980 129,966 L379,76 Q381,66 383,57 Q385,48 386,38 Q389,48 393.5,57.5 Q398,67 403,76 L873,970 Q878,980 889,980 L903,980"/> 
            <glyph glyph-name="z" unicode="&#x7A;" horiz-adv-x="785" d=" M783,970 Q783,966 775,958 L29,20 L639,20 L637,0 L-3,0 L-3,6 Q-3,11 -0.5,14 Q2,17 5,20 L752,960 L145,960 L149,980 L785,980"/> 
            <glyph glyph-name="{" unicode="&#x7B;" horiz-adv-x="573" d=" M237,480 Q237,542 198,581 Q159,620 97,620 L99,640 Q136,640 169,654 Q202,668 227,696.5 Q252,725 266.5,767.5 Q281,810 281,868 Q281,904 278,943 Q275,982 272,1021 Q269,1060 266,1099 Q263,1138 263,1174 Q263,1248 283,1308.5 Q303,1369 338,1412 Q373,1455 420,1478.5 Q467,1502 521,1502 L573,1502 L573,1494 Q570,1484 559,1484 L519,1484 Q472,1484 429.5,1464 Q387,1444 355,1405 Q323,1366 304,1308 Q285,1250 285,1174 Q285,1138 288,1098.5 Q291,1059 294,1018.5 Q297,978 300,939 Q303,900 303,866 Q303,806 287,763.5 Q271,721 247,692.5 Q223,664 194.5,649 Q166,634 141,630 Q162,626 182.5,615 Q203,604 219.5,585.5 Q236,567 246.5,541 Q257,515 257,482 Q257,420 238,359 Q219,298 196.5,236.5 Q174,175 155.5,111 Q137,47 137,-20 Q137,-66 149.5,-103.5 Q162,-141 184.5,-168 Q207,-195 239,-209.5 Q271,-224 309,-224 L351,-224 Q361,-224 361,-234 L359,-242 L307,-242 Q263,-242 227.5,-224.5 Q192,-207 167,-176.5 Q142,-146 128.5,-105.5 Q115,-65 115,-18 Q115,52 134,114 Q153,176 176,236 Q199,296 218,355.5 Q237,415 237,480"/> 
            <glyph glyph-name="|" unicode="&#x7C;" horiz-adv-x="241" d=" M221,1502 L241,1502 L241,-360 L221,-360"/> 
            <glyph glyph-name="}" unicode="&#x7D;" horiz-adv-x="457" d=" M271,392 Q271,356 274,317 Q277,278 280,239 Q283,200 286,161 Q289,122 289,86 Q289,12 269,-48.5 Q249,-109 214,-152 Q179,-195 132,-218.5 Q85,-242 31,-242 L-21,-242 L-19,-234 Q-19,-224 -7,-224 L33,-224 Q80,-224 122.5,-204 Q165,-184 197,-145 Q229,-106 248,-48 Q267,10 267,86 Q267,122 264.5,161.5 Q262,201 259,241.5 Q256,282 253.5,320.5 Q251,359 251,394 Q251,453 266.5,495.5 Q282,538 305.5,566.5 Q329,595 357,610 Q385,625 411,630 Q390,634 369.5,645 Q349,656 332.5,674.5 Q316,693 305.5,719 Q295,745 295,778 Q295,840 313.5,901 Q332,962 354.5,1023.5 Q377,1085 396,1148.5 Q415,1212 415,1280 Q415,1326 402.5,1363.5 Q390,1401 367.5,1428 Q345,1455 313,1469.5 Q281,1484 243,1484 L203,1484 Q190,1484 193,1494 L193,1502 L245,1502 Q289,1502 324.5,1484.5 Q360,1467 385,1436.5 Q410,1406 423.5,1365 Q437,1324 437,1278 Q437,1231 428,1188 Q419,1145 406,1104 Q393,1063 377,1023.5 Q361,984 348,944 Q335,904 326,863.5 Q317,823 317,780 Q317,749 327,723.5 Q337,698 355.5,679.5 Q374,661 399.5,650.5 Q425,640 457,640 L453,620 Q417,620 384,606 Q351,592 326,563.5 Q301,535 286,492.5 Q271,450 271,392"/> 
            <glyph glyph-name="~" unicode="&#x7E;" horiz-adv-x="1001" d=" M797,528 Q839,528 872.5,543.5 Q906,559 930,586 Q954,613 967,649.5 Q980,686 981,728 L1001,728 Q1001,684 987.5,644.5 Q974,605 948,574.5 Q922,544 884,526 Q846,508 797,508 Q746,508 690,530.5 Q634,553 578,580 Q522,607 467.5,629.5 Q413,652 365,652 Q323,652 289.5,636.5 Q256,621 232,594 Q208,567 195,530.5 Q182,494 181,452 L161,452 Q161,495 174.5,535 Q188,575 214,605.5 Q240,636 278,654 Q316,672 365,672 Q416,672 472,649.5 Q528,627 584,600 Q640,573 694.5,550.5 Q749,528 797,528"/> 
            <glyph glyph-name="" unicode="&#x374;" horiz-adv-x="352" d=" M352,1495 Q349,1449 341.5,1400.5 Q334,1352 319.5,1304.5 Q305,1257 281.5,1212 Q258,1167 223,1128 L219,1133 Q217,1136 220,1142 Q265,1199 292.5,1271.5 Q320,1344 315,1415 L323,1479 Q324,1484 327,1489.5 Q330,1495 337,1495"/> 
            <glyph glyph-name="" unicode="&#x375;" horiz-adv-x="209" d=" M209,225 Q206,179 198.5,130.5 Q191,82 176.5,34.5 Q162,-13 138.5,-58 Q115,-103 80,-142 L76,-137 Q74,-134 77,-128 Q122,-71 149.5,1.5 Q177,74 172,145 L180,209 Q181,214 184,219.5 Q187,225 194,225"/> 
            <glyph glyph-name="" unicode="&#x37A;" horiz-adv-x="180" d=" M91,-77 L111,-77 L89,-255 Q82,-309 96,-335 Q110,-361 158,-361 L180,-361 L179,-370 Q179,-374 174,-376 Q169,-378 154,-378 Q102,-378 81.5,-350 Q61,-322 69,-255"/> 
            <glyph glyph-name="" unicode="&#x37B;" horiz-adv-x="741" d=" M39,94 Q46,100 49,100 Q55,100 68.5,85.5 Q82,71 108.5,54 Q135,37 176.5,22.5 Q218,8 280,8 Q380,8 461,49 Q542,90 599,165.5 Q656,241 686.5,347.5 Q717,454 717,585 Q717,677 696,749.5 Q675,822 636,872.5 Q597,923 540.5,949.5 Q484,976 414,976 Q346,976 294.5,958.5 Q243,941 207.5,919.5 Q172,898 152,880.5 Q132,863 126,863 Q122,863 119,866 L113,873 Q136,894 166,916 Q196,938 233.5,955.5 Q271,973 316,984.5 Q361,996 414,996 Q491,996 552,967.5 Q613,939 655,885.5 Q697,832 719,756 Q741,680 741,585 Q741,451 709,341.5 Q677,232 617.5,153 Q558,74 472.5,31 Q387,-12 280,-12 Q198,-12 136,16.5 Q74,45 34,90"/> 
            <glyph glyph-name="" unicode="&#x37C;" horiz-adv-x="823" d=" M91,0 M787,182 Q732,121 684.5,83 Q637,45 592,24 Q547,3 503,-4.5 Q459,-12 411,-12 Q327,-12 266.5,17.5 Q206,47 167,98 Q128,149 109.5,219 Q91,289 91,370 Q91,447 107,524 Q123,601 152.5,670.5 Q182,740 224,799.5 Q266,859 318.5,902.5 Q371,946 433,971 Q495,996 565,996 Q613,996 651.5,986.5 Q690,977 721,959.5 Q752,942 777,918 Q802,894 823,866 L819,862 Q815,858 809,858 Q802,858 788,876.5 Q774,895 746,917 Q718,939 674,957.5 Q630,976 563,976 Q466,976 384,924 Q302,872 242,787 Q182,702 148.5,593 Q115,484 115,370 Q115,294 131.5,228 Q148,162 184,113 Q220,64 276,36 Q332,8 411,8 Q471,8 519.5,21.5 Q568,35 605.5,55 Q643,75 671,98 Q699,121 719.5,141 Q740,161 753,174.5 Q766,188 775,188 Q781,188 785,184 L787,182 M598,66030 Q598,66009 582,65992.5 Q566,65976 546,65976 Q525,65976 509.5,65992.5 Q494,66009 494,66030 Q494,66053 509.5,66069.5 Q525,66086 546,66086 Q566,66086 582,66069.5 Q598,66053 598,66030"/> 
            <glyph glyph-name="" unicode="&#x37D;" horiz-adv-x="741" d=" M34,0 M295,94 Q302,100 305,100 Q311,100 324.5,85.5 Q338,71 364.5,54 Q391,37 432.5,22.5 Q474,8 536,8 Q636,8 717,49 Q798,90 855,165.5 Q912,241 942.5,347.5 Q973,454 973,585 Q973,677 952,749.5 Q931,822 892,872.5 Q853,923 796.5,949.5 Q740,976 670,976 Q602,976 550.5,958.5 Q499,941 463.5,919.5 Q428,898 408,880.5 Q388,863 382,863 Q378,863 375,866 L369,873 Q392,894 422,916 Q452,938 489.5,955.5 Q527,973 572,984.5 Q617,996 670,996 Q747,996 808,967.5 Q869,939 911,885.5 Q953,832 975,756 Q997,680 997,585 Q997,451 965,341.5 Q933,232 873.5,153 Q814,74 728.5,31 Q643,-12 536,-12 Q454,-12 392,16.5 Q330,45 290,90 M65967,66030 Q65967,66009 65951,65992.5 Q65935,65976 65915,65976 Q65894,65976 65878.5,65992.5 Q65863,66009 65863,66030 Q65863,66053 65878.5,66069.5 Q65894,66086 65915,66086 Q65935,66086 65951,66069.5 Q65967,66053 65967,66030"/> 
            <glyph glyph-name="" unicode="&#x37E;" horiz-adv-x="331" d=" M109,0 M111,52 Q111,76 127.5,95 Q144,114 171,114 Q198,114 215.5,94 Q233,74 233,36 Q233,-41 199.5,-112.5 Q166,-184 115,-238 L111,-234 Q109,-232 109,-230 Q109,-228 109,-226 Q109,-222 125,-202 Q141,-182 160,-150.5 Q179,-119 195.5,-78 Q212,-37 213,11 Q196,-8 167,-8 Q143,-8 127,8.5 Q111,25 111,52 M201,886 Q201,913 219.5,932.5 Q238,952 265,952 Q292,952 311.5,932.5 Q331,913 331,886 Q331,859 311.5,840.5 Q292,822 265,822 Q238,822 219.5,840.5 Q201,859 201,886"/> 
            <glyph glyph-name="" unicode="&#x384;" horiz-adv-x="636" d=" M489,1159 L605,1451 L622,1451 Q630,1451 633,1443 Q636,1435 631,1424 L510,1159"/> 
            <glyph glyph-name="" unicode="&#x385;" horiz-adv-x="790" d=" M788,1250 Q787,1239 781,1229.5 Q775,1220 767,1212.5 Q759,1205 749,1200.5 Q739,1196 730,1196 Q709,1196 695.5,1212.5 Q682,1229 684,1250 Q687,1273 704.5,1289.5 Q722,1306 742,1306 Q762,1306 776,1289.5 Q790,1273 788,1250 M412,1250 Q411,1239 405.5,1229.5 Q400,1220 391.5,1212.5 Q383,1205 373.5,1200.5 Q364,1196 354,1196 Q334,1196 320.5,1212.5 Q307,1229 309,1250 Q312,1273 329,1289.5 Q346,1306 367,1306 Q387,1306 401,1289.5 Q415,1273 412,1250 M489,1159 L605,1451 L622,1451 Q630,1451 633,1443 Q636,1435 631,1424 L510,1159"/> 
            <glyph glyph-name="" unicode="&#x386;" horiz-adv-x="1064" d=" M0,0 M1064,0 L1046,0 Q1037,0 1034,10 L913,478 L236,478 L0,10 Q-7,0 -16,0 L-32,0 L678,1400 L698,1400 M246,498 L908,498 L694,1326 Q691,1337 688.5,1346.5 Q686,1356 684,1367 Q679,1356 674,1346.5 Q669,1337 664,1326 M65849,66635 L65965,66927 L65982,66927 Q65990,66927 65993,66919 Q65996,66911 65991,66900 L65870,66635"/> 
            <glyph glyph-name="" unicode="&#x387;" horiz-adv-x="276" d=" M156,590 Q156,616 173.5,634 Q191,652 214,652 Q240,652 258,634 Q276,616 276,590 Q276,567 258,549.5 Q240,532 214,532 Q191,532 173.5,549.5 Q156,567 156,590"/> 
            <glyph glyph-name="" unicode="&#x388;" horiz-adv-x="1153" d=" M136,0 M1153,1400 L1149,1378 L420,1378 L339,722 L959,722 L955,700 L337,700 L253,22 L985,22 L981,0 L227,0 L399,1400 M65672,66635 L65788,66927 L65805,66927 Q65813,66927 65816,66919 Q65819,66911 65814,66900 L65693,66635"/> 
            <glyph glyph-name="" unicode="&#x389;" horiz-adv-x="1284" d=" M71,0 M1112,0 L1088,0 L1174,700 L272,700 L186,0 L162,0 L334,1400 L358,1400 L274,722 L1176,722 L1260,1400 L1284,1400 M65607,66635 L65723,66927 L65740,66927 Q65748,66927 65751,66919 Q65754,66911 65749,66900 L65628,66635"/> 
            <glyph glyph-name="" unicode="&#x38A;" horiz-adv-x="358" d=" M62,0 M186,0 L162,0 L334,1400 L358,1400 M65598,66635 L65714,66927 L65731,66927 Q65739,66927 65742,66919 Q65745,66911 65740,66900 L65619,66635"/> 
            <glyph glyph-name="" unicode="&#x38C;" horiz-adv-x="1341" d=" M50,0 M1597,814 Q1597,623 1544,470 Q1491,317 1398,209.5 Q1305,102 1178,44 Q1051,-14 903,-14 Q785,-14 690,28.5 Q595,71 527.5,149 Q460,227 423.5,338 Q387,449 387,586 Q387,712 411,823 Q435,934 479.5,1026 Q524,1118 586.5,1190.5 Q649,1263 726,1313 Q803,1363 892,1389.5 Q981,1416 1079,1416 Q1197,1416 1293,1373.5 Q1389,1331 1456.5,1252.5 Q1524,1174 1560.5,1062.5 Q1597,951 1597,814 M1571,814 Q1571,948 1536,1056 Q1501,1164 1436.5,1239.5 Q1372,1315 1280.5,1355.5 Q1189,1396 1077,1396 Q984,1396 898.5,1371 Q813,1346 739,1298 Q665,1250 604.5,1179.5 Q544,1109 501,1019.5 Q458,930 434.5,821.5 Q411,713 411,588 Q411,454 446.5,346 Q482,238 547,162.5 Q612,87 703,46.5 Q794,6 905,6 Q1047,6 1169,61.5 Q1291,117 1380.5,221.5 Q1470,326 1520.5,476 Q1571,626 1571,814 M65586,66635 L65702,66927 L65719,66927 Q65727,66927 65730,66919 Q65733,66911 65728,66900 L65607,66635"/> 
            <glyph glyph-name="" unicode="&#x38E;" horiz-adv-x="1116" d=" M0,0 M538,595 L464,0 L440,0 L514,595 L132,1400 L152,1400 Q161,1400 164,1392 L516,642 Q519,636 522,629.5 Q525,623 528,615 Q533,623 537.5,629.5 Q542,636 546,642 L1082,1392 Q1087,1400 1096,1400 L1116,1400 M65446,66635 L65562,66927 L65579,66927 Q65587,66927 65590,66919 Q65593,66911 65588,66900 L65467,66635"/> 
            <glyph glyph-name="" unicode="&#x38F;" horiz-adv-x="1341" d=" M32,0 M769,0 L772,24 L805,298 Q919,326 1013,376.5 Q1107,427 1174.5,502.5 Q1242,578 1279.5,679.5 Q1317,781 1317,910 Q1317,1031 1277.5,1122 Q1238,1213 1170,1274 Q1102,1335 1011.5,1365.5 Q921,1396 819,1396 Q738,1396 660,1378.5 Q582,1361 511,1326 Q440,1291 380,1238.5 Q320,1186 276,1115.5 Q232,1045 207.5,956.5 Q183,868 183,762 Q183,669 209.5,593.5 Q236,518 285.5,459.5 Q335,401 405.5,360.5 Q476,320 563,298 L527,0 L69,0 Q59,0 59,12 L59,24 L508,24 L540,285 Q460,304 390.5,344.5 Q321,385 269.5,445 Q218,505 188.5,585 Q159,665 159,764 Q159,871 184.5,961.5 Q210,1052 255,1124.5 Q300,1197 362,1251.5 Q424,1306 497.5,1342.5 Q571,1379 653,1397.5 Q735,1416 821,1416 Q929,1416 1023.5,1383.5 Q1118,1351 1188.5,1287.5 Q1259,1224 1300,1130 Q1341,1036 1341,912 Q1341,776 1299,670 Q1257,564 1186,486 Q1115,408 1021.5,358.5 Q928,309 826,285 L794,24 L1241,24 L1241,12 Q1241,7 1235.5,3.5 Q1230,0 1227,0 M65568,66635 L65684,66927 L65701,66927 Q65709,66927 65712,66919 Q65715,66911 65710,66900 L65589,66635"/> 
            <glyph glyph-name="" unicode="&#x390;" horiz-adv-x="535" d=" M52,0 M212,980 L236,980 L142,212 Q129,112 165,59.5 Q201,7 289,7 L343,7 L342,-3 Q342,-7 333,-10 Q324,-13 285,-13 Q189,-13 146.5,44 Q104,101 118,212 M66069,1250 Q66068,1239 66062,1229.5 Q66056,1220 66048,1212.5 Q66040,1205 66030,1200.5 Q66020,1196 66011,1196 Q65990,1196 65976.5,1212.5 Q65963,1229 65965,1250 Q65968,1273 65985.5,1289.5 Q66003,1306 66023,1306 Q66043,1306 66057,1289.5 Q66071,1273 66069,1250 M65693,1250 Q65692,1239 65686.5,1229.5 Q65681,1220 65672.5,1212.5 Q65664,1205 65654.5,1200.5 Q65645,1196 65635,1196 Q65615,1196 65601.5,1212.5 Q65588,1229 65590,1250 Q65593,1273 65610,1289.5 Q65627,1306 65648,1306 Q65668,1306 65682,1289.5 Q65696,1273 65693,1250 M65770,1159 L65886,1451 L65903,1451 Q65911,1451 65914,1443 Q65917,1435 65912,1424 L65791,1159"/> 
            <glyph glyph-name="" unicode="&#x391;" horiz-adv-x="1064" d=" M1064,0 L1046,0 Q1037,0 1034,10 L913,478 L236,478 L0,10 Q-7,0 -16,0 L-32,0 L678,1400 L698,1400 M246,498 L908,498 L694,1326 Q691,1337 688.5,1346.5 Q686,1356 684,1367 Q679,1356 674,1346.5 Q669,1337 664,1326"/> 
            <glyph glyph-name="" unicode="&#x392;" horiz-adv-x="1026" d=" M150,0 L322,1400 L658,1400 Q844,1400 935,1322.5 Q1026,1245 1026,1104 Q1026,1029 999,961.5 Q972,894 925,841 Q878,788 815.5,754.5 Q753,721 682,714 Q757,708 816.5,684 Q876,660 917,621 Q958,582 980,529 Q1002,476 1002,410 Q1002,312 970,236 Q938,160 878,107.5 Q818,55 731.5,27.5 Q645,0 536,0 M260,700 L176,20 L538,20 Q641,20 722.5,45 Q804,70 861,119.5 Q918,169 948,241 Q978,313 978,408 Q978,475 953.5,529 Q929,583 883.5,621 Q838,659 772,679.5 Q706,700 624,700 M262,720 L584,720 Q695,720 774.5,755 Q854,790 905,845.5 Q956,901 980,968 Q1004,1035 1004,1100 Q1004,1232 918.5,1306 Q833,1380 656,1380 L344,1380"/> 
            <glyph glyph-name="" unicode="&#x393;" horiz-adv-x="1071" d=" M1071,1400 L1069,1378 L339,1378 L170,0 L146,0 L318,1400"/> 
            <glyph glyph-name="" unicode="&#x394;" horiz-adv-x="1064" d=" M1064,0 L1046,0 L1044,0 L-32,0 L678,1400 L698,1400 M5,20 L1031,20 L694,1326 Q691,1337 688.5,1346.5 Q686,1356 684,1367 Q679,1356 674,1346.5 Q669,1337 664,1326"/> 
            <glyph glyph-name="" unicode="&#x395;" horiz-adv-x="1072" d=" M1072,1400 L1068,1378 L339,1378 L258,722 L878,722 L874,700 L256,700 L172,22 L904,22 L900,0 L146,0 L318,1400"/> 
            <glyph glyph-name="" unicode="&#x396;" horiz-adv-x="1107" d=" M1107,1400 L1105,1390 Q1103,1385 1101.5,1382.5 Q1100,1380 1095,1374 L34,22 L935,22 L931,0 L-1,0 L1,10 Q3,15 4.5,17 Q6,19 9,24 L1071,1378 L183,1378 L187,1400"/> 
            <glyph glyph-name="" unicode="&#x397;" horiz-adv-x="1268" d=" M1096,0 L1072,0 L1158,700 L256,700 L170,0 L146,0 L318,1400 L342,1400 L258,722 L1160,722 L1244,1400 L1268,1400"/> 
            <glyph glyph-name="" unicode="&#x398;" horiz-adv-x="1347" d=" M450,731 L1024,731 L1021,709 L448,709 M1347,814 Q1347,623 1294,470 Q1241,317 1148,209.5 Q1055,102 928,44 Q801,-14 653,-14 Q535,-14 440,28.5 Q345,71 277.5,149 Q210,227 173.5,338 Q137,449 137,586 Q137,712 161,823 Q185,934 229.5,1026 Q274,1118 336.5,1190.5 Q399,1263 476,1313 Q553,1363 642,1389.5 Q731,1416 829,1416 Q947,1416 1043,1373.5 Q1139,1331 1206.5,1252.5 Q1274,1174 1310.5,1062.5 Q1347,951 1347,814 M1321,814 Q1321,948 1286,1056 Q1251,1164 1186.5,1239.5 Q1122,1315 1030.5,1355.5 Q939,1396 827,1396 Q734,1396 648.5,1371 Q563,1346 489,1298 Q415,1250 354.5,1179.5 Q294,1109 251,1019.5 Q208,930 184.5,821.5 Q161,713 161,588 Q161,454 196.5,346 Q232,238 297,162.5 Q362,87 453,46.5 Q544,6 655,6 Q797,6 919,61.5 Q1041,117 1130.5,221.5 Q1220,326 1270.5,476 Q1321,626 1321,814"/> 
            <glyph glyph-name="" unicode="&#x399;" horiz-adv-x="342" d=" M170,0 L146,0 L318,1400 L342,1400"/> 
            <glyph glyph-name="" unicode="&#x39A;" horiz-adv-x="1164" d=" M259,724 L346,724 Q363,724 375.5,725 Q388,726 398.5,729.5 Q409,733 418.5,740 Q428,747 440,758 L1114,1384 Q1125,1395 1133,1397.5 Q1141,1400 1150,1400 L1164,1400 L460,748 Q442,732 430.5,724.5 Q419,717 402,714 Q418,711 428.5,703.5 Q439,696 450,682 L1028,0 L1018,0 Q1003,0 997.5,3 Q992,6 986,14 L434,664 Q425,674 418,682 Q411,690 402,694.5 Q393,699 379.5,701.5 Q366,704 344,704 L256,704 L170,0 L146,0 L318,1402 L342,1402"/> 
            <glyph glyph-name="" unicode="&#x39B;" horiz-adv-x="1063" d=" M1063,0 L1046,0 Q1037,0 1035,10 L694,1326 L684,1366 Q679,1355 674,1346 Q669,1337 664,1326 L0,10 Q-2,5 -6,2.5 Q-10,0 -14,0 L-32,0 L677,1400 L698,1400"/> 
            <glyph glyph-name="" unicode="&#x39C;" horiz-adv-x="1532" d=" M794,314 Q798,307 799,300 L808,314 L1510,1392 Q1515,1400 1524,1400 L1532,1400 L1360,0 L1340,0 L1504,1338 Q1504,1342 1506,1352 L814,290 Q807,280 800,280 L794,280 Q785,280 782,290 L331,1357 Q331,1352 331,1347.5 Q331,1343 330,1338 L166,0 L146,0 L318,1400 L326,1400 Q335,1400 340,1392 L794,314"/> 
            <glyph glyph-name="" unicode="&#x39D;" horiz-adv-x="1268" d=" M326,1400 Q333,1400 338,1392 L1083,43 Q1083,48 1083,53.5 Q1083,59 1084,64 L1248,1400 L1268,1400 L1096,0 L1092,0 Q1085,0 1078,10 L332,1362 L330,1338 L166,0 L146,0 L318,1400 L326,1400"/> 
            <glyph glyph-name="" unicode="&#x39E;" horiz-adv-x="1134" d=" M1134,1400 L1131,1378 L194,1378 L196,1400 M964,22 L962,0 L25,0 L27,22 M340,731 L819,731 L816,709 L337,709"/> 
            <glyph glyph-name="" unicode="&#x39F;" horiz-adv-x="1347" d=" M1347,814 Q1347,623 1294,470 Q1241,317 1148,209.5 Q1055,102 928,44 Q801,-14 653,-14 Q535,-14 440,28.5 Q345,71 277.5,149 Q210,227 173.5,338 Q137,449 137,586 Q137,712 161,823 Q185,934 229.5,1026 Q274,1118 336.5,1190.5 Q399,1263 476,1313 Q553,1363 642,1389.5 Q731,1416 829,1416 Q947,1416 1043,1373.5 Q1139,1331 1206.5,1252.5 Q1274,1174 1310.5,1062.5 Q1347,951 1347,814 M1321,814 Q1321,948 1286,1056 Q1251,1164 1186.5,1239.5 Q1122,1315 1030.5,1355.5 Q939,1396 827,1396 Q734,1396 648.5,1371 Q563,1346 489,1298 Q415,1250 354.5,1179.5 Q294,1109 251,1019.5 Q208,930 184.5,821.5 Q161,713 161,588 Q161,454 196.5,346 Q232,238 297,162.5 Q362,87 453,46.5 Q544,6 655,6 Q797,6 919,61.5 Q1041,117 1130.5,221.5 Q1220,326 1270.5,476 Q1321,626 1321,814"/> 
            <glyph glyph-name="" unicode="&#x3A0;" horiz-adv-x="1269" d=" M1097,0 L1073,0 L1242,1378 L339,1378 L170,0 L146,0 L318,1400 L1269,1400"/> 
            <glyph glyph-name="" unicode="&#x3A1;" horiz-adv-x="1002" d=" M243,600 L170,0 L146,0 L318,1400 L610,1400 Q803,1400 902.5,1316 Q1002,1232 1002,1064 Q1002,960 965,875 Q928,790 862,728.5 Q796,667 706.5,633.5 Q617,600 512,600 M339,1380 L246,620 L514,620 Q616,620 701,653.5 Q786,687 847.5,745.5 Q909,804 943.5,884.5 Q978,965 978,1060 Q978,1215 886,1297.5 Q794,1380 608,1380"/> 
            <glyph glyph-name="" unicode="&#x3A3;" horiz-adv-x="1113" d=" M598,700 Q596,691 590,685 L97,91 Q75,65 58.5,47 Q42,29 28,17 Q47,19 66,20.5 Q85,22 106,22 L943,22 L941,0 L4,0 L5,8 Q5,12 7.5,15.5 Q10,19 12,22 L578,698 L178,1380 Q174,1385 174,1392 L175,1400 L1113,1400 L1110,1378 L273,1378 Q253,1378 235,1379 Q217,1380 198,1385 Q213,1366 224,1350 Q235,1334 249,1309 L594,714 Q596,711 597.5,707.5 Q599,704 598,700"/> 
            <glyph glyph-name="" unicode="&#x3A4;" horiz-adv-x="1114" d=" M1114,1400 L1112,1378 L629,1378 L460,0 L436,0 L605,1378 L118,1378 L120,1400"/> 
            <glyph glyph-name="" unicode="&#x3A5;" horiz-adv-x="1116" d=" M538,595 L464,0 L440,0 L514,595 L132,1400 L152,1400 Q161,1400 164,1392 L516,642 Q519,636 522,629.5 Q525,623 528,615 Q533,623 537.5,629.5 Q542,636 546,642 L1082,1392 Q1087,1400 1096,1400 L1116,1400"/> 
            <glyph glyph-name="" unicode="&#x3A6;" horiz-adv-x="1384" d=" M835,1339 Q969,1339 1071.5,1293 Q1174,1247 1243.5,1169.5 Q1313,1092 1348.5,991 Q1384,890 1384,779 Q1384,637 1334.5,509.5 Q1285,382 1193.5,286 Q1102,190 972,133 Q842,76 680,76 L656,-120 L632,-120 L656,76 Q521,76 418.5,121.5 Q316,167 247,243.5 Q178,320 142.5,421.5 Q107,523 107,635 Q107,730 130,819 Q153,908 196.5,986 Q240,1064 302,1129 Q364,1194 442,1240.5 Q520,1287 613,1313 Q706,1339 811,1339 L833,1520 L857,1520 M1360,777 Q1360,886 1324.5,984.5 Q1289,1083 1221.5,1157.5 Q1154,1232 1056,1276 Q958,1320 832,1320 L682,95 Q782,95 871,120.5 Q960,146 1035.5,191 Q1111,236 1171,299 Q1231,362 1273,437.5 Q1315,513 1337.5,599 Q1360,685 1360,777 M131,637 Q131,527 166.5,429 Q202,331 269.5,256.5 Q337,182 435,138.5 Q533,95 658,95 L808,1320 Q658,1319 533.5,1264 Q409,1209 319.5,1115.5 Q230,1022 180.5,898.5 Q131,775 131,637"/> 
            <glyph glyph-name="" unicode="&#x3A7;" horiz-adv-x="1120" d=" M565,747 L202,1400 L222,1400 Q230,1400 233.5,1396 Q237,1392 242,1384 L583,761 Q585,766 592,774 L1082,1390 Q1087,1396 1091.5,1398 Q1096,1400 1102,1400 L1120,1400 L597,748 L1010,0 L988,0 Q980,0 977.5,5.5 Q975,11 972,14 L578,734 Q575,729 570,722 L10,14 Q5,8 0.5,4 Q-4,0 -10,0 L-32,0"/> 
            <glyph glyph-name="" unicode="&#x3A8;" horiz-adv-x="1413" d=" M234,1400 Q240,1400 242,1396.5 Q244,1393 243,1388 L184,909 Q169,785 194,686.5 Q219,588 282,519.5 Q345,451 444.5,414 Q544,377 678,377 L804,1400 L829,1400 L703,377 Q837,377 946,414 Q1055,451 1134.5,519.5 Q1214,588 1263.5,686.5 Q1313,785 1328,909 L1387,1388 Q1388,1393 1390.5,1396.5 Q1393,1400 1399,1400 L1413,1400 L1352,909 Q1336,781 1285.5,679.5 Q1235,578 1152,506.5 Q1069,435 955.5,396.5 Q842,358 701,358 L657,0 L632,0 L676,358 Q535,358 431,396.5 Q327,435 261.5,506.5 Q196,578 170,679.5 Q144,781 160,909 L220,1400"/> 
            <glyph glyph-name="" unicode="&#x3A9;" horiz-adv-x="1341" d=" M769,0 L772,24 L805,298 Q919,326 1013,376.5 Q1107,427 1174.5,502.5 Q1242,578 1279.5,679.5 Q1317,781 1317,910 Q1317,1031 1277.5,1122 Q1238,1213 1170,1274 Q1102,1335 1011.5,1365.5 Q921,1396 819,1396 Q738,1396 660,1378.5 Q582,1361 511,1326 Q440,1291 380,1238.5 Q320,1186 276,1115.5 Q232,1045 207.5,956.5 Q183,868 183,762 Q183,669 209.5,593.5 Q236,518 285.5,459.5 Q335,401 405.5,360.5 Q476,320 563,298 L527,0 L69,0 Q59,0 59,12 L59,24 L508,24 L540,285 Q460,304 390.5,344.5 Q321,385 269.5,445 Q218,505 188.5,585 Q159,665 159,764 Q159,871 184.5,961.5 Q210,1052 255,1124.5 Q300,1197 362,1251.5 Q424,1306 497.5,1342.5 Q571,1379 653,1397.5 Q735,1416 821,1416 Q929,1416 1023.5,1383.5 Q1118,1351 1188.5,1287.5 Q1259,1224 1300,1130 Q1341,1036 1341,912 Q1341,776 1299,670 Q1257,564 1186,486 Q1115,408 1021.5,358.5 Q928,309 826,285 L794,24 L1241,24 L1241,12 Q1241,7 1235.5,3.5 Q1230,0 1227,0"/> 
            <glyph glyph-name="" unicode="&#x3AA;" horiz-adv-x="629" d=" M146,0 M170,0 L146,0 L318,1400 L342,1400 M65827,1660 Q65827,1639 65809.5,1622.5 Q65792,1606 65771,1606 Q65748,1606 65731.5,1622.5 Q65715,1639 65715,1660 Q65715,1683 65731.5,1699.5 Q65748,1716 65771,1716 Q65792,1716 65809.5,1699.5 Q65827,1683 65827,1660 M66165,1660 Q66165,1639 66147.5,1622.5 Q66130,1606 66109,1606 Q66086,1606 66069.5,1622.5 Q66053,1639 66053,1660 Q66053,1683 66069.5,1699.5 Q66086,1716 66109,1716 Q66130,1716 66147.5,1699.5 Q66165,1683 66165,1660"/> 
            <glyph glyph-name="" unicode="&#x3AB;" horiz-adv-x="1116" d=" M132,0 M538,595 L464,0 L440,0 L514,595 L132,1400 L152,1400 Q161,1400 164,1392 L516,642 Q519,636 522,629.5 Q525,623 528,615 Q533,623 537.5,629.5 Q542,636 546,642 L1082,1392 Q1087,1400 1096,1400 L1116,1400 M523,1660 Q523,1639 505.5,1622.5 Q488,1606 467,1606 Q444,1606 427.5,1622.5 Q411,1639 411,1660 Q411,1683 427.5,1699.5 Q444,1716 467,1716 Q488,1716 505.5,1699.5 Q523,1683 523,1660 M861,1660 Q861,1639 843.5,1622.5 Q826,1606 805,1606 Q782,1606 765.5,1622.5 Q749,1639 749,1660 Q749,1683 765.5,1699.5 Q782,1716 805,1716 Q826,1716 843.5,1699.5 Q861,1683 861,1660"/> 
            <glyph glyph-name="" unicode="&#x3AC;" horiz-adv-x="983" d=" M88,0 M947,7 Q945,-3 913,-3 Q864,-3 838.5,33.5 Q813,70 802,130.5 Q791,191 790,270 Q789,349 789,434 Q743,335 691.5,253 Q640,171 582.5,112 Q525,53 462,20.5 Q399,-12 329,-12 Q214,-12 151,77 Q88,166 88,339 Q88,421 105,501.5 Q122,582 153.5,655 Q185,728 228.5,790.5 Q272,853 325.5,898.5 Q379,944 441,970 Q503,996 570,996 Q627,996 666.5,978 Q706,960 732,927.5 Q758,895 773,851 Q788,807 795.5,755.5 Q803,704 805.5,646 Q808,588 809,529 Q847,619 878.5,712 Q910,805 936,896 Q944,925 949.5,942 Q955,959 958.5,967.5 Q962,976 965,978 Q968,980 972,980 L983,980 Q945,846 902.5,720 Q860,594 810,481 Q811,393 810.5,309.5 Q810,226 818.5,161 Q827,96 850.5,56.5 Q874,17 922,17 L949,17 M332,8 Q401,8 464.5,45 Q528,82 585.5,146 Q643,210 693.5,296 Q744,382 788,480 Q788,541 787.5,602 Q787,663 781,718 Q775,773 762.5,820 Q750,867 726,902 Q702,937 663.5,956.5 Q625,976 569,976 Q506,976 448,951 Q390,926 339,881.5 Q288,837 246.5,776.5 Q205,716 175,645.5 Q145,575 128.5,497 Q112,419 112,340 Q112,176 171,92 Q230,8 332,8 M616,1159 L732,1451 L749,1451 Q757,1451 760,1443 Q763,1435 758,1424 L637,1159"/> 
            <glyph glyph-name="" unicode="&#x3AD;" horiz-adv-x="758" d=" M72,0 M752,888 Q748,884 743,884 Q737,884 722,898.5 Q707,913 678,930 Q649,947 604.5,961.5 Q560,976 495,976 Q415,976 356,955 Q297,934 258,900 Q219,866 200,822.5 Q181,779 181,735 Q181,693 199.5,656.5 Q218,620 252.5,592.5 Q287,565 337,549.5 Q387,534 449,534 L597,534 L595,514 L446,514 Q364,514 299,493.5 Q234,473 188.5,437 Q143,401 119,351 Q95,301 95,242 Q95,190 115,147 Q135,104 172,73 Q209,42 261,25 Q313,8 377,8 Q452,8 504.5,26 Q557,44 591,66 Q625,88 643,106 Q661,124 667,124 Q670,124 674,120 L678,116 Q660,94 630.5,71.5 Q601,49 562,30.5 Q523,12 475.5,0 Q428,-12 374,-12 Q305,-12 249,7.5 Q193,27 154,60.5 Q115,94 93.5,140 Q72,186 72,240 Q72,292 90.5,340 Q109,388 147.5,426 Q186,464 243.5,490 Q301,516 379,524 Q317,532 275.5,554 Q234,576 208,605.5 Q182,635 171,668.5 Q160,702 160,734 Q160,782 181,829 Q202,876 244,913 Q286,950 349,973 Q412,996 497,996 Q588,996 652,967.5 Q716,939 758,894 M501,1159 L617,1451 L634,1451 Q642,1451 645,1443 Q648,1435 643,1424 L522,1159"/> 
            <glyph glyph-name="" unicode="&#x3AE;" horiz-adv-x="899" d=" M62,0 M757,-360 L733,-360 L854,628 L856,628 Q866,710 860.5,774 Q855,838 833,882.5 Q811,927 771.5,950.5 Q732,974 674,974 Q611,974 547.5,943.5 Q484,913 424.5,856 Q365,799 311,718 Q257,637 214,536 L150,0 L128,0 L223,773 Q236,876 203,922 Q170,968 88,968 L62,968 L63,974 Q65,982 69.5,985 Q74,988 91,988 Q134,988 165.5,977 Q197,966 216.5,940.5 Q236,915 243,874 Q250,833 243,773 L220,586 Q260,679 312,754.5 Q364,830 423.5,883 Q483,936 547.5,965 Q612,994 676,994 Q803,994 851,898 Q899,802 878,628 M535,1159 L651,1451 L668,1451 Q676,1451 679,1443 Q682,1435 677,1424 L556,1159"/> 
            <glyph glyph-name="" unicode="&#x3AF;" horiz-adv-x="381" d=" M104,0 M212,980 L236,980 L142,212 Q129,112 165,59.5 Q201,7 289,7 L343,7 L342,-3 Q342,-7 333,-10 Q324,-13 285,-13 Q189,-13 146.5,44 Q104,101 118,212 M65770,1159 L65886,1451 L65903,1451 Q65911,1451 65914,1443 Q65917,1435 65912,1424 L65791,1159"/> 
            <glyph glyph-name="" unicode="&#x3B0;" horiz-adv-x="860" d=" M122,0 M234,980 L157,352 Q147,270 161,205.5 Q175,141 210,96 Q245,51 299.5,27.5 Q354,4 424,4 Q471,4 519.5,19.5 Q568,35 613.5,69.5 Q659,104 699.5,158.5 Q740,213 769.5,291 Q799,369 816.5,471 Q834,573 834,703 Q834,728 833,762 Q832,796 830.5,832 Q829,868 827,903 Q825,938 822,966 Q821,973 824.5,976.5 Q828,980 832,980 L847,980 Q850,945 852,908.5 Q854,872 856,836 Q858,800 859,766.5 Q860,733 860,704 Q860,512 823,375.5 Q786,239 724.5,152 Q663,65 584.5,24.5 Q506,-16 422,-16 Q347,-16 288.5,9 Q230,34 192,81 Q154,128 138,196.5 Q122,265 133,352 L210,980 M808,1250 Q807,1239 801,1229.5 Q795,1220 787,1212.5 Q779,1205 769,1200.5 Q759,1196 750,1196 Q729,1196 715.5,1212.5 Q702,1229 704,1250 Q707,1273 724.5,1289.5 Q742,1306 762,1306 Q782,1306 796,1289.5 Q810,1273 808,1250 M432,1250 Q431,1239 425.5,1229.5 Q420,1220 411.5,1212.5 Q403,1205 393.5,1200.5 Q384,1196 374,1196 Q354,1196 340.5,1212.5 Q327,1229 329,1250 Q332,1273 349,1289.5 Q366,1306 387,1306 Q407,1306 421,1289.5 Q435,1273 432,1250 M509,1159 L625,1451 L642,1451 Q650,1451 653,1443 Q656,1435 651,1424 L530,1159"/> 
            <glyph glyph-name="" unicode="&#x3B1;" horiz-adv-x="983" d=" M947,7 Q945,-3 913,-3 Q864,-3 838.5,33.5 Q813,70 802,130.5 Q791,191 790,270 Q789,349 789,434 Q743,335 691.5,253 Q640,171 582.5,112 Q525,53 462,20.5 Q399,-12 329,-12 Q214,-12 151,77 Q88,166 88,339 Q88,421 105,501.5 Q122,582 153.5,655 Q185,728 228.5,790.5 Q272,853 325.5,898.5 Q379,944 441,970 Q503,996 570,996 Q627,996 666.5,978 Q706,960 732,927.5 Q758,895 773,851 Q788,807 795.5,755.5 Q803,704 805.5,646 Q808,588 809,529 Q847,619 878.5,712 Q910,805 936,896 Q944,925 949.5,942 Q955,959 958.5,967.5 Q962,976 965,978 Q968,980 972,980 L983,980 Q945,846 902.5,720 Q860,594 810,481 Q811,393 810.5,309.5 Q810,226 818.5,161 Q827,96 850.5,56.5 Q874,17 922,17 L949,17 M332,8 Q401,8 464.5,45 Q528,82 585.5,146 Q643,210 693.5,296 Q744,382 788,480 Q788,541 787.5,602 Q787,663 781,718 Q775,773 762.5,820 Q750,867 726,902 Q702,937 663.5,956.5 Q625,976 569,976 Q506,976 448,951 Q390,926 339,881.5 Q288,837 246.5,776.5 Q205,716 175,645.5 Q145,575 128.5,497 Q112,419 112,340 Q112,176 171,92 Q230,8 332,8"/> 
            <glyph glyph-name="" unicode="&#x3B2;" horiz-adv-x="863" d=" M208,883 Q225,1022 256,1122.5 Q287,1223 334,1288 Q381,1353 444.5,1383.5 Q508,1414 589,1414 Q656,1414 706.5,1393.5 Q757,1373 791,1337 Q825,1301 842,1251.5 Q859,1202 859,1144 Q859,1063 834,1000.5 Q809,938 766.5,893 Q724,848 668.5,820.5 Q613,793 552,782 Q625,771 683,742.5 Q741,714 781,670 Q821,626 842,568 Q863,510 863,441 Q863,345 834,262 Q805,179 750.5,118.5 Q696,58 617.5,23 Q539,-12 439,-12 Q394,-12 350.5,-1 Q307,10 268.5,32 Q230,54 198,87 Q166,120 144,164 L113,-98 L73,-348 Q71,-356 67.5,-358 Q64,-360 61,-360 L57,-360 L133,275 M147,193 Q192,105 266.5,56.5 Q341,8 439,8 Q531,8 605,42 Q679,76 731.5,134.5 Q784,193 812.5,271.5 Q841,350 841,440 Q841,514 815.5,575 Q790,636 741.5,680 Q693,724 623,748 Q553,772 465,772 L410,772 L412,790 L466,790 Q532,790 598.5,810.5 Q665,831 718,874 Q771,917 804,983.5 Q837,1050 837,1143 Q837,1197 820.5,1243 Q804,1289 772.5,1322.5 Q741,1356 695,1375 Q649,1394 589,1394 Q517,1394 458.5,1365.5 Q400,1337 355,1275.5 Q310,1214 279.5,1117 Q249,1020 232,883 L157,273"/> 
            <glyph glyph-name="" unicode="&#x3B3;" horiz-adv-x="920" d=" M364,-360 L414,52 Q386,306 358,480 Q330,654 297.5,761 Q265,868 225,915 Q185,962 133,962 L100,962 L101,971 Q102,977 107,979.5 Q112,982 135,982 Q190,982 233.5,938 Q277,894 312.5,788 Q348,682 377,505 Q406,328 431,63 Q504,158 567,256 Q630,354 685.5,462 Q741,570 790,691.5 Q839,813 886,956 Q891,971 896.5,975.5 Q902,980 908,980 L920,980 Q864,814 812.5,687.5 Q761,561 705.5,454 Q650,347 585,248.5 Q520,150 436,41 L388,-360"/> 
            <glyph glyph-name="" unicode="&#x3B4;" horiz-adv-x="862" d=" M854,1376 Q853,1369 851,1367.5 Q849,1366 841,1366 Q836,1366 815,1370.5 Q794,1375 762,1380 Q730,1385 690.5,1389.5 Q651,1394 611,1394 Q540,1394 490.5,1379.5 Q441,1365 409.5,1341 Q378,1317 364,1285 Q350,1253 350,1218 Q350,1173 372,1136 Q394,1099 430,1065 Q466,1031 512,998 Q558,965 606,928 Q654,891 700,848 Q746,805 782,751.5 Q818,698 840,632 Q862,566 862,482 Q862,366 827.5,274.5 Q793,183 734,119.5 Q675,56 595.5,22 Q516,-12 426,-12 Q340,-12 276.5,19.5 Q213,51 171,104.5 Q129,158 108.5,228.5 Q88,299 88,376 Q88,484 120,574 Q152,664 212,735 Q272,806 359,857.5 Q446,909 556,940 Q512,973 470.5,1004 Q429,1035 397.5,1067.5 Q366,1100 347,1136.5 Q328,1173 328,1217 Q328,1252 341.5,1287.5 Q355,1323 388,1351 Q421,1379 476,1396.5 Q531,1414 613,1414 Q637,1414 666.5,1411.5 Q696,1409 728,1405 Q760,1401 792.5,1395.5 Q825,1390 855,1383 M839,480 Q839,565 815.5,632 Q792,699 754.5,752.5 Q717,806 668.5,849 Q620,892 571,929 Q475,901 391,855 Q307,809 245,741.5 Q183,674 147,583.5 Q111,493 111,377 Q111,305 130,238 Q149,171 188,120 Q227,69 286.5,38.5 Q346,8 427,8 Q510,8 585,40.5 Q660,73 716.5,134.5 Q773,196 806,283 Q839,370 839,480"/> 
            <glyph glyph-name="" unicode="&#x3B5;" horiz-adv-x="758" d=" M752,888 Q748,884 743,884 Q737,884 722,898.5 Q707,913 678,930 Q649,947 604.5,961.5 Q560,976 495,976 Q415,976 356,955 Q297,934 258,900 Q219,866 200,822.5 Q181,779 181,735 Q181,693 199.5,656.5 Q218,620 252.5,592.5 Q287,565 337,549.5 Q387,534 449,534 L597,534 L595,514 L446,514 Q364,514 299,493.5 Q234,473 188.5,437 Q143,401 119,351 Q95,301 95,242 Q95,190 115,147 Q135,104 172,73 Q209,42 261,25 Q313,8 377,8 Q452,8 504.5,26 Q557,44 591,66 Q625,88 643,106 Q661,124 667,124 Q670,124 674,120 L678,116 Q660,94 630.5,71.5 Q601,49 562,30.5 Q523,12 475.5,0 Q428,-12 374,-12 Q305,-12 249,7.5 Q193,27 154,60.5 Q115,94 93.5,140 Q72,186 72,240 Q72,292 90.5,340 Q109,388 147.5,426 Q186,464 243.5,490 Q301,516 379,524 Q317,532 275.5,554 Q234,576 208,605.5 Q182,635 171,668.5 Q160,702 160,734 Q160,782 181,829 Q202,876 244,913 Q286,950 349,973 Q412,996 497,996 Q588,996 652,967.5 Q716,939 758,894"/> 
            <glyph glyph-name="" unicode="&#x3B6;" horiz-adv-x="797" d=" M797,1390 Q797,1388 795,1385.5 Q793,1383 785.5,1375 Q778,1367 762,1352 Q746,1337 717,1311 Q644,1246 571.5,1177.5 Q499,1109 432,1036 Q365,963 307.5,886 Q250,809 207.5,727.5 Q165,646 140.5,559.5 Q116,473 116,382 Q116,308 136.5,257 Q157,206 192,170 Q227,134 275,111 Q323,88 378,72 Q457,49 505,24 Q553,-1 579,-26 Q605,-51 613.5,-75 Q622,-99 622,-120 Q622,-155 614.5,-185 Q607,-215 595,-242.5 Q583,-270 567.5,-295.5 Q552,-321 535,-347 L518,-336 Q549,-289 574,-238 Q599,-187 599,-124 Q599,-103 591,-81 Q583,-59 559.5,-37 Q536,-15 493.5,6.5 Q451,28 381,48 Q316,67 263,92.5 Q210,118 172,157 Q134,196 113,250.5 Q92,305 92,381 Q92,521 144,646.5 Q196,772 287,892 Q378,1012 501.5,1132.5 Q625,1253 769,1383 Q683,1381 579,1380.5 Q475,1380 369,1380 L276,1380 Q268,1380 269,1388 L271,1400 L797,1400"/> 
            <glyph glyph-name="" unicode="&#x3B7;" horiz-adv-x="899" d=" M757,-360 L733,-360 L854,628 L856,628 Q866,710 860.5,774 Q855,838 833,882.5 Q811,927 771.5,950.5 Q732,974 674,974 Q611,974 547.5,943.5 Q484,913 424.5,856 Q365,799 311,718 Q257,637 214,536 L150,0 L128,0 L223,773 Q236,876 203,922 Q170,968 88,968 L62,968 L63,974 Q65,982 69.5,985 Q74,988 91,988 Q134,988 165.5,977 Q197,966 216.5,940.5 Q236,915 243,874 Q250,833 243,773 L220,586 Q260,679 312,754.5 Q364,830 423.5,883 Q483,936 547.5,965 Q612,994 676,994 Q803,994 851,898 Q899,802 878,628"/> 
            <glyph glyph-name="" unicode="&#x3B8;" horiz-adv-x="967" d=" M645,1414 Q724,1414 784,1377.5 Q844,1341 884.5,1272.5 Q925,1204 946,1105.5 Q967,1007 967,883 Q967,676 934,510 Q901,344 838,228 Q775,112 684.5,50 Q594,-12 479,-12 Q397,-12 335,24 Q273,60 232,127.5 Q191,195 170,293 Q149,391 149,514 Q149,722 182,888.5 Q215,1055 278.5,1172 Q342,1289 434.5,1351.5 Q527,1414 645,1414 M479,8 Q579,8 658,56 Q737,104 794.5,193.5 Q852,283 888,409.5 Q924,536 937,694 L180,694 Q176,650 174.5,605.5 Q173,561 173,513 Q173,398 191.5,304.5 Q210,211 248,145 Q286,79 343.5,43.5 Q401,8 479,8 M645,1394 Q544,1394 464,1346 Q384,1298 325.5,1209 Q267,1120 231,994.5 Q195,869 181,714 L939,714 Q945,795 945,884 Q945,1001 926.5,1095.5 Q908,1190 870.5,1256 Q833,1322 776.5,1358 Q720,1394 645,1394"/> 
            <glyph glyph-name="" unicode="&#x3B9;" horiz-adv-x="343" d=" M212,980 L236,980 L142,212 Q129,112 165,59.5 Q201,7 289,7 L343,7 L342,-3 Q342,-7 333,-10 Q324,-13 285,-13 Q189,-13 146.5,44 Q104,101 118,212"/> 
            <glyph glyph-name="" unicode="&#x3BA;" horiz-adv-x="807" d=" M99,0 M243,980 L187,536 L229,536 Q237,536 248.5,537.5 Q260,539 277,554 L755,964 Q763,972 771,976 Q779,980 791,980 L807,980 L297,546 Q282,534 271,529 Q283,525 291.5,518.5 Q300,512 307,504 L723,0 L707,0 Q699,0 694,2 Q689,4 681,12 L289,490 Q275,507 261.5,512.5 Q248,518 221,518 L185,518 L121,0 L99,0 L221,980"/> 
            <glyph glyph-name="" unicode="&#x3BB;" horiz-adv-x="885" d=" M486,939 L405,1277 Q398,1306 388,1328 Q378,1350 362,1364.5 Q346,1379 321,1386.5 Q296,1394 259,1394 L209,1394 L210,1404 Q210,1408 217.5,1411 Q225,1414 256,1414 Q298,1414 327,1406.5 Q356,1399 375.5,1384 Q395,1369 407,1345.5 Q419,1322 427,1291 L702,151 Q721,74 753.5,43.5 Q786,13 837,13 L885,13 L884,5 Q883,-1 876.5,-4 Q870,-7 843,-7 Q813,-7 787.5,-1 Q762,5 741.5,22.5 Q721,40 705,70.5 Q689,101 677,150 L504,878 Q502,887 500,896 Q498,905 496,914 Q493,906 490,898 Q487,890 482,882 L47,14 Q44,7 38.5,3.5 Q33,0 22,0 L10,0"/> 
            <glyph glyph-name="" unicode="&#x3BC;" horiz-adv-x="986" d=" M244,980 L163,325 Q150,173 207.5,88.5 Q265,4 399,4 Q504,4 600,63.5 Q696,123 776,231 L869,980 L893,980 L798,207 Q792,156 801,119 Q810,82 831.5,58.5 Q853,35 886,23.5 Q919,12 960,12 L986,12 L985,2 Q983,-8 942,-8 Q904,-8 871,4 Q838,16 814.5,41.5 Q791,67 780,107 Q769,147 775,203 Q737,152 693,111.5 Q649,71 600.5,42.5 Q552,14 500.5,-1 Q449,-16 396,-16 Q278,-16 217,44 Q156,104 147,216 Q142,166 135.5,110.5 Q129,55 124,10 L79,-360 L67,-360 Q61,-360 58.5,-356.5 Q56,-353 56,-348 L220,980"/> 
            <glyph glyph-name="" unicode="&#x3BD;" horiz-adv-x="896" d=" M896,980 Q858,868 821.5,772.5 Q785,677 747,593 Q709,509 669,433.5 Q629,358 585,286.5 Q541,215 491,144.5 Q441,74 384,0 L370,0 L99,980 L113,980 Q124,980 128,966 L374,68 Q380,48 383,28 Q458,126 523.5,226.5 Q589,327 647.5,439.5 Q706,552 759.5,680 Q813,808 863,961 Q867,972 871.5,976 Q876,980 882,980"/> 
            <glyph glyph-name="" unicode="&#x3BE;" horiz-adv-x="737" d=" M736,1391 Q734,1378 721,1378 L652,1378 Q566,1378 490.5,1348 Q415,1318 359.5,1268 Q304,1218 272,1152.5 Q240,1087 240,1017 Q240,966 259,921 Q278,876 316.5,843 Q355,810 412.5,791 Q470,772 547,772 L605,772 L603,751 L526,751 Q422,751 344,722.5 Q266,694 213.5,643.5 Q161,593 134.5,523.5 Q108,454 108,372 Q108,303 132,253.5 Q156,204 196.5,167.5 Q237,131 291,104.5 Q345,78 405,57 Q464,36 501,15.5 Q538,-5 558.5,-25.5 Q579,-46 586.5,-67 Q594,-88 594,-112 Q594,-148 586.5,-179 Q579,-210 567,-238.5 Q555,-267 539,-293.5 Q523,-320 506,-345 L488,-333 Q504,-309 519,-284.5 Q534,-260 545.5,-233.5 Q557,-207 564,-177.5 Q571,-148 571,-113 Q571,-93 564,-74 Q557,-55 538,-36.5 Q519,-18 485,0 Q451,18 397,36 Q335,57 278.5,83.5 Q222,110 179,149 Q136,188 110,242 Q84,296 84,371 Q84,446 106,512 Q128,578 172.5,630 Q217,682 283,717.5 Q349,753 437,765 Q380,777 338.5,802 Q297,827 269.5,860.5 Q242,894 229,934 Q216,974 216,1017 Q216,1079 240,1138 Q264,1197 307.5,1245.5 Q351,1294 412.5,1330 Q474,1366 550,1382 Q523,1381 497,1380.5 Q471,1380 442,1379.5 Q413,1379 380,1379 Q347,1379 308,1379 L212,1379 Q204,1379 205,1387 L207,1400 L737,1400"/> 
            <glyph glyph-name="" unicode="&#x3BF;" horiz-adv-x="898" d=" M432,8 Q531,8 612.5,58.5 Q694,109 752,192 Q810,275 842,381 Q874,487 874,598 Q874,686 852,755.5 Q830,825 789,873.5 Q748,922 690,948 Q632,974 560,974 Q494,974 435.5,951.5 Q377,929 328,888.5 Q279,848 240,792.5 Q201,737 174,671.5 Q147,606 132.5,533.5 Q118,461 118,386 Q118,298 140,228 Q162,158 202.5,109 Q243,60 301,34 Q359,8 432,8 M430,-12 Q352,-12 289.5,16 Q227,44 183.5,95.5 Q140,147 117,220.5 Q94,294 94,386 Q94,463 109,538 Q124,613 152.5,680.5 Q181,748 221.5,805.5 Q262,863 314,905 Q366,947 428.5,970.5 Q491,994 562,994 Q640,994 702,966 Q764,938 807.5,886.5 Q851,835 874.5,762 Q898,689 898,598 Q898,522 883,447 Q868,372 839.5,304 Q811,236 770.5,178 Q730,120 678,78 Q626,36 563.5,12 Q501,-12 430,-12"/> 
            <glyph glyph-name="" unicode="&#x3C0;" horiz-adv-x="1037" d=" M1037,960 L1036,948 Q1035,938 1020,938 L842,938 Q826,812 813.5,721.5 Q801,631 791,565 Q781,499 774,453 Q767,407 762.5,370.5 Q758,334 756,301.5 Q754,269 754,231 Q754,166 762,124.5 Q770,83 786.5,59 Q803,35 827.5,26 Q852,17 884,17 L905,17 L903,7 Q903,3 895,0 Q887,-3 863,-3 Q831,-3 806,6 Q781,15 764,39.5 Q747,64 737.5,106.5 Q728,149 728,215 Q728,278 737.5,357 Q747,436 761,528 Q775,620 791.5,723 Q808,826 822,938 L371,938 Q339,684 294,504.5 Q249,325 202.5,212 Q156,99 112.5,47 Q69,-5 39,-5 Q22,-5 22,2 L24,20 L42,20 Q63,20 101.5,70 Q140,120 184.5,229.5 Q229,339 273,513.5 Q317,688 349,938 L124,938 L125,946 Q126,951 130,955.5 Q134,960 142,960"/> 
            <glyph glyph-name="" unicode="&#x3C1;" horiz-adv-x="893" d=" M154,548 Q168,662 205.5,746 Q243,830 298,885.5 Q353,941 422,968.5 Q491,996 568,996 Q641,996 701,970.5 Q761,945 803.5,894.5 Q846,844 869.5,768 Q893,692 893,592 Q893,469 861.5,359 Q830,249 771,166.5 Q712,84 625.5,36 Q539,-12 430,-12 Q385,-12 341.5,1.5 Q298,15 259,40.5 Q220,66 187.5,102 Q155,138 133,183 L67,-360 L43,-360 M137,215 Q162,163 196,124 Q230,85 268.5,59.5 Q307,34 348,21 Q389,8 430,8 Q501,8 560.5,30 Q620,52 669,91 Q718,130 755,184 Q792,238 817,303 Q842,368 855,441 Q868,514 868,591 Q868,686 846.5,758 Q825,830 785.5,878.5 Q746,927 690.5,951.5 Q635,976 567,976 Q496,976 431,949 Q366,922 314.5,868.5 Q263,815 227,735 Q191,655 178,548"/> 
            <glyph glyph-name="" unicode="&#x3C2;" horiz-adv-x="803" d=" M797,888 Q795,886 793,885 Q791,884 788,884 Q782,884 767.5,898.5 Q753,913 726,930 Q699,947 657.5,961.5 Q616,976 557,976 Q459,976 379,936.5 Q299,897 243,827 Q187,757 156.5,661.5 Q126,566 126,454 Q126,358 154.5,292.5 Q183,227 230.5,182 Q278,137 339.5,107.5 Q401,78 468,55 Q527,34 564,14.5 Q601,-5 622,-25 Q643,-45 650.5,-67 Q658,-89 658,-114 Q658,-150 650.5,-181 Q643,-212 630.5,-240.5 Q618,-269 602,-295.5 Q586,-322 570,-347 L551,-335 Q567,-311 582,-286.5 Q597,-262 608.5,-235.5 Q620,-209 627,-179.5 Q634,-150 634,-115 Q634,-94 627,-75 Q620,-56 601,-38 Q582,-20 548,-2 Q514,16 460,34 Q380,60 314,93 Q248,126 200.5,174.5 Q153,223 127,290.5 Q101,358 101,453 Q101,570 133,669.5 Q165,769 224.5,841.5 Q284,914 368.5,955 Q453,996 557,996 Q639,996 701,967.5 Q763,939 803,894"/> 
            <glyph glyph-name="" unicode="&#x3C3;" horiz-adv-x="1037" d=" M691,950 Q743,931 782,895.5 Q821,860 847.5,811.5 Q874,763 887,704 Q900,645 900,580 Q900,452 868.5,344 Q837,236 778,156.5 Q719,77 633.5,32.5 Q548,-12 440,-12 Q360,-12 296.5,16 Q233,44 189,97 Q145,150 121,226 Q97,302 97,399 Q97,523 129,628 Q161,733 224.5,809 Q288,885 384,927.5 Q480,970 608,970 L1037,970 L1036,966 Q1035,960 1031,955 Q1027,950 1016,950 M876,583 Q876,657 860,720.5 Q844,784 812,832 Q780,880 732.5,910.5 Q685,941 623,950 L607,950 Q481,950 389,907.5 Q297,865 237.5,791 Q178,717 149.5,615.5 Q121,514 121,397 Q121,305 142.5,233 Q164,161 205,111 Q246,61 305.5,34.5 Q365,8 442,8 Q546,8 626.5,50.5 Q707,93 762.5,169.5 Q818,246 847,351.5 Q876,457 876,583"/> 
            <glyph glyph-name="" unicode="&#x3C4;" horiz-adv-x="804" d=" M86,950 Q87,960 99,960 L804,960 L803,950 Q802,945 798.5,941.5 Q795,938 788,938 L422,938 L335,222 Q323,122 358.5,69.5 Q394,17 482,17 L537,17 L535,7 Q535,3 526,0 Q517,-3 478,-3 Q382,-3 339.5,54 Q297,111 311,222 L398,938 L84,938"/> 
            <glyph glyph-name="" unicode="&#x3C5;" horiz-adv-x="860" d=" M234,980 L157,352 Q147,270 161,205.5 Q175,141 210,96 Q245,51 299.5,27.5 Q354,4 424,4 Q471,4 519.5,19.5 Q568,35 613.5,69.5 Q659,104 699.5,158.5 Q740,213 769.5,291 Q799,369 816.5,471 Q834,573 834,703 Q834,728 833,762 Q832,796 830.5,832 Q829,868 827,903 Q825,938 822,966 Q821,973 824.5,976.5 Q828,980 832,980 L847,980 Q850,945 852,908.5 Q854,872 856,836 Q858,800 859,766.5 Q860,733 860,704 Q860,512 823,375.5 Q786,239 724.5,152 Q663,65 584.5,24.5 Q506,-16 422,-16 Q347,-16 288.5,9 Q230,34 192,81 Q154,128 138,196.5 Q122,265 133,352 L210,980"/> 
            <glyph glyph-name="" unicode="&#x3C6;" horiz-adv-x="1101" d=" M121,425 Q121,345 144,270 Q167,195 215.5,137 Q264,79 340,44 Q416,9 522,8 L613,748 Q627,867 682.5,931.5 Q738,996 840,996 Q903,996 951.5,965.5 Q1000,935 1033,881.5 Q1066,828 1083.5,757 Q1101,686 1101,605 Q1101,479 1065,367.5 Q1029,256 958.5,172 Q888,88 784,38.5 Q680,-11 543,-12 L501,-360 L477,-360 L519,-12 Q409,-11 329.5,25 Q250,61 198.5,121 Q147,181 122,259.5 Q97,338 97,424 Q97,524 121.5,612 Q146,700 191.5,772.5 Q237,845 301.5,900.5 Q366,956 447,991 L450,981 Q452,977 449.5,972.5 Q447,968 442,966 Q361,929 300.5,871 Q240,813 200.5,741.5 Q161,670 141,589 Q121,508 121,425 M546,8 Q680,8 779.5,57 Q879,106 945,188.5 Q1011,271 1044,378.5 Q1077,486 1077,604 Q1077,679 1061,746.5 Q1045,814 1014.5,865 Q984,916 940,946 Q896,976 839,976 Q752,976 701.5,918.5 Q651,861 637,748"/> 
            <glyph glyph-name="" unicode="&#x3C7;" horiz-adv-x="779" d=" M384,328 Q375,308 364.5,287.5 Q354,267 344,251 L-13,-343 Q-15,-347 -20,-352 Q-25,-357 -33,-357 L-47,-357 L374,344 L225,848 Q216,877 204.5,899 Q193,921 175,935.5 Q157,950 131.5,957.5 Q106,965 69,965 L43,965 L45,975 Q45,979 49.5,982 Q54,985 72,985 Q148,985 187.5,955 Q227,925 246,862 L393,365 Q402,385 413,406.5 Q424,428 435,445 L745,966 Q748,970 752.5,975 Q757,980 765,980 L779,980 L403,350 L571,-207 Q593,-284 624,-314.5 Q655,-345 705,-345 L731,-345 L730,-355 Q730,-359 725,-362 Q720,-365 702,-365 Q679,-365 657,-359.5 Q635,-354 615.5,-338 Q596,-322 579,-293.5 Q562,-265 548,-219"/> 
            <glyph glyph-name="" unicode="&#x3C8;" horiz-adv-x="1171" d=" M765,1400 L594,8 Q649,9 711.5,23 Q774,37 835.5,67.5 Q897,98 953,149 Q1009,200 1052,275.5 Q1095,351 1120.5,453.5 Q1146,556 1146,692 Q1146,719 1145,754.5 Q1144,790 1142.5,827 Q1141,864 1138.5,900.5 Q1136,937 1133,966 Q1132,973 1135,976.5 Q1138,980 1143,980 L1158,980 Q1161,945 1163,908.5 Q1165,872 1167,836.5 Q1169,801 1170,767 Q1171,733 1171,705 Q1171,566 1146,459.5 Q1121,353 1078,274 Q1035,195 978,141 Q921,87 856.5,54 Q792,21 724,5.5 Q656,-10 592,-11 L549,-360 L525,-360 L567,-12 Q469,-11 385,17 Q301,45 241.5,99 Q182,153 153.5,234 Q125,315 139,422 L207,980 L222,980 Q227,980 229,976 Q231,972 230,968 L163,422 Q152,330 176.5,254.5 Q201,179 255,124.5 Q309,70 389,39.5 Q469,9 570,8 L741,1400"/> 
            <glyph glyph-name="" unicode="&#x3C9;" horiz-adv-x="1166" d=" M349,4 Q398,4 440.5,25.5 Q483,47 516,86.5 Q549,126 571,183 Q593,240 602,311 L643,646 L667,646 L626,311 Q617,240 625,183 Q633,126 656,86.5 Q679,47 716,25.5 Q753,4 803,4 Q832,4 869,14.5 Q906,25 943.5,49.5 Q981,74 1017,114.5 Q1053,155 1081,214.5 Q1109,274 1126,354 Q1143,434 1143,539 Q1143,637 1121,747.5 Q1099,858 1055,966 Q1053,972 1056.5,976 Q1060,980 1066,980 L1078,980 Q1114,883 1140,770 Q1166,657 1166,538 Q1166,386 1132.5,280.5 Q1099,175 1046,109 Q993,43 928.5,13.5 Q864,-16 802,-16 Q767,-16 732.5,-4.5 Q698,7 669.5,35 Q641,63 622.5,109.5 Q604,156 603,226 Q585,156 555.5,109.5 Q526,63 491,35 Q456,7 419,-4.5 Q382,-16 348,-16 Q300,-16 254.5,5.5 Q209,27 173.5,72 Q138,117 116.5,187 Q95,257 95,354 Q95,454 112.5,537 Q130,620 159.5,694 Q189,768 228.5,837.5 Q268,907 313,980 L326,980 Q332,980 334.5,976 Q337,972 333,966 Q280,883 239.5,807.5 Q199,732 172,658.5 Q145,585 131,510.5 Q117,436 117,356 Q117,255 140,187.5 Q163,120 198,79.5 Q233,39 273.5,21.5 Q314,4 349,4"/> 
            <glyph glyph-name="" unicode="&#x3CA;" horiz-adv-x="343" d=" M104,0 M212,980 L236,980 L142,212 Q129,112 165,59.5 Q201,7 289,7 L343,7 L342,-3 Q342,-7 333,-10 Q324,-13 285,-13 Q189,-13 146.5,44 Q104,101 118,212 M65873,1344 Q65873,1323 65857,1306.5 Q65841,1290 65821,1290 Q65800,1290 65784.5,1306.5 Q65769,1323 65769,1344 Q65769,1367 65784.5,1383.5 Q65800,1400 65821,1400 Q65841,1400 65857,1383.5 Q65873,1367 65873,1344"/> 
            <glyph glyph-name="" unicode="&#x3CB;" horiz-adv-x="860" d=" M122,0 M234,980 L157,352 Q147,270 161,205.5 Q175,141 210,96 Q245,51 299.5,27.5 Q354,4 424,4 Q471,4 519.5,19.5 Q568,35 613.5,69.5 Q659,104 699.5,158.5 Q740,213 769.5,291 Q799,369 816.5,471 Q834,573 834,703 Q834,728 833,762 Q832,796 830.5,832 Q829,868 827,903 Q825,938 822,966 Q821,973 824.5,976.5 Q828,980 832,980 L847,980 Q850,945 852,908.5 Q854,872 856,836 Q858,800 859,766.5 Q860,733 860,704 Q860,512 823,375.5 Q786,239 724.5,152 Q663,65 584.5,24.5 Q506,-16 422,-16 Q347,-16 288.5,9 Q230,34 192,81 Q154,128 138,196.5 Q122,265 133,352 L210,980 M472,1280 Q472,1259 454.5,1242.5 Q437,1226 416,1226 Q393,1226 376.5,1242.5 Q360,1259 360,1280 Q360,1303 376.5,1319.5 Q393,1336 416,1336 Q437,1336 454.5,1319.5 Q472,1303 472,1280 M780,1280 Q780,1259 762.5,1242.5 Q745,1226 724,1226 Q701,1226 684.5,1242.5 Q668,1259 668,1280 Q668,1303 684.5,1319.5 Q701,1336 724,1336 Q745,1336 762.5,1319.5 Q780,1303 780,1280"/> 
            <glyph glyph-name="" unicode="&#x3CC;" horiz-adv-x="898" d=" M94,0 M432,8 Q531,8 612.5,58.5 Q694,109 752,192 Q810,275 842,381 Q874,487 874,598 Q874,686 852,755.5 Q830,825 789,873.5 Q748,922 690,948 Q632,974 560,974 Q494,974 435.5,951.5 Q377,929 328,888.5 Q279,848 240,792.5 Q201,737 174,671.5 Q147,606 132.5,533.5 Q118,461 118,386 Q118,298 140,228 Q162,158 202.5,109 Q243,60 301,34 Q359,8 432,8 M430,-12 Q352,-12 289.5,16 Q227,44 183.5,95.5 Q140,147 117,220.5 Q94,294 94,386 Q94,463 109,538 Q124,613 152.5,680.5 Q181,748 221.5,805.5 Q262,863 314,905 Q366,947 428.5,970.5 Q491,994 562,994 Q640,994 702,966 Q764,938 807.5,886.5 Q851,835 874.5,762 Q898,689 898,598 Q898,522 883,447 Q868,372 839.5,304 Q811,236 770.5,178 Q730,120 678,78 Q626,36 563.5,12 Q501,-12 430,-12 M579,1159 L695,1451 L712,1451 Q720,1451 723,1443 Q726,1435 721,1424 L600,1159"/> 
            <glyph glyph-name="" unicode="&#x3CD;" horiz-adv-x="860" d=" M122,0 M234,980 L157,352 Q147,270 161,205.5 Q175,141 210,96 Q245,51 299.5,27.5 Q354,4 424,4 Q471,4 519.5,19.5 Q568,35 613.5,69.5 Q659,104 699.5,158.5 Q740,213 769.5,291 Q799,369 816.5,471 Q834,573 834,703 Q834,728 833,762 Q832,796 830.5,832 Q829,868 827,903 Q825,938 822,966 Q821,973 824.5,976.5 Q828,980 832,980 L847,980 Q850,945 852,908.5 Q854,872 856,836 Q858,800 859,766.5 Q860,733 860,704 Q860,512 823,375.5 Q786,239 724.5,152 Q663,65 584.5,24.5 Q506,-16 422,-16 Q347,-16 288.5,9 Q230,34 192,81 Q154,128 138,196.5 Q122,265 133,352 L210,980 M529,1159 L645,1451 L662,1451 Q670,1451 673,1443 Q676,1435 671,1424 L550,1159"/> 
            <glyph glyph-name="" unicode="&#x3CE;" horiz-adv-x="1166" d=" M95,0 M349,4 Q398,4 440.5,25.5 Q483,47 516,86.5 Q549,126 571,183 Q593,240 602,311 L643,646 L667,646 L626,311 Q617,240 625,183 Q633,126 656,86.5 Q679,47 716,25.5 Q753,4 803,4 Q832,4 869,14.5 Q906,25 943.5,49.5 Q981,74 1017,114.5 Q1053,155 1081,214.5 Q1109,274 1126,354 Q1143,434 1143,539 Q1143,637 1121,747.5 Q1099,858 1055,966 Q1053,972 1056.5,976 Q1060,980 1066,980 L1078,980 Q1114,883 1140,770 Q1166,657 1166,538 Q1166,386 1132.5,280.5 Q1099,175 1046,109 Q993,43 928.5,13.5 Q864,-16 802,-16 Q767,-16 732.5,-4.5 Q698,7 669.5,35 Q641,63 622.5,109.5 Q604,156 603,226 Q585,156 555.5,109.5 Q526,63 491,35 Q456,7 419,-4.5 Q382,-16 348,-16 Q300,-16 254.5,5.5 Q209,27 173.5,72 Q138,117 116.5,187 Q95,257 95,354 Q95,454 112.5,537 Q130,620 159.5,694 Q189,768 228.5,837.5 Q268,907 313,980 L326,980 Q332,980 334.5,976 Q337,972 333,966 Q280,883 239.5,807.5 Q199,732 172,658.5 Q145,585 131,510.5 Q117,436 117,356 Q117,255 140,187.5 Q163,120 198,79.5 Q233,39 273.5,21.5 Q314,4 349,4 M697,1159 L813,1451 L830,1451 Q838,1451 841,1443 Q844,1435 839,1424 L718,1159"/> 
            <glyph glyph-name="" unicode="&#x3D0;" horiz-adv-x="910" d=" M142,0 M910,1220 Q910,1176 896,1125.5 Q882,1075 843.5,1021.5 Q805,968 736.5,911.5 Q668,855 558,799 Q643,823 707,813 Q771,803 814,766 Q857,729 879,668 Q901,607 901,530 Q901,398 864,296.5 Q827,195 765,126.5 Q703,58 621.5,23 Q540,-12 451,-12 Q301,-12 221.5,105.5 Q142,223 142,446 Q142,595 163.5,724.5 Q185,854 223,961.5 Q261,1069 313.5,1153 Q366,1237 428,1295 Q490,1353 559,1383.5 Q628,1414 700,1414 Q799,1414 854.5,1362 Q910,1310 910,1220 M170,603 Q159,465 169,355 Q179,245 213,167.5 Q247,90 306,49 Q365,8 451,8 Q535,8 612.5,41 Q690,74 748.5,139.5 Q807,205 842,303 Q877,401 877,531 Q877,618 849.5,680.5 Q822,743 767.5,773 Q713,803 630.5,795.5 Q548,788 438,734 M700,1394 Q614,1394 529.5,1346.5 Q445,1299 373.5,1203 Q302,1107 249,963 Q196,819 173,627 L499,786 Q627,848 703.5,909 Q780,970 821,1026 Q862,1082 875,1131.5 Q888,1181 888,1220 Q888,1302 838,1348 Q788,1394 700,1394"/> 
            <glyph glyph-name="" unicode="&#x3D1;" horiz-adv-x="1142" d=" M87,0 M245,636 Q251,687 246.5,721 Q242,755 226,775 Q210,795 182,803.5 Q154,812 113,812 L87,812 L88,820 Q89,826 97.5,829 Q106,832 135,832 Q172,832 200,823 Q228,814 246,791.5 Q264,769 270,731 Q276,693 269,636 L242,416 Q232,334 239.5,260 Q247,186 276,130 Q305,74 357.5,41 Q410,8 491,8 Q594,8 679,59 Q764,110 824.5,217 Q885,324 918,489.5 Q951,655 951,883 Q951,903 950.5,921.5 Q950,940 949,958 Q837,958 736,970 Q635,982 558,1009.5 Q481,1037 435.5,1083.5 Q390,1130 390,1200 Q390,1246 404.5,1285.5 Q419,1325 449,1353.5 Q479,1382 524.5,1398 Q570,1414 631,1414 Q697,1414 755,1390 Q813,1366 858,1313.5 Q903,1261 932,1179 Q961,1097 970,980 L1142,980 L1141,968 Q1141,965 1138,961.5 Q1135,958 1130,958 L972,958 Q973,940 973.5,922 Q974,904 974,884 Q974,679 944.5,513.5 Q915,348 855,231 Q795,114 704.5,51 Q614,-12 491,-12 Q405,-12 348,22 Q291,56 258.5,114.5 Q226,173 216.5,251 Q207,329 218,416 M411,1201 Q411,1138 454.5,1095.5 Q498,1053 571.5,1027.5 Q645,1002 742.5,991.5 Q840,981 947,980 Q930,1186 846.5,1290 Q763,1394 631,1394 Q575,1394 533.5,1378.5 Q492,1363 465,1337 Q438,1311 424.5,1275.5 Q411,1240 411,1201"/> 
            <glyph glyph-name="" unicode="&#x3D2;" horiz-adv-x="1120" d=" M456,0 L432,0 L490,478 Q512,694 493,863 Q474,1032 426,1148.5 Q378,1265 308,1326 Q238,1387 159,1387 L110,1387 L112,1401 Q112,1403 118,1405 Q124,1407 131.5,1408 Q139,1409 147.5,1409.5 Q156,1410 162,1410 Q240,1410 308,1356.5 Q376,1303 425.5,1200.5 Q475,1098 500.5,948.5 Q526,799 517,608 L520,608 Q558,799 620,948.5 Q682,1098 756.5,1200.5 Q831,1303 912.5,1356.5 Q994,1410 1071,1410 Q1077,1410 1086,1409.5 Q1095,1409 1102.5,1408 Q1110,1407 1115,1405 Q1120,1403 1120,1401 L1118,1387 L1069,1387 Q987,1387 900,1322.5 Q813,1258 735,1135.5 Q657,1013 597,835 Q537,657 509,431"/> 
            </font>
</defs>
</svg>
