<?xml version="1.0" standalone="no"?>
<!DOCTYPE svg PUBLIC "-//W3C//DTD SVG 1.1//EN" "http://www.w3.org/Graphics/SVG/1.1/DTD/svg11.dtd" >
<svg xmlns="http://www.w3.org/2000/svg">
    <defs>
        <font id="Lato-Thin">
            <font-face font-family="Lato-Thin"
                       units-per-em="2000"
                       ascent="1974"
                       descent="-426"
                       bbox="-935 -522 2681 2085"
                    />
            <missing-glyph horiz-adv-x="0" />
            
            <glyph glyph-name="!" unicode="&#x21;" horiz-adv-x="321" d=" M275,1406 L275,834 Q275,790 274.5,751 Q274,712 273,671 Q272,630 270,584 Q268,538 266,480 L230,480 Q228,538 226,584 Q224,630 223,671 Q222,712 221.5,751 Q221,790 221,834 L221,1406 M169,59 Q169,91 190.5,113.5 Q212,136 244,136 Q276,136 298.5,113.5 Q321,91 321,59 Q321,27 298.5,5.5 Q276,-16 244,-16 Q212,-16 190.5,5.5 Q169,27 169,59"/> 
            <glyph glyph-name="&quot;" unicode="&#x22;" horiz-adv-x="483" d=" M169,941 M214,1406 L214,1113 L209,960 Q207,941 191,941 Q175,941 173,960 L169,1113 L169,1406 M483,1406 L483,1113 L478,960 Q476,941 460,941 Q444,941 442,960 L438,1113 L438,1406"/> 
            <glyph glyph-name="#" unicode="&#x23;" horiz-adv-x="1065" d=" M731,453 L632,0 L613,0 Q602,0 595.5,6.5 Q589,13 593,27 L686,453 L362,453 L269,26 Q266,12 258.5,6 Q251,0 240,0 L218,0 L317,453 L115,453 Q105,453 99,458.5 Q93,464 95,477 L96,492 L323,492 L414,914 L149,914 L151,933 Q153,953 177,953 L419,953 L513,1381 Q517,1406 543,1406 L564,1406 L464,953 L789,953 L888,1406 L911,1406 Q922,1406 927,1398.5 Q932,1391 928,1377 L834,953 L1065,953 L1062,934 Q1060,914 1036,914 L829,914 L737,492 L986,492 Q1009,492 1006,469 L1005,453 M368,492 L692,492 L784,914 L459,914"/> 
            <glyph glyph-name="$" unicode="&#x24;" horiz-adv-x="999" d=" M542,-16 Q474,-15 418.5,-1.5 Q363,12 316.5,35.5 Q270,59 230,92 Q190,125 154,167 L167,185 Q172,190 175.5,192.5 Q179,195 186,195 Q193,195 205.5,183 Q218,171 237,153 Q256,135 283.5,114 Q311,93 348.5,74 Q386,55 434,42 Q482,29 544,28 L573,719 Q506,740 443,765.5 Q380,791 330.5,830 Q281,869 251,926.5 Q221,984 221,1070 Q221,1137 246,1199.5 Q271,1262 319.5,1310 Q368,1358 438.5,1387.5 Q509,1417 601,1419 L609,1600 Q609,1622 628,1622 L648,1622 L639,1419 Q739,1415 814,1380.5 Q889,1346 955,1278 L944,1261 Q938,1251 928,1251 Q917,1251 898.5,1269.5 Q880,1288 846.5,1310.5 Q813,1333 762,1352.5 Q711,1372 637,1375 L612,758 Q683,735 752.5,710 Q822,685 876.5,646 Q931,607 965,548.5 Q999,490 999,402 Q999,317 971,242.5 Q943,168 889,112 Q835,56 757,22.5 Q679,-11 580,-15 L571,-245 Q571,-267 552,-267 L532,-267 M950,393 Q950,469 921.5,520 Q893,571 845.5,606 Q798,641 736.5,664 Q675,687 610,707 L582,28 Q669,32 737.5,62 Q806,92 853.5,141.5 Q901,191 925.5,255.5 Q950,320 950,393 M270,1073 Q270,1003 295,954.5 Q320,906 362,871.5 Q404,837 459.5,813.5 Q515,790 575,770 L599,1375 Q518,1372 456.5,1346.5 Q395,1321 353.5,1280 Q312,1239 291,1185 Q270,1131 270,1073"/> 
            <glyph glyph-name="%" unicode="&#x25;" horiz-adv-x="1430" d=" M680,1068 Q680,979 657,913 Q634,847 595,803.5 Q556,760 504,738.5 Q452,717 394,717 Q334,717 282,738.5 Q230,760 191,803.5 Q152,847 129.5,913 Q107,979 107,1068 Q107,1158 129.5,1224.5 Q152,1291 191,1335 Q230,1379 282,1400.5 Q334,1422 394,1422 Q453,1422 505,1400.5 Q557,1379 596,1335 Q635,1291 657.5,1224.5 Q680,1158 680,1068 M637,1068 Q637,1151 617.5,1211 Q598,1271 565,1309.5 Q532,1348 487.5,1366.5 Q443,1385 394,1385 Q344,1385 299.5,1366.5 Q255,1348 222,1309.5 Q189,1271 169.5,1211 Q150,1151 150,1068 Q150,985 169.5,925.5 Q189,866 222,828 Q255,790 299.5,772 Q344,754 394,754 Q443,754 487.5,772 Q532,790 565,828 Q598,866 617.5,925.5 Q637,985 637,1068 M1234,1394 Q1239,1400 1244,1403 Q1249,1406 1258,1406 L1293,1406 L294,12 Q286,0 271,0 L235,0 M1430,335 Q1430,246 1407,180 Q1384,114 1344.5,70.5 Q1305,27 1253,5.5 Q1201,-16 1143,-16 Q1084,-16 1031.5,5.5 Q979,27 940,70.5 Q901,114 878.5,180 Q856,246 856,335 Q856,425 878.5,491.5 Q901,558 940,601.5 Q979,645 1031.5,666.5 Q1084,688 1143,688 Q1202,688 1254,666.5 Q1306,645 1345,601.5 Q1384,558 1407,491.5 Q1430,425 1430,335 M1387,335 Q1387,418 1367.5,478 Q1348,538 1315,576.5 Q1282,615 1237.5,633.5 Q1193,652 1143,652 Q1093,652 1049,633.5 Q1005,615 972,576.5 Q939,538 919.5,478 Q900,418 900,335 Q900,252 919.5,192.5 Q939,133 972,94.5 Q1005,56 1049,38 Q1093,20 1143,20 Q1193,20 1237.5,38 Q1282,56 1315,94.5 Q1348,133 1367.5,192.5 Q1387,252 1387,335"/> 
            <glyph glyph-name="&amp;" unicode="&#x26;" horiz-adv-x="1343" d=" M657,1422 Q719,1422 775.5,1400 Q832,1378 875.5,1340.5 Q919,1303 945,1254 Q971,1205 972,1150 L947,1146 Q940,1145 933.5,1149.5 Q927,1154 924,1165 Q921,1192 903.5,1229 Q886,1266 853.5,1299.5 Q821,1333 772,1356.5 Q723,1380 657,1380 Q592,1380 538,1360 Q484,1340 445.5,1304 Q407,1268 385.5,1218 Q364,1168 364,1108 Q364,1019 410.5,938 Q457,857 552,766 L1016,316 Q1064,391 1092.5,470.5 Q1121,550 1129,623 Q1131,633 1134.5,638 Q1138,643 1148,643 L1175,643 Q1173,561 1140.5,467.5 Q1108,374 1048,285 L1343,0 L1298,0 Q1285,0 1277,2 Q1269,4 1258,15 L1020,246 Q977,191 923.5,143 Q870,95 806,60 Q742,25 668.5,4.5 Q595,-16 512,-16 Q439,-16 368.5,8 Q298,32 242,78.5 Q186,125 151.5,193.5 Q117,262 117,351 Q117,425 144,492 Q171,559 219,614.5 Q267,670 331.5,712.5 Q396,755 471,781 Q392,864 353,940 Q314,1016 314,1108 Q314,1176 339,1233.5 Q364,1291 409,1333 Q454,1375 517,1398.5 Q580,1422 657,1422 M518,27 Q597,27 666,46 Q735,65 794,99 Q853,133 901.5,178 Q950,223 989,276 L518,733 Q513,738 508,743 Q503,748 498,753 Q425,727 365,686 Q305,645 261.5,593 Q218,541 194,480.5 Q170,420 170,354 Q170,271 202.5,209.5 Q235,148 286,107.5 Q337,67 398.5,47 Q460,27 518,27"/> 
            <glyph glyph-name="'" unicode="&#x27;" horiz-adv-x="214" d=" M214,1406 L214,1113 L209,960 Q207,941 191,941 Q175,941 173,960 L169,1113 L169,1406"/> 
            <glyph glyph-name="(" unicode="&#x28;" horiz-adv-x="429" d=" M168,631 Q168,401 231,193.5 Q294,-14 422,-209 Q429,-220 427,-226.5 Q425,-233 420,-236 L397,-250 Q319,-132 266.5,-22 Q214,88 181.5,195 Q149,302 135,409.5 Q121,517 121,631 Q121,745 135,852.5 Q149,960 181.5,1067.5 Q214,1175 266.5,1284.5 Q319,1394 397,1513 L420,1499 Q425,1496 427,1489.5 Q429,1483 422,1472 Q295,1277 231.5,1068.5 Q168,860 168,631"/> 
            <glyph glyph-name=")" unicode="&#x29;" horiz-adv-x="386" d=" M340,631 Q340,860 276,1068.5 Q212,1277 85,1472 Q78,1483 80,1489.5 Q82,1496 87,1499 L110,1513 Q188,1394 240.5,1284.5 Q293,1175 325.5,1067.5 Q358,960 372,852.5 Q386,745 386,631 Q386,517 372,409.5 Q358,302 325.5,195 Q293,88 240.5,-22 Q188,-132 110,-250 L87,-236 Q82,-233 80,-226.5 Q78,-220 85,-209 Q213,-14 276.5,193.5 Q340,401 340,631"/> 
            <glyph glyph-name="*" unicode="&#x2A;" horiz-adv-x="687" d=" M408,914 L408,1137 Q408,1151 410,1160.5 Q412,1170 417,1187 Q405,1173 397,1167 Q389,1161 377,1154 L181,1040 L165,1068 L361,1183 Q373,1190 383,1192 Q393,1194 410,1199 L410,1200 Q392,1205 382.5,1207.5 Q373,1210 361,1218 L163,1333 L179,1361 L377,1247 Q389,1239 396,1232 Q403,1225 418,1211 Q412,1229 410,1239.5 Q408,1250 408,1264 L408,1486 L440,1486 L440,1264 Q440,1250 438.5,1239 Q437,1228 431,1210 Q444,1225 452,1232 Q460,1239 473,1247 L669,1361 L685,1333 L489,1218 Q476,1210 466,1206 Q456,1202 438,1199 Q457,1195 466.5,1192.5 Q476,1190 489,1183 L687,1068 L671,1039 L473,1154 Q460,1161 452.5,1166.5 Q445,1172 431,1188 Q436,1170 438,1160.5 Q440,1151 440,1137 L440,914"/> 
            <glyph glyph-name="+" unicode="&#x2B;" horiz-adv-x="1045" d=" M601,1153 L601,691 L1045,691 L1045,650 L601,650 L601,185 L558,185 L558,650 L116,650 L116,691 L558,691 L558,1153"/> 
            <glyph glyph-name="," unicode="&#x2C;" horiz-adv-x="290" d=" M146,65 Q146,94 165.5,115 Q185,136 217,136 Q250,136 270,112.5 Q290,89 290,47 Q290,-33 254,-109.5 Q218,-186 159,-244 L151,-236 Q146,-231 146,-225 Q146,-222 151,-215 Q159,-205 175,-184.5 Q191,-164 207.5,-135.5 Q224,-107 237.5,-71.5 Q251,-36 253,4 Q237,-7 213,-7 Q184,-7 165,13 Q146,33 146,65"/> 
            <glyph glyph-name="-" unicode="&#x2D;" horiz-adv-x="594" d=" M144,612 L594,612 L594,568 L144,568"/> 
            <glyph glyph-name="." unicode="&#x2E;" horiz-adv-x="309" d=" M157,59 Q157,91 178.5,113.5 Q200,136 232,136 Q264,136 286.5,113.5 Q309,91 309,59 Q309,27 286.5,5.5 Q264,-16 232,-16 Q200,-16 178.5,5.5 Q157,27 157,59"/> 
            <glyph glyph-name="/" unicode="&#x2F;" horiz-adv-x="770" d=" M138,-58 Q133,-70 123,-75 Q113,-80 102,-80 L82,-80 L714,1424 Q725,1446 748,1446 L770,1446"/> 
            <glyph glyph-name="0" unicode="&#x30;" horiz-adv-x="1080" d=" M1080,703 Q1080,518 1040.5,383 Q1001,248 933,160 Q865,72 774,29 Q683,-14 580,-14 Q477,-14 386,29 Q295,72 227,160 Q159,248 119.5,383 Q80,518 80,703 Q80,887 119.5,1022.5 Q159,1158 227,1247 Q295,1336 386,1379 Q477,1422 580,1422 Q683,1422 774,1379 Q865,1336 933,1247 Q1001,1158 1040.5,1022.5 Q1080,887 1080,703 M1025,703 Q1025,880 989.5,1007.5 Q954,1135 893,1217.5 Q832,1300 751,1339 Q670,1378 580,1378 Q489,1378 408,1339 Q327,1300 266,1217.5 Q205,1135 169,1007.5 Q133,880 133,703 Q133,526 169,398.5 Q205,271 266,189.5 Q327,108 408,69 Q489,30 580,30 Q670,30 751,69 Q832,108 893,189.5 Q954,271 989.5,398.5 Q1025,526 1025,703"/> 
            <glyph glyph-name="1" unicode="&#x31;" horiz-adv-x="986" d=" M277,41 L611,41 L611,1279 Q611,1309 614,1342 L272,1034 Q264,1026 255,1027.5 Q246,1029 240,1036 L225,1056 L625,1413 L663,1413 L663,41 L986,41 L986,0 L277,0"/> 
            <glyph glyph-name="2" unicode="&#x32;" horiz-adv-x="1017" d=" M587,1422 Q663,1422 734,1400 Q805,1378 860,1332.5 Q915,1287 948,1216.5 Q981,1146 981,1050 Q981,970 956,901 Q931,832 888.5,769 Q846,706 790,646 Q734,586 672,524 L198,39 Q224,44 254.5,46.5 Q285,49 319,49 L998,49 Q1017,49 1017,30 L1017,0 L127,0 L127,19 Q127,27 130.5,33.5 Q134,40 139,45 L635,547 Q696,609 749,668 Q802,727 842,787.5 Q882,848 905,912 Q928,976 928,1049 Q928,1135 899,1197 Q870,1259 822,1299.5 Q774,1340 712.5,1359 Q651,1378 585,1378 Q511,1378 449.5,1355.5 Q388,1333 340.5,1292.5 Q293,1252 262.5,1195.5 Q232,1139 220,1071 Q213,1045 190,1048 L165,1051 Q177,1138 212.5,1206.5 Q248,1275 303,1323 Q358,1371 430,1396.5 Q502,1422 587,1422"/> 
            <glyph glyph-name="3" unicode="&#x33;" horiz-adv-x="1016" d=" M592,1422 Q668,1422 737.5,1401 Q807,1380 860.5,1336.5 Q914,1293 946,1226.5 Q978,1160 978,1069 Q978,999 954,942 Q930,885 889,842 Q848,799 793.5,770 Q739,741 679,728 Q761,717 824,687 Q887,657 930,611.5 Q973,566 994.5,507 Q1016,448 1016,378 Q1016,297 982.5,225 Q949,153 890,99.5 Q831,46 750,15 Q669,-16 573,-16 Q490,-16 427,0 Q364,16 317,43 Q270,70 237.5,106 Q205,142 182.5,181.5 Q160,221 146,262 Q132,303 123,340 L140,348 Q148,351 160,349.5 Q172,348 178,331 Q181,323 188.5,297 Q196,271 211.5,237.5 Q227,204 254,167 Q281,130 324,99 Q367,68 427.5,48 Q488,28 572,28 Q670,28 743.5,60.5 Q817,93 866,144 Q915,195 939.5,257 Q964,319 964,377 Q964,446 940.5,505.5 Q917,565 865.5,609 Q814,653 732.5,678 Q651,703 534,704 L534,741 Q626,744 699,768 Q772,792 822.5,834.5 Q873,877 899.5,935 Q926,993 926,1063 Q926,1145 898,1205 Q870,1265 823.5,1303 Q777,1341 716.5,1359.5 Q656,1378 590,1378 Q516,1378 454,1355.5 Q392,1333 344.5,1292.5 Q297,1252 266,1195.5 Q235,1139 223,1071 Q219,1057 213,1051.5 Q207,1046 195,1048 L170,1051 Q182,1138 217.5,1206.5 Q253,1275 308,1323 Q363,1371 435,1396.5 Q507,1422 592,1422"/> 
            <glyph glyph-name="4" unicode="&#x34;" horiz-adv-x="1092" d=" M811,464 L1092,464 L1092,439 Q1092,422 1072,422 L811,422 L811,0 L764,0 L764,422 L79,422 Q67,422 62,426 Q57,430 55,437 L50,461 L769,1408 L811,1408 M764,1283 Q764,1307 767,1336 L109,464 L764,464"/> 
            <glyph glyph-name="5" unicode="&#x35;" horiz-adv-x="985" d=" M951,1384 Q951,1373 943.5,1365.5 Q936,1358 920,1358 L376,1358 L282,835 Q354,854 418.5,862.5 Q483,871 541,871 Q650,871 733.5,840 Q817,809 872.5,753.5 Q928,698 956.5,621.5 Q985,545 985,453 Q985,342 947,255 Q909,168 843.5,107.5 Q778,47 692,15.5 Q606,-16 510,-16 Q454,-16 403,-6.5 Q352,3 307,19 Q262,35 224.5,55.5 Q187,76 159,97 L174,117 Q180,127 193,127 Q203,127 227,112 Q251,97 290.5,79.5 Q330,62 385,47 Q440,32 512,32 Q599,32 675,59.5 Q751,87 808,140.5 Q865,194 898,272.5 Q931,351 931,453 Q931,535 907,603.5 Q883,672 834.5,722 Q786,772 711,800 Q636,828 534,828 Q417,828 264,789 L229,801 L336,1406 L951,1406"/> 
            <glyph glyph-name="6" unicode="&#x36;" horiz-adv-x="1034" d=" M385,847 Q343,790 311,742.5 Q279,695 256,650 Q315,734 409.5,781.5 Q504,829 616,829 Q710,829 787,798.5 Q864,768 919,713 Q974,658 1004,581.5 Q1034,505 1034,413 Q1034,318 1000.5,239 Q967,160 906.5,103.5 Q846,47 762.5,15.5 Q679,-16 579,-16 Q484,-16 405.5,14.5 Q327,45 270.5,103 Q214,161 182.5,245.5 Q151,330 151,438 Q151,516 193.5,619.5 Q236,723 333,856 L731,1393 Q740,1406 759,1406 L804,1406 M202,419 Q202,334 228.5,262.5 Q255,191 304.5,139 Q354,87 423.5,57.5 Q493,28 579,28 Q673,28 747.5,56.5 Q822,85 874,136 Q926,187 953.5,257 Q981,327 981,410 Q981,497 953.5,567 Q926,637 876.5,686 Q827,735 758.5,761.5 Q690,788 607,788 Q511,788 435.5,754.5 Q360,721 308,668 Q256,615 229,549.5 Q202,484 202,419"/> 
            <glyph glyph-name="7" unicode="&#x37;" horiz-adv-x="1060" d=" M1060,1406 L1060,1382 Q1060,1373 1057.5,1365.5 Q1055,1358 1052,1353 L375,21 Q365,0 339,0 L306,0 L986,1330 Q991,1338 995,1345 Q999,1352 1004,1358 L153,1358 Q135,1358 135,1376 L135,1406"/> 
            <glyph glyph-name="8" unicode="&#x38;" horiz-adv-x="1028" d=" M580,-16 Q481,-16 399,10.5 Q317,37 257.5,86 Q198,135 165,205.5 Q132,276 132,364 Q132,448 157.5,511.5 Q183,575 227.5,620 Q272,665 332,693 Q392,721 460,734 Q394,750 342.5,781 Q291,812 255.5,855.5 Q220,899 202,953 Q184,1007 184,1069 Q184,1142 211,1206.5 Q238,1271 289,1319 Q340,1367 413.5,1394.5 Q487,1422 580,1422 Q673,1422 746.5,1394.5 Q820,1367 871,1319 Q922,1271 949,1206.5 Q976,1142 976,1069 Q976,1007 957.5,953 Q939,899 904,855.5 Q869,812 817.5,781 Q766,750 700,734 Q768,721 827.5,693 Q887,665 931.5,620 Q976,575 1002,511.5 Q1028,448 1028,364 Q1028,276 995,205.5 Q962,135 902.5,86 Q843,37 761,10.5 Q679,-16 580,-16 M580,26 Q667,26 739.5,50 Q812,74 864,118 Q916,162 945,225 Q974,288 974,365 Q974,433 956,485.5 Q938,538 907.5,576.5 Q877,615 837,641 Q797,667 753.5,682.5 Q710,698 665,704.5 Q620,711 580,711 Q540,711 495,704.5 Q450,698 406.5,682.5 Q363,667 323,641 Q283,615 252.5,576.5 Q222,538 204,485.5 Q186,433 186,365 Q186,288 215,225 Q244,162 296,118 Q348,74 420.5,50 Q493,26 580,26 M580,754 Q667,754 732,780 Q797,806 840,849.5 Q883,893 904,950 Q925,1007 925,1068 Q925,1135 901.5,1192 Q878,1249 833.5,1291 Q789,1333 725,1356.5 Q661,1380 580,1380 Q499,1380 435,1356.5 Q371,1333 326.5,1291 Q282,1249 258.5,1192 Q235,1135 235,1068 Q235,1007 256,950 Q277,893 320,849.5 Q363,806 428,780 Q493,754 580,754"/> 
            <glyph glyph-name="9" unicode="&#x39;" horiz-adv-x="995" d=" M773,591 Q811,647 842.5,693 Q874,739 897,784 Q868,743 830,710.5 Q792,678 746.5,655.5 Q701,633 650.5,621 Q600,609 547,609 Q457,609 382.5,638.5 Q308,668 255.5,721 Q203,774 174,847.5 Q145,921 145,1010 Q145,1099 178.5,1174.5 Q212,1250 270.5,1305 Q329,1360 409,1391 Q489,1422 583,1422 Q672,1422 747.5,1391 Q823,1360 878,1303 Q933,1246 964,1166 Q995,1086 995,988 Q995,937 983,889.5 Q971,842 948.5,793.5 Q926,745 893.5,692.5 Q861,640 819,579 L437,13 Q428,0 410,0 L363,0 M944,1003 Q944,1085 917,1154 Q890,1223 841.5,1272.5 Q793,1322 727,1350 Q661,1378 583,1378 Q498,1378 427,1351.5 Q356,1325 305,1276.5 Q254,1228 226,1160.5 Q198,1093 198,1012 Q198,928 224,861.5 Q250,795 297,748 Q344,701 410,676 Q476,651 556,651 Q649,651 721,683 Q793,715 842.5,765.5 Q892,816 918,878.5 Q944,941 944,1003 M898,786 Q898,784 897,784 Q898,784 898,786"/> 
            <glyph glyph-name=":" unicode="&#x3A;" horiz-adv-x="312" d=" M160,0 M160,59 Q160,91 181.5,113.5 Q203,136 235,136 Q267,136 289.5,113.5 Q312,91 312,59 Q312,27 289.5,5.5 Q267,-16 235,-16 Q203,-16 181.5,5.5 Q160,27 160,59 M160,881 Q160,913 181.5,935.5 Q203,958 235,958 Q267,958 289.5,935.5 Q312,913 312,881 Q312,849 289.5,827.5 Q267,806 235,806 Q203,806 181.5,827.5 Q160,849 160,881"/> 
            <glyph glyph-name=";" unicode="&#x3B;" horiz-adv-x="322" d=" M170,0 M174,65 Q174,94 193.5,115 Q213,136 245,136 Q278,136 298,112.5 Q318,89 318,47 Q318,-33 282,-109.5 Q246,-186 187,-244 L179,-236 Q174,-231 174,-225 Q174,-222 179,-215 Q187,-205 203,-184.5 Q219,-164 235.5,-135.5 Q252,-107 265.5,-71.5 Q279,-36 281,4 Q265,-7 241,-7 Q212,-7 193,13 Q174,33 174,65 M170,881 Q170,913 191.5,935.5 Q213,958 245,958 Q277,958 299.5,935.5 Q322,913 322,881 Q322,849 299.5,827.5 Q277,806 245,806 Q213,806 191.5,827.5 Q170,849 170,881"/> 
            <glyph glyph-name="&lt;" unicode="&#x3C;" horiz-adv-x="919" d=" M181,682 L919,1060 L919,1027 Q919,1012 897,1000 L289,693 Q262,678 229,670 Q261,663 289,648 L897,340 Q919,329 919,314 L919,281 L181,659"/> 
            <glyph glyph-name="=" unicode="&#x3D;" horiz-adv-x="985" d=" M174,546 L985,546 L985,505 L174,505 M174,848 L985,848 L985,807 L174,807"/> 
            <glyph glyph-name="&gt;" unicode="&#x3E;" horiz-adv-x="979" d=" M241,281 L241,314 Q241,329 263,340 L871,648 Q885,655 899.5,660.5 Q914,666 930,670 Q899,677 871,693 L263,1000 Q241,1012 241,1027 L241,1060 L979,682 L979,659"/> 
            <glyph glyph-name="?" unicode="&#x3F;" horiz-adv-x="742" d=" M101,1285 Q126,1311 157.5,1335.5 Q189,1360 228,1379.5 Q267,1399 313,1410.5 Q359,1422 413,1422 Q478,1422 537.5,1402 Q597,1382 642.5,1344.5 Q688,1307 715,1253 Q742,1199 742,1131 Q742,1074 728,1029 Q714,984 691,948 Q668,912 638.5,883 Q609,854 578,829.5 Q547,805 517,784 Q487,763 463,741.5 Q439,720 424,698 Q409,676 408,649 L400,480 L365,480 L362,653 Q361,693 385,724 Q409,755 446,784 Q483,813 525.5,844 Q568,875 605,914.5 Q642,954 666.5,1006 Q691,1058 691,1129 Q691,1188 667.5,1234.5 Q644,1281 605,1313 Q566,1345 515.5,1362 Q465,1379 410,1379 Q341,1379 290.5,1360 Q240,1341 205.5,1318 Q171,1295 152,1276 Q133,1257 128,1257 Q119,1257 114,1264 M307,59 Q307,91 328.5,113.5 Q350,136 382,136 Q414,136 436.5,113.5 Q459,91 459,59 Q459,27 436.5,5.5 Q414,-16 382,-16 Q350,-16 328.5,5.5 Q307,27 307,59"/> 
            <glyph glyph-name="@" unicode="&#x40;" horiz-adv-x="1535" d=" M1176,189 Q1080,189 1039.5,244 Q999,299 1004,393 Q950,289 877.5,242 Q805,195 719,195 Q665,195 625.5,213.5 Q586,232 560,264.5 Q534,297 521.5,341 Q509,385 509,436 Q509,521 541.5,606 Q574,691 635.5,759 Q697,827 785.5,869.5 Q874,912 986,912 Q1032,912 1076,904 Q1120,896 1153,880 L1064,539 Q1038,439 1039.5,377.5 Q1041,316 1060.5,282.5 Q1080,249 1113,237.5 Q1146,226 1182,226 Q1243,226 1299.5,257 Q1356,288 1399,346 Q1442,404 1467.5,486.5 Q1493,569 1493,673 Q1493,827 1442,941 Q1391,1055 1305,1130 Q1219,1205 1105,1241.5 Q991,1278 865,1278 Q773,1278 685.5,1253.5 Q598,1229 521,1183.5 Q444,1138 379.5,1072 Q315,1006 269,924 Q223,842 197,745 Q171,648 171,539 Q171,359 229,221.5 Q287,84 386,-9 Q485,-102 617,-149.5 Q749,-197 897,-197 Q1187,-197 1402,-56 Q1411,-50 1418,-52 Q1425,-54 1428,-62 L1438,-83 Q1325,-158 1191,-197.5 Q1057,-237 897,-237 Q737,-237 597,-186 Q457,-135 352.5,-36.5 Q248,62 188,206.5 Q128,351 128,539 Q128,651 154.5,752.5 Q181,854 229.5,940.5 Q278,1027 345.5,1096.5 Q413,1166 495,1214.5 Q577,1263 670.5,1289.5 Q764,1316 865,1316 Q952,1316 1036,1298 Q1120,1280 1194.5,1244.5 Q1269,1209 1331.5,1155.5 Q1394,1102 1439,1030.5 Q1484,959 1509.5,869.5 Q1535,780 1535,673 Q1535,564 1506.5,474.5 Q1478,385 1429.5,321.5 Q1381,258 1315.5,223.5 Q1250,189 1176,189 M729,233 Q768,233 809.5,246 Q851,259 890,293.5 Q929,328 962.5,387.5 Q996,447 1020,539 L1103,858 Q1075,866 1047.5,870 Q1020,874 981,874 Q883,874 804,834.5 Q725,795 669.5,732.5 Q614,670 584.5,592 Q555,514 555,436 Q555,394 565.5,357 Q576,320 598,292.5 Q620,265 652.5,249 Q685,233 729,233"/> 
            <glyph glyph-name="A" unicode="&#x41;" horiz-adv-x="1253" d=" M1253,0 L1210,0 Q1195,0 1188,17 L1005,462 L283,462 L100,17 Q95,0 77,0 L36,0 L618,1406 L671,1406 M301,504 L987,504 L665,1287 Q660,1301 654.5,1315 Q649,1329 644,1346 Q639,1329 633.5,1315 Q628,1301 623,1287"/> 
            <glyph glyph-name="B" unicode="&#x42;" horiz-adv-x="1120" d=" M223,0 L223,1406 L604,1406 Q834,1406 946,1314 Q1058,1222 1058,1053 Q1058,994 1036,939 Q1014,884 974,839 Q934,794 877.5,762 Q821,730 751,718 Q838,709 906.5,681.5 Q975,654 1022.5,610.5 Q1070,567 1095,507.5 Q1120,448 1120,375 Q1120,285 1089,215.5 Q1058,146 998.5,98 Q939,50 853,25 Q767,0 657,0 M278,691 L278,45 L657,45 Q854,45 959.5,129.5 Q1065,214 1065,376 Q1065,449 1036.5,507 Q1008,565 955.5,606 Q903,647 827.5,669 Q752,691 658,691 M278,733 L611,733 Q717,733 791.5,761.5 Q866,790 913.5,835.5 Q961,881 982.5,937.5 Q1004,994 1004,1049 Q1004,1200 905.5,1281 Q807,1362 604,1362 L278,1362"/> 
            <glyph glyph-name="C" unicode="&#x43;" horiz-adv-x="1284" d=" M1252,209 Q1256,209 1263,204 L1284,182 Q1240,138 1189,101.5 Q1138,65 1077,39 Q1016,13 943.5,-1.5 Q871,-16 784,-16 Q641,-16 520.5,34.5 Q400,85 313,178.5 Q226,272 177,405 Q128,538 128,703 Q128,864 177,996.5 Q226,1129 315.5,1223.5 Q405,1318 529.5,1370 Q654,1422 804,1422 Q945,1422 1054,1379 Q1163,1336 1257,1255 L1242,1233 Q1238,1226 1226,1226 Q1220,1226 1205.5,1237 Q1191,1248 1167.5,1264.5 Q1144,1281 1110.5,1300.5 Q1077,1320 1032,1336.5 Q987,1353 930,1364 Q873,1375 804,1375 Q668,1375 554,1328 Q440,1281 358,1194 Q276,1107 230.5,982.5 Q185,858 185,703 Q185,545 230.5,420.5 Q276,296 357,209.5 Q438,123 548,77 Q658,31 787,31 Q868,31 932,42 Q996,53 1049.5,75 Q1103,97 1148.5,129 Q1194,161 1239,202 Q1246,209 1252,209"/> 
            <glyph glyph-name="D" unicode="&#x44;" horiz-adv-x="1388" d=" M1388,703 Q1388,538 1340,407.5 Q1292,277 1205,186.5 Q1118,96 997,48 Q876,0 730,0 L223,0 L223,1406 L730,1406 Q876,1406 997,1358 Q1118,1310 1205,1219.5 Q1292,1129 1340,998.5 Q1388,868 1388,703 M1330,703 Q1330,860 1286.5,982.5 Q1243,1105 1163.5,1189 Q1084,1273 973.5,1317 Q863,1361 730,1361 L278,1361 L278,45 L730,45 Q863,45 973.5,89 Q1084,133 1163.5,217 Q1243,301 1286.5,423.5 Q1330,546 1330,703"/> 
            <glyph glyph-name="E" unicode="&#x45;" horiz-adv-x="1055" d=" M1053,1406 L1053,1359 L278,1359 L278,736 L931,736 L931,690 L278,690 L278,47 L1055,47 L1053,0 L223,0 L223,1406"/> 
            <glyph glyph-name="F" unicode="&#x46;" horiz-adv-x="1053" d=" M1053,1406 L1053,1359 L278,1359 L278,715 L953,715 L953,668 L278,668 L278,0 L223,0 L223,1406"/> 
            <glyph glyph-name="G" unicode="&#x47;" horiz-adv-x="1336" d=" M1336,138 Q1232,67 1112,25.5 Q992,-16 841,-16 Q676,-16 544,34.5 Q412,85 319.5,178.5 Q227,272 178,405 Q129,538 129,703 Q129,868 177.5,1000.5 Q226,1133 317,1227 Q408,1321 537,1371.5 Q666,1422 827,1422 Q906,1422 972.5,1412 Q1039,1402 1096,1381.5 Q1153,1361 1203.5,1330 Q1254,1299 1301,1258 L1287,1237 Q1279,1225 1264,1229 Q1254,1232 1227.5,1255 Q1201,1278 1150,1304.5 Q1099,1331 1019.5,1353 Q940,1375 826,1375 Q679,1375 560.5,1329 Q442,1283 358.5,1196 Q275,1109 230,984.5 Q185,860 185,703 Q185,547 230,422 Q275,297 359.5,209.5 Q444,122 565.5,75.5 Q687,29 840,29 Q909,29 968.5,38 Q1028,47 1081,64 Q1134,81 1184,105 Q1234,129 1285,160 L1285,574 L988,574 Q981,574 976,579 Q971,584 971,590 L971,618 L1336,618 L1336,138"/> 
            <glyph glyph-name="H" unicode="&#x48;" horiz-adv-x="1279" d=" M1279,0 L1223,0 L1223,691 L278,691 L278,0 L223,0 L223,1406 L278,1406 L278,735 L1223,735 L1223,1406 L1279,1406"/> 
            <glyph glyph-name="I" unicode="&#x49;" horiz-adv-x="278" d=" M278,0 L223,0 L223,1406 L278,1406"/> 
            <glyph glyph-name="J" unicode="&#x4A;" horiz-adv-x="613" d=" M613,460 Q613,342 584,253 Q555,164 501.5,104 Q448,44 372.5,14 Q297,-16 205,-16 Q120,-16 27,14 L31,40 Q33,45 35.5,50 Q38,55 49,55 Q58,55 71,51 Q84,47 102,42.5 Q120,38 144,34 Q168,30 201,30 Q283,30 349,56.5 Q415,83 461,136.5 Q507,190 532,270.5 Q557,351 557,459 L557,1406 L613,1406"/> 
            <glyph glyph-name="K" unicode="&#x4B;" horiz-adv-x="1214" d=" M278,739 L368,739 Q387,739 400.5,740 Q414,741 425.5,745 Q437,749 446.5,756 Q456,763 467,774 L1087,1385 Q1099,1397 1109.5,1401.5 Q1120,1406 1134,1406 L1174,1406 L519,761 Q501,744 488.5,735 Q476,726 458,721 Q477,716 491,707 Q505,698 520,681 L1214,0 L1174,0 Q1155,0 1146,4.5 Q1137,9 1129,19 L477,654 Q466,665 457,672.5 Q448,680 437,685 Q426,690 410.5,692.5 Q395,695 371,695 L278,695 L278,0 L223,0 L223,1406 L278,1406"/> 
            <glyph glyph-name="L" unicode="&#x4C;" horiz-adv-x="975" d=" M278,48 L975,48 L975,0 L223,0 L223,1406 L278,1406"/> 
            <glyph glyph-name="M" unicode="&#x4D;" horiz-adv-x="1573" d=" M907,320 Q911,329 915,338.5 Q919,348 924,358 L1516,1393 Q1521,1401 1526.5,1403.5 Q1532,1406 1540,1406 L1573,1406 L1573,0 L1525,0 L1525,1286 Q1525,1293 1525,1301 Q1525,1309 1526,1317 L936,283 Q926,266 912,266 L902,266 Q887,266 877,283 L269,1319 Q270,1311 270.5,1302.5 Q271,1294 271,1286 L271,0 L223,0 L223,1406 L256,1406 Q264,1406 269.5,1403.5 Q275,1401 280,1393 L890,357"/> 
            <glyph glyph-name="N" unicode="&#x4E;" horiz-adv-x="1279" d=" M248,1406 Q256,1406 261,1403.5 Q266,1401 272,1393 L1232,94 Q1231,103 1231,112 Q1231,121 1231,129 L1231,1406 L1279,1406 L1279,0 L1256,0 Q1243,0 1234,12 L269,1316 Q270,1306 270.5,1297 Q271,1288 271,1280 L271,0 L223,0 L223,1406 L248,1406"/> 
            <glyph glyph-name="O" unicode="&#x4F;" horiz-adv-x="1445" d=" M1445,703 Q1445,538 1397,405.5 Q1349,273 1262,179.5 Q1175,86 1054,36 Q933,-14 786,-14 Q641,-14 520,36 Q399,86 312,179.5 Q225,273 177,405.5 Q129,538 129,703 Q129,867 177,1000 Q225,1133 312,1226.5 Q399,1320 520,1371 Q641,1422 786,1422 Q933,1422 1054,1371.5 Q1175,1321 1262,1227.5 Q1349,1134 1397,1001 Q1445,868 1445,703 M1387,703 Q1387,860 1343.5,984.5 Q1300,1109 1220.5,1196 Q1141,1283 1030.5,1329 Q920,1375 786,1375 Q654,1375 543.5,1329 Q433,1283 353.5,1196 Q274,1109 229.5,984.5 Q185,860 185,703 Q185,546 229.5,421.5 Q274,297 353.5,211 Q433,125 543.5,79 Q654,33 786,33 Q920,33 1030.5,79 Q1141,125 1220.5,211 Q1300,297 1343.5,421.5 Q1387,546 1387,703"/> 
            <glyph glyph-name="P" unicode="&#x50;" horiz-adv-x="1044" d=" M278,588 L278,0 L223,0 L223,1406 L559,1406 Q797,1406 920.5,1304 Q1044,1202 1044,998 Q1044,909 1009.5,833.5 Q975,758 911,703.5 Q847,649 757.5,618.5 Q668,588 559,588 M278,633 L559,633 Q658,633 737.5,661 Q817,689 872.5,738 Q928,787 958,854 Q988,921 988,998 Q988,1176 881,1269 Q774,1362 559,1362 L278,1362"/> 
            <glyph glyph-name="Q" unicode="&#x51;" horiz-adv-x="1498" d=" M1445,703 Q1445,592 1423,496 Q1401,400 1360,320 Q1319,240 1260.5,178 Q1202,116 1128,73 L1498,-320 L1451,-320 Q1427,-320 1413,-306 L1082,48 Q950,-14 786,-14 Q641,-14 520,36 Q399,86 312,179.5 Q225,273 177,405.5 Q129,538 129,703 Q129,867 177,1000 Q225,1133 312,1226.5 Q399,1320 520,1371 Q641,1422 786,1422 Q933,1422 1054,1371.5 Q1175,1321 1262,1227.5 Q1349,1134 1397,1001 Q1445,868 1445,703 M1387,703 Q1387,860 1343.5,984.5 Q1300,1109 1220.5,1196 Q1141,1283 1030.5,1329 Q920,1375 786,1375 Q654,1375 543.5,1329 Q433,1283 353.5,1196 Q274,1109 229.5,984.5 Q185,860 185,703 Q185,546 229.5,421.5 Q274,297 353.5,211 Q433,125 543.5,79 Q654,33 786,33 Q920,33 1030.5,79 Q1141,125 1220.5,211 Q1300,297 1343.5,421.5 Q1387,546 1387,703"/> 
            <glyph glyph-name="R" unicode="&#x52;" horiz-adv-x="1156" d=" M278,662 L278,0 L223,0 L223,1406 L562,1406 Q791,1406 910,1317 Q1029,1228 1029,1047 Q1029,964 998,896 Q967,828 911,778.5 Q855,729 775,700 Q695,671 598,665 Q616,655 633,635 L1156,0 L1111,0 Q1100,0 1091.5,3 Q1083,6 1075,17 L579,624 Q571,635 562.5,642 Q554,649 543.5,653.5 Q533,658 518.5,660 Q504,662 483,662 M278,704 L546,704 Q645,704 724.5,727.5 Q804,751 859.5,795.5 Q915,840 944.5,903 Q974,966 974,1045 Q974,1208 868,1285 Q762,1362 562,1362 L278,1362"/> 
            <glyph glyph-name="S" unicode="&#x53;" horiz-adv-x="942" d=" M887,1260 Q881,1250 870,1250 Q859,1250 839.5,1269.5 Q820,1289 785,1313 Q750,1337 695,1356.5 Q640,1376 559,1376 Q477,1376 413.5,1351.5 Q350,1327 307,1285 Q264,1243 242,1188.5 Q220,1134 220,1074 Q220,997 251,945.5 Q282,894 333,859 Q384,824 448.5,800 Q513,776 581,753.5 Q649,731 713.5,705.5 Q778,680 829,641 Q880,602 911,544.5 Q942,487 942,402 Q942,315 912.5,238.5 Q883,162 826.5,105.5 Q770,49 688.5,16.5 Q607,-16 503,-16 Q432,-16 374.5,-3.5 Q317,9 268.5,32.5 Q220,56 179.5,90 Q139,124 102,167 L115,187 Q120,192 123.5,194.5 Q127,197 134,197 Q141,197 153.5,184.5 Q166,172 186,153.5 Q206,135 234,113.5 Q262,92 300.5,73.5 Q339,55 389.5,42.5 Q440,30 504,30 Q595,30 667,58.5 Q739,87 788.5,136.5 Q838,186 864,252 Q890,318 890,393 Q890,473 859,525 Q828,577 777.5,612 Q727,647 662,670.5 Q597,694 529.5,715.5 Q462,737 397,762.5 Q332,788 281.5,827.5 Q231,867 200,925.5 Q169,984 169,1072 Q169,1141 195,1204 Q221,1267 270.5,1315.5 Q320,1364 392.5,1393 Q465,1422 559,1422 Q665,1422 746.5,1388 Q828,1354 899,1282"/> 
            <glyph glyph-name="T" unicode="&#x54;" horiz-adv-x="1117" d=" M1117,1406 L1117,1358 L602,1358 L602,0 L547,0 L547,1358 L29,1358 L29,1406"/> 
            <glyph glyph-name="U" unicode="&#x55;" horiz-adv-x="1241" d=" M723,32 Q832,32 917.5,70.5 Q1003,109 1062.5,176 Q1122,243 1153.5,333.5 Q1185,424 1185,528 L1185,1406 L1241,1406 L1241,528 Q1241,414 1205,314.5 Q1169,215 1101.5,141 Q1034,67 938.5,24.5 Q843,-18 723,-18 Q603,-18 507,24.5 Q411,67 344,141 Q277,215 241,314.5 Q205,414 205,528 L205,1406 L260,1406 L260,530 Q260,426 291.5,335 Q323,244 382.5,176.5 Q442,109 528,70.5 Q614,32 723,32"/> 
            <glyph glyph-name="V" unicode="&#x56;" horiz-adv-x="1253" d=" M36,1406 L79,1406 Q96,1406 101,1389 L623,130 Q629,114 634.5,97.5 Q640,81 645,64 Q654,98 666,130 L1187,1389 Q1192,1406 1211,1406 L1253,1406 L669,0 L620,0"/> 
            <glyph glyph-name="W" unicode="&#x57;" horiz-adv-x="1959" d=" M56,1406 L101,1406 Q118,1406 123,1389 L511,140 Q520,107 528,69 Q532,88 536.5,106 Q541,124 546,140 L979,1389 Q984,1406 1003,1406 L1016,1406 Q1033,1406 1038,1389 L1471,140 Q1481,109 1489,69 Q1493,89 1497,106.5 Q1501,124 1506,140 L1894,1389 Q1899,1406 1918,1406 L1959,1406 L1514,0 L1465,0 L1019,1298 Q1012,1315 1007,1338 Q1005,1327 1002.5,1317 Q1000,1307 997,1298 L549,0 L501,0"/> 
            <glyph glyph-name="X" unicode="&#x58;" horiz-adv-x="1167" d=" M571,720 L74,1406 L128,1406 Q138,1406 142.5,1400.5 Q147,1395 152,1390 L611,747 Q613,755 622,769 L1069,1389 Q1073,1395 1078.5,1400.5 Q1084,1406 1092,1406 L1144,1406 L648,724 L1167,0 L1113,0 Q1103,0 1098,6.5 Q1093,13 1088,18 L609,694 Q607,689 605,684.5 Q603,680 599,675 L127,18 Q121,12 115.5,6 Q110,0 102,0 L51,0"/> 
            <glyph glyph-name="Y" unicode="&#x59;" horiz-adv-x="1130" d=" M608,591 L608,0 L552,0 L552,591 L30,1406 L77,1406 Q86,1406 91,1402.5 Q96,1399 101,1391 L546,693 Q556,676 564.5,660 Q573,644 580,628 Q587,645 595.5,660.5 Q604,676 614,693 L1059,1391 Q1067,1406 1082,1406 L1130,1406"/> 
            <glyph glyph-name="Z" unicode="&#x5A;" horiz-adv-x="1106" d=" M1106,1406 L1106,1390 Q1106,1377 1096,1361 L152,47 L1102,47 L1102,0 L77,0 L77,17 Q77,25 79,30.5 Q81,36 86,42 L1031,1359 L98,1359 L98,1406"/> 
            <glyph glyph-name="[" unicode="&#x5B;" horiz-adv-x="504" d=" M213,-251 L213,1508 L504,1508 L504,1490 Q504,1471 484,1471 L259,1471 L259,-214 L484,-214 Q504,-214 504,-233 L504,-251"/> 
            <glyph glyph-name="\" unicode="&#x5C;" horiz-adv-x="770" d=" M82,1446 L104,1446 Q128,1446 137,1424 L770,-80 L750,-80 Q739,-80 729,-75 Q719,-70 714,-58"/> 
            <glyph glyph-name="]" unicode="&#x5D;" horiz-adv-x="371" d=" M80,-251 L80,-233 Q80,-214 100,-214 L326,-214 L326,1471 L100,1471 Q80,1471 80,1490 L80,1508 L371,1508 L371,-251"/> 
            <glyph glyph-name="^" unicode="&#x5E;" horiz-adv-x="966" d=" M966,725 L931,725 Q923,725 916,730 Q909,735 905,743 L602,1303 Q588,1327 580,1354 Q575,1341 570,1328.5 Q565,1316 558,1303 L256,743 Q253,737 247,731 Q241,725 231,725 L194,725 L564,1406 L595,1406"/> 
            <glyph glyph-name="_" unicode="&#x5F;" horiz-adv-x="840" d=" M840,-226 L840,-266 L52,-266 L52,-226"/> 
            <glyph glyph-name="`" unicode="&#x60;" horiz-adv-x="489" d=" M279,1422 Q299,1422 308.5,1416.5 Q318,1411 328,1396 L489,1159 L459,1159 Q443,1159 434,1171 L226,1422"/> 
            <glyph glyph-name="a" unicode="&#x61;" horiz-adv-x="789" d=" M771,0 Q751,0 748,21 L738,166 Q697,124 655.5,90.5 Q614,57 568.5,33.5 Q523,10 470,-3 Q417,-16 353,-16 Q306,-16 260,-2 Q214,12 177,42 Q140,72 117.5,119.5 Q95,167 95,234 Q95,299 132.5,352 Q170,405 249,443.5 Q328,482 449,504.5 Q570,527 737,531 L737,648 Q737,796 673,878 Q609,960 483,960 Q408,960 354,938.5 Q300,917 264,890.5 Q228,864 206.5,842.5 Q185,821 174,821 Q164,821 156,832 L147,846 Q221,922 302,962 Q383,1002 487,1002 Q564,1002 621,977.5 Q678,953 715.5,907 Q753,861 771,795.5 Q789,730 789,648 L789,0 M363,23 Q427,23 480,37.5 Q533,52 578,77 Q623,102 662,135.5 Q701,169 737,207 L737,493 Q435,483 290.5,418 Q146,353 146,236 Q146,181 164.5,141 Q183,101 213.5,74.5 Q244,48 283,35.5 Q322,23 363,23"/> 
            <glyph glyph-name="b" unicode="&#x62;" horiz-adv-x="977" d=" M176,0 L176,1446 L229,1446 L229,796 Q261,843 299.5,881 Q338,919 383.5,946 Q429,973 482,987.5 Q535,1002 596,1002 Q686,1002 757,970 Q828,938 877,876.5 Q926,815 951.5,725.5 Q977,636 977,521 Q977,401 949,302.5 Q921,204 866,134.5 Q811,65 731,26.5 Q651,-12 547,-12 Q334,-12 227,156 L222,18 Q221,11 217.5,5.5 Q214,0 204,0 M585,960 Q468,960 380.5,902.5 Q293,845 229,745 L229,204 Q290,108 366,68.5 Q442,29 538,29 Q636,29 708.5,64.5 Q781,100 828.5,164 Q876,228 899.5,318 Q923,408 923,518 Q923,737 834.5,848.5 Q746,960 585,960"/> 
            <glyph glyph-name="c" unicode="&#x63;" horiz-adv-x="855" d=" M827,878 Q824,875 821,872.5 Q818,870 813,870 Q805,870 788,884 Q771,898 741,915 Q711,932 665,946 Q619,960 554,960 Q462,960 390.5,927.5 Q319,895 269.5,834 Q220,773 194,687 Q168,601 168,493 Q168,382 194.5,295.5 Q221,209 269.5,150 Q318,91 386.5,60 Q455,29 539,29 Q615,29 666.5,46.5 Q718,64 752,85.5 Q786,107 804,124.5 Q822,142 830,142 Q838,142 843,136 L855,121 Q837,96 805.5,72 Q774,48 732.5,29.5 Q691,11 640.5,-0.5 Q590,-12 533,-12 Q438,-12 361,22 Q284,56 229.5,121 Q175,186 145,280 Q115,374 115,493 Q115,607 144.5,701 Q174,795 230,861.5 Q286,928 367,965 Q448,1002 552,1002 Q644,1002 716,972.5 Q788,943 840,895"/> 
            <glyph glyph-name="d" unicode="&#x64;" horiz-adv-x="917" d=" M893,0 Q873,0 872,20 L865,196 Q799,99 707.5,43.5 Q616,-12 506,-12 Q318,-12 217,112 Q116,236 116,491 Q116,599 143.5,692 Q171,785 225.5,854 Q280,923 360.5,962.5 Q441,1002 547,1002 Q753,1002 864,840 L864,1446 L917,1446 L917,0 M517,30 Q621,30 709.5,87 Q798,144 864,244 L864,786 Q802,882 727,921.5 Q652,961 555,961 Q458,961 386,925.5 Q314,890 266,827 Q218,764 194,678 Q170,592 170,491 Q170,256 258.5,143 Q347,30 517,30"/> 
            <glyph glyph-name="e" unicode="&#x65;" horiz-adv-x="933" d=" M551,1002 Q631,1002 700.5,974 Q770,946 822,891.5 Q874,837 903.5,757 Q933,677 933,574 Q933,553 915,553 L168,553 Q167,543 167,533 Q167,523 167,513 Q167,395 195,305 Q223,215 274,154 Q325,93 397.5,61.5 Q470,30 559,30 Q638,30 696,47.5 Q754,65 793,86 Q832,107 853.5,124.5 Q875,142 881,142 Q889,142 894,136 L907,121 Q887,96 851,72 Q815,48 768.5,29.5 Q722,11 667.5,-0.5 Q613,-12 556,-12 Q455,-12 373.5,23.5 Q292,59 234.5,126 Q177,193 146,290.5 Q115,388 115,513 Q115,621 144.5,710.5 Q174,800 230,865 Q286,930 367,966 Q448,1002 551,1002 M552,962 Q468,962 401.5,935 Q335,908 287,859 Q239,810 209.5,741 Q180,672 171,588 L885,588 Q885,677 859.5,746.5 Q834,816 789.5,864 Q745,912 684,937 Q623,962 552,962"/> 
            <glyph glyph-name="f" unicode="&#x66;" horiz-adv-x="628" d=" M231,0 L231,907 L77,913 Q58,915 58,928 L58,948 L231,948 L231,1089 Q231,1173 251.5,1235.5 Q272,1298 309.5,1339.5 Q347,1381 399,1401 Q451,1421 513,1421 Q543,1421 574,1416 Q605,1411 628,1400 L625,1377 Q624,1369 618,1368.5 Q612,1368 599,1370.5 Q586,1373 566.5,1376.5 Q547,1380 519,1380 Q468,1380 425,1364.5 Q382,1349 350.5,1314 Q319,1279 301,1223.5 Q283,1168 283,1088 L283,948 L621,948 L621,908 L284,908 L284,0"/> 
            <glyph glyph-name="g" unicode="&#x67;" horiz-adv-x="949" d=" M487,1002 Q552,1002 606.5,985.5 Q661,969 703,940 L949,940 L949,924 Q949,916 943,911 Q937,906 928,905 L751,898 Q788,857 808,804 Q828,751 828,688 Q828,617 803.5,559 Q779,501 734.5,459.5 Q690,418 627,395.5 Q564,373 487,373 Q439,373 398,381.5 Q357,390 321,406 Q274,379 245.5,340.5 Q217,302 217,267 Q217,220 248,195 Q279,170 329,158 Q379,146 443.5,142.5 Q508,139 575.5,136 Q643,133 707.5,125 Q772,117 822,96 Q872,75 903,36 Q934,-3 934,-68 Q934,-128 903.5,-183.5 Q873,-239 816,-281 Q759,-323 678.5,-348.5 Q598,-374 499,-374 Q398,-374 320.5,-353 Q243,-332 190.5,-295.5 Q138,-259 111.5,-211 Q85,-163 85,-109 Q85,-28 140,31.5 Q195,91 289,123 Q235,138 203,169.5 Q171,201 171,258 Q171,278 179.5,300.5 Q188,323 203.5,344.5 Q219,366 241,386 Q263,406 291,421 Q222,461 184,529 Q146,597 146,688 Q146,758 170,815.5 Q194,873 238.5,914.5 Q283,956 346,979 Q409,1002 487,1002 M886,-74 Q886,-22 859.5,9.5 Q833,41 789.5,58.5 Q746,76 689,83 Q632,90 570.5,93.5 Q509,97 447.5,100 Q386,103 333,113 Q289,97 252.5,75.5 Q216,54 189.5,27 Q163,0 148,-33 Q133,-66 133,-105 Q133,-153 158,-195 Q183,-237 230.5,-267.5 Q278,-298 346,-316 Q414,-334 500,-334 Q578,-334 648,-315 Q718,-296 771,-261.5 Q824,-227 855,-179 Q886,-131 886,-74 M487,411 Q556,411 610.5,431 Q665,451 702.5,487.5 Q740,524 759.5,574.5 Q779,625 779,687 Q779,748 759,799 Q739,850 701.5,886 Q664,922 609.5,942 Q555,962 487,962 Q419,962 365,942 Q311,922 273.5,886 Q236,850 216,799 Q196,748 196,687 Q196,625 216,574.5 Q236,524 273.5,487.5 Q311,451 365,431 Q419,411 487,411"/> 
            <glyph glyph-name="h" unicode="&#x68;" horiz-adv-x="927" d=" M176,0 L176,1446 L229,1446 L229,798 Q298,891 393,946.5 Q488,1002 600,1002 Q682,1002 743.5,976.5 Q805,951 845.5,903.5 Q886,856 906.5,787 Q927,718 927,631 L927,0 L874,0 L874,631 Q874,708 857,769 Q840,830 804.5,872.5 Q769,915 716,937.5 Q663,960 591,960 Q483,960 391,903.5 Q299,847 229,747 L229,0"/> 
            <glyph glyph-name="i" unicode="&#x69;" horiz-adv-x="283" d=" M240,986 L240,0 L188,0 L188,986 M283,1342 Q283,1328 277,1316 Q271,1304 261.5,1294.5 Q252,1285 239.5,1279.5 Q227,1274 214,1274 Q186,1274 165.5,1294.5 Q145,1315 145,1342 Q145,1370 165.5,1390.5 Q186,1411 214,1411 Q227,1411 239.5,1405.5 Q252,1400 261.5,1390.5 Q271,1381 277,1368.5 Q283,1356 283,1342"/> 
            <glyph glyph-name="j" unicode="&#x6A;" horiz-adv-x="282" d=" M240,986 L240,-154 Q240,-201 226,-241 Q212,-281 184.5,-310 Q157,-339 117.5,-355.5 Q78,-372 27,-372 Q-1,-372 -21.5,-366.5 Q-42,-361 -62,-351 L-57,-326 Q-54,-318 -49,-317.5 Q-44,-317 -35,-320 Q-26,-323 -12.5,-327 Q1,-331 21,-331 Q104,-331 146,-283 Q188,-235 188,-154 L188,986 M282,1342 Q282,1328 276,1316 Q270,1304 260.5,1294.5 Q251,1285 238.5,1279.5 Q226,1274 213,1274 Q185,1274 164.5,1294.5 Q144,1315 144,1342 Q144,1370 164.5,1390.5 Q185,1411 213,1411 Q226,1411 238.5,1405.5 Q251,1400 260.5,1390.5 Q270,1381 276,1368.5 Q282,1356 282,1342"/> 
            <glyph glyph-name="k" unicode="&#x6B;" horiz-adv-x="889" d=" M229,1446 L229,549 L275,549 Q286,549 298,552 Q310,555 325,569 L764,966 Q773,976 782.5,981 Q792,986 807,986 L851,986 L378,559 Q370,551 362.5,545.5 Q355,540 347,535 Q361,530 372,521.5 Q383,513 393,503 L889,0 L844,0 Q834,0 825.5,3 Q817,6 809,16 L346,483 Q329,500 315,506 Q301,512 271,512 L229,512 L229,0 L176,0 L176,1446"/> 
            <glyph glyph-name="l" unicode="&#x6C;" horiz-adv-x="239" d=" M239,1446 L239,0 L187,0 L187,1446"/> 
            <glyph glyph-name="m" unicode="&#x6D;" horiz-adv-x="1426" d=" M176,0 L176,986 L201,986 Q220,986 221,966 L227,800 Q285,892 363.5,947 Q442,1002 537,1002 Q650,1002 716,934 Q782,866 802,743 Q817,809 848.5,857.5 Q880,906 922,938.5 Q964,971 1014,986.5 Q1064,1002 1117,1002 Q1188,1002 1245.5,977.5 Q1303,953 1343,906 Q1383,859 1404.5,790 Q1426,721 1426,631 L1426,0 L1373,0 L1373,631 Q1373,791 1304.5,875.5 Q1236,960 1109,960 Q1053,960 1001.5,939.5 Q950,919 910.5,877.5 Q871,836 847,774.5 Q823,713 823,631 L823,0 L770,0 L770,631 Q770,788 708,874 Q646,960 526,960 Q436,960 361,904 Q286,848 229,750 L229,0"/> 
            <glyph glyph-name="n" unicode="&#x6E;" horiz-adv-x="927" d=" M176,0 L176,986 L201,986 Q220,986 221,966 L227,795 Q296,890 391,946 Q486,1002 600,1002 Q682,1002 743.5,976.5 Q805,951 845.5,903.5 Q886,856 906.5,787 Q927,718 927,631 L927,0 L874,0 L874,631 Q874,708 857,769 Q840,830 804.5,872.5 Q769,915 716,937.5 Q663,960 591,960 Q483,960 391,903.5 Q299,847 229,747 L229,0"/> 
            <glyph glyph-name="o" unicode="&#x6F;" horiz-adv-x="991" d=" M553,1002 Q658,1002 739.5,965.5 Q821,929 877,862.5 Q933,796 962,702 Q991,608 991,493 Q991,378 962,284.5 Q933,191 877,125 Q821,59 739.5,23.5 Q658,-12 553,-12 Q448,-12 366.5,23.5 Q285,59 229,125 Q173,191 144,284.5 Q115,378 115,493 Q115,608 144,702 Q173,796 229,862.5 Q285,929 366.5,965.5 Q448,1002 553,1002 M553,30 Q649,30 721,63 Q793,96 841.5,157 Q890,218 914,303 Q938,388 938,493 Q938,598 914,684 Q890,770 841.5,831.5 Q793,893 721,926.5 Q649,960 553,960 Q457,960 385,926.5 Q313,893 264.5,831.5 Q216,770 192,684 Q168,598 168,493 Q168,388 192,303 Q216,218 264.5,157 Q313,96 385,63 Q457,30 553,30"/> 
            <glyph glyph-name="p" unicode="&#x70;" horiz-adv-x="977" d=" M176,-357 L176,986 L201,986 Q220,986 221,966 L227,794 Q293,890 384.5,946 Q476,1002 587,1002 Q774,1002 875.5,878 Q977,754 977,499 Q977,391 949.5,298 Q922,205 867.5,136 Q813,67 732.5,27.5 Q652,-12 546,-12 Q338,-12 229,151 L229,-357 M576,960 Q472,960 383.5,902.5 Q295,845 229,745 L229,204 Q290,108 365,68.5 Q440,29 538,29 Q635,29 707,64.5 Q779,100 827,163 Q875,226 899,312 Q923,398 923,499 Q923,734 834,847 Q745,960 576,960"/> 
            <glyph glyph-name="q" unicode="&#x71;" horiz-adv-x="917" d=" M917,986 L917,-357 L864,-357 L864,193 Q798,98 706.5,43 Q615,-12 506,-12 Q318,-12 217,112 Q116,236 116,491 Q116,599 143.5,692 Q171,785 225.5,854 Q280,923 360.5,962.5 Q441,1002 547,1002 Q653,1002 731.5,961 Q810,920 866,837 L872,966 Q873,986 893,986 M517,30 Q621,30 709.5,87 Q798,144 864,244 L864,787 Q806,880 729,920.5 Q652,961 555,961 Q458,961 386,925.5 Q314,890 266,827 Q218,764 194,678 Q170,592 170,491 Q170,256 258.5,143 Q347,30 517,30"/> 
            <glyph glyph-name="r" unicode="&#x72;" horiz-adv-x="665" d=" M176,0 L176,986 L200,986 Q220,986 221,964 L227,721 Q270,855 347.5,928.5 Q425,1002 551,1002 Q580,1002 610.5,997.5 Q641,993 665,979 L659,948 Q655,937 645,937 Q634,937 611.5,944.5 Q589,952 545,952 Q482,952 434,932.5 Q386,913 348,874.5 Q310,836 281.5,779 Q253,722 229,646 L229,0"/> 
            <glyph glyph-name="s" unicode="&#x73;" horiz-adv-x="738" d=" M700,885 Q695,876 685,876 Q676,876 659.5,889.5 Q643,903 614,918.5 Q585,934 541.5,947.5 Q498,961 434,961 Q375,961 326.5,943.5 Q278,926 243,897 Q208,868 189,829 Q170,790 170,748 Q170,698 194.5,664 Q219,630 259,606.5 Q299,583 350,566.5 Q401,550 454,533.5 Q507,517 558,498 Q609,479 649,451 Q689,423 713.5,382 Q738,341 738,281 Q738,219 716,165 Q694,111 651.5,70.5 Q609,30 547.5,7 Q486,-16 407,-16 Q354,-16 311,-7.5 Q268,1 231,16.5 Q194,32 162,54 Q130,76 100,103 L113,120 Q117,125 120.5,127.5 Q124,130 132,130 Q142,130 160.5,113.5 Q179,97 210.5,77 Q242,57 290,40.5 Q338,24 408,24 Q477,24 529.5,43.5 Q582,63 617.5,97 Q653,131 671,176.5 Q689,222 689,273 Q689,327 664.5,363 Q640,399 600,423.5 Q560,448 509,465 Q458,482 405,498 Q352,514 301,532.5 Q250,551 210,578.5 Q170,606 145.5,646 Q121,686 121,746 Q121,796 143.5,842.5 Q166,889 207,924.5 Q248,960 305.5,981 Q363,1002 434,1002 Q520,1002 586,978 Q652,954 711,902"/> 
            <glyph glyph-name="t" unicode="&#x74;" horiz-adv-x="632" d=" M428,-16 Q336,-16 284,34.5 Q232,85 232,197 L232,908 L78,908 Q59,908 59,923 L59,941 L232,948 L247,1328 Q248,1334 252,1339.5 Q256,1345 263,1345 L285,1345 L285,948 L611,948 L611,908 L285,908 L285,199 Q285,153 297,120.5 Q309,88 329,67 Q349,46 376.5,36.5 Q404,27 436,27 Q475,27 504.5,39 Q534,51 555,65 Q576,79 589,91 Q602,103 608,103 Q613,103 619,97 L632,78 Q615,57 592.5,40 Q570,23 543,10.5 Q516,-2 487,-9 Q458,-16 428,-16"/> 
            <glyph glyph-name="u" unicode="&#x75;" horiz-adv-x="916" d=" M218,986 L218,355 Q218,278 235,217 Q252,156 287.5,113.5 Q323,71 376.5,48.5 Q430,26 502,26 Q609,26 700.5,82.5 Q792,139 864,239 L864,986 L916,986 L916,0 L892,0 Q874,0 871,20 L866,191 Q796,96 701,40 Q606,-16 492,-16 Q410,-16 348.5,9.5 Q287,35 246.5,82.5 Q206,130 185.5,199 Q165,268 165,355 L165,986"/> 
            <glyph glyph-name="v" unicode="&#x76;" horiz-adv-x="940" d=" M516,0 L472,0 L48,986 L87,986 Q97,986 103,980 Q109,974 111,968 L477,115 Q482,101 486.5,87 Q491,73 494,59 Q498,73 502,87 Q506,101 512,115 L878,968 Q882,976 888,981 Q894,986 903,986 L940,986"/> 
            <glyph glyph-name="w" unicode="&#x77;" horiz-adv-x="1449" d=" M59,986 L96,986 Q107,986 113,980 Q119,974 121,968 L402,115 Q407,99 410,84 Q413,69 416,54 Q420,69 425,84 Q430,99 435,115 L729,977 Q734,991 746,991 L765,991 Q778,991 783,977 L1074,115 Q1079,99 1083.5,84 Q1088,69 1091,54 Q1095,69 1099,83.5 Q1103,98 1108,115 L1389,968 Q1392,976 1398.5,981 Q1405,986 1413,986 L1449,986 L1115,0 L1080,0 Q1069,0 1064,14 L767,885 Q759,907 755,925 Q751,907 743,885 L442,14 Q437,0 427,0 L394,0"/> 
            <glyph glyph-name="x" unicode="&#x78;" horiz-adv-x="854" d=" M418,503 L68,986 L118,986 Q128,986 132.5,980.5 Q137,975 141,970 L456,527 Q458,537 468,551 L769,969 Q773,975 778.5,980.5 Q784,986 792,986 L840,986 L490,507 L854,0 L804,0 Q794,0 789,6.5 Q784,13 780,18 L453,479 Q450,468 442,457 L126,18 Q121,12 115.5,6 Q110,0 101,0 L54,0"/> 
            <glyph glyph-name="y" unicode="&#x79;" horiz-adv-x="943" d=" M368,-331 Q363,-341 356,-349 Q349,-357 336,-357 L301,-357 L471,24 L49,986 L89,986 Q100,986 106.5,980 Q113,974 115,968 L483,124 Q491,103 498,78 Q505,99 515,124 L881,968 Q885,976 891.5,981 Q898,986 906,986 L943,986"/> 
            <glyph glyph-name="z" unicode="&#x7A;" horiz-adv-x="806" d=" M806,964 Q806,958 803.5,953 Q801,948 796,942 L135,42 L778,42 L778,0 L69,0 L69,19 Q69,25 71.5,30 Q74,35 79,42 L741,944 L103,944 L103,986 L806,986"/> 
            <glyph glyph-name="{" unicode="&#x7B;" horiz-adv-x="502" d=" M255,455 Q255,489 242.5,517.5 Q230,546 208,567 Q186,588 155.5,599.5 Q125,611 89,611 L89,647 Q125,647 155.5,658.5 Q186,670 208,690.5 Q230,711 242.5,739.5 Q255,768 255,802 Q255,859 245,912.5 Q235,966 222.5,1019.5 Q210,1073 200,1127 Q190,1181 190,1239 Q190,1296 208,1345 Q226,1394 259.5,1430.5 Q293,1467 340,1487.5 Q387,1508 446,1508 L502,1508 L502,1487 Q502,1479 497,1475 Q492,1471 485,1471 L445,1471 Q400,1471 362,1454.5 Q324,1438 296,1408 Q268,1378 252.5,1335.5 Q237,1293 237,1241 Q237,1184 247,1129 Q257,1074 269,1020 Q281,966 291,911.5 Q301,857 301,802 Q301,764 288,734 Q275,704 254,682.5 Q233,661 206.5,647.5 Q180,634 153,629 Q180,624 206.5,610 Q233,596 254,574 Q275,552 288,522 Q301,492 301,455 Q301,400 291,345.5 Q281,291 269,237 Q257,183 247,128 Q237,73 237,16 Q237,-37 252.5,-79.5 Q268,-122 296,-152 Q324,-182 362,-198 Q400,-214 445,-214 L485,-214 Q492,-214 497,-218 Q502,-222 502,-229 L502,-251 L446,-251 Q387,-251 340,-230.5 Q293,-210 259.5,-173.5 Q226,-137 208,-88 Q190,-39 190,18 Q190,76 200,130 Q210,184 222.5,237 Q235,290 245,344 Q255,398 255,455"/> 
            <glyph glyph-name="|" unicode="&#x7C;" horiz-adv-x="253" d=" M211,1508 L253,1508 L253,-359 L211,-359"/> 
            <glyph glyph-name="}" unicode="&#x7D;" horiz-adv-x="495" d=" M329,455 Q329,398 339,344 Q349,290 361.5,237 Q374,184 384,130 Q394,76 394,18 Q394,-39 376,-88 Q358,-137 324.5,-173.5 Q291,-210 243.5,-230.5 Q196,-251 138,-251 L82,-251 L82,-229 Q82,-222 87,-218 Q92,-214 99,-214 L139,-214 Q184,-214 222,-198 Q260,-182 288,-152 Q316,-122 331.5,-79.5 Q347,-37 347,16 Q347,73 337,128 Q327,183 315,237 Q303,291 293,345.5 Q283,400 283,455 Q283,492 296,522 Q309,552 330,574 Q351,596 377.5,610 Q404,624 431,629 Q404,634 377.5,647.5 Q351,661 330,682.5 Q309,704 296,734 Q283,764 283,802 Q283,857 293,911.5 Q303,966 315,1020 Q327,1074 337,1129 Q347,1184 347,1241 Q347,1293 331.5,1335.5 Q316,1378 288,1408 Q260,1438 222,1454.5 Q184,1471 139,1471 L99,1471 Q92,1471 87,1475 Q82,1479 82,1487 L82,1508 L138,1508 Q196,1508 243.5,1487.5 Q291,1467 324.5,1430.5 Q358,1394 376,1345 Q394,1296 394,1239 Q394,1181 384,1127 Q374,1073 361.5,1019.5 Q349,966 339,912.5 Q329,859 329,802 Q329,768 341.5,739.5 Q354,711 376,690.5 Q398,670 428.5,658.5 Q459,647 495,647 L495,611 Q459,611 428.5,599.5 Q398,588 376,567 Q354,546 341.5,517.5 Q329,489 329,455"/> 
            <glyph glyph-name="~" unicode="&#x7E;" horiz-adv-x="1011" d=" M792,544 Q832,544 864.5,558.5 Q897,573 919.5,599 Q942,625 954.5,659.5 Q967,694 968,735 L1011,735 Q1011,687 996.5,644.5 Q982,602 954,570 Q926,538 886,519 Q846,500 794,500 Q743,500 688,521.5 Q633,543 578.5,568.5 Q524,594 472,615.5 Q420,637 374,637 Q333,637 301,622.5 Q269,608 246.5,582 Q224,556 211.5,521 Q199,486 198,445 L155,445 Q155,493 169.5,535.5 Q184,578 211.5,610.5 Q239,643 279.5,661.5 Q320,680 372,680 Q406,680 442,670 Q478,660 514.5,645 Q551,630 587.5,612 Q624,594 659,579 Q694,564 727.5,554 Q761,544 792,544"/> 
            <glyph glyph-name="ʹ" unicode="&#x374;" horiz-adv-x="248" d=" M244,1498 Q248,1447 246.5,1394.5 Q245,1342 234,1290.5 Q223,1239 201,1190.5 Q179,1142 142,1100 L129,1110 Q120,1117 127,1127 Q170,1187 191,1259 Q212,1331 191,1405 L191,1476 Q191,1484 195.5,1491 Q200,1498 211,1498"/> 
            <glyph glyph-name="͵" unicode="&#x375;" horiz-adv-x="248" d=" M244,244 Q248,193 246.5,140.5 Q245,88 234,36.5 Q223,-15 201,-63.5 Q179,-112 142,-154 L129,-144 Q120,-137 127,-127 Q170,-67 191,5 Q212,77 191,151 L191,222 Q191,230 195.5,237 Q200,244 211,244"/> 
            <glyph glyph-name="ͺ" unicode="&#x37A;" horiz-adv-x="288" d=" M135,-76 L176,-76 L176,-248 Q176,-301 194.5,-326 Q213,-351 264,-351 L288,-351 L288,-363 Q288,-381 250,-381 Q190,-381 162.5,-351 Q135,-321 135,-252"/> 
            <glyph glyph-name="ͻ" unicode="&#x37B;" horiz-adv-x="822" d=" M110,112 Q113,115 116,117 Q119,119 124,119 Q131,119 148,105 Q165,91 195.5,74 Q226,57 272,43 Q318,29 383,29 Q474,29 546,61.5 Q618,94 667.5,155 Q717,216 743,302.5 Q769,389 769,496 Q769,607 742.5,693.5 Q716,780 667.5,839.5 Q619,899 550.5,929.5 Q482,960 398,960 Q322,960 270.5,942.5 Q219,925 185,903.5 Q151,882 133,864.5 Q115,847 107,847 Q99,847 94,854 L82,869 Q100,894 131.5,918 Q163,942 204.5,960.5 Q246,979 296.5,990.5 Q347,1002 404,1002 Q498,1002 575.5,968 Q653,934 707.5,869 Q762,804 792,710 Q822,616 822,496 Q822,382 792.5,288.5 Q763,195 707,128.5 Q651,62 570,25 Q489,-12 385,-12 Q293,-12 221,17.5 Q149,47 97,95"/> 
            <glyph glyph-name="ͼ" unicode="&#x37C;" horiz-adv-x="855" d=" M115,0 M827,878 Q824,875 821,872.5 Q818,870 813,870 Q805,870 788,884 Q771,898 741,915 Q711,932 665,946 Q619,960 554,960 Q462,960 390.5,927.5 Q319,895 269.5,834 Q220,773 194,687 Q168,601 168,493 Q168,382 194.5,295.5 Q221,209 269.5,150 Q318,91 386.5,60 Q455,29 539,29 Q615,29 666.5,46.5 Q718,64 752,85.5 Q786,107 804,124.5 Q822,142 830,142 Q838,142 843,136 L855,121 Q837,96 805.5,72 Q774,48 732.5,29.5 Q691,11 640.5,-0.5 Q590,-12 533,-12 Q438,-12 361,22 Q284,56 229.5,121 Q175,186 145,280 Q115,374 115,493 Q115,607 144.5,701 Q174,795 230,861.5 Q286,928 367,965 Q448,1002 552,1002 Q644,1002 716,972.5 Q788,943 840,895 M620,66048 Q620,66035 614,66023 Q608,66011 598.5,66001.5 Q589,65992 576.5,65986.5 Q564,65981 551,65981 Q537,65981 524.5,65986.5 Q512,65992 502.5,66001.5 Q493,66011 487.5,66023 Q482,66035 482,66048 Q482,66076 502.5,66096.5 Q523,66117 551,66117 Q564,66117 576.5,66111.5 Q589,66106 598.5,66096.5 Q608,66087 614,66074.5 Q620,66062 620,66048"/> 
            <glyph glyph-name="ͽ" unicode="&#x37D;" horiz-adv-x="822" d=" M82,0 M366,112 Q369,115 372,117 Q375,119 380,119 Q387,119 404,105 Q421,91 451.5,74 Q482,57 528,43 Q574,29 639,29 Q730,29 802,61.5 Q874,94 923.5,155 Q973,216 999,302.5 Q1025,389 1025,496 Q1025,607 998.5,693.5 Q972,780 923.5,839.5 Q875,899 806.5,929.5 Q738,960 654,960 Q578,960 526.5,942.5 Q475,925 441,903.5 Q407,882 389,864.5 Q371,847 363,847 Q355,847 350,854 L338,869 Q356,894 387.5,918 Q419,942 460.5,960.5 Q502,979 552.5,990.5 Q603,1002 660,1002 Q754,1002 831.5,968 Q909,934 963.5,869 Q1018,804 1048,710 Q1078,616 1078,496 Q1078,382 1048.5,288.5 Q1019,195 963,128.5 Q907,62 826,25 Q745,-12 641,-12 Q549,-12 477,17.5 Q405,47 353,95 M66002,66048 Q66002,66035 65996,66023 Q65990,66011 65980.5,66001.5 Q65971,65992 65958.5,65986.5 Q65946,65981 65933,65981 Q65919,65981 65906.5,65986.5 Q65894,65992 65884.5,66001.5 Q65875,66011 65869.5,66023 Q65864,66035 65864,66048 Q65864,66076 65884.5,66096.5 Q65905,66117 65933,66117 Q65946,66117 65958.5,66111.5 Q65971,66106 65980.5,66096.5 Q65990,66087 65996,66074.5 Q66002,66062 66002,66048"/> 
            <glyph glyph-name=";" unicode="&#x37E;" horiz-adv-x="322" d=" M170,0 M174,65 Q174,94 193.5,115 Q213,136 245,136 Q278,136 298,112.5 Q318,89 318,47 Q318,-33 282,-109.5 Q246,-186 187,-244 L179,-236 Q174,-231 174,-225 Q174,-222 179,-215 Q187,-205 203,-184.5 Q219,-164 235.5,-135.5 Q252,-107 265.5,-71.5 Q279,-36 281,4 Q265,-7 241,-7 Q212,-7 193,13 Q174,33 174,65 M170,881 Q170,913 191.5,935.5 Q213,958 245,958 Q277,958 299.5,935.5 Q322,913 322,881 Q322,849 299.5,827.5 Q277,806 245,806 Q213,806 191.5,827.5 Q170,849 170,881"/> 
            <glyph glyph-name="΄" unicode="&#x384;" horiz-adv-x="526" d=" M381,1157 L468,1459 L503,1459 Q515,1459 520.5,1449 Q526,1439 521,1425 L419,1157"/> 
            <glyph glyph-name="΅" unicode="&#x385;" horiz-adv-x="719" d=" M380,1158 L467,1460 L502,1460 Q515,1460 520.5,1450 Q526,1440 521,1426 L419,1158 M719,1256 Q719,1232 699.5,1213.5 Q680,1195 656,1195 Q630,1195 611,1213.5 Q592,1232 592,1256 Q592,1282 611,1300.5 Q630,1319 656,1319 Q680,1319 699.5,1300.5 Q719,1282 719,1256 M293,1256 Q293,1232 273.5,1213.5 Q254,1195 230,1195 Q204,1195 185.5,1213.5 Q167,1232 167,1256 Q167,1282 185.5,1300.5 Q204,1319 230,1319 Q254,1319 273.5,1300.5 Q293,1282 293,1256"/> 
            <glyph glyph-name="Ά" unicode="&#x386;" horiz-adv-x="1253" d=" M36,0 M1253,0 L1210,0 Q1195,0 1188,17 L1005,462 L283,462 L100,17 Q95,0 77,0 L36,0 L618,1406 L671,1406 M301,504 L987,504 L665,1287 Q660,1301 654.5,1315 Q649,1329 644,1346 Q639,1329 633.5,1315 Q628,1301 623,1287 M65738,66636 L65825,66938 L65860,66938 Q65872,66938 65877.5,66928 Q65883,66918 65878,66904 L65776,66636"/> 
            <glyph glyph-name="·" unicode="&#x387;" horiz-adv-x="310" d=" M157,591 Q157,623 179.5,646 Q202,669 231,669 Q263,669 286.5,646 Q310,623 310,591 Q310,576 303.5,562.5 Q297,549 286.5,538.5 Q276,528 261.5,522 Q247,516 231,516 Q216,516 203,522 Q190,528 179.5,538.5 Q169,549 163,562.5 Q157,576 157,591"/> 
            <glyph glyph-name="Έ" unicode="&#x388;" horiz-adv-x="1174" d=" M36,0 M1172,1406 L1172,1359 L397,1359 L397,736 L1050,736 L1050,690 L397,690 L397,47 L1174,47 L1172,0 L342,0 L342,1406 M65572,66636 L65659,66938 L65694,66938 Q65706,66938 65711.5,66928 Q65717,66918 65712,66904 L65610,66636"/> 
            <glyph glyph-name="Ή" unicode="&#x389;" horiz-adv-x="1280" d=" M0,0 M1280,0 L1224,0 L1224,691 L279,691 L279,0 L224,0 L224,1406 L279,1406 L279,735 L1224,735 L1224,1406 L1280,1406 M65454,66636 L65541,66938 L65576,66938 Q65588,66938 65593.5,66928 Q65599,66918 65594,66904 L65492,66636"/> 
            <glyph glyph-name="Ί" unicode="&#x38A;" horiz-adv-x="278" d=" M0,0 M278,0 L223,0 L223,1406 L278,1406 M65442,66636 L65529,66938 L65564,66938 Q65576,66938 65581.5,66928 Q65587,66918 65582,66904 L65480,66636"/> 
            <glyph glyph-name="Ό" unicode="&#x38C;" horiz-adv-x="1443" d=" M0,0 M1699,703 Q1699,538 1651,405.5 Q1603,273 1516,179.5 Q1429,86 1308,36 Q1187,-14 1040,-14 Q895,-14 774,36 Q653,86 566,179.5 Q479,273 431,405.5 Q383,538 383,703 Q383,867 431,1000 Q479,1133 566,1226.5 Q653,1320 774,1371 Q895,1422 1040,1422 Q1187,1422 1308,1371.5 Q1429,1321 1516,1227.5 Q1603,1134 1651,1001 Q1699,868 1699,703 M1641,703 Q1641,860 1597.5,984.5 Q1554,1109 1474.5,1196 Q1395,1283 1284.5,1329 Q1174,1375 1040,1375 Q908,1375 797.5,1329 Q687,1283 607.5,1196 Q528,1109 483.5,984.5 Q439,860 439,703 Q439,546 483.5,421.5 Q528,297 607.5,211 Q687,125 797.5,79 Q908,33 1040,33 Q1174,33 1284.5,79 Q1395,125 1474.5,211 Q1554,297 1597.5,421.5 Q1641,546 1641,703 M65460,66636 L65547,66938 L65582,66938 Q65594,66938 65599.5,66928 Q65605,66918 65600,66904 L65498,66636"/> 
            <glyph glyph-name="Ύ" unicode="&#x38E;" horiz-adv-x="1130" d=" M0,0 M608,591 L608,0 L552,0 L552,591 L30,1406 L77,1406 Q86,1406 91,1402.5 Q96,1399 101,1391 L546,693 Q556,676 564.5,660 Q573,644 580,628 Q587,645 595.5,660.5 Q604,676 614,693 L1059,1391 Q1067,1406 1082,1406 L1130,1406 M65342,66636 L65429,66938 L65464,66938 Q65476,66938 65481.5,66928 Q65487,66918 65482,66904 L65380,66636"/> 
            <glyph glyph-name="Ώ" unicode="&#x38F;" horiz-adv-x="1444" d=" M0,0 M1173,0 L1173,67 Q1277,90 1363.5,151 Q1450,212 1512.5,301 Q1575,390 1610,502.5 Q1645,615 1645,743 Q1645,898 1595,1015.5 Q1545,1133 1461.5,1212.5 Q1378,1292 1269.5,1332.5 Q1161,1373 1044,1373 Q966,1373 891.5,1355 Q817,1337 750,1301.5 Q683,1266 627,1213 Q571,1160 530,1090 Q489,1020 466,933 Q443,846 443,743 Q443,615 478,502.5 Q513,390 575.5,301 Q638,212 724.5,151 Q811,90 915,67 L915,0 L413,0 Q403,0 397,6 Q391,12 391,21 L391,50 L780,50 Q799,50 819.5,48 Q840,46 861,43 Q764,69 678,130.5 Q592,192 527.5,282.5 Q463,373 425.5,489.5 Q388,606 388,743 Q388,906 441.5,1032 Q495,1158 585.5,1244.5 Q676,1331 795,1375.5 Q914,1420 1044,1420 Q1131,1420 1213.5,1400 Q1296,1380 1369,1341 Q1442,1302 1502.5,1244.5 Q1563,1187 1607,1112 Q1651,1037 1675.5,944.5 Q1700,852 1700,743 Q1700,606 1662,489.5 Q1624,373 1559.5,282.5 Q1495,192 1409,130.5 Q1323,69 1227,43 Q1247,46 1268,48 Q1289,50 1308,50 L1697,50 L1697,21 Q1697,12 1691.5,6 Q1686,0 1675,0 M65530,66636 L65617,66938 L65652,66938 Q65664,66938 65669.5,66928 Q65675,66918 65670,66904 L65568,66636"/> 
            <glyph glyph-name="ΐ" unicode="&#x390;" horiz-adv-x="513" d=" M0,0 M423,986 L476,986 L476,224 Q476,128 519,78 Q562,28 655,28 L718,28 L718,10 Q718,-1 702.5,-7 Q687,-13 641,-13 Q534,-13 478.5,48 Q423,109 423,222 M65710,1158 L65797,1460 L65832,1460 Q65845,1460 65850.5,1450 Q65856,1440 65851,1426 L65749,1158 M66049,1256 Q66049,1232 66029.5,1213.5 Q66010,1195 65986,1195 Q65960,1195 65941,1213.5 Q65922,1232 65922,1256 Q65922,1282 65941,1300.5 Q65960,1319 65986,1319 Q66010,1319 66029.5,1300.5 Q66049,1282 66049,1256 M65623,1256 Q65623,1232 65603.5,1213.5 Q65584,1195 65560,1195 Q65534,1195 65515.5,1213.5 Q65497,1232 65497,1256 Q65497,1282 65515.5,1300.5 Q65534,1319 65560,1319 Q65584,1319 65603.5,1300.5 Q65623,1282 65623,1256"/> 
            <glyph glyph-name="Α" unicode="&#x391;" horiz-adv-x="1253" d=" M1253,0 L1210,0 Q1195,0 1188,17 L1005,462 L283,462 L100,17 Q95,0 77,0 L36,0 L618,1406 L671,1406 M301,504 L987,504 L665,1287 Q660,1301 654.5,1315 Q649,1329 644,1346 Q639,1329 633.5,1315 Q628,1301 623,1287"/> 
            <glyph glyph-name="Β" unicode="&#x392;" horiz-adv-x="1120" d=" M223,0 L223,1406 L604,1406 Q834,1406 946,1314 Q1058,1222 1058,1053 Q1058,994 1036,939 Q1014,884 974,839 Q934,794 877.5,762 Q821,730 751,718 Q838,709 906.5,681.5 Q975,654 1022.5,610.5 Q1070,567 1095,507.5 Q1120,448 1120,375 Q1120,285 1089,215.5 Q1058,146 998.5,98 Q939,50 853,25 Q767,0 657,0 M278,691 L278,45 L657,45 Q854,45 959.5,129.5 Q1065,214 1065,376 Q1065,449 1036.5,507 Q1008,565 955.5,606 Q903,647 827.5,669 Q752,691 658,691 M278,733 L611,733 Q717,733 791.5,761.5 Q866,790 913.5,835.5 Q961,881 982.5,937.5 Q1004,994 1004,1049 Q1004,1200 905.5,1281 Q807,1362 604,1362 L278,1362"/> 
            <glyph glyph-name="Γ" unicode="&#x393;" horiz-adv-x="1053" d=" M1053,1360 L278,1360 L278,0 L223,0 L223,1406 L1053,1406"/> 
            <glyph glyph-name="Δ" unicode="&#x394;" horiz-adv-x="1243" d=" M43,15 Q43,32 52,53 L617,1406 L670,1406 L1234,56 Q1238,47 1240.5,37.5 Q1243,28 1243,19 L1243,0 L43,0 M103,45 L1180,45 L663,1287 Q658,1301 652.5,1315.5 Q647,1330 642,1347 Q637,1330 631.5,1315.5 Q626,1301 620,1287"/> 
            <glyph glyph-name="Ε" unicode="&#x395;" horiz-adv-x="1055" d=" M1053,1406 L1053,1359 L278,1359 L278,736 L931,736 L931,690 L278,690 L278,47 L1055,47 L1053,0 L223,0 L223,1406"/> 
            <glyph glyph-name="Ζ" unicode="&#x396;" horiz-adv-x="1106" d=" M1106,1406 L1106,1390 Q1106,1377 1096,1361 L152,47 L1102,47 L1102,0 L77,0 L77,17 Q77,25 79,30.5 Q81,36 86,42 L1031,1359 L98,1359 L98,1406"/> 
            <glyph glyph-name="Η" unicode="&#x397;" horiz-adv-x="1279" d=" M1279,0 L1223,0 L1223,691 L278,691 L278,0 L223,0 L223,1406 L278,1406 L278,735 L1223,735 L1223,1406 L1279,1406"/> 
            <glyph glyph-name="Θ" unicode="&#x398;" horiz-adv-x="1445" d=" M481,744 L1093,744 L1093,697 L481,697 M1445,703 Q1445,538 1397,405.5 Q1349,273 1262,179.5 Q1175,86 1054,36 Q933,-14 786,-14 Q641,-14 520,36 Q399,86 312,179.5 Q225,273 177,405.5 Q129,538 129,703 Q129,867 177,1000 Q225,1133 312,1226.5 Q399,1320 520,1371 Q641,1422 786,1422 Q933,1422 1054,1371.5 Q1175,1321 1262,1227.5 Q1349,1134 1397,1001 Q1445,868 1445,703 M1387,703 Q1387,860 1343.5,984.5 Q1300,1109 1220.5,1196 Q1141,1283 1030.5,1329 Q920,1375 786,1375 Q654,1375 543.5,1329 Q433,1283 353.5,1196 Q274,1109 229.5,984.5 Q185,860 185,703 Q185,546 229.5,421.5 Q274,297 353.5,211 Q433,125 543.5,79 Q654,33 786,33 Q920,33 1030.5,79 Q1141,125 1220.5,211 Q1300,297 1343.5,421.5 Q1387,546 1387,703"/> 
            <glyph glyph-name="Ι" unicode="&#x399;" horiz-adv-x="278" d=" M278,0 L223,0 L223,1406 L278,1406"/> 
            <glyph glyph-name="Κ" unicode="&#x39A;" horiz-adv-x="1214" d=" M278,739 L368,739 Q387,739 400.5,740 Q414,741 425.5,745 Q437,749 446.5,756 Q456,763 467,774 L1087,1385 Q1099,1397 1109.5,1401.5 Q1120,1406 1134,1406 L1174,1406 L519,761 Q501,744 488.5,735 Q476,726 458,721 Q477,716 491,707 Q505,698 520,681 L1214,0 L1174,0 Q1155,0 1146,4.5 Q1137,9 1129,19 L477,654 Q466,665 457,672.5 Q448,680 437,685 Q426,690 410.5,692.5 Q395,695 371,695 L278,695 L278,0 L223,0 L223,1406 L278,1406"/> 
            <glyph glyph-name="Λ" unicode="&#x39B;" horiz-adv-x="1252" d=" M1252,0 L1207,0 Q1192,0 1185,17 L664,1276 Q657,1291 651.5,1307 Q646,1323 641,1340 Q632,1307 620,1276 L99,17 Q94,0 76,0 L36,0 L620,1406 L668,1406"/> 
            <glyph glyph-name="Μ" unicode="&#x39C;" horiz-adv-x="1573" d=" M907,320 Q911,329 915,338.5 Q919,348 924,358 L1516,1393 Q1521,1401 1526.5,1403.5 Q1532,1406 1540,1406 L1573,1406 L1573,0 L1525,0 L1525,1286 Q1525,1293 1525,1301 Q1525,1309 1526,1317 L936,283 Q926,266 912,266 L902,266 Q887,266 877,283 L269,1319 Q270,1311 270.5,1302.5 Q271,1294 271,1286 L271,0 L223,0 L223,1406 L256,1406 Q264,1406 269.5,1403.5 Q275,1401 280,1393 L890,357"/> 
            <glyph glyph-name="Ν" unicode="&#x39D;" horiz-adv-x="1279" d=" M248,1406 Q256,1406 261,1403.5 Q266,1401 272,1393 L1232,94 Q1231,103 1231,112 Q1231,121 1231,129 L1231,1406 L1279,1406 L1279,0 L1256,0 Q1243,0 1234,12 L269,1316 Q270,1306 270.5,1297 Q271,1288 271,1280 L271,0 L223,0 L223,1406 L248,1406"/> 
            <glyph glyph-name="Ξ" unicode="&#x39E;" horiz-adv-x="1130" d=" M1130,1406 L1130,1358 L102,1358 L102,1406 M1130,48 L1130,0 L102,0 L102,48 M348,745 L878,745 L878,696 L348,696"/> 
            <glyph glyph-name="Ο" unicode="&#x39F;" horiz-adv-x="1445" d=" M1445,703 Q1445,538 1397,405.5 Q1349,273 1262,179.5 Q1175,86 1054,36 Q933,-14 786,-14 Q641,-14 520,36 Q399,86 312,179.5 Q225,273 177,405.5 Q129,538 129,703 Q129,867 177,1000 Q225,1133 312,1226.5 Q399,1320 520,1371 Q641,1422 786,1422 Q933,1422 1054,1371.5 Q1175,1321 1262,1227.5 Q1349,1134 1397,1001 Q1445,868 1445,703 M1387,703 Q1387,860 1343.5,984.5 Q1300,1109 1220.5,1196 Q1141,1283 1030.5,1329 Q920,1375 786,1375 Q654,1375 543.5,1329 Q433,1283 353.5,1196 Q274,1109 229.5,984.5 Q185,860 185,703 Q185,546 229.5,421.5 Q274,297 353.5,211 Q433,125 543.5,79 Q654,33 786,33 Q920,33 1030.5,79 Q1141,125 1220.5,211 Q1300,297 1343.5,421.5 Q1387,546 1387,703"/> 
            <glyph glyph-name="Π" unicode="&#x3A0;" horiz-adv-x="1279" d=" M1279,0 L1223,0 L1223,1360 L278,1360 L278,0 L223,0 L223,1406 L1279,1406"/> 
            <glyph glyph-name="Ρ" unicode="&#x3A1;" horiz-adv-x="1044" d=" M278,588 L278,0 L223,0 L223,1406 L559,1406 Q797,1406 920.5,1304 Q1044,1202 1044,998 Q1044,909 1009.5,833.5 Q975,758 911,703.5 Q847,649 757.5,618.5 Q668,588 559,588 M278,633 L559,633 Q658,633 737.5,661 Q817,689 872.5,738 Q928,787 958,854 Q988,921 988,998 Q988,1176 881,1269 Q774,1362 559,1362 L278,1362"/> 
            <glyph glyph-name="Σ" unicode="&#x3A3;" horiz-adv-x="1106" d=" M653,706 Q653,691 638,675 L204,116 Q181,88 165,70 Q149,52 133,39 Q157,43 180,44.5 Q203,46 227,46 L1106,46 L1106,0 L78,0 L78,20 Q78,27 81.5,34 Q85,41 90,46 L606,701 L87,1364 Q78,1375 78,1384 L78,1406 L1106,1406 L1106,1360 L231,1360 Q205,1360 181.5,1362 Q158,1364 134,1369 Q157,1349 174.5,1331.5 Q192,1314 213,1287 L638,735 Q646,726 649,719 Q652,712 653,706"/> 
            <glyph glyph-name="Τ" unicode="&#x3A4;" horiz-adv-x="1117" d=" M1117,1406 L1117,1358 L602,1358 L602,0 L547,0 L547,1358 L29,1358 L29,1406"/> 
            <glyph glyph-name="Υ" unicode="&#x3A5;" horiz-adv-x="1130" d=" M608,591 L608,0 L552,0 L552,591 L30,1406 L77,1406 Q86,1406 91,1402.5 Q96,1399 101,1391 L546,693 Q556,676 564.5,660 Q573,644 580,628 Q587,645 595.5,660.5 Q604,676 614,693 L1059,1391 Q1067,1406 1082,1406 L1130,1406"/> 
            <glyph glyph-name="Φ" unicode="&#x3A6;" horiz-adv-x="1498" d=" M824,1343 Q984,1342 1109,1291 Q1234,1240 1320.5,1153 Q1407,1066 1452.5,951.5 Q1498,837 1498,709 Q1498,581 1452.5,466 Q1407,351 1320.5,264.5 Q1234,178 1109,127 Q984,76 824,76 L824,-119 L770,-119 L770,76 Q610,76 485,127 Q360,178 273.5,264.5 Q187,351 141.5,466 Q96,581 96,709 Q96,837 142.5,951.5 Q189,1066 276.5,1153 Q364,1240 489,1291 Q614,1342 770,1343 L770,1525 L824,1525 M150,709 Q150,589 193.5,482.5 Q237,376 317.5,295.5 Q398,215 512.5,168 Q627,121 770,120 L770,1300 Q627,1299 512.5,1251.5 Q398,1204 317.5,1123.5 Q237,1043 193.5,936 Q150,829 150,709 M1444,709 Q1444,829 1400.5,936 Q1357,1043 1276.5,1123.5 Q1196,1204 1081,1251.5 Q966,1299 824,1300 L824,120 Q966,121 1081,168 Q1196,215 1276.5,295.5 Q1357,376 1400.5,482.5 Q1444,589 1444,709"/> 
            <glyph glyph-name="Χ" unicode="&#x3A7;" horiz-adv-x="1167" d=" M571,720 L74,1406 L128,1406 Q138,1406 142.5,1400.5 Q147,1395 152,1390 L611,747 Q613,755 622,769 L1069,1389 Q1073,1395 1078.5,1400.5 Q1084,1406 1092,1406 L1144,1406 L648,724 L1167,0 L1113,0 Q1103,0 1098,6.5 Q1093,13 1088,18 L609,694 Q607,689 605,684.5 Q603,680 599,675 L127,18 Q121,12 115.5,6 Q110,0 102,0 L51,0"/> 
            <glyph glyph-name="Ψ" unicode="&#x3A8;" horiz-adv-x="1444" d=" M159,1406 Q170,1406 175,1399.5 Q180,1393 180,1384 L180,911 Q180,792 217.5,698 Q255,604 328,538.5 Q401,473 508.5,437.5 Q616,402 756,401 L756,1406 L812,1406 L812,401 Q952,402 1059.5,437.5 Q1167,473 1240,538.5 Q1313,604 1350.5,698 Q1388,792 1388,911 L1388,1384 Q1388,1393 1393,1399.5 Q1398,1406 1409,1406 L1444,1406 L1444,911 Q1444,783 1402.5,681 Q1361,579 1280.5,507 Q1200,435 1082.5,396 Q965,357 812,356 L812,0 L756,0 L756,356 Q603,357 485,396 Q367,435 287,507 Q207,579 165.5,681 Q124,783 124,911 L124,1406"/> 
            <glyph glyph-name="Ω" unicode="&#x3A9;" horiz-adv-x="1450" d=" M923,0 L923,67 Q1027,90 1113.5,151 Q1200,212 1262.5,301 Q1325,390 1360,502.5 Q1395,615 1395,743 Q1395,898 1345,1015.5 Q1295,1133 1211.5,1212.5 Q1128,1292 1019.5,1332.5 Q911,1373 794,1373 Q716,1373 641.5,1355 Q567,1337 500,1301.5 Q433,1266 377,1213 Q321,1160 280,1090 Q239,1020 216,933 Q193,846 193,743 Q193,615 228,502.5 Q263,390 325.5,301 Q388,212 474.5,151 Q561,90 665,67 L665,0 L163,0 Q153,0 147,6 Q141,12 141,21 L141,50 L530,50 Q549,50 569.5,48 Q590,46 611,43 Q514,69 428,130.5 Q342,192 277.5,282.5 Q213,373 175.5,489.5 Q138,606 138,743 Q138,906 191.5,1032 Q245,1158 335.5,1244.5 Q426,1331 545,1375.5 Q664,1420 794,1420 Q881,1420 963.5,1400 Q1046,1380 1119,1341 Q1192,1302 1252.5,1244.5 Q1313,1187 1357,1112 Q1401,1037 1425.5,944.5 Q1450,852 1450,743 Q1450,606 1412,489.5 Q1374,373 1309.5,282.5 Q1245,192 1159,130.5 Q1073,69 977,43 Q997,46 1018,48 Q1039,50 1058,50 L1447,50 L1447,21 Q1447,12 1441.5,6 Q1436,0 1425,0"/> 
            <glyph glyph-name="Ϊ" unicode="&#x3AA;" horiz-adv-x="508" d=" M0,0 M278,0 L223,0 L223,1406 L278,1406 M65666,1664 Q65666,1639 65646,1619.5 Q65626,1600 65600,1600 Q65587,1600 65575,1605.5 Q65563,1611 65554,1620 Q65545,1629 65539.5,1640.5 Q65534,1652 65534,1664 Q65534,1691 65554,1711 Q65574,1731 65600,1731 Q65626,1731 65646,1711 Q65666,1691 65666,1664 M66044,1664 Q66044,1639 66023.5,1619.5 Q66003,1600 65978,1600 Q65951,1600 65931.5,1619.5 Q65912,1639 65912,1664 Q65912,1691 65931.5,1711 Q65951,1731 65978,1731 Q66003,1731 66023.5,1711 Q66044,1691 66044,1664"/> 
            <glyph glyph-name="Ϋ" unicode="&#x3AB;" horiz-adv-x="1130" d=" M30,0 M608,591 L608,0 L552,0 L552,591 L30,1406 L77,1406 Q86,1406 91,1402.5 Q96,1399 101,1391 L546,693 Q556,676 564.5,660 Q573,644 580,628 Q587,645 595.5,660.5 Q604,676 614,693 L1059,1391 Q1067,1406 1082,1406 L1130,1406 M457,1664 Q457,1639 437,1619.5 Q417,1600 391,1600 Q378,1600 366,1605.5 Q354,1611 345,1620 Q336,1629 330.5,1640.5 Q325,1652 325,1664 Q325,1691 345,1711 Q365,1731 391,1731 Q417,1731 437,1711 Q457,1691 457,1664 M835,1664 Q835,1639 814.5,1619.5 Q794,1600 769,1600 Q742,1600 722.5,1619.5 Q703,1639 703,1664 Q703,1691 722.5,1711 Q742,1731 769,1731 Q794,1731 814.5,1711 Q835,1691 835,1664"/> 
            <glyph glyph-name="ά" unicode="&#x3AC;" horiz-adv-x="1121" d=" M114,0 M848,252 Q797,123 704.5,55.5 Q612,-12 497,-12 Q418,-12 348,21 Q278,54 226,117 Q174,180 144,272 Q114,364 114,482 Q114,606 148,703 Q182,800 240,866.5 Q298,933 376,967.5 Q454,1002 543,1002 Q613,1002 670,981.5 Q727,961 771.5,926.5 Q816,892 846.5,847.5 Q877,803 895,756 L920,966 Q924,986 940,986 L965,986 L905,425 Q900,374 896.5,326.5 Q893,279 893,247 Q893,189 907.5,148.5 Q922,108 948,83 Q974,58 1009.5,46.5 Q1045,35 1088,35 L1121,35 L1121,14 Q1121,6 1107,0 Q1093,-6 1063,-6 Q1020,-6 981,7 Q942,20 912.5,48.5 Q883,77 865.5,122.5 Q848,168 848,232 M503,30 Q566,30 625.5,55.5 Q685,81 733,130.5 Q781,180 813,253 Q845,326 854,422 L884,690 Q869,742 841.5,790.5 Q814,839 773,877 Q732,915 676.5,938 Q621,961 550,961 Q470,961 400.5,929.5 Q331,898 279,837.5 Q227,777 197.5,687.5 Q168,598 168,482 Q168,371 195,286.5 Q222,202 268,145 Q314,88 374.5,59 Q435,30 503,30 M524,1157 L611,1459 L646,1459 Q658,1459 663.5,1449 Q669,1439 664,1425 L562,1157"/> 
            <glyph glyph-name="έ" unicode="&#x3AD;" horiz-adv-x="806" d=" M114,0 M776,879 Q770,871 762,871 Q755,871 737,885 Q719,899 686.5,915.5 Q654,932 604.5,946 Q555,960 486,960 Q410,960 354.5,942.5 Q299,925 262.5,895.5 Q226,866 208.5,829 Q191,792 191,753 Q191,709 212.5,671 Q234,633 274,604.5 Q314,576 370.5,560 Q427,544 496,544 L658,544 L658,506 L496,506 Q416,506 354.5,489 Q293,472 251,441.5 Q209,411 187.5,369 Q166,327 166,276 Q166,222 189.5,176.5 Q213,131 255,98.5 Q297,66 356,47.5 Q415,29 486,29 Q564,29 617,46.5 Q670,64 703.5,85.5 Q737,107 754.5,124.5 Q772,142 780,142 Q788,142 793,136 L806,121 Q788,96 757,72 Q726,48 684.5,29.5 Q643,11 592.5,-0.5 Q542,-12 484,-12 Q403,-12 335,9 Q267,30 218,68 Q169,106 141.5,158 Q114,210 114,272 Q114,318 130,359 Q146,400 179,433.5 Q212,467 261,490.5 Q310,514 376,525 Q311,537 266.5,562.5 Q222,588 194,619.5 Q166,651 154,686.5 Q142,722 142,755 Q142,800 163,844 Q184,888 226.5,923.5 Q269,959 333.5,980.5 Q398,1002 485,1002 Q588,1002 662.5,973 Q737,944 788,897 M470,1157 L557,1459 L592,1459 Q604,1459 609.5,1449 Q615,1439 610,1425 L508,1157"/> 
            <glyph glyph-name="ή" unicode="&#x3AE;" horiz-adv-x="967" d=" M20,0 M967,-357 L914,-357 L914,631 Q914,708 897,769 Q880,830 844.5,872.5 Q809,915 755.5,937.5 Q702,960 630,960 Q522,960 430.5,903.5 Q339,847 268,747 L268,0 L216,0 L216,767 Q216,865 176,909 Q136,953 50,953 L20,953 L20,975 Q20,983 29,988.5 Q38,994 60,994 Q149,994 203,946.5 Q257,899 262,793 Q332,889 429,945.5 Q526,1002 640,1002 Q722,1002 783.5,976.5 Q845,951 885.5,903.5 Q926,856 946.5,787 Q967,718 967,631 M475,1157 L562,1459 L597,1459 Q609,1459 614.5,1449 Q620,1439 615,1425 L513,1157"/> 
            <glyph glyph-name="ί" unicode="&#x3AF;" horiz-adv-x="463" d=" M168,0 M168,986 L221,986 L221,224 Q221,128 264,78 Q307,28 400,28 L463,28 L463,10 Q463,-1 447.5,-7 Q432,-13 386,-13 Q279,-13 223.5,48 Q168,109 168,222 M65712,1157 L65799,1459 L65834,1459 Q65846,1459 65851.5,1449 Q65857,1439 65852,1425 L65750,1157"/> 
            <glyph glyph-name="ΰ" unicode="&#x3B0;" horiz-adv-x="936" d=" M165,0 M218,986 L218,355 Q218,278 241,217 Q264,156 305.5,113.5 Q347,71 406,48.5 Q465,26 537,26 Q601,26 663,53.5 Q725,81 774,141.5 Q823,202 853.5,299 Q884,396 884,536 Q884,640 867,750 Q850,860 826,963 Q824,975 830,980.5 Q836,986 843,986 L877,986 Q890,924 901,870.5 Q912,817 919.5,764 Q927,711 931.5,655.5 Q936,600 936,536 Q936,392 903.5,287.5 Q871,183 816,115.5 Q761,48 688.5,16 Q616,-16 535,-16 Q451,-16 382.5,9 Q314,34 265.5,82 Q217,130 191,199 Q165,268 165,355 L165,986 M502,1158 L589,1460 L624,1460 Q637,1460 642.5,1450 Q648,1440 643,1426 L541,1158 M841,1256 Q841,1232 821.5,1213.5 Q802,1195 778,1195 Q752,1195 733,1213.5 Q714,1232 714,1256 Q714,1282 733,1300.5 Q752,1319 778,1319 Q802,1319 821.5,1300.5 Q841,1282 841,1256 M415,1256 Q415,1232 395.5,1213.5 Q376,1195 352,1195 Q326,1195 307.5,1213.5 Q289,1232 289,1256 Q289,1282 307.5,1300.5 Q326,1319 352,1319 Q376,1319 395.5,1300.5 Q415,1282 415,1256"/> 
            <glyph glyph-name="α" unicode="&#x3B1;" horiz-adv-x="1121" d=" M848,252 Q797,123 704.5,55.5 Q612,-12 497,-12 Q418,-12 348,21 Q278,54 226,117 Q174,180 144,272 Q114,364 114,482 Q114,606 148,703 Q182,800 240,866.5 Q298,933 376,967.5 Q454,1002 543,1002 Q613,1002 670,981.5 Q727,961 771.5,926.5 Q816,892 846.5,847.5 Q877,803 895,756 L920,966 Q924,986 940,986 L965,986 L905,425 Q900,374 896.5,326.5 Q893,279 893,247 Q893,189 907.5,148.5 Q922,108 948,83 Q974,58 1009.5,46.5 Q1045,35 1088,35 L1121,35 L1121,14 Q1121,6 1107,0 Q1093,-6 1063,-6 Q1020,-6 981,7 Q942,20 912.5,48.5 Q883,77 865.5,122.5 Q848,168 848,232 M503,30 Q566,30 625.5,55.5 Q685,81 733,130.5 Q781,180 813,253 Q845,326 854,422 L884,690 Q869,742 841.5,790.5 Q814,839 773,877 Q732,915 676.5,938 Q621,961 550,961 Q470,961 400.5,929.5 Q331,898 279,837.5 Q227,777 197.5,687.5 Q168,598 168,482 Q168,371 195,286.5 Q222,202 268,145 Q314,88 374.5,59 Q435,30 503,30"/> 
            <glyph glyph-name="β" unicode="&#x3B2;" horiz-adv-x="969" d=" M544,-12 Q440,-12 361,27.5 Q282,67 228,149 L228,-405 L175,-405 L175,888 Q175,1163 266.5,1291.5 Q358,1420 534,1420 Q615,1420 678,1395.5 Q741,1371 784.5,1328 Q828,1285 850.5,1226.5 Q873,1168 873,1100 Q873,1033 852,980 Q831,927 794,887.5 Q757,848 708,822 Q659,796 602,784 Q687,772 755,740 Q823,708 870.5,659 Q918,610 943.5,545 Q969,480 969,401 Q969,314 939,238.5 Q909,163 853.5,107.5 Q798,52 719.5,20 Q641,-12 544,-12 M482,802 Q547,802 608.5,819 Q670,836 717.5,872 Q765,908 794,963.5 Q823,1019 823,1097 Q823,1159 803.5,1211 Q784,1263 747,1300.5 Q710,1338 656,1359 Q602,1380 533,1380 Q458,1380 400.5,1352.5 Q343,1325 305,1265.5 Q267,1206 247.5,1112.5 Q228,1019 228,887 L228,203 Q255,162 285.5,129.5 Q316,97 352.5,74.5 Q389,52 434,40.5 Q479,29 535,29 Q623,29 694,57.5 Q765,86 814,136 Q863,186 889.5,253 Q916,320 916,398 Q916,482 885.5,549 Q855,616 799,663.5 Q743,711 664,736.5 Q585,762 487,762 L427,762 L427,802"/> 
            <glyph glyph-name="γ" unicode="&#x3B3;" horiz-adv-x="968" d=" M513,-357 L513,58 Q454,296 402.5,465 Q351,634 301.5,741.5 Q252,849 201.5,898.5 Q151,948 96,948 L57,948 L57,968 Q57,976 64,982.5 Q71,989 98,989 Q167,989 224.5,943 Q282,897 335,791.5 Q388,686 439.5,514 Q491,342 548,91 Q613,182 666,278.5 Q719,375 762.5,481 Q806,587 841.5,704.5 Q877,822 906,955 Q909,974 915.5,980 Q922,986 931,986 L968,986 Q931,827 891,701 Q851,575 803.5,465.5 Q756,356 697.5,255.5 Q639,155 565,48 L565,-357"/> 
            <glyph glyph-name="δ" unicode="&#x3B4;" horiz-adv-x="962" d=" M831,1361 Q830,1350 824.5,1347.5 Q819,1345 808,1345 Q803,1345 778.5,1349.5 Q754,1354 718,1359.5 Q682,1365 638.5,1369.5 Q595,1374 552,1374 Q484,1374 437.5,1362.5 Q391,1351 362.5,1331.5 Q334,1312 321.5,1286 Q309,1260 309,1231 Q309,1184 337,1145 Q365,1106 411,1071 Q457,1036 515.5,1001.5 Q574,967 635.5,928 Q697,889 755.5,842 Q814,795 860,735.5 Q906,676 934,600.5 Q962,525 962,429 Q962,326 930,244.5 Q898,163 841.5,106 Q785,49 708,18.5 Q631,-12 540,-12 Q434,-12 353.5,25 Q273,62 219,124.5 Q165,187 137.5,270 Q110,353 110,446 Q110,538 138,615.5 Q166,693 220,754.5 Q274,816 352,862 Q430,908 531,937 Q477,969 428,1000 Q379,1031 341.5,1065.5 Q304,1100 282,1139.5 Q260,1179 260,1228 Q260,1264 274,1298 Q288,1332 322,1358 Q356,1384 411.5,1400 Q467,1416 551,1416 Q578,1416 613,1414 Q648,1412 685.5,1408.5 Q723,1405 761,1399.5 Q799,1394 834,1387 M910,422 Q910,520 880,595 Q850,670 801.5,728.5 Q753,787 691,832 Q629,877 566,916 Q482,892 408.5,852 Q335,812 280.5,754 Q226,696 195,619.5 Q164,543 164,445 Q164,363 187.5,287.5 Q211,212 258,154.5 Q305,97 375.5,63 Q446,29 540,29 Q622,29 690,56 Q758,83 807,133.5 Q856,184 883,257 Q910,330 910,422"/> 
            <glyph glyph-name="ε" unicode="&#x3B5;" horiz-adv-x="806" d=" M776,879 Q770,871 762,871 Q755,871 737,885 Q719,899 686.5,915.5 Q654,932 604.5,946 Q555,960 486,960 Q410,960 354.5,942.5 Q299,925 262.5,895.5 Q226,866 208.5,829 Q191,792 191,753 Q191,709 212.5,671 Q234,633 274,604.5 Q314,576 370.5,560 Q427,544 496,544 L658,544 L658,506 L496,506 Q416,506 354.5,489 Q293,472 251,441.5 Q209,411 187.5,369 Q166,327 166,276 Q166,222 189.5,176.5 Q213,131 255,98.5 Q297,66 356,47.5 Q415,29 486,29 Q564,29 617,46.5 Q670,64 703.5,85.5 Q737,107 754.5,124.5 Q772,142 780,142 Q788,142 793,136 L806,121 Q788,96 757,72 Q726,48 684.5,29.5 Q643,11 592.5,-0.5 Q542,-12 484,-12 Q403,-12 335,9 Q267,30 218,68 Q169,106 141.5,158 Q114,210 114,272 Q114,318 130,359 Q146,400 179,433.5 Q212,467 261,490.5 Q310,514 376,525 Q311,537 266.5,562.5 Q222,588 194,619.5 Q166,651 154,686.5 Q142,722 142,755 Q142,800 163,844 Q184,888 226.5,923.5 Q269,959 333.5,980.5 Q398,1002 485,1002 Q588,1002 662.5,973 Q737,944 788,897"/> 
            <glyph glyph-name="ζ" unicode="&#x3B6;" horiz-adv-x="776" d=" M763,1384 Q763,1381 761.5,1376.5 Q760,1372 751.5,1362.5 Q743,1353 726.5,1336.5 Q710,1320 681,1292 Q588,1206 496,1110.5 Q404,1015 330,909.5 Q256,804 210,689 Q164,574 164,450 Q164,362 188,302.5 Q212,243 255,203.5 Q298,164 356,139 Q414,114 483,95 Q584,67 642.5,38.5 Q701,10 730.5,-18.5 Q760,-47 768,-75.5 Q776,-104 776,-131 Q776,-196 755.5,-246.5 Q735,-297 707,-344 L666,-325 Q689,-286 707.5,-240.5 Q726,-195 726,-140 Q726,-116 719,-92.5 Q712,-69 686.5,-45.5 Q661,-22 610.5,1 Q560,24 473,47 Q391,68 324.5,97.5 Q258,127 211,172.5 Q164,218 138.5,283.5 Q113,349 113,443 Q113,570 158.5,686.5 Q204,803 283.5,915.5 Q363,1028 471,1139.5 Q579,1251 704,1369 Q616,1365 510,1364 Q404,1363 296,1363 L193,1363 Q173,1363 173,1380 L173,1406 L759,1406"/> 
            <glyph glyph-name="η" unicode="&#x3B7;" horiz-adv-x="967" d=" M967,-357 L914,-357 L914,631 Q914,708 897,769 Q880,830 844.5,872.5 Q809,915 755.5,937.5 Q702,960 630,960 Q522,960 430.5,903.5 Q339,847 268,747 L268,0 L216,0 L216,767 Q216,865 176,909 Q136,953 50,953 L20,953 L20,975 Q20,983 29,988.5 Q38,994 60,994 Q149,994 203,946.5 Q257,899 262,793 Q332,889 429,945.5 Q526,1002 640,1002 Q722,1002 783.5,976.5 Q845,951 885.5,903.5 Q926,856 946.5,787 Q967,718 967,631"/> 
            <glyph glyph-name="θ" unicode="&#x3B8;" horiz-adv-x="1026" d=" M587,1420 Q692,1420 773.5,1373 Q855,1326 911.5,1235 Q968,1144 997,1010 Q1026,876 1026,702 Q1026,528 997,394.5 Q968,261 911.5,171 Q855,81 773.5,34.5 Q692,-12 587,-12 Q482,-12 400.5,34.5 Q319,81 263,171 Q207,261 178,394.5 Q149,528 149,702 Q149,876 178,1010 Q207,1144 263,1235 Q319,1326 400.5,1373 Q482,1420 587,1420 M587,29 Q777,29 875,198.5 Q973,368 975,689 L201,689 Q202,368 299.5,198.5 Q397,29 587,29 M587,1379 Q493,1379 422,1336 Q351,1293 302.5,1210.5 Q254,1128 228.5,1006.5 Q203,885 201,728 L975,728 Q973,885 947.5,1006.5 Q922,1128 873,1210.5 Q824,1293 752.5,1336 Q681,1379 587,1379"/> 
            <glyph glyph-name="ι" unicode="&#x3B9;" horiz-adv-x="463" d=" M168,986 L221,986 L221,224 Q221,128 264,78 Q307,28 400,28 L463,28 L463,10 Q463,-1 447.5,-7 Q432,-13 386,-13 Q279,-13 223.5,48 Q168,109 168,222"/> 
            <glyph glyph-name="κ" unicode="&#x3BA;" horiz-adv-x="889" d=" M176,0 M229,986 L229,549 L275,549 Q286,549 298,552 Q310,555 325,569 L764,966 Q773,976 782.5,981 Q792,986 807,986 L851,986 L378,559 Q370,551 362.5,545.5 Q355,540 347,535 Q361,530 372,521.5 Q383,513 393,503 L889,0 L844,0 Q834,0 825.5,3 Q817,6 809,16 L346,483 Q329,500 315,506 Q301,512 271,512 L229,512 L229,0 L176,0 L176,986"/> 
            <glyph glyph-name="λ" unicode="&#x3BB;" horiz-adv-x="1044" d=" M472,935 L344,1264 Q332,1293 318,1314.5 Q304,1336 284,1350.5 Q264,1365 236,1372 Q208,1379 168,1379 L107,1379 L107,1399 Q107,1403 109,1407 Q111,1411 117,1414 Q123,1417 135,1418.5 Q147,1420 167,1420 Q257,1420 309,1389 Q361,1358 388,1288 L829,166 Q858,92 894,62.5 Q930,33 985,33 L1044,33 L1044,12 Q1044,2 1034,-3 Q1024,-8 992,-8 Q959,-8 929.5,-2 Q900,4 873.5,21 Q847,38 824,68 Q801,98 783,147 L513,836 Q502,862 498,885 Q496,874 492,863 Q488,852 483,840 L146,18 Q144,12 137,6 Q130,0 119,0 L80,0"/> 
            <glyph glyph-name="μ" unicode="&#x3BC;" horiz-adv-x="1152" d=" M228,986 L228,361 Q228,284 245,222.5 Q262,161 297.5,118.5 Q333,76 386.5,53.5 Q440,31 512,31 Q622,31 713.5,89 Q805,147 874,252 L874,986 L926,986 L926,219 Q926,170 940.5,135 Q955,100 980.5,77.5 Q1006,55 1041.5,44 Q1077,33 1119,33 L1152,33 L1152,11 Q1152,3 1138,-2.5 Q1124,-8 1094,-8 Q1052,-8 1014.5,4 Q977,16 948,41 Q919,66 900.5,105.5 Q882,145 879,201 Q810,101 716,44.5 Q622,-12 510,-12 Q394,-12 323,37.5 Q252,87 220,181 Q223,135 224.5,85.5 Q226,36 226,-4 L226,-357 L200,-357 Q188,-357 181.5,-350.5 Q175,-344 175,-333 L175,986"/> 
            <glyph glyph-name="ν" unicode="&#x3BD;" horiz-adv-x="933" d=" M933,986 Q895,823 852.5,690 Q810,557 758.5,440.5 Q707,324 644,217 Q581,110 503,0 L472,0 L48,986 L86,986 Q97,986 103,980 Q109,974 111,968 L477,115 Q482,100 486.5,85.5 Q491,71 494,57 Q627,240 719,464 Q811,688 871,960 Q874,975 881,980.5 Q888,986 896,986"/> 
            <glyph glyph-name="ξ" unicode="&#x3BE;" horiz-adv-x="746" d=" M703,1385 Q703,1374 695.5,1367.5 Q688,1361 679,1361 L602,1361 Q518,1361 447.5,1334.5 Q377,1308 326,1263 Q275,1218 246.5,1159.5 Q218,1101 218,1038 Q218,982 240.5,935 Q263,888 307.5,854.5 Q352,821 418,802 Q484,783 571,783 L639,783 L639,739 L547,739 Q449,739 376.5,715.5 Q304,692 256,650 Q208,608 184.5,549 Q161,490 161,419 Q161,343 189,289 Q217,235 265.5,195.5 Q314,156 379.5,128 Q445,100 519,76 Q595,52 640,29 Q685,6 708.5,-18 Q732,-42 739,-68 Q746,-94 746,-124 Q746,-190 725.5,-242.5 Q705,-295 678,-342 L636,-322 Q647,-303 658,-281.5 Q669,-260 677.5,-237 Q686,-214 691.5,-188 Q697,-162 697,-132 Q697,-107 691,-85.5 Q685,-64 664,-44.5 Q643,-25 603.5,-6 Q564,13 497,33 Q421,55 351,84.5 Q281,114 227,157.5 Q173,201 141,263.5 Q109,326 109,416 Q109,478 127.5,534.5 Q146,591 183.5,637 Q221,683 278.5,716.5 Q336,750 414,765 Q352,780 305.5,806 Q259,832 228.5,867.5 Q198,903 183,945.5 Q168,988 168,1036 Q168,1092 189,1144 Q210,1196 248,1239.5 Q286,1283 340,1316.5 Q394,1350 460,1368 Q412,1366 360,1365 Q308,1364 238,1364 L129,1364 Q109,1364 109,1383 L109,1406 L703,1406"/> 
            <glyph glyph-name="ο" unicode="&#x3BF;" horiz-adv-x="991" d=" M553,1002 Q658,1002 739.5,965.5 Q821,929 877,862.5 Q933,796 962,702 Q991,608 991,493 Q991,378 962,284.5 Q933,191 877,125 Q821,59 739.5,23.5 Q658,-12 553,-12 Q448,-12 366.5,23.5 Q285,59 229,125 Q173,191 144,284.5 Q115,378 115,493 Q115,608 144,702 Q173,796 229,862.5 Q285,929 366.5,965.5 Q448,1002 553,1002 M553,30 Q649,30 721,63 Q793,96 841.5,157 Q890,218 914,303 Q938,388 938,493 Q938,598 914,684 Q890,770 841.5,831.5 Q793,893 721,926.5 Q649,960 553,960 Q457,960 385,926.5 Q313,893 264.5,831.5 Q216,770 192,684 Q168,598 168,493 Q168,388 192,303 Q216,218 264.5,157 Q313,96 385,63 Q457,30 553,30"/> 
            <glyph glyph-name="π" unicode="&#x3C0;" horiz-adv-x="1093" d=" M1093,968 L1093,943 Q1093,924 1070,924 L885,924 Q885,848 883.5,783 Q882,718 880.5,660 Q879,602 878,549 Q877,496 877,444 Q877,313 887,233 Q897,153 917.5,109.5 Q938,66 970.5,51.5 Q1003,37 1048,37 L1073,37 L1073,16 Q1073,7 1060.5,1.5 Q1048,-4 1017,-4 Q971,-4 935.5,10.5 Q900,25 876,64.5 Q852,104 839.5,173 Q827,242 827,350 Q827,394 829,455 Q831,516 833.5,590 Q836,664 838.5,748.5 Q841,833 842,924 L372,924 Q370,668 345.5,491 Q321,314 285,203.5 Q249,93 207,43.5 Q165,-6 128,-6 Q117,-6 108,-2.5 Q99,1 99,7 L99,44 L118,44 Q134,44 155.5,65 Q177,86 199.5,130.5 Q222,175 244,244.5 Q266,314 283.5,412 Q301,510 312,637 Q323,764 325,924 L85,924 L85,944 Q85,952 91,960 Q97,968 111,968"/> 
            <glyph glyph-name="ρ" unicode="&#x3C1;" horiz-adv-x="984" d=" M163,578 Q163,676 193,754.5 Q223,833 276.5,888 Q330,943 404,972.5 Q478,1002 565,1002 Q655,1002 731.5,971 Q808,940 864.5,877.5 Q921,815 952.5,720.5 Q984,626 984,499 Q984,391 956.5,298 Q929,205 874.5,136 Q820,67 739.5,27.5 Q659,-12 553,-12 Q448,-12 361,35.5 Q274,83 216,167 L216,-357 L163,-357 M216,223 Q279,125 363,77 Q447,29 545,29 Q642,29 714,64.5 Q786,100 834,163 Q882,226 906,312 Q930,398 930,499 Q930,616 903,703 Q876,790 827.5,847 Q779,904 712,932 Q645,960 565,960 Q491,960 427.5,933.5 Q364,907 317,857.5 Q270,808 243,737 Q216,666 216,578"/> 
            <glyph glyph-name="ς" unicode="&#x3C2;" horiz-adv-x="838" d=" M825,878 Q822,875 819,872.5 Q816,870 811,870 Q803,870 786.5,884 Q770,898 739.5,915 Q709,932 663,946 Q617,960 552,960 Q460,960 388.5,928 Q317,896 267.5,838.5 Q218,781 192,702 Q166,623 166,529 Q166,415 200,339.5 Q234,264 292,213.5 Q350,163 426,132 Q502,101 586,75 Q662,51 707,28 Q752,5 775.5,-19 Q799,-43 806,-69 Q813,-95 813,-125 Q813,-191 792.5,-244 Q772,-297 745,-344 L703,-324 Q714,-305 725,-283.5 Q736,-262 744.5,-239 Q753,-216 758.5,-190 Q764,-164 764,-134 Q764,-109 758,-87.5 Q752,-66 731,-46 Q710,-26 670.5,-7 Q631,12 564,32 Q466,60 383.5,95.5 Q301,131 241,186.5 Q181,242 147,324 Q113,406 113,527 Q113,628 142.5,715 Q172,802 228,865.5 Q284,929 365,965.5 Q446,1002 550,1002 Q642,1002 714,972.5 Q786,943 838,895"/> 
            <glyph glyph-name="σ" unicode="&#x3C3;" horiz-adv-x="1092" d=" M750,935 Q870,889 931,775.5 Q992,662 992,494 Q992,381 963.5,288 Q935,195 880,128 Q825,61 744,24.5 Q663,-12 558,-12 Q458,-12 376.5,21.5 Q295,55 237,119 Q179,183 147.5,276 Q116,369 116,489 Q116,599 144.5,689 Q173,779 233.5,843 Q294,907 388,942 Q482,977 612,977 L1092,977 L1092,958 Q1092,950 1086,942.5 Q1080,935 1066,935 M938,496 Q938,591 919,668 Q900,745 863,801 Q826,857 770.5,891 Q715,925 643,935 L613,935 Q491,935 406.5,902.5 Q322,870 269.5,811.5 Q217,753 193,670.5 Q169,588 169,488 Q169,378 195.5,292.5 Q222,207 272,148.5 Q322,90 394,60 Q466,30 557,30 Q651,30 722.5,62.5 Q794,95 842,155 Q890,215 914,301.5 Q938,388 938,496"/> 
            <glyph glyph-name="τ" unicode="&#x3C4;" horiz-adv-x="839" d=" M43,949 Q43,968 64,968 L839,968 L839,947 Q839,925 816,925 L432,925 L432,233 Q432,137 475.5,87 Q519,37 611,37 L674,37 L674,19 Q674,8 659,2 Q644,-4 598,-4 Q491,-4 435.5,57 Q380,118 380,231 L380,925 L43,925"/> 
            <glyph glyph-name="υ" unicode="&#x3C5;" horiz-adv-x="936" d=" M218,986 L218,355 Q218,278 241,217 Q264,156 305.5,113.5 Q347,71 406,48.5 Q465,26 537,26 Q601,26 663,53.5 Q725,81 774,141.5 Q823,202 853.5,299 Q884,396 884,536 Q884,640 867,750 Q850,860 826,963 Q824,975 830,980.5 Q836,986 843,986 L877,986 Q890,924 901,870.5 Q912,817 919.5,764 Q927,711 931.5,655.5 Q936,600 936,536 Q936,392 903.5,287.5 Q871,183 816,115.5 Q761,48 688.5,16 Q616,-16 535,-16 Q451,-16 382.5,9 Q314,34 265.5,82 Q217,130 191,199 Q165,268 165,355 L165,986"/> 
            <glyph glyph-name="φ" unicode="&#x3C6;" horiz-adv-x="1228" d=" M165,493 Q165,402 193.5,318.5 Q222,235 280.5,171 Q339,107 429,68.5 Q519,30 642,29 L642,742 Q642,870 697.5,936 Q753,1002 867,1002 Q946,1002 1012,965 Q1078,928 1126,864.5 Q1174,801 1201,715 Q1228,629 1228,530 Q1228,415 1194,316 Q1160,217 1092.5,144.5 Q1025,72 924.5,30.5 Q824,-11 692,-12 L692,-357 L642,-357 L642,-12 Q510,-11 410.5,30 Q311,71 244.5,140 Q178,209 145,300.5 Q112,392 112,493 Q112,582 134,660 Q156,738 197,802 Q238,866 296.5,915.5 Q355,965 429,997 L440,975 Q444,968 441,959.5 Q438,951 431,949 Q364,919 314,871.5 Q264,824 231,764.5 Q198,705 181.5,635.5 Q165,566 165,493 M692,29 Q815,30 906,69 Q997,108 1057,175.5 Q1117,243 1146.5,334 Q1176,425 1176,530 Q1176,618 1152.5,696.5 Q1129,775 1088,833.5 Q1047,892 990,926.5 Q933,961 867,961 Q777,961 734.5,906.5 Q692,852 692,742"/> 
            <glyph glyph-name="χ" unicode="&#x3C7;" horiz-adv-x="931" d=" M456,313 Q449,290 440,268 Q431,246 423,228 L131,-336 Q128,-341 122,-347.5 Q116,-354 105,-354 L70,-354 L431,349 L209,836 Q195,865 180,886.5 Q165,908 144.5,922.5 Q124,937 95.5,944 Q67,951 28,951 L-1,951 L-1,972 Q-1,980 4,986 Q9,992 36,992 Q122,992 172,960.5 Q222,929 253,860 L469,381 Q477,404 485,427 Q493,450 503,469 L758,968 Q761,973 767,979.5 Q773,986 783,986 L818,986 L494,346 L740,-190 Q757,-226 774,-251.5 Q791,-277 810,-293 Q829,-309 851.5,-316 Q874,-323 901,-323 L931,-323 L931,-344 Q931,-354 924.5,-359 Q918,-364 894,-364 Q866,-364 839.5,-358 Q813,-352 788,-335 Q763,-318 739,-287.5 Q715,-257 693,-209"/> 
            <glyph glyph-name="ψ" unicode="&#x3C8;" horiz-adv-x="1288" d=" M742,1406 L742,26 Q797,29 855.5,41 Q914,53 969,78 Q1024,103 1072.5,141.5 Q1121,180 1157.5,236 Q1194,292 1215.5,366 Q1237,440 1237,536 Q1237,648 1218.5,755 Q1200,862 1177,963 Q1176,975 1181.5,980.5 Q1187,986 1194,986 L1229,986 Q1242,924 1253,870.5 Q1264,817 1271.5,764 Q1279,711 1283.5,655.5 Q1288,600 1288,536 Q1288,435 1266,355.5 Q1244,276 1205,215.5 Q1166,155 1113.5,112 Q1061,69 1000.5,41.5 Q940,14 874,0.5 Q808,-13 742,-15 L742,-357 L690,-357 L690,-15 Q577,-12 480.5,17.5 Q384,47 313,103.5 Q242,160 201.5,242 Q161,324 161,432 L161,986 L195,986 Q203,986 208.5,978.5 Q214,971 214,963 L214,432 Q214,343 248.5,269.5 Q283,196 346,143 Q409,90 496.5,59.5 Q584,29 690,26 L690,1406"/> 
            <glyph glyph-name="ω" unicode="&#x3C9;" horiz-adv-x="1301" d=" M459,26 Q510,26 551.5,47 Q593,68 622,106.5 Q651,145 666.5,199.5 Q682,254 683,322 L683,652 L736,652 L736,329 Q736,260 751.5,204 Q767,148 796,108.5 Q825,69 866.5,47.5 Q908,26 960,26 Q1001,26 1051.5,46 Q1102,66 1146,115 Q1190,164 1220,247 Q1250,330 1250,456 Q1250,585 1209.5,711 Q1169,837 1098,960 Q1092,973 1098.5,979.5 Q1105,986 1113,986 L1146,986 Q1178,926 1206,865.5 Q1234,805 1255,740.5 Q1276,676 1288.5,606 Q1301,536 1301,456 Q1301,333 1272,244 Q1243,155 1195,97 Q1147,39 1086.5,11.5 Q1026,-16 963,-16 Q922,-16 882.5,-3.5 Q843,9 809,35.5 Q775,62 749,103 Q723,144 709,202 Q695,144 668.5,103 Q642,62 608.5,35.5 Q575,9 535.5,-3.5 Q496,-16 456,-16 Q393,-16 332,11.5 Q271,39 223.5,97 Q176,155 146.5,244 Q117,333 117,456 Q117,536 129.5,606 Q142,676 163,740.5 Q184,805 212,865.5 Q240,926 272,986 L306,986 Q313,986 320,979.5 Q327,973 321,960 Q250,837 209,711 Q168,585 168,456 Q168,330 198,247 Q228,164 272,115 Q316,66 366.5,46 Q417,26 459,26"/> 
            <glyph glyph-name="ϊ" unicode="&#x3CA;" horiz-adv-x="462" d=" M0,0 M423,986 L476,986 L476,224 Q476,128 519,78 Q562,28 655,28 L718,28 L718,10 Q718,-1 702.5,-7 Q687,-13 641,-13 Q534,-13 478.5,48 Q423,109 423,222 M65628,1282 Q65628,1256 65607.5,1236.5 Q65587,1217 65561,1217 Q65534,1217 65514.5,1236.5 Q65495,1256 65495,1282 Q65495,1309 65514.5,1328.5 Q65534,1348 65561,1348 Q65587,1348 65607.5,1328.5 Q65628,1309 65628,1282 M65965,1282 Q65965,1256 65945,1236.5 Q65925,1217 65899,1217 Q65872,1217 65852,1236.5 Q65832,1256 65832,1282 Q65832,1309 65852,1328.5 Q65872,1348 65899,1348 Q65925,1348 65945,1328.5 Q65965,1309 65965,1282"/> 
            <glyph glyph-name="ϋ" unicode="&#x3CB;" horiz-adv-x="936" d=" M165,0 M218,986 L218,355 Q218,278 241,217 Q264,156 305.5,113.5 Q347,71 406,48.5 Q465,26 537,26 Q601,26 663,53.5 Q725,81 774,141.5 Q823,202 853.5,299 Q884,396 884,536 Q884,640 867,750 Q850,860 826,963 Q824,975 830,980.5 Q836,986 843,986 L877,986 Q890,924 901,870.5 Q912,817 919.5,764 Q927,711 931.5,655.5 Q936,600 936,536 Q936,392 903.5,287.5 Q871,183 816,115.5 Q761,48 688.5,16 Q616,-16 535,-16 Q451,-16 382.5,9 Q314,34 265.5,82 Q217,130 191,199 Q165,268 165,355 L165,986 M420,1282 Q420,1256 399.5,1236.5 Q379,1217 353,1217 Q326,1217 306.5,1236.5 Q287,1256 287,1282 Q287,1309 306.5,1328.5 Q326,1348 353,1348 Q379,1348 399.5,1328.5 Q420,1309 420,1282 M757,1282 Q757,1256 737,1236.5 Q717,1217 691,1217 Q664,1217 644,1236.5 Q624,1256 624,1282 Q624,1309 644,1328.5 Q664,1348 691,1348 Q717,1348 737,1328.5 Q757,1309 757,1282"/> 
            <glyph glyph-name="ό" unicode="&#x3CC;" horiz-adv-x="991" d=" M115,0 M553,1002 Q658,1002 739.5,965.5 Q821,929 877,862.5 Q933,796 962,702 Q991,608 991,493 Q991,378 962,284.5 Q933,191 877,125 Q821,59 739.5,23.5 Q658,-12 553,-12 Q448,-12 366.5,23.5 Q285,59 229,125 Q173,191 144,284.5 Q115,378 115,493 Q115,608 144,702 Q173,796 229,862.5 Q285,929 366.5,965.5 Q448,1002 553,1002 M553,30 Q649,30 721,63 Q793,96 841.5,157 Q890,218 914,303 Q938,388 938,493 Q938,598 914,684 Q890,770 841.5,831.5 Q793,893 721,926.5 Q649,960 553,960 Q457,960 385,926.5 Q313,893 264.5,831.5 Q216,770 192,684 Q168,598 168,493 Q168,388 192,303 Q216,218 264.5,157 Q313,96 385,63 Q457,30 553,30 M536,1157 L623,1459 L658,1459 Q670,1459 675.5,1449 Q681,1439 676,1425 L574,1157"/> 
            <glyph glyph-name="ύ" unicode="&#x3CD;" horiz-adv-x="936" d=" M165,0 M218,986 L218,355 Q218,278 241,217 Q264,156 305.5,113.5 Q347,71 406,48.5 Q465,26 537,26 Q601,26 663,53.5 Q725,81 774,141.5 Q823,202 853.5,299 Q884,396 884,536 Q884,640 867,750 Q850,860 826,963 Q824,975 830,980.5 Q836,986 843,986 L877,986 Q890,924 901,870.5 Q912,817 919.5,764 Q927,711 931.5,655.5 Q936,600 936,536 Q936,392 903.5,287.5 Q871,183 816,115.5 Q761,48 688.5,16 Q616,-16 535,-16 Q451,-16 382.5,9 Q314,34 265.5,82 Q217,130 191,199 Q165,268 165,355 L165,986 M503,1157 L590,1459 L625,1459 Q637,1459 642.5,1449 Q648,1439 643,1425 L541,1157"/> 
            <glyph glyph-name="ώ" unicode="&#x3CE;" horiz-adv-x="1301" d=" M117,0 M459,26 Q510,26 551.5,47 Q593,68 622,106.5 Q651,145 666.5,199.5 Q682,254 683,322 L683,652 L736,652 L736,329 Q736,260 751.5,204 Q767,148 796,108.5 Q825,69 866.5,47.5 Q908,26 960,26 Q1001,26 1051.5,46 Q1102,66 1146,115 Q1190,164 1220,247 Q1250,330 1250,456 Q1250,585 1209.5,711 Q1169,837 1098,960 Q1092,973 1098.5,979.5 Q1105,986 1113,986 L1146,986 Q1178,926 1206,865.5 Q1234,805 1255,740.5 Q1276,676 1288.5,606 Q1301,536 1301,456 Q1301,333 1272,244 Q1243,155 1195,97 Q1147,39 1086.5,11.5 Q1026,-16 963,-16 Q922,-16 882.5,-3.5 Q843,9 809,35.5 Q775,62 749,103 Q723,144 709,202 Q695,144 668.5,103 Q642,62 608.5,35.5 Q575,9 535.5,-3.5 Q496,-16 456,-16 Q393,-16 332,11.5 Q271,39 223.5,97 Q176,155 146.5,244 Q117,333 117,456 Q117,536 129.5,606 Q142,676 163,740.5 Q184,805 212,865.5 Q240,926 272,986 L306,986 Q313,986 320,979.5 Q327,973 321,960 Q250,837 209,711 Q168,585 168,456 Q168,330 198,247 Q228,164 272,115 Q316,66 366.5,46 Q417,26 459,26 M692,1157 L779,1459 L814,1459 Q826,1459 831.5,1449 Q837,1439 832,1425 L730,1157"/> 
            <glyph glyph-name="ϐ" unicode="&#x3D0;" horiz-adv-x="991" d=" M148,0 M910,1185 Q910,1143 896.5,1097.5 Q883,1052 848.5,1005 Q814,958 756,910 Q698,862 610,816 Q700,837 771,822 Q842,807 891,762.5 Q940,718 965.5,645.5 Q991,573 991,479 Q991,359 956.5,267.5 Q922,176 863,113.5 Q804,51 725,19.5 Q646,-12 557,-12 Q355,-12 251.5,146 Q148,304 148,607 Q148,813 188,966 Q228,1119 296,1220 Q364,1321 455.5,1370.5 Q547,1420 649,1420 Q711,1420 759.5,1403 Q808,1386 841.5,1355 Q875,1324 892.5,1280.5 Q910,1237 910,1185 M201,609 L201,600 Q202,463 223.5,357 Q245,251 289,178 Q333,105 400,67.5 Q467,30 558,30 Q637,30 706,59 Q775,88 827,144.5 Q879,201 909,285 Q939,369 939,479 Q939,584 907.5,657 Q876,730 814.5,764 Q753,798 663.5,791 Q574,784 459,729 M645,1378 Q558,1378 479.5,1335.5 Q401,1293 341,1204.5 Q281,1116 243.5,979 Q206,842 202,654 L510,798 Q619,849 687.5,901 Q756,953 794.5,1003.5 Q833,1054 846.5,1100 Q860,1146 860,1185 Q860,1277 802.5,1327.5 Q745,1378 645,1378"/> 
            <glyph glyph-name="ϑ" unicode="&#x3D1;" horiz-adv-x="1200" d=" M60,0 M1200,963 Q1200,956 1195.5,950 Q1191,944 1181,944 L1022,944 Q1030,888 1035,825.5 Q1040,763 1040,692 Q1040,521 1013.5,389 Q987,257 933.5,167 Q880,77 800,30.5 Q720,-16 613,-16 Q517,-16 448,18 Q379,52 335.5,110.5 Q292,169 271.5,247 Q251,325 251,414 L251,628 Q251,676 242,708 Q233,740 214.5,759.5 Q196,779 166,787 Q136,795 94,795 L60,795 L60,816 Q60,824 75,830 Q90,836 123,836 Q164,836 197.5,826 Q231,816 254.5,792 Q278,768 290.5,728 Q303,688 303,628 L303,414 Q303,335 320,264.5 Q337,194 374,141 Q411,88 470,57 Q529,26 612,26 Q697,26 767,62.5 Q837,99 886.5,178.5 Q936,258 963,384.5 Q990,511 990,691 Q990,831 972,944 Q844,945 728.5,958 Q613,971 525.5,1002.5 Q438,1034 386.5,1086 Q335,1138 335,1216 Q335,1259 351.5,1296 Q368,1333 400.5,1360.5 Q433,1388 481,1404 Q529,1420 592,1420 Q668,1420 735.5,1396 Q803,1372 857.5,1320 Q912,1268 952.5,1185.5 Q993,1103 1015,986 L1200,986 M383,1215 Q383,1149 429,1105 Q475,1061 554,1035 Q633,1009 739,998 Q845,987 965,986 Q927,1185 832.5,1282.5 Q738,1380 596,1380 Q542,1380 502,1367 Q462,1354 435.5,1331.5 Q409,1309 396,1279 Q383,1249 383,1215"/> 
            <glyph glyph-name="ϒ" unicode="&#x3D2;" horiz-adv-x="1134" d=" M604,0 L548,0 L548,425 Q548,655 506.5,831 Q465,1007 398,1126.5 Q331,1246 246,1307 Q161,1368 74,1368 L18,1368 L18,1402 Q18,1405 24,1408 Q30,1411 39.5,1412.5 Q49,1414 60.5,1415 Q72,1416 82,1416 Q165,1416 245.5,1367 Q326,1318 393,1220.5 Q460,1123 508.5,978 Q557,833 576,641 Q595,833 643.5,978 Q692,1123 759,1220.5 Q826,1318 906.5,1367 Q987,1416 1070,1416 Q1080,1416 1091.5,1415 Q1103,1414 1112.5,1412.5 Q1122,1411 1128,1408 Q1134,1405 1134,1402 L1134,1368 L1078,1368 Q991,1368 906,1307 Q821,1246 754,1126.5 Q687,1007 645.5,831 Q604,655 604,425"/> 
            <glyph glyph-name="ϓ" unicode="&#x3D3;" horiz-adv-x="1134" d=" M0,0 M604,0 L548,0 L548,425 Q548,655 506.5,831 Q465,1007 398,1126.5 Q331,1246 246,1307 Q161,1368 74,1368 L18,1368 L18,1402 Q18,1405 24,1408 Q30,1411 39.5,1412.5 Q49,1414 60.5,1415 Q72,1416 82,1416 Q165,1416 245.5,1367 Q326,1318 393,1220.5 Q460,1123 508.5,978 Q557,833 576,641 Q595,833 643.5,978 Q692,1123 759,1220.5 Q826,1318 906.5,1367 Q987,1416 1070,1416 Q1080,1416 1091.5,1415 Q1103,1414 1112.5,1412.5 Q1122,1411 1128,1408 Q1134,1405 1134,1402 L1134,1368 L1078,1368 Q991,1368 906,1307 Q821,1246 754,1126.5 Q687,1007 645.5,831 Q604,655 604,425 M65333,66636 L65420,66938 L65455,66938 Q65467,66938 65472.5,66928 Q65478,66918 65473,66904 L65371,66636"/> 
            <glyph glyph-name="ϔ" unicode="&#x3D4;" horiz-adv-x="1134" d=" M18,0 M604,0 L548,0 L548,425 Q548,655 506.5,831 Q465,1007 398,1126.5 Q331,1246 246,1307 Q161,1368 74,1368 L18,1368 L18,1402 Q18,1405 24,1408 Q30,1411 39.5,1412.5 Q49,1414 60.5,1415 Q72,1416 82,1416 Q165,1416 245.5,1367 Q326,1318 393,1220.5 Q460,1123 508.5,978 Q557,833 576,641 Q595,833 643.5,978 Q692,1123 759,1220.5 Q826,1318 906.5,1367 Q987,1416 1070,1416 Q1080,1416 1091.5,1415 Q1103,1414 1112.5,1412.5 Q1122,1411 1128,1408 Q1134,1405 1134,1402 L1134,1368 L1078,1368 Q991,1368 906,1307 Q821,1246 754,1126.5 Q687,1007 645.5,831 Q604,655 604,425 M453,1664 Q453,1639 433,1619.5 Q413,1600 387,1600 Q374,1600 362,1605.5 Q350,1611 341,1620 Q332,1629 326.5,1640.5 Q321,1652 321,1664 Q321,1691 341,1711 Q361,1731 387,1731 Q413,1731 433,1711 Q453,1691 453,1664 M831,1664 Q831,1639 810.5,1619.5 Q790,1600 765,1600 Q738,1600 718.5,1619.5 Q699,1639 699,1664 Q699,1691 718.5,1711 Q738,1731 765,1731 Q790,1731 810.5,1711 Q831,1691 831,1664"/> 
            <glyph glyph-name="ϕ" unicode="&#x3D5;" horiz-adv-x="1230" d=" M114,0 M697,1406 L697,1002 Q829,1001 929,964.5 Q1029,928 1096,861.5 Q1163,795 1196.5,701.5 Q1230,608 1230,493 Q1230,378 1196.5,285 Q1163,192 1096,126.5 Q1029,61 929,25 Q829,-11 697,-12 L697,-357 L647,-357 L647,-12 Q514,-11 414,25 Q314,61 247.5,126.5 Q181,192 147.5,285 Q114,378 114,493 Q114,608 147.5,701.5 Q181,795 247.5,861.5 Q314,928 414,964.5 Q514,1001 647,1002 L647,1406 M166,493 Q166,389 195,303.5 Q224,218 283,157 Q342,96 433,62.5 Q524,29 647,29 L647,961 Q524,960 433,926 Q342,892 283,830.5 Q224,769 195,683 Q166,597 166,493 M1177,493 Q1177,597 1148,683 Q1119,769 1060,830.5 Q1001,892 910.5,926 Q820,960 697,961 L697,29 Q820,29 910.5,62.5 Q1001,96 1060,157 Q1119,218 1148,303.5 Q1177,389 1177,493"/> 
            </font>
</defs>
</svg>
