<?xml version="1.0" standalone="no"?>
<!DOCTYPE svg PUBLIC "-//W3C//DTD SVG 1.1//EN" "http://www.w3.org/Graphics/SVG/1.1/DTD/svg11.dtd" >
<svg xmlns="http://www.w3.org/2000/svg">
    <defs>
        <font id="Lato-Regular">
            <font-face font-family="Lato-Regular"
                       units-per-em="2000"
                       ascent="1974"
                       descent="-426"
                       bbox="-1093 -537 2685 2157"
                    />
            <missing-glyph horiz-adv-x="0" />
            
            <glyph glyph-name="!" unicode="&#x21;" horiz-adv-x="392" d=" M355,1433 L355,861 Q355,816 353,773 Q351,730 348,686.5 Q345,643 340.5,597.5 Q336,552 330,500 L210,500 Q204,552 199.5,597.5 Q195,643 192,686.5 Q189,730 187,773 Q185,816 185,861 L185,1433 M142,110 Q142,136 151.5,159 Q161,182 178,199 Q195,216 217.5,226 Q240,236 267,236 Q293,236 315.5,226 Q338,216 355,199 Q372,182 382,159 Q392,136 392,110 Q392,83 382,60.5 Q372,38 355,21 Q338,4 315.5,-5.5 Q293,-15 267,-15 Q240,-15 217.5,-5.5 Q195,4 178,21 Q161,38 151.5,60.5 Q142,83 142,110"/> 
            <glyph glyph-name="&quot;" unicode="&#x22;" horiz-adv-x="615" d=" M127,921 M282,1433 L282,1143 L266,988 Q261,956 247.5,938.5 Q234,921 204,921 Q177,921 162.5,938.5 Q148,956 143,988 L127,1143 L127,1433 M615,1433 L615,1143 L599,988 Q594,956 580.5,938.5 Q567,921 537,921 Q510,921 495.5,938.5 Q481,956 476,988 L460,1143 L460,1433"/> 
            <glyph glyph-name="#" unicode="&#x23;" horiz-adv-x="1108" d=" M793,423 L709,0 L628,0 Q615,0 604,6 Q593,12 585.5,22 Q578,32 575,46 Q572,60 575,77 L646,423 L399,423 L328,68 Q322,31 299,15.5 Q276,0 247,0 L167,0 L252,423 L106,423 Q78,423 65.5,439.5 Q53,456 59,497 L67,554 L271,554 L336,880 L104,880 L117,954 Q122,983 140.5,997 Q159,1011 197,1011 L355,1011 L427,1369 Q433,1399 454.5,1416 Q476,1433 506,1433 L586,1433 L502,1011 L749,1011 L833,1433 L912,1433 Q941,1433 957.5,1414 Q974,1395 969,1366 L896,1011 L1108,1011 L1095,936 Q1090,907 1071.5,893.5 Q1053,880 1015,880 L877,880 L812,554 L991,554 Q1020,554 1032.5,537.5 Q1045,521 1039,480 L1030,423 M418,554 L665,554 L730,880 L483,880"/> 
            <glyph glyph-name="$" unicode="&#x24;" horiz-adv-x="1052" d=" M490,-12 Q369,-1 269.5,47.5 Q170,96 98,171 L152,253 Q160,264 172,271 Q184,278 198,278 Q217,278 241,259 Q265,240 300,215.5 Q335,191 383.5,168 Q432,145 500,137 L537,668 Q467,689 399.5,715.5 Q332,742 278.5,784.5 Q225,827 192.5,891.5 Q160,956 160,1053 Q160,1126 188.5,1195.5 Q217,1265 272,1319 Q327,1373 407,1407.5 Q487,1442 590,1446 L600,1590 Q601,1609 614.5,1624 Q628,1639 650,1639 L716,1639 L702,1441 Q807,1428 883.5,1387 Q960,1346 1019,1288 L976,1222 Q956,1192 930,1192 Q916,1192 895.5,1204.5 Q875,1217 846.5,1233.5 Q818,1250 779.5,1266.5 Q741,1283 692,1290 L659,806 Q731,784 801,758 Q871,732 927,691 Q983,650 1017.5,588.5 Q1052,527 1052,435 Q1052,345 1022,266 Q992,187 934.5,127 Q877,67 793.5,29.5 Q710,-8 603,-14 L591,-190 Q590,-209 576,-223.5 Q562,-238 541,-238 L475,-238 M883,407 Q883,457 864.5,493 Q846,529 814,555 Q782,581 739,600 Q696,619 647,635 L613,137 Q679,143 729,165.5 Q779,188 813.5,223 Q848,258 865.5,304.5 Q883,351 883,407 M328,1071 Q328,1023 345,987.5 Q362,952 392,925 Q422,898 462,878 Q502,858 549,842 L579,1293 Q514,1287 466.5,1267 Q419,1247 388.5,1217 Q358,1187 343,1149.5 Q328,1112 328,1071"/> 
            <glyph glyph-name="%" unicode="&#x25;" horiz-adv-x="1515" d=" M722,1087 Q722,1003 696,936.5 Q670,870 626.5,824.5 Q583,779 525.5,755 Q468,731 404,731 Q337,731 279,755 Q221,779 178.5,824.5 Q136,870 112,936.5 Q88,1003 88,1087 Q88,1173 112,1240 Q136,1307 178.5,1353 Q221,1399 279,1423 Q337,1447 404,1447 Q472,1447 530,1423 Q588,1399 631,1353 Q674,1307 698,1240 Q722,1173 722,1087 M584,1087 Q584,1153 570,1199 Q556,1245 531.5,1274.5 Q507,1304 474,1317 Q441,1330 404,1330 Q367,1330 335,1317 Q303,1304 279,1274.5 Q255,1245 241,1199 Q227,1153 227,1087 Q227,1022 241,976.5 Q255,931 279,902.5 Q303,874 335,861.5 Q367,849 404,849 Q441,849 474,861.5 Q507,874 531.5,902.5 Q556,931 570,976.5 Q584,1022 584,1087 M1229,1403 Q1239,1415 1252.5,1424 Q1266,1433 1289,1433 L1418,1433 L370,29 Q361,16 347,8 Q333,0 313,0 L182,0 M1515,338 Q1515,254 1489,188 Q1463,122 1419.5,76.5 Q1376,31 1318.5,7 Q1261,-17 1197,-17 Q1129,-17 1071.5,7 Q1014,31 971.5,76.5 Q929,122 905,188 Q881,254 881,338 Q881,424 905,491.5 Q929,559 971.5,605 Q1014,651 1071.5,675 Q1129,699 1197,699 Q1264,699 1322.5,675 Q1381,651 1423.5,605 Q1466,559 1490.5,491.5 Q1515,424 1515,338 M1377,338 Q1377,404 1363,450.5 Q1349,497 1324.5,526 Q1300,555 1267,568 Q1234,581 1197,581 Q1160,581 1127.5,568 Q1095,555 1071,526 Q1047,497 1033.5,450.5 Q1020,404 1020,338 Q1020,273 1033.5,228 Q1047,183 1071,154.5 Q1095,126 1127.5,113.5 Q1160,101 1197,101 Q1234,101 1267,113.5 Q1300,126 1324.5,154.5 Q1349,183 1363,228 Q1377,273 1377,338"/> 
            <glyph glyph-name="&amp;" unicode="&#x26;" horiz-adv-x="1407" d=" M667,1449 Q746,1449 811,1423.5 Q876,1398 923,1356 Q970,1314 997.5,1258.5 Q1025,1203 1029,1143 L918,1121 Q885,1113 869,1152 Q862,1178 846.5,1206 Q831,1234 806.5,1257 Q782,1280 747.5,1295 Q713,1310 667,1310 Q617,1310 576.5,1294 Q536,1278 507.5,1249.5 Q479,1221 464,1182.5 Q449,1144 449,1099 Q449,1064 457,1032 Q465,1000 482.5,967 Q500,934 527,900 Q554,866 592,828 L1004,409 Q1042,477 1064.5,550 Q1087,623 1095,697 Q1097,716 1107,727 Q1117,738 1135,738 L1244,738 Q1243,623 1207.5,512.5 Q1172,402 1107,305 L1407,0 L1234,0 Q1205,0 1187,7 Q1169,14 1148,36 L1003,181 Q909,90 786.5,37 Q664,-16 517,-16 Q437,-16 360.5,11 Q284,38 223,89.5 Q162,141 125,215 Q88,289 88,382 Q88,452 111.5,514.5 Q135,577 176.5,630 Q218,683 275.5,725 Q333,767 401,797 Q339,874 310.5,947 Q282,1020 282,1098 Q282,1171 308.5,1235 Q335,1299 385,1346.5 Q435,1394 506.5,1421.5 Q578,1449 667,1449 M548,129 Q660,129 749,170 Q838,211 906,279 L483,706 Q377,649 323.5,569.5 Q270,490 270,396 Q270,331 294,281.5 Q318,232 357,198 Q396,164 446,146.5 Q496,129 548,129"/> 
            <glyph glyph-name="'" unicode="&#x27;" horiz-adv-x="282" d=" M282,1433 L282,1143 L266,988 Q261,956 247.5,938.5 Q234,921 204,921 Q177,921 162.5,938.5 Q148,956 143,988 L127,1143 L127,1433"/> 
            <glyph glyph-name="(" unicode="&#x28;" horiz-adv-x="475" d=" M245,629 Q245,415 299.5,213 Q354,11 459,-171 Q475,-202 467,-218.5 Q459,-235 444,-245 L365,-293 Q290,-178 237.5,-65 Q185,48 152.5,162 Q120,276 105,391.5 Q90,507 90,629 Q90,750 105,866 Q120,982 152.5,1095.5 Q185,1209 237.5,1322 Q290,1435 365,1551 L444,1502 Q459,1492 467,1475.5 Q475,1459 459,1429 Q354,1247 299.5,1045 Q245,843 245,629"/> 
            <glyph glyph-name=")" unicode="&#x29;" horiz-adv-x="444" d=" M289,629 Q289,843 234.5,1045 Q180,1247 75,1429 Q67,1444 65,1455.5 Q63,1467 66,1475.5 Q69,1484 75.5,1490.5 Q82,1497 90,1502 L169,1551 Q244,1435 296.5,1322 Q349,1209 381.5,1095.5 Q414,982 429,866 Q444,750 444,629 Q444,507 429,391.5 Q414,276 381.5,162 Q349,48 296.5,-65 Q244,-178 169,-293 L90,-245 Q82,-240 75.5,-233.5 Q69,-227 66,-218.5 Q63,-210 65,-198 Q67,-186 75,-171 Q180,11 234.5,213 Q289,415 289,629"/> 
            <glyph glyph-name="*" unicode="&#x2A;" horiz-adv-x="727" d=" M381,863 L381,1060 Q381,1079 383.5,1096 Q386,1113 393,1129 Q373,1104 340,1084 L168,985 L124,1060 L296,1160 Q332,1181 369,1184 Q349,1186 331.5,1191.5 Q314,1197 296,1209 L123,1310 L167,1385 L340,1285 Q358,1274 372,1262 Q386,1250 397,1233 Q388,1251 384.5,1269.5 Q381,1288 381,1308 L381,1506 L469,1506 L469,1309 Q469,1268 455,1237 Q466,1252 479.5,1263 Q493,1274 510,1285 L682,1384 L726,1309 L554,1209 Q537,1198 520.5,1192 Q504,1186 486,1184 Q504,1182 520.5,1176.5 Q537,1171 554,1160 L727,1059 L683,984 L510,1084 Q492,1095 478,1106 Q464,1117 453,1133 Q469,1100 469,1061 L469,863"/> 
            <glyph glyph-name="+" unicode="&#x2B;" horiz-adv-x="1060" d=" M652,1166 L652,739 L1060,739 L1060,604 L652,604 L652,174 L507,174 L507,604 L101,604 L101,739 L507,739 L507,1166"/> 
            <glyph glyph-name="," unicode="&#x2C;" horiz-adv-x="349" d=" M107,123 Q107,170 139.5,203 Q172,236 226,236 Q256,236 279,225 Q302,214 317.5,194.5 Q333,175 341,149.5 Q349,124 349,94 Q349,49 336.5,0.5 Q324,-48 299.5,-95.5 Q275,-143 240,-188 Q205,-233 160,-271 L130,-242 Q122,-235 119,-229 Q116,-223 116,-214 Q116,-207 120.5,-200 Q125,-193 131,-187 Q141,-176 156.5,-157.5 Q172,-139 188,-115 Q204,-91 217.5,-62 Q231,-33 237,0 L224,0 Q172,0 139.5,34.5 Q107,69 107,123"/> 
            <glyph glyph-name="-" unicode="&#x2D;" horiz-adv-x="619" d=" M125,675 L619,675 L619,524 L125,524"/> 
            <glyph glyph-name="." unicode="&#x2E;" horiz-adv-x="361" d=" M111,110 Q111,136 120.5,159 Q130,182 146.5,199 Q163,216 186,226 Q209,236 235,236 Q261,236 284,226 Q307,216 324,199 Q341,182 351,159 Q361,136 361,110 Q361,83 351,60.5 Q341,38 324,21 Q307,4 284,-5.5 Q261,-15 235,-15 Q209,-15 186,-5.5 Q163,4 146.5,21 Q130,38 120.5,60.5 Q111,83 111,110"/> 
            <glyph glyph-name="/" unicode="&#x2F;" horiz-adv-x="837" d=" M239,-21 Q226,-56 198.5,-73 Q171,-90 142,-90 L67,-90 L668,1407 Q680,1439 704.5,1456 Q729,1473 761,1473 L837,1473"/> 
            <glyph glyph-name="0" unicode="&#x30;" horiz-adv-x="1100" d=" M1100,716 Q1100,528 1059.5,390.5 Q1019,253 949,163 Q879,73 783.5,29 Q688,-15 579,-15 Q469,-15 374.5,29 Q280,73 210,163 Q140,253 100,390.5 Q60,528 60,716 Q60,904 100,1042 Q140,1180 210,1270.5 Q280,1361 374.5,1405 Q469,1449 579,1449 Q688,1449 783.5,1405 Q879,1361 949,1270.5 Q1019,1180 1059.5,1042 Q1100,904 1100,716 M915,716 Q915,880 887.5,991.5 Q860,1103 813.5,1171 Q767,1239 706,1268.5 Q645,1298 579,1298 Q513,1298 452,1268.5 Q391,1239 345,1171 Q299,1103 271.5,991.5 Q244,880 244,716 Q244,552 271.5,441 Q299,330 345,262 Q391,194 452,164.5 Q513,135 579,135 Q645,135 706,164.5 Q767,194 813.5,262 Q860,330 887.5,441 Q915,552 915,716"/> 
            <glyph glyph-name="1" unicode="&#x31;" horiz-adv-x="1018" d=" M250,136 L557,136 L557,1113 Q557,1155 560,1202 L305,983 Q292,972 279,969.5 Q266,967 255,969 Q244,971 234.5,977 Q225,983 220,990 L164,1067 L591,1436 L736,1436 L736,136 L1018,136 L1018,0 L250,0"/> 
            <glyph glyph-name="2" unicode="&#x32;" horiz-adv-x="1050" d=" M591,1449 Q682,1449 761,1422 Q840,1395 898,1343.5 Q956,1292 989,1218 Q1022,1144 1022,1050 Q1022,970 998,901.5 Q974,833 933,771 Q892,709 838.5,650 Q785,591 725,531 L347,145 Q387,156 428,162.5 Q469,169 507,169 L987,169 Q1016,169 1033,152 Q1050,135 1050,108 L1050,0 L94,0 L94,61 Q94,80 102,100 Q110,120 127,137 L586,598 Q643,656 690,709.5 Q737,763 770,817 Q803,871 821,926.5 Q839,982 839,1045 Q839,1108 819,1155.5 Q799,1203 764.5,1234 Q730,1265 683,1280.5 Q636,1296 582,1296 Q527,1296 481,1280 Q435,1264 399.5,1235.5 Q364,1207 340,1168 Q316,1129 306,1082 Q294,1047 273.5,1035.5 Q253,1024 216,1029 L123,1045 Q137,1143 177.5,1218.5 Q218,1294 279.5,1345 Q341,1396 420,1422.5 Q499,1449 591,1449"/> 
            <glyph glyph-name="3" unicode="&#x33;" horiz-adv-x="1048" d=" M598,1449 Q689,1449 766,1423 Q843,1397 898.5,1349 Q954,1301 985,1233 Q1016,1165 1016,1082 Q1016,1014 998.5,960.5 Q981,907 948.5,866.5 Q916,826 870,798 Q824,770 767,753 Q907,716 977.5,629 Q1048,542 1048,411 Q1048,312 1010.5,233 Q973,154 908,98.5 Q843,43 756.5,13.5 Q670,-16 571,-16 Q457,-16 376,12.5 Q295,41 239,91 Q183,141 147,209.5 Q111,278 86,358 L163,390 Q193,403 221.5,397 Q250,391 263,364 Q276,336 295.5,297 Q315,258 349,222 Q383,186 435.5,161 Q488,136 569,136 Q644,136 700.5,160.5 Q757,185 794.5,224 Q832,263 851,311 Q870,359 870,406 Q870,464 855,512 Q840,560 799,595 Q758,630 686.5,650 Q615,670 503,670 L503,799 Q595,800 659.5,819 Q724,838 764.5,871 Q805,904 823.5,950 Q842,996 842,1052 Q842,1114 822.5,1160 Q803,1206 769,1236 Q735,1266 688.5,1281 Q642,1296 588,1296 Q534,1296 487.5,1280 Q441,1264 405.5,1235.5 Q370,1207 346,1168 Q322,1129 312,1082 Q299,1047 279.5,1035.5 Q260,1024 223,1029 L130,1045 Q144,1143 184,1218.5 Q224,1294 285.5,1345 Q347,1396 426.5,1422.5 Q506,1449 598,1449"/> 
            <glyph glyph-name="4" unicode="&#x34;" horiz-adv-x="1103" d=" M886,517 L1103,517 L1103,415 Q1103,399 1093.5,388 Q1084,377 1064,377 L886,377 L886,0 L730,0 L730,377 L94,377 Q74,377 59.5,388.5 Q45,400 41,417 L23,508 L720,1433 L886,1433 M730,1108 Q730,1134 731.5,1164.5 Q733,1195 738,1227 L216,517 L730,517"/> 
            <glyph glyph-name="5" unicode="&#x35;" horiz-adv-x="1026" d=" M982,1355 Q982,1317 958.5,1292.5 Q935,1268 878,1268 L428,1268 L362,892 Q419,905 469.5,910.5 Q520,916 568,916 Q680,916 766,883 Q852,850 909.5,792 Q967,734 996.5,655 Q1026,576 1026,483 Q1026,369 986.5,277 Q947,185 877.5,119.5 Q808,54 714,19 Q620,-16 511,-16 Q448,-16 390,-3.5 Q332,9 281.5,30 Q231,51 188,78 Q145,105 112,135 L167,211 Q185,237 214,237 Q234,237 259,221.5 Q284,206 320,187 Q356,168 404.5,152.5 Q453,137 520,137 Q595,137 655,161 Q715,185 758,229.5 Q801,274 824,336 Q847,398 847,475 Q847,542 827.5,596 Q808,650 768.5,688 Q729,726 670,747 Q611,768 532,768 Q478,768 419.5,759 Q361,750 300,730 L188,763 L303,1433 L982,1433"/> 
            <glyph glyph-name="6" unicode="&#x36;" horiz-adv-x="1073" d=" M474,896 Q454,872 437,849 Q420,826 403,804 Q454,839 515.5,858.5 Q577,878 649,878 Q736,878 813,849.5 Q890,821 947.5,766.5 Q1005,712 1039,632.5 Q1073,553 1073,451 Q1073,352 1037,267 Q1001,182 936.5,119 Q872,56 781.5,20 Q691,-16 582,-16 Q474,-16 386,18.5 Q298,53 236.5,116.5 Q175,180 141.5,270.5 Q108,361 108,473 Q108,567 149.5,673.5 Q191,780 282,901 L646,1390 Q660,1408 684.5,1420.5 Q709,1433 741,1433 L899,1433 M279,442 Q279,373 299,316 Q319,259 357.5,218 Q396,177 451.5,154.5 Q507,132 578,132 Q650,132 708.5,155 Q767,178 808.5,219 Q850,260 872.5,316 Q895,372 895,438 Q895,508 873,564.5 Q851,621 810.5,660.5 Q770,700 714,721 Q658,742 591,742 Q519,742 461,717.5 Q403,693 362.5,651.5 Q322,610 300.5,555.5 Q279,501 279,442"/> 
            <glyph glyph-name="7" unicode="&#x37;" horiz-adv-x="1081" d=" M1081,1433 L1081,1353 Q1081,1319 1073.5,1297 Q1066,1275 1059,1260 L465,63 Q452,37 429,18.5 Q406,0 368,0 L240,0 L842,1182 Q855,1207 868.5,1228 Q882,1249 899,1268 L151,1268 Q134,1268 121,1281.5 Q108,1295 108,1312 L108,1433"/> 
            <glyph glyph-name="8" unicode="&#x38;" horiz-adv-x="1063" d=" M580,-16 Q473,-16 384,12.5 Q295,41 231,94 Q167,147 132,222.5 Q97,298 97,392 Q97,530 169,619.5 Q241,709 375,747 Q262,789 204.5,872.5 Q147,956 147,1072 Q147,1151 178,1220 Q209,1289 266,1340 Q323,1391 402.5,1420 Q482,1449 580,1449 Q677,1449 757,1420 Q837,1391 894,1340 Q951,1289 982,1220 Q1013,1151 1013,1072 Q1013,956 955,872.5 Q897,789 785,747 Q919,709 991,619.5 Q1063,530 1063,392 Q1063,298 1027.5,222.5 Q992,147 928.5,94 Q865,41 776,12.5 Q687,-16 580,-16 M580,126 Q650,126 705.5,145.5 Q761,165 799.5,200.5 Q838,236 858.5,285.5 Q879,335 879,395 Q879,469 854.5,521.5 Q830,574 788.5,607 Q747,640 693,655.5 Q639,671 580,671 Q521,671 467,655.5 Q413,640 371.5,607 Q330,574 305.5,521.5 Q281,469 281,395 Q281,335 301.5,285.5 Q322,236 360.5,200.5 Q399,165 454.5,145.5 Q510,126 580,126 M580,814 Q650,814 699.5,835.5 Q749,857 780,892.5 Q811,928 825,974 Q839,1020 839,1069 Q839,1119 822.5,1163 Q806,1207 773.5,1240 Q741,1273 692.5,1292 Q644,1311 580,1311 Q516,1311 467.5,1292 Q419,1273 386.5,1240 Q354,1207 337.5,1163 Q321,1119 321,1069 Q321,1020 335,974 Q349,928 380,892.5 Q411,857 460.5,835.5 Q510,814 580,814"/> 
            <glyph glyph-name="9" unicode="&#x39;" horiz-adv-x="1035" d=" M699,571 Q721,600 740,626 Q759,652 776,678 Q721,634 652,611 Q583,588 506,588 Q425,588 352.5,615 Q280,642 225,694.5 Q170,747 137.5,823.5 Q105,900 105,999 Q105,1093 140,1175 Q175,1257 238,1318 Q301,1379 388,1414 Q475,1449 579,1449 Q682,1449 766,1415 Q850,1381 910,1320 Q970,1259 1002.5,1174 Q1035,1089 1035,986 Q1035,924 1023.5,868.5 Q1012,813 990.5,759.5 Q969,706 938,653.5 Q907,601 868,546 L519,42 Q506,23 482,11.5 Q458,0 427,0 L263,0 M864,1007 Q864,1074 842.5,1128.5 Q821,1183 783,1221 Q745,1259 692.5,1279.5 Q640,1300 577,1300 Q511,1300 457,1278.5 Q403,1257 364,1219 Q325,1181 304,1128 Q283,1075 283,1012 Q283,944 302.5,890.5 Q322,837 358.5,800 Q395,763 447.5,744 Q500,725 565,725 Q637,725 692.5,748.5 Q748,772 786,811 Q824,850 844,901 Q864,952 864,1007"/> 
            <glyph glyph-name=":" unicode="&#x3A;" horiz-adv-x="375" d=" M125,0 M125,110 Q125,136 134.5,159 Q144,182 160.5,199 Q177,216 200,226 Q223,236 249,236 Q275,236 298,226 Q321,216 338,199 Q355,182 365,159 Q375,136 375,110 Q375,83 365,60.5 Q355,38 338,21 Q321,4 298,-5.5 Q275,-15 249,-15 Q223,-15 200,-5.5 Q177,4 160.5,21 Q144,38 134.5,60.5 Q125,83 125,110 M125,860 Q125,886 134.5,909 Q144,932 160.5,949 Q177,966 200,976 Q223,986 249,986 Q275,986 298,976 Q321,966 338,949 Q355,932 365,909 Q375,886 375,860 Q375,833 365,810.5 Q355,788 338,771 Q321,754 298,744.5 Q275,735 249,735 Q223,735 200,744.5 Q177,754 160.5,771 Q144,788 134.5,810.5 Q125,833 125,860"/> 
            <glyph glyph-name=";" unicode="&#x3B;" horiz-adv-x="386" d=" M136,0 M141,123 Q141,170 173.5,203 Q206,236 260,236 Q290,236 313,225 Q336,214 351.5,194.5 Q367,175 375,149.5 Q383,124 383,94 Q383,49 370.5,0.5 Q358,-48 333.5,-95.5 Q309,-143 274,-188 Q239,-233 194,-271 L164,-242 Q156,-235 153,-229 Q150,-223 150,-214 Q150,-207 154.5,-200 Q159,-193 165,-187 Q175,-176 190.5,-157.5 Q206,-139 222,-115 Q238,-91 251.5,-62 Q265,-33 271,0 L258,0 Q206,0 173.5,34.5 Q141,69 141,123 M136,860 Q136,886 145.5,909 Q155,932 171.5,949 Q188,966 211,976 Q234,986 260,986 Q286,986 309,976 Q332,966 349,949 Q366,932 376,909 Q386,886 386,860 Q386,833 376,810.5 Q366,788 349,771 Q332,754 309,744.5 Q286,735 260,735 Q234,735 211,744.5 Q188,754 171.5,771 Q155,788 145.5,810.5 Q136,833 136,860"/> 
            <glyph glyph-name="&lt;" unicode="&#x3C;" horiz-adv-x="935" d=" M162,710 L935,1111 L935,984 Q935,967 927,954.5 Q919,942 899,932 L450,704 Q430,693 407.5,685.5 Q385,678 360,672 Q385,667 407.5,659 Q430,651 450,641 L899,414 Q919,404 927,391 Q935,378 935,362 L935,234 L162,636"/> 
            <glyph glyph-name="=" unicode="&#x3D;" horiz-adv-x="1010" d=" M150,574 L1010,574 L1010,439 L150,439 M150,909 L1010,909 L1010,774 L150,774"/> 
            <glyph glyph-name="&gt;" unicode="&#x3E;" horiz-adv-x="998" d=" M225,234 L225,362 Q225,378 233,391 Q241,404 261,414 L710,641 Q730,651 752,659 Q774,667 799,672 Q774,678 752,685.5 Q730,693 710,704 L261,932 Q241,942 233,954.5 Q225,967 225,984 L225,1111 L998,710 L998,636"/> 
            <glyph glyph-name="?" unicode="&#x3F;" horiz-adv-x="807" d=" M81,1305 Q112,1334 149.5,1360 Q187,1386 231.5,1406 Q276,1426 327.5,1437.5 Q379,1449 439,1449 Q518,1449 585.5,1426 Q653,1403 702,1361 Q751,1319 779,1259 Q807,1199 807,1124 Q807,1048 784.5,993 Q762,938 727.5,896.5 Q693,855 652.5,824.5 Q612,794 576,767 Q540,740 514.5,713 Q489,686 485,653 L467,500 L345,500 L333,666 Q329,711 350,744.5 Q371,778 405,807.5 Q439,837 480,865.5 Q521,894 556.5,929 Q592,964 616,1008.5 Q640,1053 640,1115 Q640,1158 623,1193 Q606,1228 577,1252.5 Q548,1277 508.5,1290 Q469,1303 424,1303 Q363,1303 319.5,1288 Q276,1273 246,1255 Q216,1237 197.5,1222 Q179,1207 167,1207 Q142,1207 128,1230 M276,110 Q276,136 285.5,159 Q295,182 311.5,199 Q328,216 351,226 Q374,236 400,236 Q426,236 449,226 Q472,216 489,199 Q506,182 516,159 Q526,136 526,110 Q526,83 516,60.5 Q506,38 489,21 Q472,4 449,-5.5 Q426,-15 400,-15 Q374,-15 351,-5.5 Q328,4 311.5,21 Q295,38 285.5,60.5 Q276,83 276,110"/> 
            <glyph glyph-name="@" unicode="&#x40;" horiz-adv-x="1583" d=" M1185,186 Q1108,186 1059,223 Q1010,260 996,338 Q938,258 870,223 Q802,188 724,188 Q665,188 620.5,208.5 Q576,229 547,265.5 Q518,302 503.5,352 Q489,402 489,460 Q489,545 521.5,631.5 Q554,718 618,787.5 Q682,857 777,901 Q872,945 997,945 Q1064,945 1115,934.5 Q1166,924 1211,904 L1117,543 Q1097,467 1098,419.5 Q1099,372 1113.5,345 Q1128,318 1154,308.5 Q1180,299 1211,299 Q1260,299 1304,327 Q1348,355 1381.5,406 Q1415,457 1434.5,528.5 Q1454,600 1454,687 Q1454,825 1410,929 Q1366,1033 1288.5,1102.5 Q1211,1172 1105.5,1206.5 Q1000,1241 878,1241 Q744,1241 627,1190 Q510,1139 423,1049 Q336,959 285.5,836 Q235,713 235,568 Q235,398 288.5,269.5 Q342,141 434.5,54 Q527,-33 652,-77 Q777,-121 920,-121 Q1072,-121 1188.5,-88 Q1305,-55 1390,-4 Q1410,8 1425,3.5 Q1440,-1 1447,-19 L1473,-85 Q1365,-157 1228.5,-198 Q1092,-239 920,-239 Q746,-239 597,-184 Q448,-129 338.5,-25.5 Q229,78 166.5,228 Q104,378 104,568 Q104,677 131.5,778 Q159,879 209,966.5 Q259,1054 329,1126.5 Q399,1199 485,1250.5 Q571,1302 670.5,1330.5 Q770,1359 878,1359 Q970,1359 1058,1339 Q1146,1319 1224.5,1280 Q1303,1241 1368.5,1183.5 Q1434,1126 1482,1051.5 Q1530,977 1556.5,885.5 Q1583,794 1583,687 Q1583,579 1552.5,487.5 Q1522,396 1468.5,329 Q1415,262 1342,224 Q1269,186 1185,186 M759,306 Q790,306 821.5,316 Q853,326 882.5,351 Q912,376 937,419 Q962,462 979,527 L1055,822 Q1016,831 969,831 Q894,831 831.5,799.5 Q769,768 724,717 Q679,666 653.5,600 Q628,534 628,465 Q628,393 661,349.5 Q694,306 759,306"/> 
            <glyph glyph-name="A" unicode="&#x41;" horiz-adv-x="1348" d=" M1348,0 L1198,0 Q1172,0 1156,13 Q1140,26 1132,46 L998,392 L355,392 L221,46 Q215,28 198,14 Q181,0 156,0 L6,0 L579,1433 L775,1433 M409,532 L944,532 L719,1115 Q708,1141 697.5,1175 Q687,1209 676,1248 Q666,1209 655.5,1174.5 Q645,1140 634,1114"/> 
            <glyph glyph-name="B" unicode="&#x42;" horiz-adv-x="1193" d=" M183,0 L183,1433 L640,1433 Q772,1433 867.5,1407 Q963,1381 1024.5,1333 Q1086,1285 1115,1215.5 Q1144,1146 1144,1059 Q1144,1006 1127.5,957 Q1111,908 1078,866 Q1045,824 994.5,791 Q944,758 876,737 Q1033,706 1113,624 Q1193,542 1193,408 Q1193,317 1159.5,242 Q1126,167 1061.5,113 Q997,59 903,29.5 Q809,0 689,0 M376,653 L376,154 L686,154 Q769,154 829,173 Q889,192 927.5,226.5 Q966,261 984,308.5 Q1002,356 1002,413 Q1002,524 923,588.5 Q844,653 686,653 M376,791 L632,791 Q714,791 774.5,809 Q835,827 874.5,859 Q914,891 933,936.5 Q952,982 952,1036 Q952,1163 876,1221.5 Q800,1280 640,1280 L376,1280"/> 
            <glyph glyph-name="C" unicode="&#x43;" horiz-adv-x="1294" d=" M1189,296 Q1205,296 1217,283 L1294,200 Q1206,98 1080.5,41 Q955,-16 777,-16 Q623,-16 497,37.5 Q371,91 282,187.5 Q193,284 144,419 Q95,554 95,716 Q95,878 146,1013 Q197,1148 289.5,1245 Q382,1342 511,1395.5 Q640,1449 796,1449 Q949,1449 1066,1400 Q1183,1351 1272,1267 L1208,1178 Q1202,1168 1192.5,1161.5 Q1183,1155 1167,1155 Q1149,1155 1123,1174.5 Q1097,1194 1055,1218 Q1013,1242 950,1261.5 Q887,1281 795,1281 Q684,1281 592,1242.5 Q500,1204 433.5,1131 Q367,1058 330,953 Q293,848 293,716 Q293,582 331.5,477 Q370,372 436.5,299.5 Q503,227 593.5,189 Q684,151 789,151 Q853,151 904.5,158.5 Q956,166 999.5,182 Q1043,198 1080.5,222.5 Q1118,247 1155,281 Q1172,296 1189,296"/> 
            <glyph glyph-name="D" unicode="&#x44;" horiz-adv-x="1425" d=" M1425,716 Q1425,555 1374,423 Q1323,291 1230,197 Q1137,103 1006.5,51.5 Q876,0 718,0 L183,0 L183,1433 L718,1433 Q876,1433 1006.5,1381.5 Q1137,1330 1230,1235.5 Q1323,1141 1374,1009 Q1425,877 1425,716 M1226,716 Q1226,848 1190,952 Q1154,1056 1088,1128 Q1022,1200 928,1238 Q834,1276 718,1276 L377,1276 L377,157 L718,157 Q834,157 928,195 Q1022,233 1088,304.5 Q1154,376 1190,480 Q1226,584 1226,716"/> 
            <glyph glyph-name="E" unicode="&#x45;" horiz-adv-x="1067" d=" M1066,1433 L1066,1275 L377,1275 L377,799 L935,799 L935,647 L377,647 L377,158 L1067,158 L1066,0 L183,0 L183,1433"/> 
            <glyph glyph-name="F" unicode="&#x46;" horiz-adv-x="1066" d=" M1066,1433 L1066,1275 L377,1275 L377,774 L966,774 L966,616 L377,616 L377,0 L183,0 L183,1433"/> 
            <glyph glyph-name="G" unicode="&#x47;" horiz-adv-x="1347" d=" M1347,139 Q1239,61 1116.5,22.5 Q994,-16 848,-16 Q675,-16 536,37.5 Q397,91 298.5,187.5 Q200,284 147,419 Q94,554 94,716 Q94,880 145.5,1015 Q197,1150 292,1246.5 Q387,1343 523,1396 Q659,1449 827,1449 Q912,1449 985,1436.5 Q1058,1424 1120,1400.5 Q1182,1377 1235,1343.5 Q1288,1310 1334,1268 L1279,1180 Q1266,1160 1245.5,1154.5 Q1225,1149 1200,1164 Q1176,1178 1145,1198 Q1114,1218 1069.5,1236.5 Q1025,1255 964.5,1268 Q904,1281 821,1281 Q700,1281 602,1241.5 Q504,1202 435,1128.5 Q366,1055 329,950.5 Q292,846 292,716 Q292,581 330.5,474.5 Q369,368 440.5,293.5 Q512,219 614,180 Q716,141 843,141 Q893,141 936.5,147 Q980,153 1020,163.5 Q1060,174 1097,189.5 Q1134,205 1172,225 L1172,541 L949,541 Q930,541 918.5,552 Q907,563 907,579 L907,689 L1347,689 L1347,139"/> 
            <glyph glyph-name="H" unicode="&#x48;" horiz-adv-x="1344" d=" M1344,0 L1150,0 L1150,652 L377,652 L377,0 L183,0 L183,1433 L377,1433 L377,794 L1150,794 L1150,1433 L1344,1433"/> 
            <glyph glyph-name="I" unicode="&#x49;" horiz-adv-x="377" d=" M377,0 L183,0 L183,1433 L377,1433"/> 
            <glyph glyph-name="J" unicode="&#x4A;" horiz-adv-x="677" d=" M677,495 Q677,375 647.5,280 Q618,185 560.5,119.5 Q503,54 419,19 Q335,-16 226,-16 Q127,-16 24,12 L34,126 Q36,143 46.5,153.5 Q57,164 79,164 Q97,164 126.5,155 Q156,146 206,146 Q272,146 324,166 Q376,186 411,228 Q446,270 464.5,335.5 Q483,401 483,491 L483,1433 L677,1433"/> 
            <glyph glyph-name="K" unicode="&#x4B;" horiz-adv-x="1327" d=" M376,805 L449,805 Q487,805 510,814.5 Q533,824 552,847 L1029,1387 Q1049,1413 1071,1423 Q1093,1433 1125,1433 L1289,1433 L743,816 Q723,792 704.5,776.5 Q686,761 665,751 Q692,742 714,724.5 Q736,707 757,679 L1327,0 L1159,0 Q1140,0 1126.5,2.5 Q1113,5 1103,10.5 Q1093,16 1085.5,23.5 Q1078,31 1071,41 L577,610 Q557,635 534,645.5 Q511,656 464,656 L376,656 L376,0 L183,0 L183,1433 L376,1433"/> 
            <glyph glyph-name="L" unicode="&#x4C;" horiz-adv-x="996" d=" M376,163 L996,163 L996,0 L183,0 L183,1433 L376,1433"/> 
            <glyph glyph-name="M" unicode="&#x4D;" horiz-adv-x="1674" d=" M888,518 Q900,494 911,467.5 Q922,441 933,415 Q943,442 954,468.5 Q965,495 978,519 L1464,1400 Q1476,1423 1490.5,1428 Q1505,1433 1531,1433 L1674,1433 L1674,0 L1504,0 L1504,1053 Q1504,1074 1505,1098 Q1506,1122 1508,1147 L1017,251 Q994,206 947,206 L919,206 Q872,206 849,251 L347,1150 Q350,1124 351.5,1099 Q353,1074 353,1053 L353,0 L183,0 L183,1433 L326,1433 Q352,1433 366,1428 Q380,1423 393,1400 L888,518"/> 
            <glyph glyph-name="N" unicode="&#x4E;" horiz-adv-x="1344" d=" M283,1433 Q296,1433 305,1431.5 Q314,1430 321,1426.5 Q328,1423 335,1416.5 Q342,1410 350,1400 L1179,321 Q1177,347 1175.5,371.5 Q1174,396 1174,418 L1174,1433 L1344,1433 L1344,0 L1247,0 Q1224,0 1208.5,8 Q1193,16 1178,35 L349,1114 Q351,1089 352,1065 Q353,1041 353,1021 L353,0 L183,0 L183,1433 L283,1433"/> 
            <glyph glyph-name="O" unicode="&#x4F;" horiz-adv-x="1507" d=" M1507,716 Q1507,555 1456,420.5 Q1405,286 1312,189 Q1219,92 1088.5,38.5 Q958,-15 800,-15 Q642,-15 512,38.5 Q382,92 289,189 Q196,286 145,420.5 Q94,555 94,716 Q94,877 145,1011.5 Q196,1146 289,1243.5 Q382,1341 512,1395 Q642,1449 800,1449 Q958,1449 1088.5,1395 Q1219,1341 1312,1243.5 Q1405,1146 1456,1011.5 Q1507,877 1507,716 M1308,716 Q1308,848 1272,953 Q1236,1058 1170,1130.5 Q1104,1203 1010,1242 Q916,1281 800,1281 Q685,1281 591,1242 Q497,1203 430.5,1130.5 Q364,1058 328,953 Q292,848 292,716 Q292,584 328,479.5 Q364,375 430.5,302.5 Q497,230 591,191.5 Q685,153 800,153 Q916,153 1010,191.5 Q1104,230 1170,302.5 Q1236,375 1272,479.5 Q1308,584 1308,716"/> 
            <glyph glyph-name="P" unicode="&#x50;" horiz-adv-x="1140" d=" M376,536 L376,0 L183,0 L183,1433 L606,1433 Q742,1433 842.5,1401.5 Q943,1370 1009,1312 Q1075,1254 1107.5,1172 Q1140,1090 1140,989 Q1140,889 1105,806 Q1070,723 1002.5,663 Q935,603 835.5,569.5 Q736,536 606,536 M376,690 L606,690 Q689,690 752.5,712 Q816,734 859.5,773.5 Q903,813 925,868 Q947,923 947,989 Q947,1126 862.5,1203 Q778,1280 606,1280 L376,1280"/> 
            <glyph glyph-name="Q" unicode="&#x51;" horiz-adv-x="1574" d=" M1508,716 Q1508,615 1487.5,523.5 Q1467,432 1428,354 Q1389,276 1333,212 Q1277,148 1207,101 L1574,-296 L1414,-296 Q1378,-296 1350,-286 Q1322,-276 1299,-251 L1048,23 Q991,5 929.5,-5 Q868,-15 801,-15 Q643,-15 513,38.5 Q383,92 290,189 Q197,286 146,420.5 Q95,555 95,716 Q95,877 146,1011.5 Q197,1146 290,1243.5 Q383,1341 513,1395 Q643,1449 801,1449 Q959,1449 1089.5,1395 Q1220,1341 1313,1243.5 Q1406,1146 1457,1011.5 Q1508,877 1508,716 M1309,716 Q1309,848 1273,953 Q1237,1058 1171,1130.5 Q1105,1203 1011,1242 Q917,1281 801,1281 Q686,1281 592,1242 Q498,1203 431.5,1130.5 Q365,1058 329,953 Q293,848 293,716 Q293,584 329,479.5 Q365,375 431.5,302.5 Q498,230 592,191.5 Q686,153 801,153 Q917,153 1011,191.5 Q1105,230 1171,302.5 Q1237,375 1273,479.5 Q1309,584 1309,716"/> 
            <glyph glyph-name="R" unicode="&#x52;" horiz-adv-x="1242" d=" M376,598 L376,0 L183,0 L183,1433 L588,1433 Q724,1433 823,1405.5 Q922,1378 986.5,1326 Q1051,1274 1082,1200.5 Q1113,1127 1113,1036 Q1113,960 1089,894 Q1065,828 1019.5,775.5 Q974,723 908.5,685.5 Q843,648 760,630 Q798,606 824,569 L1242,0 L1070,0 Q1017,0 992,41 L620,553 Q603,577 583.5,587.5 Q564,598 523,598 M376,739 L580,739 Q664,739 728.5,759.5 Q793,780 836.5,817.5 Q880,855 902,907 Q924,959 924,1022 Q924,1150 840,1215 Q756,1280 588,1280 L376,1280"/> 
            <glyph glyph-name="S" unicode="&#x53;" horiz-adv-x="995" d=" M916,1209 Q907,1194 896.5,1186.5 Q886,1179 871,1179 Q854,1179 831,1196 Q808,1213 773.5,1233.5 Q739,1254 690.5,1271 Q642,1288 573,1288 Q508,1288 458.5,1270.5 Q409,1253 375.5,1223 Q342,1193 325,1152.5 Q308,1112 308,1065 Q308,1005 337.5,965.5 Q367,926 415.5,898 Q464,870 525.5,849.5 Q587,829 651.5,807 Q716,785 777.5,757.5 Q839,730 887.5,688 Q936,646 965.5,585 Q995,524 995,435 Q995,341 963,258.5 Q931,176 869.5,115 Q808,54 718.5,19 Q629,-16 515,-16 Q375,-16 261,34.5 Q147,85 66,171 L122,263 Q130,274 141.5,281.5 Q153,289 167,289 Q180,289 196.5,278.5 Q213,268 234,252 Q255,236 282,217 Q309,198 343.5,182 Q378,166 422,155.5 Q466,145 521,145 Q590,145 644,164 Q698,183 735.5,217.5 Q773,252 793,300 Q813,348 813,407 Q813,472 783.5,513.5 Q754,555 706,583 Q658,611 596,630.5 Q534,650 470,670.5 Q406,691 344,718 Q282,745 234,788 Q186,831 156.5,895.5 Q127,960 127,1055 Q127,1131 156.5,1202 Q186,1273 242.5,1328 Q299,1383 381.5,1416 Q464,1449 571,1449 Q691,1449 789.5,1411 Q888,1373 963,1301"/> 
            <glyph glyph-name="T" unicode="&#x54;" horiz-adv-x="1152" d=" M1152,1433 L1152,1270 L688,1270 L688,0 L495,0 L495,1270 L30,1270 L30,1433"/> 
            <glyph glyph-name="U" unicode="&#x55;" horiz-adv-x="1306" d=" M736,154 Q825,154 895,184 Q965,214 1013.5,268 Q1062,322 1087.5,397 Q1113,472 1113,562 L1113,1433 L1306,1433 L1306,562 Q1306,438 1266.5,332 Q1227,226 1153.5,148.5 Q1080,71 974,27 Q868,-17 736,-17 Q604,-17 498,27 Q392,71 318,148.5 Q244,226 204.5,332 Q165,438 165,562 L165,1433 L358,1433 L358,563 Q358,473 383.5,398 Q409,323 457.5,269 Q506,215 576.5,184.5 Q647,154 736,154"/> 
            <glyph glyph-name="V" unicode="&#x56;" horiz-adv-x="1348" d=" M6,1433 L161,1433 Q187,1433 203,1420 Q219,1407 227,1387 L631,376 Q644,342 656,302 Q668,262 679,219 Q688,262 699.5,302 Q711,342 724,376 L1127,1387 Q1133,1404 1150.5,1418.5 Q1168,1433 1193,1433 L1348,1433 L764,0 L590,0"/> 
            <glyph glyph-name="W" unicode="&#x57;" horiz-adv-x="2040" d=" M31,1433 L192,1433 Q218,1433 235.5,1420 Q253,1407 258,1387 L554,391 Q561,364 567.5,333 Q574,302 580,268 Q587,302 594.5,333.5 Q602,365 611,391 L948,1387 Q954,1404 971.5,1418.5 Q989,1433 1014,1433 L1070,1433 Q1096,1433 1112,1420 Q1128,1407 1136,1387 L1472,391 Q1481,365 1488.5,335 Q1496,305 1502,273 Q1508,305 1514,335 Q1520,365 1527,391 L1824,1387 Q1829,1405 1846.5,1419 Q1864,1433 1889,1433 L2040,1433 L1593,0 L1419,0 L1056,1093 Q1045,1124 1036,1165 Q1031,1145 1026.5,1126.5 Q1022,1108 1017,1093 L652,0 L478,0"/> 
            <glyph glyph-name="X" unicode="&#x58;" horiz-adv-x="1276" d=" M513,736 L40,1433 L233,1433 Q254,1433 264,1426 Q274,1419 282,1406 L656,832 Q663,853 677,878 L1030,1402 Q1038,1416 1049,1424.5 Q1060,1433 1075,1433 L1260,1433 L785,745 L1276,0 L1084,0 Q1062,0 1049.5,11.5 Q1037,23 1029,37 L645,638 Q638,617 627,598 L253,37 Q243,23 231.5,11.5 Q220,0 200,0 L20,0"/> 
            <glyph glyph-name="Y" unicode="&#x59;" horiz-adv-x="1246" d=" M721,571 L721,0 L527,0 L527,571 L2,1433 L172,1433 Q198,1433 213,1420.5 Q228,1408 239,1388 L567,831 Q585,796 599.5,765.5 Q614,735 625,705 Q636,735 650,765.5 Q664,796 682,831 L1009,1388 Q1018,1405 1034,1419 Q1050,1433 1075,1433 L1246,1433"/> 
            <glyph glyph-name="Z" unicode="&#x5A;" horiz-adv-x="1139" d=" M1139,1433 L1139,1361 Q1139,1328 1119,1297 L307,158 L1127,158 L1127,0 L53,0 L53,76 Q53,92 58.5,106 Q64,120 72,133 L884,1275 L91,1275 L91,1433"/> 
            <glyph glyph-name="[" unicode="&#x5B;" horiz-adv-x="550" d=" M182,-289 L182,1533 L550,1533 L550,1463 Q550,1443 536.5,1429.5 Q523,1416 501,1416 L332,1416 L332,-171 L501,-171 Q523,-171 536.5,-185 Q550,-199 550,-219 L550,-289"/> 
            <glyph glyph-name="\" unicode="&#x5C;" horiz-adv-x="837" d=" M67,1473 L143,1473 Q175,1473 199.5,1456 Q224,1439 236,1407 L837,-90 L762,-90 Q733,-90 705,-73 Q677,-56 665,-21"/> 
            <glyph glyph-name="]" unicode="&#x5D;" horiz-adv-x="430" d=" M62,-219 Q62,-199 75.5,-185 Q89,-171 111,-171 L280,-171 L280,1416 L111,1416 Q89,1416 75.5,1429.5 Q62,1443 62,1463 L62,1533 L430,1533 L430,-289 L62,-289"/> 
            <glyph glyph-name="^" unicode="&#x5E;" horiz-adv-x="1028" d=" M1028,696 L898,696 Q881,696 868.5,705.5 Q856,715 849,730 L619,1173 Q593,1226 579,1270 Q572,1247 563,1223 Q554,1199 543,1173 L320,730 Q314,716 301,706 Q288,696 268,696 L132,696 L520,1433 L635,1433"/> 
            <glyph glyph-name="_" unicode="&#x5F;" horiz-adv-x="853" d=" M853,-165 L853,-285 L65,-285 L65,-165"/> 
            <glyph glyph-name="`" unicode="&#x60;" horiz-adv-x="528" d=" M300,1449 Q333,1449 349,1438.5 Q365,1428 379,1405 L528,1163 L426,1163 Q405,1163 392,1169.5 Q379,1176 365,1191 L131,1449"/> 
            <glyph glyph-name="a" unicode="&#x61;" horiz-adv-x="864" d=" M785,0 Q759,0 745,8.5 Q731,17 723,42 L703,137 Q663,101 624.5,72.5 Q586,44 544.5,24.5 Q503,5 455.5,-5.5 Q408,-16 350,-16 Q291,-16 239,0.5 Q187,17 148.5,50 Q110,83 87.5,133.5 Q65,184 65,253 Q65,313 98,368.5 Q131,424 205,467 Q279,510 398,537.5 Q517,565 690,569 L690,648 Q690,766 639,826.5 Q588,887 490,887 Q424,887 379.5,870.5 Q335,854 302.5,833.5 Q270,813 246.5,796.5 Q223,780 200,780 Q182,780 169,789.5 Q156,799 147,813 L115,870 Q199,951 296,991 Q393,1031 511,1031 Q596,1031 662,1003 Q728,975 773,925 Q818,875 841,804 Q864,733 864,648 L864,0 M403,109 Q450,109 489,118.5 Q528,128 562.5,145.5 Q597,163 628.5,188.5 Q660,214 690,246 L690,456 Q567,452 480.5,436.5 Q394,421 339.5,396 Q285,371 260.5,337 Q236,303 236,261 Q236,221 249,192 Q262,163 284.5,144.5 Q307,126 337.5,117.5 Q368,109 403,109"/> 
            <glyph glyph-name="b" unicode="&#x62;" horiz-adv-x="1035" d=" M141,0 L141,1473 L320,1473 L320,866 Q383,941 464,985 Q545,1029 650,1029 Q739,1029 810.5,995 Q882,961 932,896.5 Q982,832 1008.5,740 Q1035,648 1035,533 Q1035,410 1005,309 Q975,208 918.5,136.5 Q862,65 781,25.5 Q700,-14 599,-14 Q499,-14 430.5,23.5 Q362,61 311,130 L302,38 Q294,0 256,0 M591,887 Q504,887 439,847 Q374,807 320,734 L320,244 Q369,178 427.5,151 Q486,124 556,124 Q699,124 775,225 Q851,326 851,526 Q851,712 783.5,799.5 Q716,887 591,887"/> 
            <glyph glyph-name="c" unicode="&#x63;" horiz-adv-x="905" d=" M846,833 Q838,822 830,816 Q822,810 808,810 Q793,810 775,822.5 Q757,835 730.5,850 Q704,865 665.5,877.5 Q627,890 571,890 Q496,890 439,863.5 Q382,837 343.5,787 Q305,737 285.5,666 Q266,595 266,507 Q266,415 287,343.5 Q308,272 346.5,223.5 Q385,175 439.5,149.5 Q494,124 562,124 Q627,124 669,139.5 Q711,155 738.5,174 Q766,193 784.5,208.5 Q803,224 821,224 Q843,224 855,207 L905,142 Q872,101 830,72 Q788,43 739.5,23.5 Q691,4 638,-5 Q585,-14 530,-14 Q435,-14 353.5,21 Q272,56 212,122.5 Q152,189 118,286 Q84,383 84,507 Q84,620 115.5,716 Q147,812 207.5,881.5 Q268,951 356.5,990 Q445,1029 560,1029 Q667,1029 748.5,994.5 Q830,960 893,897"/> 
            <glyph glyph-name="d" unicode="&#x64;" horiz-adv-x="979" d=" M873,0 Q835,0 825,37 L809,160 Q744,81 660.5,33.5 Q577,-14 469,-14 Q382,-14 311,19.5 Q240,53 190,118 Q140,183 113,280 Q86,377 86,503 Q86,615 116,711.5 Q146,808 202,879 Q258,950 339.5,990.5 Q421,1031 523,1031 Q616,1031 682.5,999.5 Q749,968 801,911 L801,1473 L979,1473 L979,0 M527,130 Q615,130 680.5,170 Q746,210 801,283 L801,772 Q751,838 693,865 Q635,892 563,892 Q422,892 346,791 Q270,690 270,503 Q270,404 287,333.5 Q304,263 337,217.5 Q370,172 418,151 Q466,130 527,130"/> 
            <glyph glyph-name="e" unicode="&#x65;" horiz-adv-x="979" d=" M556,1029 Q647,1029 724.5,998.5 Q802,968 858.5,910.5 Q915,853 947,768.5 Q979,684 979,576 Q979,534 970,520 Q961,506 936,506 L259,506 Q261,410 285,339 Q309,268 351,220.5 Q393,173 451,149.5 Q509,126 581,126 Q648,126 696.5,141.5 Q745,157 780,175 Q815,193 838.5,208.5 Q862,224 879,224 Q901,224 913,207 L963,142 Q930,102 884,72.5 Q838,43 785.5,24 Q733,5 677,-4.5 Q621,-14 566,-14 Q461,-14 372.5,21.5 Q284,57 219.5,125.5 Q155,194 119,295 Q83,396 83,527 Q83,633 115.5,725 Q148,817 209,884.5 Q270,952 358,990.5 Q446,1029 556,1029 M560,898 Q431,898 357,823.5 Q283,749 265,617 L819,617 Q819,679 801.5,730.5 Q784,782 750.5,819.5 Q717,857 669,877.5 Q621,898 560,898"/> 
            <glyph glyph-name="f" unicode="&#x66;" horiz-adv-x="680" d=" M207,0 L207,861 L95,874 Q74,879 60.5,889.5 Q47,900 47,920 L47,993 L207,993 L207,1091 Q207,1178 231.5,1245.5 Q256,1313 301.5,1359.5 Q347,1406 411,1430 Q475,1454 555,1454 Q623,1454 680,1434 L676,1345 Q674,1321 649.5,1319 Q625,1317 584,1317 Q538,1317 500.5,1305 Q463,1293 436,1266 Q409,1239 394.5,1195 Q380,1151 380,1086 L380,993 L672,993 L672,864 L386,864 L386,0"/> 
            <glyph glyph-name="g" unicode="&#x67;" horiz-adv-x="996" d=" M494,1030 Q560,1030 617,1015.5 Q674,1001 721,973 L996,973 L996,907 Q996,874 954,865 L839,849 Q873,784 873,704 Q873,630 844.5,569.5 Q816,509 766,466 Q716,423 646,400 Q576,377 494,377 Q422,377 359,394 Q327,374 310.5,351 Q294,328 294,306 Q294,270 323.5,251.5 Q353,233 401,225 Q449,217 510.5,215 Q572,213 636.5,208.5 Q701,204 762.5,193 Q824,182 872,157 Q920,132 949.5,88 Q979,44 979,-26 Q979,-91 946.5,-152 Q914,-213 853,-260.5 Q792,-308 703.5,-336.5 Q615,-365 504,-365 Q393,-365 310,-343 Q227,-321 172,-284 Q117,-247 89.5,-198.5 Q62,-150 62,-97 Q62,-22 109,30 Q156,82 237,113 Q192,133 166,166.5 Q140,200 140,257 Q140,279 148,302.5 Q156,326 172.5,349 Q189,372 213,393 Q237,414 269,430 Q194,472 152,542 Q110,612 110,704 Q110,778 138.5,838.5 Q167,899 218,941.5 Q269,984 339.5,1007 Q410,1030 494,1030 M815,-55 Q815,-18 794,5 Q773,28 737.5,41 Q702,54 655,59.5 Q608,65 555.5,68 Q503,71 449,74 Q395,77 345,84 Q289,58 253.5,19 Q218,-20 218,-74 Q218,-108 235.5,-137.5 Q253,-167 289,-188.5 Q325,-210 379.5,-222.5 Q434,-235 508,-235 Q580,-235 637,-222 Q694,-209 733.5,-185 Q773,-161 794,-128 Q815,-95 815,-55 M494,495 Q548,495 589,510 Q630,525 658,552 Q686,579 700,616.5 Q714,654 714,699 Q714,792 657.5,847 Q601,902 494,902 Q386,902 329.5,847 Q273,792 273,699 Q273,654 287.5,616.5 Q302,579 330,552 Q358,525 399,510 Q440,495 494,495"/> 
            <glyph glyph-name="h" unicode="&#x68;" horiz-adv-x="985" d=" M141,0 L141,1473 L320,1473 L320,877 Q385,946 464,987.5 Q543,1029 646,1029 Q729,1029 792.5,1001.5 Q856,974 898.5,923.5 Q941,873 963,802 Q985,731 985,645 L985,0 L806,0 L806,645 Q806,760 753.5,823.5 Q701,887 594,887 Q514,887 445.5,849 Q377,811 320,746 L320,0"/> 
            <glyph glyph-name="i" unicode="&#x69;" horiz-adv-x="367" d=" M329,1013 L329,0 L151,0 L151,1013 M367,1331 Q367,1305 356.5,1282.5 Q346,1260 328.5,1242.5 Q311,1225 287.5,1215 Q264,1205 238,1205 Q212,1205 189.5,1215 Q167,1225 150,1242.5 Q133,1260 123,1282.5 Q113,1305 113,1331 Q113,1357 123,1380.5 Q133,1404 150,1421.5 Q167,1439 189.5,1449 Q212,1459 238,1459 Q264,1459 287.5,1449 Q311,1439 328.5,1421.5 Q346,1404 356.5,1380.5 Q367,1357 367,1331"/> 
            <glyph glyph-name="j" unicode="&#x6A;" horiz-adv-x="366" d=" M329,1013 L329,-75 Q329,-136 313,-188.5 Q297,-241 262,-280 Q227,-319 172.5,-341.5 Q118,-364 42,-364 Q10,-364 -17,-359 Q-44,-354 -71,-344 L-64,-248 Q-62,-239 -57.5,-234.5 Q-53,-230 -45,-229 Q-37,-228 -24.5,-228.5 Q-12,-229 7,-229 Q85,-229 118,-192.5 Q151,-156 151,-75 L151,1013 M366,1331 Q366,1305 355.5,1282.5 Q345,1260 327.5,1242.5 Q310,1225 287,1215 Q264,1205 238,1205 Q212,1205 189.5,1215 Q167,1225 150,1242.5 Q133,1260 123,1282.5 Q113,1305 113,1331 Q113,1357 123,1380.5 Q133,1404 150,1421.5 Q167,1439 189.5,1449 Q212,1459 238,1459 Q264,1459 287,1449 Q310,1439 327.5,1421.5 Q345,1404 355.5,1380.5 Q366,1357 366,1331"/> 
            <glyph glyph-name="k" unicode="&#x6B;" horiz-adv-x="1005" d=" M320,1473 L320,606 L366,606 Q386,606 399.5,611.5 Q413,617 428,634 L748,977 Q762,994 777.5,1003.5 Q793,1013 819,1013 L980,1013 L607,616 Q580,582 549,563 Q567,551 581.5,535.5 Q596,520 609,500 L1005,0 L846,0 Q823,0 806.5,7.5 Q790,15 778,35 L445,450 Q430,471 415.5,477.5 Q401,484 371,484 L320,484 L320,0 L141,0 L141,1473"/> 
            <glyph glyph-name="l" unicode="&#x6C;" horiz-adv-x="325" d=" M325,1473 L325,0 L147,0 L147,1473"/> 
            <glyph glyph-name="m" unicode="&#x6D;" horiz-adv-x="1515" d=" M141,0 L141,1013 L248,1013 Q286,1013 295,976 L308,872 Q364,941 434,985 Q504,1029 596,1029 Q698,1029 761.5,972 Q825,915 853,818 Q875,873 909.5,913 Q944,953 987,979 Q1030,1005 1078.5,1017 Q1127,1029 1177,1029 Q1257,1029 1319.5,1003.5 Q1382,978 1425.5,929 Q1469,880 1492,808.5 Q1515,737 1515,645 L1515,0 L1336,0 L1336,645 Q1336,764 1284,825.5 Q1232,887 1134,887 Q1090,887 1050.5,871.5 Q1011,856 981,826 Q951,796 933.5,750.5 Q916,705 916,645 L916,0 L737,0 L737,645 Q737,767 688,827 Q639,887 545,887 Q479,887 423,851.5 Q367,816 320,755 L320,0"/> 
            <glyph glyph-name="n" unicode="&#x6E;" horiz-adv-x="985" d=" M141,0 L141,1013 L248,1013 Q286,1013 295,976 L309,866 Q375,939 457,984 Q539,1029 646,1029 Q729,1029 792.5,1001.5 Q856,974 898.5,923.5 Q941,873 963,802 Q985,731 985,645 L985,0 L806,0 L806,645 Q806,760 753.5,823.5 Q701,887 594,887 Q514,887 445.5,849 Q377,811 320,746 L320,0"/> 
            <glyph glyph-name="o" unicode="&#x6F;" horiz-adv-x="1050" d=" M568,1029 Q679,1029 768,992 Q857,955 920,887 Q983,819 1016.5,722.5 Q1050,626 1050,507 Q1050,387 1016.5,291 Q983,195 920,127 Q857,59 768,22.5 Q679,-14 568,-14 Q456,-14 366.5,22.5 Q277,59 214,127 Q151,195 117.5,291 Q84,387 84,507 Q84,626 117.5,722.5 Q151,819 214,887 Q277,955 366.5,992 Q456,1029 568,1029 M568,125 Q718,125 792,225.5 Q866,326 866,506 Q866,687 792,788 Q718,889 568,889 Q492,889 435.5,863 Q379,837 341.5,788 Q304,739 285.5,667.5 Q267,596 267,506 Q267,326 341.5,225.5 Q416,125 568,125"/> 
            <glyph glyph-name="p" unicode="&#x70;" horiz-adv-x="1035" d=" M141,-343 L141,1013 L248,1013 Q286,1013 295,976 L310,856 Q375,935 459,983 Q543,1031 651,1031 Q739,1031 810,997.5 Q881,964 931,898.5 Q981,833 1008,736 Q1035,639 1035,513 Q1035,401 1005,304.5 Q975,208 918.5,137.5 Q862,67 780.5,26.5 Q699,-14 597,-14 Q504,-14 437.5,17 Q371,48 320,105 L320,-343 M593,887 Q506,887 440.5,847 Q375,807 320,734 L320,244 Q368,178 426.5,151 Q485,124 557,124 Q699,124 775,225 Q851,326 851,513 Q851,612 833.5,683 Q816,754 783,799.5 Q750,845 702,866 Q654,887 593,887"/> 
            <glyph glyph-name="q" unicode="&#x71;" horiz-adv-x="979" d=" M979,1013 L979,-343 L801,-343 L801,150 Q737,76 655.5,31 Q574,-14 469,-14 Q382,-14 311,19.5 Q240,53 190,118 Q140,183 113,280 Q86,377 86,503 Q86,615 116,711.5 Q146,808 202,879 Q258,950 339.5,990.5 Q421,1031 523,1031 Q622,1031 690.5,996 Q759,961 813,897 L825,976 Q835,1013 873,1013 M527,130 Q615,130 680.5,170 Q746,210 801,283 L801,773 Q753,837 694,864.5 Q635,892 563,892 Q422,892 346,791 Q270,690 270,503 Q270,404 287,333.5 Q304,263 337,217.5 Q370,172 418,151 Q466,130 527,130"/> 
            <glyph glyph-name="r" unicode="&#x72;" horiz-adv-x="713" d=" M141,0 L141,1013 L243,1013 Q272,1013 283,1002 Q294,991 298,964 L309,810 Q357,914 427.5,972.5 Q498,1031 599,1031 Q631,1031 660.5,1024 Q690,1017 713,1002 L700,869 Q694,844 670,844 Q656,844 629,850 Q602,856 568,856 Q520,856 482,841.5 Q444,827 414.5,799.5 Q385,772 362,732 Q339,692 320,640 L320,0"/> 
            <glyph glyph-name="s" unicode="&#x73;" horiz-adv-x="788" d=" M731,846 Q719,824 694,824 Q679,824 660,835 Q641,846 613.5,859.5 Q586,873 548,884.5 Q510,896 458,896 Q413,896 377,884.5 Q341,873 315.5,853 Q290,833 276.5,806.5 Q263,780 263,749 Q263,710 285.5,684 Q308,658 345,639 Q382,620 429,605.5 Q476,591 525.5,574.5 Q575,558 622,538 Q669,518 706,488 Q743,458 765.5,414.5 Q788,371 788,310 Q788,240 763,180.5 Q738,121 689,77.5 Q640,34 569,9 Q498,-16 405,-16 Q299,-16 213,18.5 Q127,53 67,107 L109,175 Q117,188 128,195 Q139,202 156,202 Q174,202 194,188 Q214,174 242.5,157 Q271,140 312,126 Q353,112 414,112 Q466,112 505,125.5 Q544,139 570,162 Q596,185 608.5,215 Q621,245 621,279 Q621,321 598.5,348.5 Q576,376 539,395.5 Q502,415 454.5,429.5 Q407,444 357.5,460 Q308,476 260.5,496.5 Q213,517 176,548 Q139,579 116.5,624.5 Q94,670 94,735 Q94,793 118,846.5 Q142,900 188,940.5 Q234,981 301,1005 Q368,1029 454,1029 Q554,1029 633.5,997.5 Q713,966 771,911"/> 
            <glyph glyph-name="t" unicode="&#x74;" horiz-adv-x="697" d=" M452,-16 Q332,-16 267.5,51 Q203,118 203,244 L203,864 L81,864 Q65,864 54,873.5 Q43,883 43,903 L43,974 L209,995 L250,1308 Q253,1323 263.5,1332.5 Q274,1342 291,1342 L381,1342 L381,993 L674,993 L674,864 L381,864 L381,256 Q381,192 412,161 Q443,130 492,130 Q520,130 540.5,137.5 Q561,145 576,154 Q591,163 601.5,170.5 Q612,178 620,178 Q634,178 645,161 L697,76 Q651,33 586,8.5 Q521,-16 452,-16"/> 
            <glyph glyph-name="u" unicode="&#x75;" horiz-adv-x="974" d=" M309,1013 L309,367 Q309,252 361.5,189 Q414,126 522,126 Q600,126 669,163 Q738,200 796,266 L796,1013 L974,1013 L974,0 L868,0 Q830,0 820,37 L806,146 Q740,73 658,28.5 Q576,-16 470,-16 Q387,-16 323.5,11.5 Q260,39 217,89 Q174,139 152.5,210 Q131,281 131,367 L131,1013"/> 
            <glyph glyph-name="v" unicode="&#x76;" horiz-adv-x="1009" d=" M23,1013 L168,1013 Q190,1013 204,1002 Q218,991 223,976 L480,324 Q492,287 501,252 Q510,217 518,182 Q526,217 535,252 Q544,287 557,324 L817,976 Q823,992 837,1002.5 Q851,1013 870,1013 L1009,1013 L596,0 L436,0"/> 
            <glyph glyph-name="w" unicode="&#x77;" horiz-adv-x="1538" d=" M33,1013 L173,1013 Q194,1013 208.5,1002 Q223,991 228,976 L422,324 Q430,289 437,255.5 Q444,222 449,189 Q457,222 467,255.5 Q477,289 488,324 L702,980 Q707,995 719.5,1005 Q732,1015 750,1015 L828,1015 Q848,1015 861,1005 Q874,995 879,980 L1088,324 Q1098,289 1107,255 Q1116,221 1124,188 Q1130,221 1137.5,254.5 Q1145,288 1154,324 L1352,976 Q1357,992 1371,1002.5 Q1385,1013 1404,1013 L1538,1013 L1210,0 L1069,0 Q1043,0 1033,34 L809,721 Q801,744 796,767.5 Q791,791 786,814 Q781,791 775.5,767 Q770,743 763,720 L535,34 Q526,0 495,0 L361,0"/> 
            <glyph glyph-name="x" unicode="&#x78;" horiz-adv-x="973" d=" M378,519 L37,1013 L208,1013 Q230,1013 240,1006 Q250,999 258,986 L506,606 Q515,634 532,662 L750,982 Q759,996 769.5,1004.5 Q780,1013 795,1013 L959,1013 L618,529 L973,0 L802,0 Q780,0 767.5,11.5 Q755,23 747,37 L492,434 Q485,405 471,382 L235,37 Q225,23 213.5,11.5 Q202,0 182,0 L23,0"/> 
            <glyph glyph-name="y" unicode="&#x79;" horiz-adv-x="1015" d=" M450,-299 Q441,-319 427.5,-331 Q414,-343 386,-343 L254,-343 L439,59 L21,1013 L175,1013 Q198,1013 211.5,1001.5 Q225,990 230,976 L501,338 Q509,315 516,293.5 Q523,272 528,249 Q541,294 558,339 L821,976 Q827,992 841.5,1002.5 Q856,1013 874,1013 L1015,1013"/> 
            <glyph glyph-name="z" unicode="&#x7A;" horiz-adv-x="840" d=" M840,937 Q840,918 833.5,900 Q827,882 816,869 L267,139 L821,139 L821,0 L58,0 L58,74 Q58,87 64,104.5 Q70,122 82,138 L634,873 L89,873 L89,1013 L840,1013"/> 
            <glyph glyph-name="{" unicode="&#x7B;" horiz-adv-x="536" d=" M204,425 Q204,488 169,528.5 Q134,569 68,569 L68,676 Q134,676 169,716 Q204,756 204,820 Q204,870 196,919 Q188,968 179,1017 Q170,1066 162,1116 Q154,1166 154,1218 Q154,1287 174.5,1345 Q195,1403 236.5,1445 Q278,1487 339.5,1510 Q401,1533 482,1533 L536,1533 L536,1454 Q536,1434 522,1425 Q508,1416 496,1416 L476,1416 Q398,1416 354,1365.5 Q310,1315 310,1229 Q310,1173 317,1121 Q324,1069 333,1019.5 Q342,970 349,921 Q356,872 356,822 Q356,784 345,751.5 Q334,719 313.5,693.5 Q293,668 265.5,649.5 Q238,631 205,622 Q238,613 265.5,594.5 Q293,576 313.5,550 Q334,524 345,492 Q356,460 356,423 Q356,373 349,324 Q342,275 333,225.5 Q324,176 317,124 Q310,72 310,16 Q310,-71 354,-121 Q398,-171 476,-171 L496,-171 Q508,-171 522,-180 Q536,-189 536,-209 L536,-289 L482,-289 Q401,-289 339.5,-265.5 Q278,-242 236.5,-200 Q195,-158 174.5,-100 Q154,-42 154,27 Q154,79 162,128.5 Q170,178 179,227.5 Q188,277 196,326 Q204,375 204,425"/> 
            <glyph glyph-name="|" unicode="&#x7C;" horiz-adv-x="320" d=" M181,1533 L320,1533 L320,-349 L181,-349"/> 
            <glyph glyph-name="}" unicode="&#x7D;" horiz-adv-x="534" d=" M398,425 Q398,375 406,326 Q414,277 423,227.5 Q432,178 440,128.5 Q448,79 448,27 Q448,-42 427.5,-100 Q407,-158 365.5,-200 Q324,-242 262.5,-265.5 Q201,-289 120,-289 L66,-289 L66,-209 Q66,-189 80.5,-180 Q95,-171 106,-171 L126,-171 Q204,-171 248,-121 Q292,-71 292,16 Q292,72 285,124 Q278,176 269,225.5 Q260,275 253,324 Q246,373 246,423 Q246,460 257,492 Q268,524 288.5,550 Q309,576 336.5,594.5 Q364,613 397,622 Q364,631 336.5,649.5 Q309,668 288.5,693.5 Q268,719 257,751.5 Q246,784 246,822 Q246,872 253,921 Q260,970 269,1019.5 Q278,1069 285,1121 Q292,1173 292,1229 Q292,1315 248,1365.5 Q204,1416 126,1416 L106,1416 Q95,1416 80.5,1425 Q66,1434 66,1454 L66,1533 L120,1533 Q201,1533 262.5,1510 Q324,1487 365.5,1445 Q407,1403 427.5,1345 Q448,1287 448,1218 Q448,1166 440,1116 Q432,1066 423,1017 Q414,968 406,919 Q398,870 398,820 Q398,756 433,716 Q468,676 534,676 L534,569 Q468,569 433,528.5 Q398,488 398,425"/> 
            <glyph glyph-name="~" unicode="&#x7E;" horiz-adv-x="1046" d=" M763,613 Q828,613 864.5,655.5 Q901,698 902,768 L1046,768 Q1046,701 1027.5,645 Q1009,589 974.5,549 Q940,509 889,487 Q838,465 774,465 Q722,465 671,481 Q620,497 572.5,516.5 Q525,536 482,552.5 Q439,569 403,569 Q338,569 301.5,527 Q265,485 264,414 L120,414 Q120,481 138.5,537 Q157,593 191.5,633 Q226,673 276.5,695.5 Q327,718 392,718 Q444,718 495,701.5 Q546,685 593.5,665.5 Q641,646 684,629.5 Q727,613 763,613"/> 
            <glyph glyph-name="ʹ" unicode="&#x374;" horiz-adv-x="337" d=" M310,1512 Q337,1368 302,1229.5 Q267,1091 160,975 L105,1011 Q89,1022 88,1036 Q87,1050 95,1061 Q121,1097 141,1132 Q161,1167 170.5,1203.5 Q180,1240 176,1278.5 Q172,1317 150,1359 L150,1463 Q150,1484 161.5,1498 Q173,1512 199,1512"/> 
            <glyph glyph-name="͵" unicode="&#x375;" horiz-adv-x="337" d=" M310,329 Q337,185 302,46.5 Q267,-92 160,-208 L105,-172 Q89,-161 88,-147 Q87,-133 95,-122 Q121,-86 141,-51 Q161,-16 170.5,20.5 Q180,57 176,95.5 Q172,134 150,176 L150,280 Q150,301 161.5,315 Q173,329 199,329"/> 
            <glyph glyph-name="ͺ" unicode="&#x37A;" horiz-adv-x="342" d=" M103,-72 L237,-72 L237,-215 Q237,-264 253.5,-284 Q270,-304 316,-304 L342,-304 L342,-329 Q342,-361 314.5,-376.5 Q287,-392 249,-392 Q174,-392 138.5,-356 Q103,-320 103,-240"/> 
            <glyph glyph-name="ͻ" unicode="&#x37B;" horiz-adv-x="871" d=" M108,182 Q116,193 124,198.5 Q132,204 147,204 Q162,204 179.5,191.5 Q197,179 224,164 Q251,149 289.5,136.5 Q328,124 384,124 Q458,124 515,150.5 Q572,177 610.5,227 Q649,277 668.5,347.5 Q688,418 688,507 Q688,599 667,670.5 Q646,742 608,790.5 Q570,839 515,864.5 Q460,890 393,890 Q328,890 286,874.5 Q244,859 216,840 Q188,821 170,805.5 Q152,790 134,790 Q111,790 100,808 L50,872 Q116,953 215,991 Q314,1029 424,1029 Q519,1029 600.5,994 Q682,959 742,892 Q802,825 836.5,728 Q871,631 871,507 Q871,394 839.5,298.5 Q808,203 747.5,133.5 Q687,64 598,25 Q509,-14 394,-14 Q288,-14 206,20 Q124,54 61,117"/> 
            <glyph glyph-name="ͼ" unicode="&#x37C;" horiz-adv-x="905" d=" M84,0 M846,833 Q838,822 830,816 Q822,810 808,810 Q793,810 775,822.5 Q757,835 730.5,850 Q704,865 665.5,877.5 Q627,890 571,890 Q496,890 439,863.5 Q382,837 343.5,787 Q305,737 285.5,666 Q266,595 266,507 Q266,415 287,343.5 Q308,272 346.5,223.5 Q385,175 439.5,149.5 Q494,124 562,124 Q627,124 669,139.5 Q711,155 738.5,174 Q766,193 784.5,208.5 Q803,224 821,224 Q843,224 855,207 L905,142 Q872,101 830,72 Q788,43 739.5,23.5 Q691,4 638,-5 Q585,-14 530,-14 Q435,-14 353.5,21 Q272,56 212,122.5 Q152,189 118,286 Q84,383 84,507 Q84,620 115.5,716 Q147,812 207.5,881.5 Q268,951 356.5,990 Q445,1029 560,1029 Q667,1029 748.5,994.5 Q830,960 893,897 M701,66056 Q701,66030 690.5,66007.5 Q680,65985 662.5,65968 Q645,65951 622,65941 Q599,65931 573,65931 Q547,65931 524.5,65941 Q502,65951 485,65968 Q468,65985 458,66007.5 Q448,66030 448,66056 Q448,66082 458,66105.5 Q468,66129 485,66146.5 Q502,66164 524.5,66174 Q547,66184 573,66184 Q599,66184 622,66174 Q645,66164 662.5,66146.5 Q680,66129 690.5,66105.5 Q701,66082 701,66056"/> 
            <glyph glyph-name="ͽ" unicode="&#x37D;" horiz-adv-x="871" d=" M50,0 M364,182 Q372,193 380,198.5 Q388,204 403,204 Q418,204 435.5,191.5 Q453,179 480,164 Q507,149 545.5,136.5 Q584,124 640,124 Q714,124 771,150.5 Q828,177 866.5,227 Q905,277 924.5,347.5 Q944,418 944,507 Q944,599 923,670.5 Q902,742 864,790.5 Q826,839 771,864.5 Q716,890 649,890 Q584,890 542,874.5 Q500,859 472,840 Q444,821 426,805.5 Q408,790 390,790 Q367,790 356,808 L306,872 Q372,953 471,991 Q570,1029 680,1029 Q775,1029 856.5,994 Q938,959 998,892 Q1058,825 1092.5,728 Q1127,631 1127,507 Q1127,394 1095.5,298.5 Q1064,203 1003.5,133.5 Q943,64 854,25 Q765,-14 650,-14 Q544,-14 462,20 Q380,54 317,117 M66055,66056 Q66055,66030 66044.5,66007.5 Q66034,65985 66016.5,65968 Q65999,65951 65976,65941 Q65953,65931 65927,65931 Q65901,65931 65878.5,65941 Q65856,65951 65839,65968 Q65822,65985 65812,66007.5 Q65802,66030 65802,66056 Q65802,66082 65812,66105.5 Q65822,66129 65839,66146.5 Q65856,66164 65878.5,66174 Q65901,66184 65927,66184 Q65953,66184 65976,66174 Q65999,66164 66016.5,66146.5 Q66034,66129 66044.5,66105.5 Q66055,66082 66055,66056"/> 
            <glyph glyph-name=";" unicode="&#x37E;" horiz-adv-x="386" d=" M136,0 M141,123 Q141,170 173.5,203 Q206,236 260,236 Q290,236 313,225 Q336,214 351.5,194.5 Q367,175 375,149.5 Q383,124 383,94 Q383,49 370.5,0.5 Q358,-48 333.5,-95.5 Q309,-143 274,-188 Q239,-233 194,-271 L164,-242 Q156,-235 153,-229 Q150,-223 150,-214 Q150,-207 154.5,-200 Q159,-193 165,-187 Q175,-176 190.5,-157.5 Q206,-139 222,-115 Q238,-91 251.5,-62 Q265,-33 271,0 L258,0 Q206,0 173.5,34.5 Q141,69 141,123 M136,860 Q136,886 145.5,909 Q155,932 171.5,949 Q188,966 211,976 Q234,986 260,986 Q286,986 309,976 Q332,966 349,949 Q366,932 376,909 Q386,886 386,860 Q386,833 376,810.5 Q366,788 349,771 Q332,754 309,744.5 Q286,735 260,735 Q234,735 211,744.5 Q188,754 171.5,771 Q155,788 145.5,810.5 Q136,833 136,860"/> 
            <glyph glyph-name="΄" unicode="&#x384;" horiz-adv-x="571" d=" M345,1148 L413,1493 L524,1493 Q551,1493 561,1475.5 Q571,1458 561,1429 L451,1148"/> 
            <glyph glyph-name="΅" unicode="&#x385;" horiz-adv-x="788" d=" M343,1154 L411,1499 L522,1499 Q549,1499 558.5,1481.5 Q568,1464 558,1435 L449,1154 M788,1282 Q788,1263 780.5,1246 Q773,1229 760,1216.5 Q747,1204 729.5,1196.5 Q712,1189 693,1189 Q673,1189 656,1196.5 Q639,1204 626,1216.5 Q613,1229 605.5,1246 Q598,1263 598,1282 Q598,1302 605.5,1319.5 Q613,1337 626,1350.5 Q639,1364 656,1371.5 Q673,1379 693,1379 Q712,1379 729.5,1371.5 Q747,1364 760,1350.5 Q773,1337 780.5,1319.5 Q788,1302 788,1282 M286,1282 Q286,1263 278,1246 Q270,1229 257,1216.5 Q244,1204 226,1196.5 Q208,1189 189,1189 Q170,1189 153,1196.5 Q136,1204 123.5,1216.5 Q111,1229 103.5,1246 Q96,1263 96,1282 Q96,1302 103.5,1319.5 Q111,1337 123.5,1350.5 Q136,1364 153,1371.5 Q170,1379 189,1379 Q208,1379 226,1371.5 Q244,1364 257,1350.5 Q270,1337 278,1319.5 Q286,1302 286,1282"/> 
            <glyph glyph-name="Ά" unicode="&#x386;" horiz-adv-x="1348" d=" M6,0 M1348,0 L1198,0 Q1172,0 1156,13 Q1140,26 1132,46 L998,392 L355,392 L221,46 Q215,28 198,14 Q181,0 156,0 L6,0 L579,1433 L775,1433 M409,532 L944,532 L719,1115 Q708,1141 697.5,1175 Q687,1209 676,1248 Q666,1209 655.5,1174.5 Q645,1140 634,1114 M65673,66643 L65741,66988 L65852,66988 Q65879,66988 65889,66970.5 Q65899,66953 65889,66924 L65779,66643"/> 
            <glyph glyph-name="·" unicode="&#x387;" horiz-adv-x="409" d=" M111,593 Q111,624 122.5,652 Q134,680 154.5,700 Q175,720 201.5,732 Q228,744 258,744 Q289,744 317,732 Q345,720 365,700 Q385,680 397,652 Q409,624 409,593 Q409,563 397,536 Q385,509 365,488.5 Q345,468 317,456.5 Q289,445 258,445 Q228,445 201.5,456.5 Q175,468 154.5,488.5 Q134,509 122.5,536 Q111,563 111,593"/> 
            <glyph glyph-name="Έ" unicode="&#x388;" horiz-adv-x="1223" d=" M10,0 M1222,1433 L1222,1275 L533,1275 L533,799 L1091,799 L1091,647 L533,647 L533,158 L1223,158 L1222,0 L339,0 L339,1433 M65546,66643 L65614,66988 L65725,66988 Q65752,66988 65762,66970.5 Q65772,66953 65762,66924 L65652,66643"/> 
            <glyph glyph-name="Ή" unicode="&#x389;" horiz-adv-x="1348" d=" M0,0 M1348,0 L1154,0 L1154,652 L381,652 L381,0 L187,0 L187,1433 L381,1433 L381,794 L1154,794 L1154,1433 L1348,1433 M65394,66643 L65462,66988 L65573,66988 Q65600,66988 65610,66970.5 Q65620,66953 65610,66924 L65500,66643"/> 
            <glyph glyph-name="Ί" unicode="&#x38A;" horiz-adv-x="377" d=" M0,0 M377,0 L183,0 L183,1433 L377,1433 M65375,66643 L65443,66988 L65554,66988 Q65581,66988 65591,66970.5 Q65601,66953 65591,66924 L65481,66643"/> 
            <glyph glyph-name="Ό" unicode="&#x38C;" horiz-adv-x="1506" d=" M0,0 M1762,716 Q1762,555 1711,420.5 Q1660,286 1567,189 Q1474,92 1343.5,38.5 Q1213,-15 1055,-15 Q897,-15 767,38.5 Q637,92 544,189 Q451,286 400,420.5 Q349,555 349,716 Q349,877 400,1011.5 Q451,1146 544,1243.5 Q637,1341 767,1395 Q897,1449 1055,1449 Q1213,1449 1343.5,1395 Q1474,1341 1567,1243.5 Q1660,1146 1711,1011.5 Q1762,877 1762,716 M1563,716 Q1563,848 1527,953 Q1491,1058 1425,1130.5 Q1359,1203 1265,1242 Q1171,1281 1055,1281 Q940,1281 846,1242 Q752,1203 685.5,1130.5 Q619,1058 583,953 Q547,848 547,716 Q547,584 583,479.5 Q619,375 685.5,302.5 Q752,230 846,191.5 Q940,153 1055,153 Q1171,153 1265,191.5 Q1359,230 1425,302.5 Q1491,375 1527,479.5 Q1563,584 1563,716 M65421,66643 L65489,66988 L65600,66988 Q65627,66988 65637,66970.5 Q65647,66953 65637,66924 L65527,66643"/> 
            <glyph glyph-name="Ύ" unicode="&#x38E;" horiz-adv-x="1246" d=" M0,0 M721,571 L721,0 L527,0 L527,571 L2,1433 L172,1433 Q198,1433 213,1420.5 Q228,1408 239,1388 L567,831 Q585,796 599.5,765.5 Q614,735 625,705 Q636,735 650,765.5 Q664,796 682,831 L1009,1388 Q1018,1405 1034,1419 Q1050,1433 1075,1433 L1246,1433 M65264,66643 L65332,66988 L65443,66988 Q65470,66988 65480,66970.5 Q65490,66953 65480,66924 L65370,66643"/> 
            <glyph glyph-name="Ώ" unicode="&#x38F;" horiz-adv-x="1508" d=" M0,0 M1178,0 L1178,224 Q1259,239 1328.5,287.5 Q1398,336 1449.5,409.5 Q1501,483 1530,577 Q1559,671 1559,777 Q1559,903 1518.5,997 Q1478,1091 1409.5,1154 Q1341,1217 1251,1248.5 Q1161,1280 1061,1280 Q961,1280 871,1248.5 Q781,1217 712.5,1154 Q644,1091 603.5,997 Q563,903 563,777 Q563,671 592,577 Q621,483 672.5,409.5 Q724,336 793.5,287.5 Q863,239 944,224 L944,0 L424,0 Q394,0 376,17.5 Q358,35 358,63 L358,163 L644,163 Q680,163 718.5,159 Q757,155 795,150 Q703,181 625,240.5 Q547,300 490.5,381.5 Q434,463 402,564 Q370,665 370,779 Q370,929 424.5,1052.5 Q479,1176 572.5,1264 Q666,1352 792,1400 Q918,1448 1061,1448 Q1204,1448 1330,1400 Q1456,1352 1549.5,1264 Q1643,1176 1697.5,1052.5 Q1752,929 1752,779 Q1752,665 1720,564 Q1688,463 1631,381.5 Q1574,300 1496,240.5 Q1418,181 1327,150 Q1365,155 1403,159 Q1441,163 1478,163 L1764,163 L1764,63 Q1764,35 1746,17.5 Q1728,0 1698,0 M65476,66643 L65544,66988 L65655,66988 Q65682,66988 65692,66970.5 Q65702,66953 65692,66924 L65582,66643"/> 
            <glyph glyph-name="ΐ" unicode="&#x390;" horiz-adv-x="612" d=" M0,0 M134,1013 L312,1013 L312,277 Q312,201 345,161.5 Q378,122 451,122 L533,122 L533,66 Q533,47 521,32.5 Q509,18 488.5,8 Q468,-2 441,-7 Q414,-12 383,-12 Q322,-12 275.5,8 Q229,28 197.5,65 Q166,102 150,153.5 Q134,205 134,267 M65703,1154 L65771,1499 L65882,1499 Q65909,1499 65918.5,1481.5 Q65928,1464 65918,1435 L65809,1154 M66148,1282 Q66148,1263 66140.5,1246 Q66133,1229 66120,1216.5 Q66107,1204 66089.5,1196.5 Q66072,1189 66053,1189 Q66033,1189 66016,1196.5 Q65999,1204 65986,1216.5 Q65973,1229 65965.5,1246 Q65958,1263 65958,1282 Q65958,1302 65965.5,1319.5 Q65973,1337 65986,1350.5 Q65999,1364 66016,1371.5 Q66033,1379 66053,1379 Q66072,1379 66089.5,1371.5 Q66107,1364 66120,1350.5 Q66133,1337 66140.5,1319.5 Q66148,1302 66148,1282 M65646,1282 Q65646,1263 65638,1246 Q65630,1229 65617,1216.5 Q65604,1204 65586,1196.5 Q65568,1189 65549,1189 Q65530,1189 65513,1196.5 Q65496,1204 65483.5,1216.5 Q65471,1229 65463.5,1246 Q65456,1263 65456,1282 Q65456,1302 65463.5,1319.5 Q65471,1337 65483.5,1350.5 Q65496,1364 65513,1371.5 Q65530,1379 65549,1379 Q65568,1379 65586,1371.5 Q65604,1364 65617,1350.5 Q65630,1337 65638,1319.5 Q65646,1302 65646,1282"/> 
            <glyph glyph-name="Α" unicode="&#x391;" horiz-adv-x="1348" d=" M1348,0 L1198,0 Q1172,0 1156,13 Q1140,26 1132,46 L998,392 L355,392 L221,46 Q215,28 198,14 Q181,0 156,0 L6,0 L579,1433 L775,1433 M409,532 L944,532 L719,1115 Q708,1141 697.5,1175 Q687,1209 676,1248 Q666,1209 655.5,1174.5 Q645,1140 634,1114"/> 
            <glyph glyph-name="Β" unicode="&#x392;" horiz-adv-x="1193" d=" M183,0 L183,1433 L640,1433 Q772,1433 867.5,1407 Q963,1381 1024.5,1333 Q1086,1285 1115,1215.5 Q1144,1146 1144,1059 Q1144,1006 1127.5,957 Q1111,908 1078,866 Q1045,824 994.5,791 Q944,758 876,737 Q1033,706 1113,624 Q1193,542 1193,408 Q1193,317 1159.5,242 Q1126,167 1061.5,113 Q997,59 903,29.5 Q809,0 689,0 M376,653 L376,154 L686,154 Q769,154 829,173 Q889,192 927.5,226.5 Q966,261 984,308.5 Q1002,356 1002,413 Q1002,524 923,588.5 Q844,653 686,653 M376,791 L632,791 Q714,791 774.5,809 Q835,827 874.5,859 Q914,891 933,936.5 Q952,982 952,1036 Q952,1163 876,1221.5 Q800,1280 640,1280 L376,1280"/> 
            <glyph glyph-name="Γ" unicode="&#x393;" horiz-adv-x="1066" d=" M1066,1280 L377,1280 L377,0 L183,0 L183,1433 L1066,1433"/> 
            <glyph glyph-name="Δ" unicode="&#x394;" horiz-adv-x="1329" d=" M27,55 Q27,109 50,170 L582,1433 L778,1433 L1305,174 Q1316,145 1322.5,116 Q1329,87 1329,57 L1329,0 L27,0 M228,156 L1110,156 L718,1115 Q695,1174 672,1262 Q661,1217 649.5,1180 Q638,1143 627,1114"/> 
            <glyph glyph-name="Ε" unicode="&#x395;" horiz-adv-x="1067" d=" M1066,1433 L1066,1275 L377,1275 L377,799 L935,799 L935,647 L377,647 L377,158 L1067,158 L1066,0 L183,0 L183,1433"/> 
            <glyph glyph-name="Ζ" unicode="&#x396;" horiz-adv-x="1139" d=" M1139,1433 L1139,1361 Q1139,1328 1119,1297 L307,158 L1127,158 L1127,0 L53,0 L53,76 Q53,92 58.5,106 Q64,120 72,133 L884,1275 L91,1275 L91,1433"/> 
            <glyph glyph-name="Η" unicode="&#x397;" horiz-adv-x="1344" d=" M1344,0 L1150,0 L1150,652 L377,652 L377,0 L183,0 L183,1433 L377,1433 L377,794 L1150,794 L1150,1433 L1344,1433"/> 
            <glyph glyph-name="Θ" unicode="&#x398;" horiz-adv-x="1507" d=" M519,803 L1081,803 L1081,645 L519,645 M1507,716 Q1507,555 1456,420.5 Q1405,286 1312,189 Q1219,92 1088.5,38.5 Q958,-15 800,-15 Q642,-15 512,38.5 Q382,92 289,189 Q196,286 145,420.5 Q94,555 94,716 Q94,877 145,1011.5 Q196,1146 289,1243.5 Q382,1341 512,1395 Q642,1449 800,1449 Q958,1449 1088.5,1395 Q1219,1341 1312,1243.5 Q1405,1146 1456,1011.5 Q1507,877 1507,716 M1308,716 Q1308,848 1272,953 Q1236,1058 1170,1130.5 Q1104,1203 1010,1242 Q916,1281 800,1281 Q685,1281 591,1242 Q497,1203 430.5,1130.5 Q364,1058 328,953 Q292,848 292,716 Q292,584 328,479.5 Q364,375 430.5,302.5 Q497,230 591,191.5 Q685,153 800,153 Q916,153 1010,191.5 Q1104,230 1170,302.5 Q1236,375 1272,479.5 Q1308,584 1308,716"/> 
            <glyph glyph-name="Ι" unicode="&#x399;" horiz-adv-x="377" d=" M377,0 L183,0 L183,1433 L377,1433"/> 
            <glyph glyph-name="Κ" unicode="&#x39A;" horiz-adv-x="1327" d=" M376,805 L449,805 Q487,805 510,814.5 Q533,824 552,847 L1029,1387 Q1049,1413 1071,1423 Q1093,1433 1125,1433 L1289,1433 L743,816 Q723,792 704.5,776.5 Q686,761 665,751 Q692,742 714,724.5 Q736,707 757,679 L1327,0 L1159,0 Q1140,0 1126.5,2.5 Q1113,5 1103,10.5 Q1093,16 1085.5,23.5 Q1078,31 1071,41 L577,610 Q557,635 534,645.5 Q511,656 464,656 L376,656 L376,0 L183,0 L183,1433 L376,1433"/> 
            <glyph glyph-name="Λ" unicode="&#x39B;" horiz-adv-x="1347" d=" M1347,0 L1181,0 Q1155,0 1139,13 Q1123,26 1115,46 L710,1057 Q697,1091 684.5,1130.5 Q672,1170 662,1214 Q653,1170 642,1130 Q631,1090 618,1057 L214,46 Q208,28 191,14 Q174,0 149,0 L4,0 L588,1433 L763,1433"/> 
            <glyph glyph-name="Μ" unicode="&#x39C;" horiz-adv-x="1674" d=" M888,518 Q900,494 911,467.5 Q922,441 933,415 Q943,442 954,468.5 Q965,495 978,519 L1464,1400 Q1476,1423 1490.5,1428 Q1505,1433 1531,1433 L1674,1433 L1674,0 L1504,0 L1504,1053 Q1504,1074 1505,1098 Q1506,1122 1508,1147 L1017,251 Q994,206 947,206 L919,206 Q872,206 849,251 L347,1150 Q350,1124 351.5,1099 Q353,1074 353,1053 L353,0 L183,0 L183,1433 L326,1433 Q352,1433 366,1428 Q380,1423 393,1400 L888,518"/> 
            <glyph glyph-name="Ν" unicode="&#x39D;" horiz-adv-x="1344" d=" M283,1433 Q296,1433 305,1431.5 Q314,1430 321,1426.5 Q328,1423 335,1416.5 Q342,1410 350,1400 L1179,321 Q1177,347 1175.5,371.5 Q1174,396 1174,418 L1174,1433 L1344,1433 L1344,0 L1247,0 Q1224,0 1208.5,8 Q1193,16 1178,35 L349,1114 Q351,1089 352,1065 Q353,1041 353,1021 L353,0 L183,0 L183,1433 L283,1433"/> 
            <glyph glyph-name="Ξ" unicode="&#x39E;" horiz-adv-x="1158" d=" M1158,1433 L1158,1269 L85,1269 L85,1433 M1158,163 L1158,0 L85,0 L85,163 M333,809 L907,809 L907,640 L333,640"/> 
            <glyph glyph-name="Ο" unicode="&#x39F;" horiz-adv-x="1507" d=" M1507,716 Q1507,555 1456,420.5 Q1405,286 1312,189 Q1219,92 1088.5,38.5 Q958,-15 800,-15 Q642,-15 512,38.5 Q382,92 289,189 Q196,286 145,420.5 Q94,555 94,716 Q94,877 145,1011.5 Q196,1146 289,1243.5 Q382,1341 512,1395 Q642,1449 800,1449 Q958,1449 1088.5,1395 Q1219,1341 1312,1243.5 Q1405,1146 1456,1011.5 Q1507,877 1507,716 M1308,716 Q1308,848 1272,953 Q1236,1058 1170,1130.5 Q1104,1203 1010,1242 Q916,1281 800,1281 Q685,1281 591,1242 Q497,1203 430.5,1130.5 Q364,1058 328,953 Q292,848 292,716 Q292,584 328,479.5 Q364,375 430.5,302.5 Q497,230 591,191.5 Q685,153 800,153 Q916,153 1010,191.5 Q1104,230 1170,302.5 Q1236,375 1272,479.5 Q1308,584 1308,716"/> 
            <glyph glyph-name="Π" unicode="&#x3A0;" horiz-adv-x="1344" d=" M1344,0 L1150,0 L1150,1280 L377,1280 L377,0 L183,0 L183,1433 L1344,1433"/> 
            <glyph glyph-name="Ρ" unicode="&#x3A1;" horiz-adv-x="1140" d=" M376,536 L376,0 L183,0 L183,1433 L606,1433 Q742,1433 842.5,1401.5 Q943,1370 1009,1312 Q1075,1254 1107.5,1172 Q1140,1090 1140,989 Q1140,889 1105,806 Q1070,723 1002.5,663 Q935,603 835.5,569.5 Q736,536 606,536 M376,690 L606,690 Q689,690 752.5,712 Q816,734 859.5,773.5 Q903,813 925,868 Q947,923 947,989 Q947,1126 862.5,1203 Q778,1280 606,1280 L376,1280"/> 
            <glyph glyph-name="Σ" unicode="&#x3A3;" horiz-adv-x="1139" d=" M743,733 Q743,712 734,689 Q725,666 693,630 L368,229 Q339,195 318.5,175.5 Q298,156 277,143 Q314,148 346,150 Q378,152 407,152 L1139,152 L1139,0 L66,0 L66,73 Q66,95 76.5,116.5 Q87,138 102,154 L572,715 L90,1293 Q80,1304 73,1319 Q66,1334 66,1349 L66,1433 L1139,1433 L1139,1280 L429,1280 Q383,1280 346,1283 Q309,1286 272,1293 Q313,1271 344.5,1246 Q376,1221 404,1188 L693,826 Q724,790 733,769.5 Q742,749 743,733"/> 
            <glyph glyph-name="Τ" unicode="&#x3A4;" horiz-adv-x="1152" d=" M1152,1433 L1152,1270 L688,1270 L688,0 L495,0 L495,1270 L30,1270 L30,1433"/> 
            <glyph glyph-name="Υ" unicode="&#x3A5;" horiz-adv-x="1246" d=" M721,571 L721,0 L527,0 L527,571 L2,1433 L172,1433 Q198,1433 213,1420.5 Q228,1408 239,1388 L567,831 Q585,796 599.5,765.5 Q614,735 625,705 Q636,735 650,765.5 Q664,796 682,831 L1009,1388 Q1018,1405 1034,1419 Q1050,1433 1075,1433 L1246,1433"/> 
            <glyph glyph-name="Φ" unicode="&#x3A6;" horiz-adv-x="1595" d=" M925,1362 Q1081,1360 1205,1309 Q1329,1258 1415.5,1170.5 Q1502,1083 1548.5,967 Q1595,851 1595,720 Q1595,589 1548.5,472.5 Q1502,356 1415.5,269 Q1329,182 1205,131 Q1081,80 925,79 L925,-115 L741,-115 L741,79 Q585,80 461,131 Q337,182 250,269 Q163,356 117,472.5 Q71,589 71,720 Q71,851 118,967 Q165,1083 252,1170.5 Q339,1258 463,1309 Q587,1360 741,1362 L741,1547 L925,1547 M258,720 Q258,619 292,530.5 Q326,442 389,375.5 Q452,309 541,270 Q630,231 741,230 L741,1210 Q630,1208 541,1169 Q452,1130 389,1063.5 Q326,997 292,908.5 Q258,820 258,720 M1407,720 Q1407,820 1373,908.5 Q1339,997 1276,1063.5 Q1213,1130 1124,1169 Q1035,1208 925,1210 L925,230 Q1035,231 1124,270.5 Q1213,310 1276,376 Q1339,442 1373,530.5 Q1407,619 1407,720"/> 
            <glyph glyph-name="Χ" unicode="&#x3A7;" horiz-adv-x="1276" d=" M513,736 L40,1433 L233,1433 Q254,1433 264,1426 Q274,1419 282,1406 L656,832 Q663,853 677,878 L1030,1402 Q1038,1416 1049,1424.5 Q1060,1433 1075,1433 L1260,1433 L785,745 L1276,0 L1084,0 Q1062,0 1049.5,11.5 Q1037,23 1029,37 L645,638 Q638,617 627,598 L253,37 Q243,23 231.5,11.5 Q220,0 200,0 L20,0"/> 
            <glyph glyph-name="Ψ" unicode="&#x3A8;" horiz-adv-x="1531" d=" M228,1433 Q260,1433 277,1413.5 Q294,1394 294,1365 L294,921 Q294,825 318,750 Q342,675 393.5,622.5 Q445,570 525,541 Q605,512 717,507 L717,1433 L912,1433 L912,507 Q1024,512 1104.5,541 Q1185,570 1236.5,622.5 Q1288,675 1312.5,750 Q1337,825 1337,921 L1337,1365 Q1337,1394 1354,1413.5 Q1371,1433 1402,1433 L1531,1433 L1531,921 Q1531,794 1491,691 Q1451,588 1373,514 Q1295,440 1179,398 Q1063,356 912,350 L912,0 L717,0 L717,350 Q565,356 449.5,398 Q334,440 256,514 Q178,588 138.5,691 Q99,794 99,921 L99,1433"/> 
            <glyph glyph-name="Ω" unicode="&#x3A9;" horiz-adv-x="1511" d=" M925,0 L925,224 Q1006,239 1075.5,287.5 Q1145,336 1196.5,409.5 Q1248,483 1277,577 Q1306,671 1306,777 Q1306,903 1265.5,997 Q1225,1091 1156.5,1154 Q1088,1217 998,1248.5 Q908,1280 808,1280 Q708,1280 618,1248.5 Q528,1217 459.5,1154 Q391,1091 350.5,997 Q310,903 310,777 Q310,671 339,577 Q368,483 419.5,409.5 Q471,336 540.5,287.5 Q610,239 691,224 L691,0 L171,0 Q141,0 123,17.5 Q105,35 105,63 L105,163 L391,163 Q427,163 465.5,159 Q504,155 542,150 Q450,181 372,240.5 Q294,300 237.5,381.5 Q181,463 149,564 Q117,665 117,779 Q117,929 171.5,1052.5 Q226,1176 319.5,1264 Q413,1352 539,1400 Q665,1448 808,1448 Q951,1448 1077,1400 Q1203,1352 1296.5,1264 Q1390,1176 1444.5,1052.5 Q1499,929 1499,779 Q1499,665 1467,564 Q1435,463 1378,381.5 Q1321,300 1243,240.5 Q1165,181 1074,150 Q1112,155 1150,159 Q1188,163 1225,163 L1511,163 L1511,63 Q1511,35 1493,17.5 Q1475,0 1445,0"/> 
            <glyph glyph-name="Ϊ" unicode="&#x3AA;" horiz-adv-x="602" d=" M0,0 M377,0 L183,0 L183,1433 L377,1433 M440,1666 Q440,1644 431,1624.5 Q422,1605 406.5,1590 Q391,1575 370.5,1566.5 Q350,1558 328,1558 Q307,1558 287.5,1566.5 Q268,1575 253,1590 Q238,1605 229,1624.5 Q220,1644 220,1666 Q220,1689 229,1709.5 Q238,1730 253,1745 Q268,1760 287.5,1769 Q307,1778 328,1778 Q350,1778 370.5,1769 Q391,1760 406.5,1745 Q422,1730 431,1709.5 Q440,1689 440,1666 M858,1666 Q858,1644 849,1624.5 Q840,1605 825,1590 Q810,1575 790,1566.5 Q770,1558 748,1558 Q725,1558 705,1566.5 Q685,1575 670,1590 Q655,1605 646.5,1624.5 Q638,1644 638,1666 Q638,1689 646.5,1709.5 Q655,1730 670,1745 Q685,1760 705,1769 Q725,1778 748,1778 Q770,1778 790,1769 Q810,1760 825,1745 Q840,1730 849,1709.5 Q858,1689 858,1666"/> 
            <glyph glyph-name="Ϋ" unicode="&#x3AB;" horiz-adv-x="1246" d=" M2,0 M721,571 L721,0 L527,0 L527,571 L2,1433 L172,1433 Q198,1433 213,1420.5 Q228,1408 239,1388 L567,831 Q585,796 599.5,765.5 Q614,735 625,705 Q636,735 650,765.5 Q664,796 682,831 L1009,1388 Q1018,1405 1034,1419 Q1050,1433 1075,1433 L1246,1433 M527,1666 Q527,1644 518,1624.5 Q509,1605 493.5,1590 Q478,1575 457.5,1566.5 Q437,1558 415,1558 Q394,1558 374.5,1566.5 Q355,1575 340,1590 Q325,1605 316,1624.5 Q307,1644 307,1666 Q307,1689 316,1709.5 Q325,1730 340,1745 Q355,1760 374.5,1769 Q394,1778 415,1778 Q437,1778 457.5,1769 Q478,1760 493.5,1745 Q509,1730 518,1709.5 Q527,1689 527,1666 M945,1666 Q945,1644 936,1624.5 Q927,1605 912,1590 Q897,1575 877,1566.5 Q857,1558 835,1558 Q812,1558 792,1566.5 Q772,1575 757,1590 Q742,1605 733.5,1624.5 Q725,1644 725,1666 Q725,1689 733.5,1709.5 Q742,1730 757,1745 Q772,1760 792,1769 Q812,1778 835,1778 Q857,1778 877,1769 Q897,1760 912,1745 Q927,1730 936,1709.5 Q945,1689 945,1666"/> 
            <glyph glyph-name="ά" unicode="&#x3AC;" horiz-adv-x="1172" d=" M84,0 M1051,-8 Q1012,-8 975.5,3 Q939,14 908,36.5 Q877,59 854,94 Q831,129 819,177 Q787,126 748,90 Q709,54 665.5,31 Q622,8 576,-3 Q530,-14 484,-14 Q400,-14 327,20.5 Q254,55 200,120 Q146,185 115,278 Q84,371 84,489 Q84,613 118.5,713.5 Q153,814 213.5,884.5 Q274,955 355.5,993 Q437,1031 532,1031 Q586,1031 633.5,1018.5 Q681,1006 720.5,984.5 Q760,963 792.5,933.5 Q825,904 849,870 L868,976 Q880,1013 916,1013 L1022,1013 L967,472 Q965,423 960.5,375.5 Q956,328 956,288 Q956,244 968,213.5 Q980,183 1001.5,163 Q1023,143 1051.5,134 Q1080,125 1113,125 L1172,125 L1172,53 Q1172,30 1140,11 Q1108,-8 1051,-8 M526,130 Q576,130 621.5,149.5 Q667,169 703,208.5 Q739,248 763.5,309.5 Q788,371 796,455 L822,709 Q808,745 784.5,778 Q761,811 728.5,836.5 Q696,862 654.5,877 Q613,892 563,892 Q504,892 450.5,868.5 Q397,845 356.5,796 Q316,747 292,672 Q268,597 268,494 Q268,398 289,329.5 Q310,261 345,216.5 Q380,172 427,151 Q474,130 526,130 M477,1148 L545,1493 L656,1493 Q683,1493 693,1475.5 Q703,1458 693,1429 L583,1148"/> 
            <glyph glyph-name="έ" unicode="&#x3AD;" horiz-adv-x="853" d=" M85,0 M790,840 Q779,824 770.5,819 Q762,814 749,814 Q736,814 718,826 Q700,838 671.5,852 Q643,866 601.5,878 Q560,890 501,890 Q445,890 404,878.5 Q363,867 335.5,846.5 Q308,826 294.5,799 Q281,772 281,742 Q281,709 297,681 Q313,653 344,632.5 Q375,612 419,600.5 Q463,589 519,589 L683,589 L683,471 L519,471 Q391,471 328.5,425.5 Q266,380 266,305 Q266,266 282,233 Q298,200 328.5,175.5 Q359,151 402,137.5 Q445,124 499,124 Q565,124 609,139.5 Q653,155 682.5,174 Q712,193 731.5,208.5 Q751,224 769,224 Q791,224 803,207 L853,142 Q820,101 778,72 Q736,43 688.5,24 Q641,5 590,-4 Q539,-13 489,-13 Q406,-13 333,8 Q260,29 204.5,68.5 Q149,108 117,164 Q85,220 85,290 Q85,377 137,438.5 Q189,500 279,532 Q232,550 199.5,575.5 Q167,601 147,631 Q127,661 117.5,693.5 Q108,726 108,758 Q108,811 132.5,860 Q157,909 206,946.5 Q255,984 328,1006.5 Q401,1029 499,1029 Q611,1029 692.5,996 Q774,963 830,909 M438,1148 L506,1493 L617,1493 Q644,1493 654,1475.5 Q664,1458 654,1429 L544,1148"/> 
            <glyph glyph-name="ή" unicode="&#x3AE;" horiz-adv-x="1036" d=" M18,0 M1036,-343 L858,-343 L858,645 Q858,760 805.5,823.5 Q753,887 645,887 Q566,887 497.5,849 Q429,811 371,746 L371,0 L193,0 L193,738 Q193,816 160,852.5 Q127,889 61,889 L18,889 L18,961 Q18,984 39.5,1003 Q61,1022 114,1022 Q196,1022 257,983 Q318,944 341,861 Q410,936 499,982.5 Q588,1029 697,1029 Q781,1029 844,1001.5 Q907,974 950,923.5 Q993,873 1014.5,802 Q1036,731 1036,645 M456,1148 L524,1493 L635,1493 Q662,1493 672,1475.5 Q682,1458 672,1429 L562,1148"/> 
            <glyph glyph-name="ί" unicode="&#x3AF;" horiz-adv-x="533" d=" M134,0 M134,1013 L312,1013 L312,277 Q312,201 345,161.5 Q378,122 451,122 L533,122 L533,66 Q533,47 521,32.5 Q509,18 488.5,8 Q468,-2 441,-7 Q414,-12 383,-12 Q322,-12 275.5,8 Q229,28 197.5,65 Q166,102 150,153.5 Q134,205 134,267 M65706,1148 L65774,1493 L65885,1493 Q65912,1493 65922,1475.5 Q65932,1458 65922,1429 L65812,1148"/> 
            <glyph glyph-name="ΰ" unicode="&#x3B0;" horiz-adv-x="994" d=" M130,0 M309,1013 L309,367 Q309,310 326,265 Q343,220 374.5,189.5 Q406,159 449.5,142.5 Q493,126 547,126 Q596,126 645,146.5 Q694,167 733,215.5 Q772,264 796.5,344 Q821,424 821,543 Q821,646 802.5,747.5 Q784,849 767,952 Q764,985 781,999 Q798,1013 817,1013 L939,1013 Q950,950 960,892.5 Q970,835 977.5,778.5 Q985,722 989.5,664 Q994,606 994,543 Q994,397 956,291 Q918,185 854.5,117 Q791,49 708,16.5 Q625,-16 536,-16 Q440,-16 365,10.5 Q290,37 237.5,86.5 Q185,136 157.5,207 Q130,278 130,367 L130,1013 M482,1154 L550,1499 L661,1499 Q688,1499 697.5,1481.5 Q707,1464 697,1435 L588,1154 M927,1282 Q927,1263 919.5,1246 Q912,1229 899,1216.5 Q886,1204 868.5,1196.5 Q851,1189 832,1189 Q812,1189 795,1196.5 Q778,1204 765,1216.5 Q752,1229 744.5,1246 Q737,1263 737,1282 Q737,1302 744.5,1319.5 Q752,1337 765,1350.5 Q778,1364 795,1371.5 Q812,1379 832,1379 Q851,1379 868.5,1371.5 Q886,1364 899,1350.5 Q912,1337 919.5,1319.5 Q927,1302 927,1282 M425,1282 Q425,1263 417,1246 Q409,1229 396,1216.5 Q383,1204 365,1196.5 Q347,1189 328,1189 Q309,1189 292,1196.5 Q275,1204 262.5,1216.5 Q250,1229 242.5,1246 Q235,1263 235,1282 Q235,1302 242.5,1319.5 Q250,1337 262.5,1350.5 Q275,1364 292,1371.5 Q309,1379 328,1379 Q347,1379 365,1371.5 Q383,1364 396,1350.5 Q409,1337 417,1319.5 Q425,1302 425,1282"/> 
            <glyph glyph-name="α" unicode="&#x3B1;" horiz-adv-x="1172" d=" M1051,-8 Q1012,-8 975.5,3 Q939,14 908,36.5 Q877,59 854,94 Q831,129 819,177 Q787,126 748,90 Q709,54 665.5,31 Q622,8 576,-3 Q530,-14 484,-14 Q400,-14 327,20.5 Q254,55 200,120 Q146,185 115,278 Q84,371 84,489 Q84,613 118.5,713.5 Q153,814 213.5,884.5 Q274,955 355.5,993 Q437,1031 532,1031 Q586,1031 633.5,1018.5 Q681,1006 720.5,984.5 Q760,963 792.5,933.5 Q825,904 849,870 L868,976 Q880,1013 916,1013 L1022,1013 L967,472 Q965,423 960.5,375.5 Q956,328 956,288 Q956,244 968,213.5 Q980,183 1001.5,163 Q1023,143 1051.5,134 Q1080,125 1113,125 L1172,125 L1172,53 Q1172,30 1140,11 Q1108,-8 1051,-8 M526,130 Q576,130 621.5,149.5 Q667,169 703,208.5 Q739,248 763.5,309.5 Q788,371 796,455 L822,709 Q808,745 784.5,778 Q761,811 728.5,836.5 Q696,862 654.5,877 Q613,892 563,892 Q504,892 450.5,868.5 Q397,845 356.5,796 Q316,747 292,672 Q268,597 268,494 Q268,398 289,329.5 Q310,261 345,216.5 Q380,172 427,151 Q474,130 526,130"/> 
            <glyph glyph-name="β" unicode="&#x3B2;" horiz-adv-x="1037" d=" M595,-14 Q507,-14 438.5,14 Q370,42 319,101 L319,-367 L140,-367 L140,912 Q140,1170 243.5,1308.5 Q347,1447 559,1447 Q658,1447 730.5,1418 Q803,1389 851,1341 Q899,1293 922,1230 Q945,1167 945,1099 Q945,984 886.5,905 Q828,826 725,792 Q799,774 857,740 Q915,706 955,658 Q995,610 1016,549 Q1037,488 1037,417 Q1037,330 1005.5,251.5 Q974,173 916,114 Q858,55 776.5,20.5 Q695,-14 595,-14 M515,857 Q572,857 620,869.5 Q668,882 703,909 Q738,936 757.5,979 Q777,1022 777,1084 Q777,1197 718,1256.5 Q659,1316 556,1316 Q495,1316 450.5,1293.5 Q406,1271 376.5,1222 Q347,1173 333,1095 Q319,1017 319,906 L319,248 Q362,185 416.5,155 Q471,125 552,125 Q627,125 684,149 Q741,173 779.5,215 Q818,257 837.5,313 Q857,369 857,434 Q857,511 831.5,564.5 Q806,618 762.5,652 Q719,686 660.5,701 Q602,716 536,716 L475,716 L475,857"/> 
            <glyph glyph-name="γ" unicode="&#x3B3;" horiz-adv-x="1057" d=" M464,-342 L464,86 Q428,255 388,401.5 Q348,548 301.5,655.5 Q255,763 201,824.5 Q147,886 81,886 L43,886 L43,952 Q43,966 47,978 Q51,990 61,999 Q71,1008 89,1013.5 Q107,1019 136,1019 Q227,1019 297,967.5 Q367,916 420.5,816 Q474,716 513.5,569 Q553,422 583,232 Q632,309 673.5,395.5 Q715,482 748,574 Q781,666 807,761.5 Q833,857 852,952 Q857,987 872.5,1000 Q888,1013 907,1013 L1057,1013 Q1028,885 985,762 Q942,639 888.5,521.5 Q835,404 772.5,294 Q710,184 642,83 L642,-342"/> 
            <glyph glyph-name="δ" unicode="&#x3B4;" horiz-adv-x="1022" d=" M889,1297 Q886,1273 874.5,1265 Q863,1257 840,1257 Q827,1257 796,1264 Q765,1271 724,1279 Q683,1287 637.5,1294 Q592,1301 550,1301 Q460,1301 423,1274 Q386,1247 386,1208 Q386,1172 413.5,1141.5 Q441,1111 485.5,1081.5 Q530,1052 587,1020 Q644,988 704,950.5 Q764,913 821,866 Q878,819 922.5,759.5 Q967,700 994.5,624.5 Q1022,549 1022,453 Q1022,349 989,263.5 Q956,178 895,116.5 Q834,55 747,21 Q660,-13 553,-13 Q440,-13 352,23.5 Q264,60 203.5,123.5 Q143,187 111.5,273 Q80,359 80,459 Q80,628 171,746 Q262,864 444,927 Q398,954 357,982.5 Q316,1011 285,1044.5 Q254,1078 236,1117.5 Q218,1157 218,1207 Q218,1257 237.5,1300 Q257,1343 298.5,1375 Q340,1407 405,1425 Q470,1443 561,1443 Q595,1443 638.5,1440.5 Q682,1438 727.5,1433 Q773,1428 818.5,1421 Q864,1414 903,1405 M844,446 Q844,527 820,589.5 Q796,652 756.5,701 Q717,750 665.5,788.5 Q614,827 559,860 Q500,839 447,806 Q394,773 353,725 Q312,677 288,612.5 Q264,548 264,464 Q264,395 281.5,333.5 Q299,272 335,225.5 Q371,179 425.5,151.5 Q480,124 553,124 Q617,124 671,146 Q725,168 763,210 Q801,252 822.5,311.5 Q844,371 844,446"/> 
            <glyph glyph-name="ε" unicode="&#x3B5;" horiz-adv-x="853" d=" M790,840 Q779,824 770.5,819 Q762,814 749,814 Q736,814 718,826 Q700,838 671.5,852 Q643,866 601.5,878 Q560,890 501,890 Q445,890 404,878.5 Q363,867 335.5,846.5 Q308,826 294.5,799 Q281,772 281,742 Q281,709 297,681 Q313,653 344,632.5 Q375,612 419,600.5 Q463,589 519,589 L683,589 L683,471 L519,471 Q391,471 328.5,425.5 Q266,380 266,305 Q266,266 282,233 Q298,200 328.5,175.5 Q359,151 402,137.5 Q445,124 499,124 Q565,124 609,139.5 Q653,155 682.5,174 Q712,193 731.5,208.5 Q751,224 769,224 Q791,224 803,207 L853,142 Q820,101 778,72 Q736,43 688.5,24 Q641,5 590,-4 Q539,-13 489,-13 Q406,-13 333,8 Q260,29 204.5,68.5 Q149,108 117,164 Q85,220 85,290 Q85,377 137,438.5 Q189,500 279,532 Q232,550 199.5,575.5 Q167,601 147,631 Q127,661 117.5,693.5 Q108,726 108,758 Q108,811 132.5,860 Q157,909 206,946.5 Q255,984 328,1006.5 Q401,1029 499,1029 Q611,1029 692.5,996 Q774,963 830,909"/> 
            <glyph glyph-name="ζ" unicode="&#x3B6;" horiz-adv-x="819" d=" M805,1357 Q807,1348 804.5,1336.5 Q802,1325 790.5,1308.5 Q779,1292 757.5,1268.5 Q736,1245 700,1210 Q654,1166 602.5,1116 Q551,1066 501.5,1010.5 Q452,955 407,893.5 Q362,832 328,766.5 Q294,701 274,630.5 Q254,560 254,486 Q254,418 272,370.5 Q290,323 324.5,288.5 Q359,254 409.5,230.5 Q460,207 525,187 Q619,159 676.5,128.5 Q734,98 765.5,65 Q797,32 808,-3.5 Q819,-39 819,-78 Q819,-145 796.5,-207 Q774,-269 736,-331 L598,-276 Q617,-244 635,-201.5 Q653,-159 653,-115 Q653,-96 646,-76 Q639,-56 616.5,-36.5 Q594,-17 551.5,2.5 Q509,22 439,42 Q353,67 287,101 Q221,135 175,183 Q129,231 105.5,296 Q82,361 82,449 Q82,565 121.5,672.5 Q161,780 231.5,884 Q302,988 398.5,1091.5 Q495,1195 608,1303 Q542,1294 469.5,1290 Q397,1286 321,1286 L209,1286 Q169,1286 152.5,1305.5 Q136,1325 136,1345 L136,1433 L789,1433"/> 
            <glyph glyph-name="η" unicode="&#x3B7;" horiz-adv-x="1036" d=" M1036,-343 L858,-343 L858,645 Q858,760 805.5,823.5 Q753,887 645,887 Q566,887 497.5,849 Q429,811 371,746 L371,0 L193,0 L193,738 Q193,816 160,852.5 Q127,889 61,889 L18,889 L18,961 Q18,984 39.5,1003 Q61,1022 114,1022 Q196,1022 257,983 Q318,944 341,861 Q410,936 499,982.5 Q588,1029 697,1029 Q781,1029 844,1001.5 Q907,974 950,923.5 Q993,873 1014.5,802 Q1036,731 1036,645"/> 
            <glyph glyph-name="θ" unicode="&#x3B8;" horiz-adv-x="1081" d=" M598,1449 Q709,1449 798.5,1401.5 Q888,1354 951,1262 Q1014,1170 1047.5,1033 Q1081,896 1081,718 Q1081,538 1047.5,401.5 Q1014,265 951,172.5 Q888,80 798.5,33 Q709,-14 598,-14 Q486,-14 396.5,33 Q307,80 244,172.5 Q181,265 147,401.5 Q113,538 113,718 Q113,896 147,1033 Q181,1170 244,1262 Q307,1354 396.5,1401.5 Q486,1449 598,1449 M598,126 Q742,126 821,257.5 Q900,389 907,666 L287,666 Q294,389 373,257.5 Q452,126 598,126 M598,1310 Q456,1310 377,1182.5 Q298,1055 288,790 L906,790 Q896,1055 817.5,1182.5 Q739,1310 598,1310"/> 
            <glyph glyph-name="ι" unicode="&#x3B9;" horiz-adv-x="533" d=" M134,1013 L312,1013 L312,277 Q312,201 345,161.5 Q378,122 451,122 L533,122 L533,66 Q533,47 521,32.5 Q509,18 488.5,8 Q468,-2 441,-7 Q414,-12 383,-12 Q322,-12 275.5,8 Q229,28 197.5,65 Q166,102 150,153.5 Q134,205 134,267"/> 
            <glyph glyph-name="κ" unicode="&#x3BA;" horiz-adv-x="1005" d=" M141,0 M320,1013 L320,606 L366,606 Q386,606 399.5,611.5 Q413,617 428,634 L748,977 Q762,994 777.5,1003.5 Q793,1013 819,1013 L980,1013 L607,616 Q580,582 549,563 Q567,551 581.5,535.5 Q596,520 609,500 L1005,0 L846,0 Q823,0 806.5,7.5 Q790,15 778,35 L445,450 Q430,471 415.5,477.5 Q401,484 371,484 L320,484 L320,0 L141,0 L141,1013"/> 
            <glyph glyph-name="λ" unicode="&#x3BB;" horiz-adv-x="1081" d=" M437,926 L336,1206 Q325,1236 312,1256.5 Q299,1277 281,1289.5 Q263,1302 238,1307.5 Q213,1313 178,1313 L106,1313 L106,1379 Q106,1393 111,1405 Q116,1417 128.5,1426 Q141,1435 163,1440.5 Q185,1446 219,1446 Q262,1446 302,1438 Q342,1430 377,1410.5 Q412,1391 440,1358 Q468,1325 486,1275 L878,234 Q900,175 931.5,149 Q963,123 1020,123 L1081,123 L1081,51 Q1081,13 1058,1.5 Q1035,-10 990,-10 Q950,-10 911.5,-2.5 Q873,5 838.5,26 Q804,47 775,84 Q746,121 725,180 L543,649 Q535,670 530,689 Q525,708 523,726 Q518,708 512.5,690 Q507,672 499,652 L251,37 Q245,23 231.5,11.5 Q218,0 195,0 L44,0"/> 
            <glyph glyph-name="μ" unicode="&#x3BC;" horiz-adv-x="1189" d=" M319,1013 L319,388 Q321,279 374,216 Q427,153 532,153 Q623,153 691.5,202 Q760,251 806,339 L806,1013 L985,1013 L985,274 Q985,196 1025,160 Q1065,124 1131,124 L1189,124 L1189,52 Q1189,29 1157.5,9.5 Q1126,-10 1069,-10 Q1027,-10 988.5,2 Q950,14 918,39.5 Q886,65 863,103.5 Q840,142 830,195 Q771,105 694,55.5 Q617,6 521,6 Q446,6 390.5,30 Q335,54 297,99 Q303,58 306,15.5 Q309,-27 309,-64 L309,-343 L220,-343 Q182,-343 161.5,-323 Q141,-303 141,-267 L141,1013"/> 
            <glyph glyph-name="ν" unicode="&#x3BD;" horiz-adv-x="996" d=" M996,1013 Q932,729 817,472.5 Q702,216 545,0 L435,0 L22,1013 L168,1013 Q189,1013 203.5,1002 Q218,991 223,976 L480,324 Q502,255 516,189 Q568,268 610,360.5 Q652,453 685.5,552 Q719,651 745,753.5 Q771,856 792,957 Q797,988 812,1000.5 Q827,1013 847,1013"/> 
            <glyph glyph-name="ξ" unicode="&#x3BE;" horiz-adv-x="793" d=" M767,1358 Q767,1326 745,1307 Q723,1288 697,1288 L609,1288 Q541,1288 485.5,1267.5 Q430,1247 390.5,1212 Q351,1177 329,1129 Q307,1081 307,1026 Q307,932 380.5,881 Q454,830 594,830 L682,830 L682,688 L551,688 Q476,688 421,670 Q366,652 330,620 Q294,588 276.5,543 Q259,498 259,443 Q259,387 279,346 Q299,305 339,273.5 Q379,242 437.5,215.5 Q496,189 574,162 Q639,139 681.5,114.5 Q724,90 748.5,62 Q773,34 783,1.5 Q793,-31 793,-69 Q793,-141 770.5,-204.5 Q748,-268 710,-331 L571,-275 Q591,-243 609,-200.5 Q627,-158 627,-115 Q627,-94 621.5,-75 Q616,-56 599.5,-39.5 Q583,-23 553.5,-8 Q524,7 477,21 Q400,43 328.5,75 Q257,107 202,154 Q147,201 114.5,267.5 Q82,334 82,427 Q82,475 94,525 Q106,575 134,621 Q162,667 207,705.5 Q252,744 317,769 Q230,804 186,866.5 Q142,929 142,1014 Q142,1062 158.5,1104.5 Q175,1147 203.5,1182.5 Q232,1218 270.5,1246.5 Q309,1275 354,1297 Q340,1296 325,1296 Q310,1296 294,1296 L164,1296 Q125,1296 108,1314.5 Q91,1333 91,1365 L91,1433 L767,1433"/> 
            <glyph glyph-name="ο" unicode="&#x3BF;" horiz-adv-x="1050" d=" M568,1029 Q679,1029 768,992 Q857,955 920,887 Q983,819 1016.5,722.5 Q1050,626 1050,507 Q1050,387 1016.5,291 Q983,195 920,127 Q857,59 768,22.5 Q679,-14 568,-14 Q456,-14 366.5,22.5 Q277,59 214,127 Q151,195 117.5,291 Q84,387 84,507 Q84,626 117.5,722.5 Q151,819 214,887 Q277,955 366.5,992 Q456,1029 568,1029 M568,125 Q718,125 792,225.5 Q866,326 866,506 Q866,687 792,788 Q718,889 568,889 Q492,889 435.5,863 Q379,837 341.5,788 Q304,739 285.5,667.5 Q267,596 267,506 Q267,326 341.5,225.5 Q416,125 568,125"/> 
            <glyph glyph-name="π" unicode="&#x3C0;" horiz-adv-x="1167" d=" M1167,1003 L1167,919 Q1167,895 1152.5,878.5 Q1138,862 1109,862 L962,862 Q961,805 960,756 Q959,707 959,657 Q959,538 963,452.5 Q967,367 974.5,308 Q982,249 994,213 Q1006,177 1022,158 Q1038,139 1058,132.5 Q1078,126 1103,126 L1141,126 L1141,54 Q1141,25 1107.5,9.5 Q1074,-6 1023,-6 Q964,-6 919.5,14 Q875,34 846,76 Q817,118 802.5,184.5 Q788,251 788,344 Q788,389 791.5,441.5 Q795,494 800.5,557 Q806,620 811,695.5 Q816,771 819,862 L448,862 Q445,690 433.5,558 Q422,426 403,329.5 Q384,233 358.5,168 Q333,103 302,64 Q271,25 235.5,8.5 Q200,-8 161,-8 Q149,-8 136,-6 Q123,-4 111.5,0.5 Q100,5 93,12 Q86,19 86,28 L86,149 L106,149 Q136,149 167,187 Q198,225 224,310 Q250,395 269,531 Q288,667 293,862 L74,862 L74,937 Q74,948 78.5,959.5 Q83,971 92,981 Q101,991 113.5,997 Q126,1003 143,1003"/> 
            <glyph glyph-name="ρ" unicode="&#x3C1;" horiz-adv-x="1041" d=" M128,580 Q128,683 159,766 Q190,849 248,907.5 Q306,966 389.5,997.5 Q473,1029 578,1029 Q674,1029 758.5,995 Q843,961 905.5,895 Q968,829 1004.5,733 Q1041,637 1041,513 Q1041,401 1011,304.5 Q981,208 925,137.5 Q869,67 787.5,26.5 Q706,-14 604,-14 Q513,-14 438,19.5 Q363,53 306,112 L306,-343 L128,-343 M306,263 Q357,191 424.5,157.5 Q492,124 564,124 Q705,124 781,225 Q857,326 857,513 Q857,612 836.5,683 Q816,754 779.5,799.5 Q743,845 691.5,866 Q640,887 578,887 Q521,887 471.5,866.5 Q422,846 385.5,806.5 Q349,767 327.5,710 Q306,653 306,580"/> 
            <glyph glyph-name="ς" unicode="&#x3C2;" horiz-adv-x="892" d=" M845,833 Q837,822 829,816 Q821,810 807,810 Q792,810 774,822.5 Q756,835 729.5,850 Q703,865 664.5,877.5 Q626,890 570,890 Q495,890 438,864 Q381,838 342.5,792.5 Q304,747 284.5,685.5 Q265,624 265,553 Q265,455 290.5,393 Q316,331 364,289 Q412,247 481.5,219 Q551,191 639,162 Q705,139 747,114 Q789,89 814,61 Q839,33 848.5,0.5 Q858,-32 858,-69 Q858,-141 835.5,-205 Q813,-269 775,-331 L636,-276 Q656,-244 674.5,-201.5 Q693,-159 693,-116 Q693,-95 687,-76 Q681,-57 664.5,-40 Q648,-23 618.5,-8 Q589,7 542,21 Q447,49 363.5,85 Q280,121 217.5,178.5 Q155,236 118.5,323.5 Q82,411 82,543 Q82,643 113.5,731.5 Q145,820 205.5,886 Q266,952 355,990.5 Q444,1029 559,1029 Q666,1029 747.5,994.5 Q829,960 892,897"/> 
            <glyph glyph-name="σ" unicode="&#x3C3;" horiz-adv-x="1187" d=" M887,870 Q964,814 1006.5,720.5 Q1049,627 1049,497 Q1049,384 1016,290.5 Q983,197 921,129 Q859,61 770,23.5 Q681,-14 569,-14 Q460,-14 370.5,20.5 Q281,55 217.5,121 Q154,187 119,281.5 Q84,376 84,496 Q84,615 120,710 Q156,805 226.5,871 Q297,937 400.5,972.5 Q504,1008 638,1008 L1187,1008 L1187,924 Q1187,915 1183,905.5 Q1179,896 1171.5,888 Q1164,880 1153,875 Q1142,870 1128,870 M866,504 Q866,570 855,630 Q844,690 822.5,738.5 Q801,787 767.5,821 Q734,855 689,870 L638,870 Q539,870 468.5,845 Q398,820 353,772 Q308,724 287.5,653.5 Q267,583 267,492 Q267,312 344.5,218.5 Q422,125 568,125 Q719,125 792.5,222.5 Q866,320 866,504"/> 
            <glyph glyph-name="τ" unicode="&#x3C4;" horiz-adv-x="900" d=" M26,945 Q26,968 41.5,985.5 Q57,1003 87,1003 L900,1003 L900,932 Q900,901 883.5,884 Q867,867 836,867 L517,867 L517,281 Q517,205 550,165.5 Q583,126 656,126 L738,126 L738,71 Q738,52 726,37.5 Q714,23 693.5,13 Q673,3 646,-2 Q619,-7 588,-7 Q527,-7 480.5,13 Q434,33 402.5,70 Q371,107 355,158 Q339,209 339,271 L339,867 L26,867"/> 
            <glyph glyph-name="υ" unicode="&#x3C5;" horiz-adv-x="994" d=" M309,1013 L309,367 Q309,310 326,265 Q343,220 374.5,189.5 Q406,159 449.5,142.5 Q493,126 547,126 Q596,126 645,146.5 Q694,167 733,215.5 Q772,264 796.5,344 Q821,424 821,543 Q821,646 802.5,747.5 Q784,849 767,952 Q764,985 781,999 Q798,1013 817,1013 L939,1013 Q950,950 960,892.5 Q970,835 977.5,778.5 Q985,722 989.5,664 Q994,606 994,543 Q994,397 956,291 Q918,185 854.5,117 Q791,49 708,16.5 Q625,-16 536,-16 Q440,-16 365,10.5 Q290,37 237.5,86.5 Q185,136 157.5,207 Q130,278 130,367 L130,1013"/> 
            <glyph glyph-name="φ" unicode="&#x3C6;" horiz-adv-x="1392" d=" M260,506 Q260,424 285,354 Q310,284 359,232.5 Q408,181 480.5,151 Q553,121 649,120 L649,714 Q649,877 730,953 Q811,1029 956,1029 Q1053,1029 1133,991 Q1213,953 1270.5,887 Q1328,821 1360,731 Q1392,641 1392,537 Q1392,414 1351.5,312.5 Q1311,211 1236,139 Q1161,67 1054.5,27 Q948,-13 816,-14 L816,-342 L649,-342 L649,-14 Q518,-13 412.5,27 Q307,67 233.5,136.5 Q160,206 120.5,300.5 Q81,395 81,507 Q81,597 106.5,676.5 Q132,756 178.5,822 Q225,888 290.5,938.5 Q356,989 436,1022 L481,950 Q494,929 486,905.5 Q478,882 462,875 Q364,824 312,727.5 Q260,631 260,506 M816,120 Q914,121 988,151 Q1062,181 1112,235.5 Q1162,290 1187.5,366.5 Q1213,443 1213,537 Q1213,616 1191.5,681.5 Q1170,747 1134.5,794.5 Q1099,842 1052.5,868.5 Q1006,895 956,895 Q889,895 852.5,852.5 Q816,810 816,714"/> 
            <glyph glyph-name="χ" unicode="&#x3C7;" horiz-adv-x="977" d=" M460,235 Q455,205 447.5,176.5 Q440,148 432,126 L218,-303 Q213,-317 200,-328.5 Q187,-340 164,-340 L37,-340 L380,371 L198,783 Q184,813 170,833 Q156,853 137,866 Q118,879 93,884.5 Q68,890 33,890 L-2,890 L-2,957 Q-2,971 -1,983 Q0,995 6.5,1004 Q13,1013 28.5,1018.5 Q44,1024 74,1024 Q175,1024 241,985 Q307,946 348,852 L518,467 Q523,496 530.5,524.5 Q538,553 546,575 L740,976 Q746,990 758.5,1001.5 Q771,1013 794,1013 L921,1013 L596,334 L795,-113 Q821,-171 852.5,-197 Q884,-223 941,-223 L977,-223 L977,-295 Q977,-314 973.5,-326 Q970,-338 962,-345 Q954,-352 939.5,-354.5 Q925,-357 903,-357 Q862,-357 825,-349.5 Q788,-342 755,-321 Q722,-300 692.5,-263 Q663,-226 638,-166"/> 
            <glyph glyph-name="ψ" unicode="&#x3C8;" horiz-adv-x="1416" d=" M854,1433 L854,129 Q934,136 1004,160.5 Q1074,185 1126,233 Q1178,281 1208,357 Q1238,433 1238,543 Q1238,613 1231.5,668.5 Q1225,724 1216.5,771.5 Q1208,819 1199,862 Q1190,905 1184,952 Q1183,985 1199,999 Q1215,1013 1234,1013 L1361,1013 Q1373,950 1383.5,892.5 Q1394,835 1401,778.5 Q1408,722 1412,664 Q1416,606 1416,543 Q1416,394 1370,291.5 Q1324,189 1247,124.5 Q1170,60 1068,28 Q966,-4 854,-12 L854,-342 L676,-342 L676,-13 Q404,3 265,130 Q126,257 126,476 L126,1013 L249,1013 Q260,1013 270,1006 Q280,999 287.5,988.5 Q295,978 299.5,966 Q304,954 304,943 L304,476 Q304,399 329.5,339 Q355,279 403,235.5 Q451,192 520,165.5 Q589,139 676,130 L676,1433"/> 
            <glyph glyph-name="ω" unicode="&#x3C9;" horiz-adv-x="1440" d=" M495,126 Q540,126 574,146.5 Q608,167 630,204 Q652,241 663,293 Q674,345 674,408 L674,677 L853,677 L853,408 Q853,345 864,293 Q875,241 897.5,204 Q920,167 954,146.5 Q988,126 1033,126 Q1069,126 1109,142.5 Q1149,159 1182.5,201 Q1216,243 1238.5,316 Q1261,389 1261,502 Q1261,562 1247.5,625 Q1234,688 1214.5,746 Q1195,804 1172.5,852.5 Q1150,901 1132,933 Q1123,955 1125,970 Q1127,985 1135,994.5 Q1143,1004 1154.5,1008.5 Q1166,1013 1175,1013 L1301,1013 Q1361,896 1400.5,768 Q1440,640 1440,502 Q1440,382 1411,286.5 Q1382,191 1330.5,123.5 Q1279,56 1208,20 Q1137,-16 1054,-16 Q1000,-16 955.5,-3 Q911,10 874.5,34 Q838,58 810,91 Q782,124 762,164 Q742,124 714,91 Q686,58 650,34 Q614,10 570,-3 Q526,-16 474,-16 Q391,-16 320,20 Q249,56 197.5,123.5 Q146,191 117,286.5 Q88,382 88,502 Q88,640 127,768 Q166,896 226,1013 L353,1013 Q362,1013 373.5,1008.5 Q385,1004 392.5,994.5 Q400,985 402,970 Q404,955 395,933 Q377,901 354.5,852.5 Q332,804 312.5,746 Q293,688 279.5,625 Q266,562 266,502 Q266,389 288.5,316 Q311,243 344.5,201 Q378,159 418.5,142.5 Q459,126 495,126"/> 
            <glyph glyph-name="ϊ" unicode="&#x3CA;" horiz-adv-x="533" d=" M0,0 M134,1013 L312,1013 L312,277 Q312,201 345,161.5 Q378,122 451,122 L533,122 L533,66 Q533,47 521,32.5 Q509,18 488.5,8 Q468,-2 441,-7 Q414,-12 383,-12 Q322,-12 275.5,8 Q229,28 197.5,65 Q166,102 150,153.5 Q134,205 134,267 M65682,1289 Q65682,1266 65673,1246 Q65664,1226 65648,1211 Q65632,1196 65611.5,1187 Q65591,1178 65568,1178 Q65546,1178 65526,1187 Q65506,1196 65490.5,1211 Q65475,1226 65466,1246 Q65457,1266 65457,1289 Q65457,1312 65466,1333 Q65475,1354 65490.5,1369.5 Q65506,1385 65526,1394 Q65546,1403 65568,1403 Q65591,1403 65611.5,1394 Q65632,1385 65648,1369.5 Q65664,1354 65673,1333 Q65682,1312 65682,1289 M66063,1289 Q66063,1266 66054,1246 Q66045,1226 66029.5,1211 Q66014,1196 65993.5,1187 Q65973,1178 65950,1178 Q65927,1178 65906.5,1187 Q65886,1196 65871,1211 Q65856,1226 65847,1246 Q65838,1266 65838,1289 Q65838,1312 65847,1333 Q65856,1354 65871,1369.5 Q65886,1385 65906.5,1394 Q65927,1403 65950,1403 Q65973,1403 65993.5,1394 Q66014,1385 66029.5,1369.5 Q66045,1354 66054,1333 Q66063,1312 66063,1289"/> 
            <glyph glyph-name="ϋ" unicode="&#x3CB;" horiz-adv-x="994" d=" M130,0 M309,1013 L309,367 Q309,310 326,265 Q343,220 374.5,189.5 Q406,159 449.5,142.5 Q493,126 547,126 Q596,126 645,146.5 Q694,167 733,215.5 Q772,264 796.5,344 Q821,424 821,543 Q821,646 802.5,747.5 Q784,849 767,952 Q764,985 781,999 Q798,1013 817,1013 L939,1013 Q950,950 960,892.5 Q970,835 977.5,778.5 Q985,722 989.5,664 Q994,606 994,543 Q994,397 956,291 Q918,185 854.5,117 Q791,49 708,16.5 Q625,-16 536,-16 Q440,-16 365,10.5 Q290,37 237.5,86.5 Q185,136 157.5,207 Q130,278 130,367 L130,1013 M461,1289 Q461,1266 452,1246 Q443,1226 427,1211 Q411,1196 390.5,1187 Q370,1178 347,1178 Q325,1178 305,1187 Q285,1196 269.5,1211 Q254,1226 245,1246 Q236,1266 236,1289 Q236,1312 245,1333 Q254,1354 269.5,1369.5 Q285,1385 305,1394 Q325,1403 347,1403 Q370,1403 390.5,1394 Q411,1385 427,1369.5 Q443,1354 452,1333 Q461,1312 461,1289 M842,1289 Q842,1266 833,1246 Q824,1226 808.5,1211 Q793,1196 772.5,1187 Q752,1178 729,1178 Q706,1178 685.5,1187 Q665,1196 650,1211 Q635,1226 626,1246 Q617,1266 617,1289 Q617,1312 626,1333 Q635,1354 650,1369.5 Q665,1385 685.5,1394 Q706,1403 729,1403 Q752,1403 772.5,1394 Q793,1385 808.5,1369.5 Q824,1354 833,1333 Q842,1312 842,1289"/> 
            <glyph glyph-name="ό" unicode="&#x3CC;" horiz-adv-x="1050" d=" M84,0 M568,1029 Q679,1029 768,992 Q857,955 920,887 Q983,819 1016.5,722.5 Q1050,626 1050,507 Q1050,387 1016.5,291 Q983,195 920,127 Q857,59 768,22.5 Q679,-14 568,-14 Q456,-14 366.5,22.5 Q277,59 214,127 Q151,195 117.5,291 Q84,387 84,507 Q84,626 117.5,722.5 Q151,819 214,887 Q277,955 366.5,992 Q456,1029 568,1029 M568,125 Q718,125 792,225.5 Q866,326 866,506 Q866,687 792,788 Q718,889 568,889 Q492,889 435.5,863 Q379,837 341.5,788 Q304,739 285.5,667.5 Q267,596 267,506 Q267,326 341.5,225.5 Q416,125 568,125 M514,1148 L582,1493 L693,1493 Q720,1493 730,1475.5 Q740,1458 730,1429 L620,1148"/> 
            <glyph glyph-name="ύ" unicode="&#x3CD;" horiz-adv-x="994" d=" M130,0 M309,1013 L309,367 Q309,310 326,265 Q343,220 374.5,189.5 Q406,159 449.5,142.5 Q493,126 547,126 Q596,126 645,146.5 Q694,167 733,215.5 Q772,264 796.5,344 Q821,424 821,543 Q821,646 802.5,747.5 Q784,849 767,952 Q764,985 781,999 Q798,1013 817,1013 L939,1013 Q950,950 960,892.5 Q970,835 977.5,778.5 Q985,722 989.5,664 Q994,606 994,543 Q994,397 956,291 Q918,185 854.5,117 Q791,49 708,16.5 Q625,-16 536,-16 Q440,-16 365,10.5 Q290,37 237.5,86.5 Q185,136 157.5,207 Q130,278 130,367 L130,1013 M484,1148 L552,1493 L663,1493 Q690,1493 700,1475.5 Q710,1458 700,1429 L590,1148"/> 
            <glyph glyph-name="ώ" unicode="&#x3CE;" horiz-adv-x="1440" d=" M88,0 M495,126 Q540,126 574,146.5 Q608,167 630,204 Q652,241 663,293 Q674,345 674,408 L674,677 L853,677 L853,408 Q853,345 864,293 Q875,241 897.5,204 Q920,167 954,146.5 Q988,126 1033,126 Q1069,126 1109,142.5 Q1149,159 1182.5,201 Q1216,243 1238.5,316 Q1261,389 1261,502 Q1261,562 1247.5,625 Q1234,688 1214.5,746 Q1195,804 1172.5,852.5 Q1150,901 1132,933 Q1123,955 1125,970 Q1127,985 1135,994.5 Q1143,1004 1154.5,1008.5 Q1166,1013 1175,1013 L1301,1013 Q1361,896 1400.5,768 Q1440,640 1440,502 Q1440,382 1411,286.5 Q1382,191 1330.5,123.5 Q1279,56 1208,20 Q1137,-16 1054,-16 Q1000,-16 955.5,-3 Q911,10 874.5,34 Q838,58 810,91 Q782,124 762,164 Q742,124 714,91 Q686,58 650,34 Q614,10 570,-3 Q526,-16 474,-16 Q391,-16 320,20 Q249,56 197.5,123.5 Q146,191 117,286.5 Q88,382 88,502 Q88,640 127,768 Q166,896 226,1013 L353,1013 Q362,1013 373.5,1008.5 Q385,1004 392.5,994.5 Q400,985 402,970 Q404,955 395,933 Q377,901 354.5,852.5 Q332,804 312.5,746 Q293,688 279.5,625 Q266,562 266,502 Q266,389 288.5,316 Q311,243 344.5,201 Q378,159 418.5,142.5 Q459,126 495,126 M708,1148 L776,1493 L887,1493 Q914,1493 924,1475.5 Q934,1458 924,1429 L814,1148"/> 
            <glyph glyph-name="ϐ" unicode="&#x3D0;" horiz-adv-x="1053" d=" M113,0 M977,1167 Q977,1079 924,1004 Q871,929 749,860 Q821,859 877.5,831.5 Q934,804 973,754.5 Q1012,705 1032.5,636.5 Q1053,568 1053,487 Q1053,370 1015,277 Q977,184 911,119.5 Q845,55 756.5,20.5 Q668,-14 568,-14 Q452,-14 366.5,31 Q281,76 224.5,161 Q168,246 140.5,367 Q113,488 113,640 Q113,839 154.5,990.5 Q196,1142 269.5,1244 Q343,1346 443,1397.5 Q543,1449 661,1449 Q746,1449 806,1424.5 Q866,1400 904,1360 Q942,1320 959.5,1269.5 Q977,1219 977,1167 M287,613 Q290,486 309.5,394.5 Q329,303 365.5,243.5 Q402,184 454.5,155.5 Q507,127 575,127 Q641,127 696.5,152.5 Q752,178 793,225.5 Q834,273 857,339.5 Q880,406 880,488 Q880,569 855,627.5 Q830,686 783.5,716 Q737,746 670,745 Q603,744 519,707 M642,1309 Q575,1309 514.5,1277.5 Q454,1246 407,1178.5 Q360,1111 329,1006 Q298,901 290,753 L530,850 Q610,884 663,921.5 Q716,959 747.5,998.5 Q779,1038 792,1078 Q805,1118 805,1157 Q805,1229 764,1269 Q723,1309 642,1309"/> 
            </font>
</defs>
</svg>
